/home/lacruz/Documents/dev/git/ear-trainer-v2/build/../resources/Sonic Generations - Seaside Hills (Modern).mid
HEADER MThd                
HEADER Size 0006
MIDI FORMAT  0001
NUMBER OF TRACKS  0004
DIVISION  01e0
MTrk


EVENT TIME           0
META EVENT           TRACK NAME           text: Piano 1 - Right     
EVENT TIME           0
CHANNEL              04
BASIC MIDI EVENT     PROG_CHANGE           program: 00
EVENT TIME           0
META EVENT           SET TEMPO            tempo: 5b8d8
EVENT TIME           0
META EVENT           TIME_SIGNATURE       num: 04, den: 02, clock: 18, byte: 08
EVENT TIME           2490
CHANNEL              04
BASIC MIDI EVENT     NOTE ON               note: 52 velocity: 48
EVENT TIME           0
CHANNEL              04
BASIC MIDI EVENT     NOTE ON               note: 4d velocity: 48
EVENT TIME           f0
CHANNEL              04
BASIC MIDI EVENT     NOTE OFF              note: 52 velocity: 40
EVENT TIME           0
CHANNEL              04
BASIC MIDI EVENT     NOTE OFF              note: 4d velocity: 40
EVENT TIME           f0
CHANNEL              04
BASIC MIDI EVENT     NOTE ON               note: 51 velocity: 48
EVENT TIME           1e0
CHANNEL              04
BASIC MIDI EVENT     NOTE OFF              note: 51 velocity: 40
EVENT TIME           0
CHANNEL              04
BASIC MIDI EVENT     NOTE ON               note: 4a velocity: 48
EVENT TIME           0
CHANNEL              04
BASIC MIDI EVENT     NOTE ON               note: 4d velocity: 48
EVENT TIME           1e0
CHANNEL              04
BASIC MIDI EVENT     NOTE OFF              note: 4a velocity: 40
EVENT TIME           0
CHANNEL              04
BASIC MIDI EVENT     NOTE OFF              note: 4d velocity: 40
EVENT TIME           0
CHANNEL              04
BASIC MIDI EVENT     NOTE ON               note: 4a velocity: 48
EVENT TIME           2d0
CHANNEL              04
BASIC MIDI EVENT     NOTE OFF              note: 4a velocity: 40
EVENT TIME           2940
CHANNEL              04
BASIC MIDI EVENT     NOTE ON               note: 43 velocity: 48
EVENT TIME           78
CHANNEL              04
BASIC MIDI EVENT     NOTE OFF              note: 43 velocity: 40
EVENT TIME           0
CHANNEL              04
BASIC MIDI EVENT     NOTE ON               note: 45 velocity: 48
EVENT TIME           78
CHANNEL              04
BASIC MIDI EVENT     NOTE OFF              note: 45 velocity: 40
EVENT TIME           0
CHANNEL              04
BASIC MIDI EVENT     NOTE ON               note: 47 velocity: 48
EVENT TIME           78
CHANNEL              04
BASIC MIDI EVENT     NOTE OFF              note: 47 velocity: 40
EVENT TIME           0
CHANNEL              04
BASIC MIDI EVENT     NOTE ON               note: 49 velocity: 48
EVENT TIME           78
CHANNEL              04
BASIC MIDI EVENT     NOTE OFF              note: 49 velocity: 40
EVENT TIME           0
CHANNEL              04
BASIC MIDI EVENT     NOTE ON               note: 45 velocity: 48
EVENT TIME           78
CHANNEL              04
BASIC MIDI EVENT     NOTE OFF              note: 45 velocity: 40
EVENT TIME           0
CHANNEL              04
BASIC MIDI EVENT     NOTE ON               note: 47 velocity: 48
EVENT TIME           78
CHANNEL              04
BASIC MIDI EVENT     NOTE OFF              note: 47 velocity: 40
EVENT TIME           0
CHANNEL              04
BASIC MIDI EVENT     NOTE ON               note: 49 velocity: 48
EVENT TIME           78
CHANNEL              04
BASIC MIDI EVENT     NOTE OFF              note: 49 velocity: 40
EVENT TIME           0
CHANNEL              04
BASIC MIDI EVENT     NOTE ON               note: 4a velocity: 48
EVENT TIME           78
CHANNEL              04
BASIC MIDI EVENT     NOTE OFF              note: 4a velocity: 40
EVENT TIME           0
CHANNEL              04
BASIC MIDI EVENT     NOTE ON               note: 4c velocity: 48
EVENT TIME           780
CHANNEL              04
BASIC MIDI EVENT     NOTE OFF              note: 4c velocity: 40
EVENT TIME           0
CHANNEL              04
BASIC MIDI EVENT     NOTE ON               note: 4e velocity: 48
EVENT TIME           2d0
CHANNEL              04
BASIC MIDI EVENT     NOTE OFF              note: 4e velocity: 40
EVENT TIME           0
CHANNEL              04
BASIC MIDI EVENT     NOTE ON               note: 47 velocity: 48
EVENT TIME           f0
CHANNEL              04
BASIC MIDI EVENT     NOTE OFF              note: 47 velocity: 40
EVENT TIME           f0
CHANNEL              04
BASIC MIDI EVENT     NOTE ON               note: 4a velocity: 48
EVENT TIME           f0
CHANNEL              04
BASIC MIDI EVENT     NOTE OFF              note: 4a velocity: 40
EVENT TIME           1e0
CHANNEL              04
BASIC MIDI EVENT     NOTE ON               note: 47 velocity: 48
EVENT TIME           3c0
CHANNEL              04
BASIC MIDI EVENT     NOTE OFF              note: 47 velocity: 40
EVENT TIME           0
CHANNEL              04
BASIC MIDI EVENT     NOTE ON               note: 4a velocity: 48
EVENT TIME           2d0
CHANNEL              04
BASIC MIDI EVENT     NOTE OFF              note: 4a velocity: 40
EVENT TIME           0
CHANNEL              04
BASIC MIDI EVENT     NOTE ON               note: 49 velocity: 48
EVENT TIME           f0
CHANNEL              04
BASIC MIDI EVENT     NOTE OFF              note: 49 velocity: 40
EVENT TIME           1e0
CHANNEL              04
BASIC MIDI EVENT     NOTE ON               note: 45 velocity: 48
EVENT TIME           0
CHANNEL              04
BASIC MIDI EVENT     NOTE ON               note: 4c velocity: 48
EVENT TIME           1e0
CHANNEL              04
BASIC MIDI EVENT     NOTE OFF              note: 45 velocity: 40
EVENT TIME           0
CHANNEL              04
BASIC MIDI EVENT     NOTE OFF              note: 4c velocity: 40
EVENT TIME           0
CHANNEL              04
BASIC MIDI EVENT     NOTE ON               note: 47 velocity: 48
EVENT TIME           0
CHANNEL              04
BASIC MIDI EVENT     NOTE ON               note: 4a velocity: 48
EVENT TIME           1e0
CHANNEL              04
BASIC MIDI EVENT     NOTE OFF              note: 47 velocity: 40
EVENT TIME           0
CHANNEL              04
BASIC MIDI EVENT     NOTE OFF              note: 4a velocity: 40
EVENT TIME           0
CHANNEL              04
BASIC MIDI EVENT     NOTE ON               note: 45 velocity: 48
EVENT TIME           0
CHANNEL              04
BASIC MIDI EVENT     NOTE ON               note: 49 velocity: 48
EVENT TIME           1e0
CHANNEL              04
BASIC MIDI EVENT     NOTE OFF              note: 45 velocity: 40
EVENT TIME           0
CHANNEL              04
BASIC MIDI EVENT     NOTE OFF              note: 49 velocity: 40
EVENT TIME           0
CHANNEL              04
BASIC MIDI EVENT     NOTE ON               note: 4a velocity: 48
EVENT TIME           3c0
CHANNEL              04
BASIC MIDI EVENT     NOTE OFF              note: 4a velocity: 40
EVENT TIME           1680
CHANNEL              04
BASIC MIDI EVENT     NOTE ON               note: 43 velocity: 48
EVENT TIME           78
CHANNEL              04
BASIC MIDI EVENT     NOTE OFF              note: 43 velocity: 40
EVENT TIME           0
CHANNEL              04
BASIC MIDI EVENT     NOTE ON               note: 45 velocity: 48
EVENT TIME           78
CHANNEL              04
BASIC MIDI EVENT     NOTE OFF              note: 45 velocity: 40
EVENT TIME           0
CHANNEL              04
BASIC MIDI EVENT     NOTE ON               note: 47 velocity: 48
EVENT TIME           78
CHANNEL              04
BASIC MIDI EVENT     NOTE OFF              note: 47 velocity: 40
EVENT TIME           0
CHANNEL              04
BASIC MIDI EVENT     NOTE ON               note: 49 velocity: 48
EVENT TIME           78
CHANNEL              04
BASIC MIDI EVENT     NOTE OFF              note: 49 velocity: 40
EVENT TIME           0
CHANNEL              04
BASIC MIDI EVENT     NOTE ON               note: 45 velocity: 48
EVENT TIME           78
CHANNEL              04
BASIC MIDI EVENT     NOTE OFF              note: 45 velocity: 40
EVENT TIME           0
CHANNEL              04
BASIC MIDI EVENT     NOTE ON               note: 47 velocity: 48
EVENT TIME           78
CHANNEL              04
BASIC MIDI EVENT     NOTE OFF              note: 47 velocity: 40
EVENT TIME           0
CHANNEL              04
BASIC MIDI EVENT     NOTE ON               note: 49 velocity: 48
EVENT TIME           78
CHANNEL              04
BASIC MIDI EVENT     NOTE OFF              note: 49 velocity: 40
EVENT TIME           0
CHANNEL              04
BASIC MIDI EVENT     NOTE ON               note: 4a velocity: 48
EVENT TIME           78
CHANNEL              04
BASIC MIDI EVENT     NOTE OFF              note: 4a velocity: 40
EVENT TIME           0
CHANNEL              04
BASIC MIDI EVENT     NOTE ON               note: 4c velocity: 48
EVENT TIME           780
CHANNEL              04
BASIC MIDI EVENT     NOTE OFF              note: 4c velocity: 40
EVENT TIME           0
CHANNEL              04
BASIC MIDI EVENT     NOTE ON               note: 4e velocity: 48
EVENT TIME           3c0
CHANNEL              04
BASIC MIDI EVENT     NOTE OFF              note: 4e velocity: 40
EVENT TIME           0
CHANNEL              04
BASIC MIDI EVENT     NOTE ON               note: 47 velocity: 48
EVENT TIME           f0
CHANNEL              04
BASIC MIDI EVENT     NOTE OFF              note: 47 velocity: 40
EVENT TIME           0
CHANNEL              04
BASIC MIDI EVENT     NOTE ON               note: 51 velocity: 48
EVENT TIME           1e0
CHANNEL              04
BASIC MIDI EVENT     NOTE OFF              note: 51 velocity: 40
EVENT TIME           0
CHANNEL              04
BASIC MIDI EVENT     NOTE ON               note: 4a velocity: 48
EVENT TIME           f0
CHANNEL              04
BASIC MIDI EVENT     NOTE OFF              note: 4a velocity: 40
EVENT TIME           0
CHANNEL              04
BASIC MIDI EVENT     NOTE ON               note: 47 velocity: 48
EVENT TIME           2d0
CHANNEL              04
BASIC MIDI EVENT     NOTE OFF              note: 47 velocity: 40
EVENT TIME           0
CHANNEL              04
BASIC MIDI EVENT     NOTE ON               note: 43 velocity: 48
EVENT TIME           f0
CHANNEL              04
BASIC MIDI EVENT     NOTE OFF              note: 43 velocity: 40
EVENT TIME           f0
CHANNEL              04
BASIC MIDI EVENT     NOTE ON               note: 4a velocity: 48
EVENT TIME           f0
CHANNEL              04
BASIC MIDI EVENT     NOTE OFF              note: 4a velocity: 40
EVENT TIME           f0
CHANNEL              04
BASIC MIDI EVENT     NOTE ON               note: 49 velocity: 48
EVENT TIME           f0
CHANNEL              04
BASIC MIDI EVENT     NOTE OFF              note: 49 velocity: 40
EVENT TIME           1e0
CHANNEL              04
BASIC MIDI EVENT     NOTE ON               note: 4c velocity: 48
EVENT TIME           0
CHANNEL              04
BASIC MIDI EVENT     NOTE ON               note: 45 velocity: 48
EVENT TIME           1e0
CHANNEL              04
BASIC MIDI EVENT     NOTE OFF              note: 4c velocity: 40
EVENT TIME           0
CHANNEL              04
BASIC MIDI EVENT     NOTE OFF              note: 45 velocity: 40
EVENT TIME           0
CHANNEL              04
BASIC MIDI EVENT     NOTE ON               note: 4a velocity: 48
EVENT TIME           0
CHANNEL              04
BASIC MIDI EVENT     NOTE ON               note: 47 velocity: 48
EVENT TIME           1e0
CHANNEL              04
BASIC MIDI EVENT     NOTE OFF              note: 4a velocity: 40
EVENT TIME           0
CHANNEL              04
BASIC MIDI EVENT     NOTE OFF              note: 47 velocity: 40
EVENT TIME           0
CHANNEL              04
BASIC MIDI EVENT     NOTE ON               note: 49 velocity: 48
EVENT TIME           0
CHANNEL              04
BASIC MIDI EVENT     NOTE ON               note: 45 velocity: 48
EVENT TIME           1e0
CHANNEL              04
BASIC MIDI EVENT     NOTE OFF              note: 49 velocity: 40
EVENT TIME           0
CHANNEL              04
BASIC MIDI EVENT     NOTE OFF              note: 45 velocity: 40
EVENT TIME           0
CHANNEL              04
BASIC MIDI EVENT     NOTE ON               note: 4a velocity: 48
EVENT TIME           780
CHANNEL              04
BASIC MIDI EVENT     NOTE OFF              note: 4a velocity: 40
EVENT TIME           5640
CHANNEL              04
BASIC MIDI EVENT     NOTE ON               note: 50 velocity: 48
EVENT TIME           0
CHANNEL              04
BASIC MIDI EVENT     NOTE ON               note: 5c velocity: 48
EVENT TIME           1e0
CHANNEL              04
BASIC MIDI EVENT     NOTE OFF              note: 50 velocity: 40
EVENT TIME           0
CHANNEL              04
BASIC MIDI EVENT     NOTE OFF              note: 5c velocity: 40
EVENT TIME           0
CHANNEL              04
BASIC MIDI EVENT     NOTE ON               note: 51 velocity: 48
EVENT TIME           0
CHANNEL              04
BASIC MIDI EVENT     NOTE ON               note: 5d velocity: 48
EVENT TIME           f0
CHANNEL              04
BASIC MIDI EVENT     NOTE OFF              note: 51 velocity: 40
EVENT TIME           0
CHANNEL              04
BASIC MIDI EVENT     NOTE OFF              note: 5d velocity: 40
EVENT TIME           0
CHANNEL              04
BASIC MIDI EVENT     NOTE ON               note: 4c velocity: 48
EVENT TIME           0
CHANNEL              04
BASIC MIDI EVENT     NOTE ON               note: 58 velocity: 48
EVENT TIME           f0
CHANNEL              04
BASIC MIDI EVENT     NOTE OFF              note: 4c velocity: 40
EVENT TIME           0
CHANNEL              04
BASIC MIDI EVENT     NOTE OFF              note: 58 velocity: 40
EVENT TIME           f0
CHANNEL              04
BASIC MIDI EVENT     NOTE ON               note: 47 velocity: 48
EVENT TIME           0
CHANNEL              04
BASIC MIDI EVENT     NOTE ON               note: 53 velocity: 48
EVENT TIME           f0
CHANNEL              04
BASIC MIDI EVENT     NOTE OFF              note: 47 velocity: 40
EVENT TIME           0
CHANNEL              04
BASIC MIDI EVENT     NOTE OFF              note: 53 velocity: 40
EVENT TIME           f0
CHANNEL              04
BASIC MIDI EVENT     NOTE ON               note: 45 velocity: 48
EVENT TIME           0
CHANNEL              04
BASIC MIDI EVENT     NOTE ON               note: 51 velocity: 48
EVENT TIME           f0
CHANNEL              04
BASIC MIDI EVENT     NOTE OFF              note: 45 velocity: 40
EVENT TIME           0
CHANNEL              04
BASIC MIDI EVENT     NOTE OFF              note: 51 velocity: 40
EVENT TIME           f0
CHANNEL              04
BASIC MIDI EVENT     NOTE ON               note: 44 velocity: 48
EVENT TIME           0
CHANNEL              04
BASIC MIDI EVENT     NOTE ON               note: 50 velocity: 48
EVENT TIME           f0
CHANNEL              04
BASIC MIDI EVENT     NOTE OFF              note: 44 velocity: 40
EVENT TIME           0
CHANNEL              04
BASIC MIDI EVENT     NOTE OFF              note: 50 velocity: 40
EVENT TIME           0
CHANNEL              04
BASIC MIDI EVENT     NOTE ON               note: 40 velocity: 48
EVENT TIME           0
CHANNEL              04
BASIC MIDI EVENT     NOTE ON               note: 4c velocity: 48
EVENT TIME           f0
CHANNEL              04
BASIC MIDI EVENT     NOTE OFF              note: 40 velocity: 40
EVENT TIME           0
CHANNEL              04
BASIC MIDI EVENT     NOTE OFF              note: 4c velocity: 40
EVENT TIME           f0
CHANNEL              04
BASIC MIDI EVENT     NOTE ON               note: 3c velocity: 48
EVENT TIME           2d0
CHANNEL              04
BASIC MIDI EVENT     NOTE OFF              note: 3c velocity: 40
EVENT TIME           0
CHANNEL              04
BASIC MIDI EVENT     NOTE ON               note: 3e velocity: 48
EVENT TIME           f0
CHANNEL              04
BASIC MIDI EVENT     NOTE OFF              note: 3e velocity: 40
EVENT TIME           1e0
CHANNEL              04
BASIC MIDI EVENT     NOTE ON               note: 40 velocity: 48
EVENT TIME           f0
CHANNEL              04
BASIC MIDI EVENT     NOTE OFF              note: 40 velocity: 40
EVENT TIME           f0
CHANNEL              04
BASIC MIDI EVENT     NOTE ON               note: 3e velocity: 48
EVENT TIME           3c0
CHANNEL              04
BASIC MIDI EVENT     NOTE OFF              note: 3e velocity: 40
EVENT TIME           0
CHANNEL              04
BASIC MIDI EVENT     NOTE ON               note: 3e velocity: 48
EVENT TIME           3c0
CHANNEL              04
BASIC MIDI EVENT     NOTE OFF              note: 3e velocity: 40
EVENT TIME           0
CHANNEL              04
BASIC MIDI EVENT     NOTE ON               note: 3c velocity: 48
EVENT TIME           2d0
CHANNEL              04
BASIC MIDI EVENT     NOTE OFF              note: 3c velocity: 40
EVENT TIME           0
CHANNEL              04
BASIC MIDI EVENT     NOTE ON               note: 3e velocity: 48
EVENT TIME           f0
CHANNEL              04
BASIC MIDI EVENT     NOTE OFF              note: 3e velocity: 40
EVENT TIME           1e0
CHANNEL              04
BASIC MIDI EVENT     NOTE ON               note: 40 velocity: 48
EVENT TIME           f0
CHANNEL              04
BASIC MIDI EVENT     NOTE OFF              note: 40 velocity: 40
EVENT TIME           f0
CHANNEL              04
BASIC MIDI EVENT     NOTE ON               note: 3e velocity: 48
EVENT TIME           3c0
CHANNEL              04
BASIC MIDI EVENT     NOTE OFF              note: 3e velocity: 40
EVENT TIME           3c0
CHANNEL              04
BASIC MIDI EVENT     NOTE ON               note: 4c velocity: 48
EVENT TIME           3c0
CHANNEL              04
BASIC MIDI EVENT     NOTE OFF              note: 4c velocity: 40
EVENT TIME           f0
CHANNEL              04
BASIC MIDI EVENT     NOTE ON               note: 40 velocity: 48
EVENT TIME           f0
CHANNEL              04
BASIC MIDI EVENT     NOTE OFF              note: 40 velocity: 40
EVENT TIME           0
CHANNEL              04
BASIC MIDI EVENT     NOTE ON               note: 47 velocity: 48
EVENT TIME           f0
CHANNEL              04
BASIC MIDI EVENT     NOTE OFF              note: 47 velocity: 40
EVENT TIME           0
CHANNEL              04
BASIC MIDI EVENT     NOTE ON               note: 4c velocity: 48
EVENT TIME           f0
CHANNEL              04
BASIC MIDI EVENT     NOTE OFF              note: 4c velocity: 40
EVENT TIME           0
CHANNEL              04
BASIC MIDI EVENT     NOTE ON               note: 4b velocity: 48
EVENT TIME           3c0
CHANNEL              04
BASIC MIDI EVENT     NOTE OFF              note: 4b velocity: 40
EVENT TIME           f0
CHANNEL              04
BASIC MIDI EVENT     NOTE ON               note: 3f velocity: 48
EVENT TIME           f0
CHANNEL              04
BASIC MIDI EVENT     NOTE OFF              note: 3f velocity: 40
EVENT TIME           0
CHANNEL              04
BASIC MIDI EVENT     NOTE ON               note: 47 velocity: 48
EVENT TIME           f0
CHANNEL              04
BASIC MIDI EVENT     NOTE OFF              note: 47 velocity: 40
EVENT TIME           0
CHANNEL              04
BASIC MIDI EVENT     NOTE ON               note: 4b velocity: 48
EVENT TIME           f0
CHANNEL              04
BASIC MIDI EVENT     NOTE OFF              note: 4b velocity: 40
EVENT TIME           0
CHANNEL              04
BASIC MIDI EVENT     NOTE ON               note: 4a velocity: 48
EVENT TIME           1e0
CHANNEL              04
BASIC MIDI EVENT     NOTE OFF              note: 4a velocity: 40
EVENT TIME           1e0
CHANNEL              04
BASIC MIDI EVENT     NOTE ON               note: 5c velocity: 48
EVENT TIME           0
CHANNEL              04
BASIC MIDI EVENT     NOTE ON               note: 50 velocity: 48
EVENT TIME           1e0
CHANNEL              04
BASIC MIDI EVENT     NOTE OFF              note: 5c velocity: 40
EVENT TIME           0
CHANNEL              04
BASIC MIDI EVENT     NOTE OFF              note: 50 velocity: 40
EVENT TIME           0
CHANNEL              04
BASIC MIDI EVENT     NOTE ON               note: 5d velocity: 48
EVENT TIME           0
CHANNEL              04
BASIC MIDI EVENT     NOTE ON               note: 51 velocity: 48
EVENT TIME           f0
CHANNEL              04
BASIC MIDI EVENT     NOTE OFF              note: 5d velocity: 40
EVENT TIME           0
CHANNEL              04
BASIC MIDI EVENT     NOTE OFF              note: 51 velocity: 40
EVENT TIME           0
CHANNEL              04
BASIC MIDI EVENT     NOTE ON               note: 58 velocity: 48
EVENT TIME           0
CHANNEL              04
BASIC MIDI EVENT     NOTE ON               note: 4c velocity: 48
EVENT TIME           f0
CHANNEL              04
BASIC MIDI EVENT     NOTE OFF              note: 58 velocity: 40
EVENT TIME           0
CHANNEL              04
BASIC MIDI EVENT     NOTE OFF              note: 4c velocity: 40
EVENT TIME           f0
CHANNEL              04
BASIC MIDI EVENT     NOTE ON               note: 53 velocity: 48
EVENT TIME           0
CHANNEL              04
BASIC MIDI EVENT     NOTE ON               note: 47 velocity: 48
EVENT TIME           f0
CHANNEL              04
BASIC MIDI EVENT     NOTE OFF              note: 53 velocity: 40
EVENT TIME           0
CHANNEL              04
BASIC MIDI EVENT     NOTE OFF              note: 47 velocity: 40
EVENT TIME           f0
CHANNEL              04
BASIC MIDI EVENT     NOTE ON               note: 51 velocity: 48
EVENT TIME           0
CHANNEL              04
BASIC MIDI EVENT     NOTE ON               note: 45 velocity: 48
EVENT TIME           f0
CHANNEL              04
BASIC MIDI EVENT     NOTE OFF              note: 51 velocity: 40
EVENT TIME           0
CHANNEL              04
BASIC MIDI EVENT     NOTE OFF              note: 45 velocity: 40
EVENT TIME           f0
CHANNEL              04
BASIC MIDI EVENT     NOTE ON               note: 50 velocity: 48
EVENT TIME           0
CHANNEL              04
BASIC MIDI EVENT     NOTE ON               note: 44 velocity: 48
EVENT TIME           f0
CHANNEL              04
BASIC MIDI EVENT     NOTE OFF              note: 50 velocity: 40
EVENT TIME           0
CHANNEL              04
BASIC MIDI EVENT     NOTE OFF              note: 44 velocity: 40
EVENT TIME           0
CHANNEL              04
BASIC MIDI EVENT     NOTE ON               note: 4c velocity: 48
EVENT TIME           0
CHANNEL              04
BASIC MIDI EVENT     NOTE ON               note: 40 velocity: 48
EVENT TIME           f0
CHANNEL              04
BASIC MIDI EVENT     NOTE OFF              note: 4c velocity: 40
EVENT TIME           0
CHANNEL              04
BASIC MIDI EVENT     NOTE OFF              note: 40 velocity: 40
EVENT TIME           f0
CHANNEL              04
BASIC MIDI EVENT     NOTE ON               note: 3c velocity: 48
EVENT TIME           2d0
CHANNEL              04
BASIC MIDI EVENT     NOTE OFF              note: 3c velocity: 40
EVENT TIME           0
CHANNEL              04
BASIC MIDI EVENT     NOTE ON               note: 3e velocity: 48
EVENT TIME           f0
CHANNEL              04
BASIC MIDI EVENT     NOTE OFF              note: 3e velocity: 40
EVENT TIME           1e0
CHANNEL              04
BASIC MIDI EVENT     NOTE ON               note: 40 velocity: 48
EVENT TIME           f0
CHANNEL              04
BASIC MIDI EVENT     NOTE OFF              note: 40 velocity: 40
EVENT TIME           f0
CHANNEL              04
BASIC MIDI EVENT     NOTE ON               note: 3e velocity: 48
EVENT TIME           3c0
CHANNEL              04
BASIC MIDI EVENT     NOTE OFF              note: 3e velocity: 40
EVENT TIME           0
CHANNEL              04
BASIC MIDI EVENT     NOTE ON               note: 3e velocity: 48
EVENT TIME           3c0
CHANNEL              04
BASIC MIDI EVENT     NOTE OFF              note: 3e velocity: 40
EVENT TIME           0
CHANNEL              04
BASIC MIDI EVENT     NOTE ON               note: 3c velocity: 48
EVENT TIME           2d0
CHANNEL              04
BASIC MIDI EVENT     NOTE OFF              note: 3c velocity: 40
EVENT TIME           0
CHANNEL              04
BASIC MIDI EVENT     NOTE ON               note: 3e velocity: 48
EVENT TIME           f0
CHANNEL              04
BASIC MIDI EVENT     NOTE OFF              note: 3e velocity: 40
EVENT TIME           1e0
CHANNEL              04
BASIC MIDI EVENT     NOTE ON               note: 40 velocity: 48
EVENT TIME           f0
CHANNEL              04
BASIC MIDI EVENT     NOTE OFF              note: 40 velocity: 40
EVENT TIME           f0
CHANNEL              04
BASIC MIDI EVENT     NOTE ON               note: 3e velocity: 48
EVENT TIME           3c0
CHANNEL              04
BASIC MIDI EVENT     NOTE OFF              note: 3e velocity: 40
EVENT TIME           0
CHANNEL              04
BASIC MIDI EVENT     NOTE ON               note: 3e velocity: 48
EVENT TIME           3c0
CHANNEL              04
BASIC MIDI EVENT     NOTE OFF              note: 3e velocity: 40
EVENT TIME           0
CHANNEL              04
BASIC MIDI EVENT     NOTE ON               note: 40 velocity: 48
EVENT TIME           f0
CHANNEL              04
BASIC MIDI EVENT     NOTE OFF              note: 40 velocity: 40
EVENT TIME           0
CHANNEL              04
BASIC MIDI EVENT     NOTE ON               note: 40 velocity: 48
EVENT TIME           f0
CHANNEL              04
BASIC MIDI EVENT     NOTE OFF              note: 40 velocity: 40
EVENT TIME           0
CHANNEL              04
BASIC MIDI EVENT     NOTE ON               note: 40 velocity: 48
EVENT TIME           f0
CHANNEL              04
BASIC MIDI EVENT     NOTE OFF              note: 40 velocity: 40
EVENT TIME           0
CHANNEL              04
BASIC MIDI EVENT     NOTE ON               note: 3b velocity: 48
EVENT TIME           f0
CHANNEL              04
BASIC MIDI EVENT     NOTE OFF              note: 3b velocity: 40
EVENT TIME           0
CHANNEL              04
BASIC MIDI EVENT     NOTE ON               note: 3b velocity: 48
EVENT TIME           f0
CHANNEL              04
BASIC MIDI EVENT     NOTE OFF              note: 3b velocity: 40
EVENT TIME           0
CHANNEL              04
BASIC MIDI EVENT     NOTE ON               note: 3b velocity: 48
EVENT TIME           f0
CHANNEL              04
BASIC MIDI EVENT     NOTE OFF              note: 3b velocity: 40
EVENT TIME           0
CHANNEL              04
BASIC MIDI EVENT     NOTE ON               note: 3e velocity: 48
EVENT TIME           f0
CHANNEL              04
BASIC MIDI EVENT     NOTE OFF              note: 3e velocity: 40
EVENT TIME           0
CHANNEL              04
BASIC MIDI EVENT     NOTE ON               note: 3e velocity: 48
EVENT TIME           f0
CHANNEL              04
BASIC MIDI EVENT     NOTE OFF              note: 3e velocity: 40
EVENT TIME           0
CHANNEL              04
BASIC MIDI EVENT     NOTE ON               note: 3e velocity: 48
EVENT TIME           f0
CHANNEL              04
BASIC MIDI EVENT     NOTE OFF              note: 3e velocity: 40
EVENT TIME           0
CHANNEL              04
BASIC MIDI EVENT     NOTE ON               note: 39 velocity: 48
EVENT TIME           f0
CHANNEL              04
BASIC MIDI EVENT     NOTE OFF              note: 39 velocity: 40
EVENT TIME           0
CHANNEL              04
BASIC MIDI EVENT     NOTE ON               note: 39 velocity: 48
EVENT TIME           f0
CHANNEL              04
BASIC MIDI EVENT     NOTE OFF              note: 39 velocity: 40
EVENT TIME           0
CHANNEL              04
BASIC MIDI EVENT     NOTE ON               note: 39 velocity: 48
EVENT TIME           f0
CHANNEL              04
BASIC MIDI EVENT     NOTE OFF              note: 39 velocity: 40
EVENT TIME           0
CHANNEL              04
BASIC MIDI EVENT     NOTE ON               note: 3c velocity: 48
EVENT TIME           f0
CHANNEL              04
BASIC MIDI EVENT     NOTE OFF              note: 3c velocity: 40
EVENT TIME           0
CHANNEL              04
BASIC MIDI EVENT     NOTE ON               note: 3c velocity: 48
EVENT TIME           f0
CHANNEL              04
BASIC MIDI EVENT     NOTE OFF              note: 3c velocity: 40
EVENT TIME           0
CHANNEL              04
BASIC MIDI EVENT     NOTE ON               note: 3b velocity: 48
EVENT TIME           f0
CHANNEL              04
BASIC MIDI EVENT     NOTE OFF              note: 3b velocity: 40
EVENT TIME           0
CHANNEL              04
BASIC MIDI EVENT     NOTE ON               note: 3b velocity: 48
EVENT TIME           f0
CHANNEL              04
BASIC MIDI EVENT     NOTE OFF              note: 3b velocity: 40
EVENT TIME           1a40
CHANNEL              04
BASIC MIDI EVENT     NOTE ON               note: 43 velocity: 48
EVENT TIME           78
CHANNEL              04
BASIC MIDI EVENT     NOTE OFF              note: 43 velocity: 40
EVENT TIME           0
CHANNEL              04
BASIC MIDI EVENT     NOTE ON               note: 45 velocity: 48
EVENT TIME           78
CHANNEL              04
BASIC MIDI EVENT     NOTE OFF              note: 45 velocity: 40
EVENT TIME           0
CHANNEL              04
BASIC MIDI EVENT     NOTE ON               note: 47 velocity: 48
EVENT TIME           78
CHANNEL              04
BASIC MIDI EVENT     NOTE OFF              note: 47 velocity: 40
EVENT TIME           0
CHANNEL              04
BASIC MIDI EVENT     NOTE ON               note: 49 velocity: 48
EVENT TIME           78
CHANNEL              04
BASIC MIDI EVENT     NOTE OFF              note: 49 velocity: 40
EVENT TIME           0
CHANNEL              04
BASIC MIDI EVENT     NOTE ON               note: 45 velocity: 48
EVENT TIME           78
CHANNEL              04
BASIC MIDI EVENT     NOTE OFF              note: 45 velocity: 40
EVENT TIME           0
CHANNEL              04
BASIC MIDI EVENT     NOTE ON               note: 47 velocity: 48
EVENT TIME           78
CHANNEL              04
BASIC MIDI EVENT     NOTE OFF              note: 47 velocity: 40
EVENT TIME           0
CHANNEL              04
BASIC MIDI EVENT     NOTE ON               note: 49 velocity: 48
EVENT TIME           78
CHANNEL              04
BASIC MIDI EVENT     NOTE OFF              note: 49 velocity: 40
EVENT TIME           0
CHANNEL              04
BASIC MIDI EVENT     NOTE ON               note: 4a velocity: 48
EVENT TIME           78
CHANNEL              04
BASIC MIDI EVENT     NOTE OFF              note: 4a velocity: 40
EVENT TIME           0
CHANNEL              04
BASIC MIDI EVENT     NOTE ON               note: 4c velocity: 48
EVENT TIME           780
CHANNEL              04
BASIC MIDI EVENT     NOTE OFF              note: 4c velocity: 40
EVENT TIME           0
CHANNEL              04
BASIC MIDI EVENT     NOTE ON               note: 4e velocity: 48
EVENT TIME           2d0
CHANNEL              04
BASIC MIDI EVENT     NOTE OFF              note: 4e velocity: 40
EVENT TIME           0
CHANNEL              04
BASIC MIDI EVENT     NOTE ON               note: 47 velocity: 48
EVENT TIME           f0
CHANNEL              04
BASIC MIDI EVENT     NOTE OFF              note: 47 velocity: 40
EVENT TIME           f0
CHANNEL              04
BASIC MIDI EVENT     NOTE ON               note: 4a velocity: 48
EVENT TIME           f0
CHANNEL              04
BASIC MIDI EVENT     NOTE OFF              note: 4a velocity: 40
EVENT TIME           1e0
CHANNEL              04
BASIC MIDI EVENT     NOTE ON               note: 47 velocity: 48
EVENT TIME           3c0
CHANNEL              04
BASIC MIDI EVENT     NOTE OFF              note: 47 velocity: 40
EVENT TIME           0
CHANNEL              04
BASIC MIDI EVENT     NOTE ON               note: 4a velocity: 48
EVENT TIME           2d0
CHANNEL              04
BASIC MIDI EVENT     NOTE OFF              note: 4a velocity: 40
EVENT TIME           0
CHANNEL              04
BASIC MIDI EVENT     NOTE ON               note: 49 velocity: 48
EVENT TIME           f0
CHANNEL              04
BASIC MIDI EVENT     NOTE OFF              note: 49 velocity: 40
EVENT TIME           1e0
CHANNEL              04
BASIC MIDI EVENT     NOTE ON               note: 45 velocity: 48
EVENT TIME           0
CHANNEL              04
BASIC MIDI EVENT     NOTE ON               note: 4c velocity: 48
EVENT TIME           1e0
CHANNEL              04
BASIC MIDI EVENT     NOTE OFF              note: 45 velocity: 40
EVENT TIME           0
CHANNEL              04
BASIC MIDI EVENT     NOTE OFF              note: 4c velocity: 40
EVENT TIME           0
CHANNEL              04
BASIC MIDI EVENT     NOTE ON               note: 47 velocity: 48
EVENT TIME           0
CHANNEL              04
BASIC MIDI EVENT     NOTE ON               note: 4a velocity: 48
EVENT TIME           1e0
CHANNEL              04
BASIC MIDI EVENT     NOTE OFF              note: 47 velocity: 40
EVENT TIME           0
CHANNEL              04
BASIC MIDI EVENT     NOTE OFF              note: 4a velocity: 40
EVENT TIME           0
CHANNEL              04
BASIC MIDI EVENT     NOTE ON               note: 45 velocity: 48
EVENT TIME           0
CHANNEL              04
BASIC MIDI EVENT     NOTE ON               note: 49 velocity: 48
EVENT TIME           1e0
CHANNEL              04
BASIC MIDI EVENT     NOTE OFF              note: 45 velocity: 40
EVENT TIME           0
CHANNEL              04
BASIC MIDI EVENT     NOTE OFF              note: 49 velocity: 40
EVENT TIME           0
CHANNEL              04
BASIC MIDI EVENT     NOTE ON               note: 4a velocity: 48
EVENT TIME           3c0
CHANNEL              04
BASIC MIDI EVENT     NOTE OFF              note: 4a velocity: 40
EVENT TIME           1680
CHANNEL              04
BASIC MIDI EVENT     NOTE ON               note: 43 velocity: 48
EVENT TIME           78
CHANNEL              04
BASIC MIDI EVENT     NOTE OFF              note: 43 velocity: 40
EVENT TIME           0
CHANNEL              04
BASIC MIDI EVENT     NOTE ON               note: 45 velocity: 48
EVENT TIME           78
CHANNEL              04
BASIC MIDI EVENT     NOTE OFF              note: 45 velocity: 40
EVENT TIME           0
CHANNEL              04
BASIC MIDI EVENT     NOTE ON               note: 47 velocity: 48
EVENT TIME           78
CHANNEL              04
BASIC MIDI EVENT     NOTE OFF              note: 47 velocity: 40
EVENT TIME           0
CHANNEL              04
BASIC MIDI EVENT     NOTE ON               note: 49 velocity: 48
EVENT TIME           78
CHANNEL              04
BASIC MIDI EVENT     NOTE OFF              note: 49 velocity: 40
EVENT TIME           0
CHANNEL              04
BASIC MIDI EVENT     NOTE ON               note: 45 velocity: 48
EVENT TIME           78
CHANNEL              04
BASIC MIDI EVENT     NOTE OFF              note: 45 velocity: 40
EVENT TIME           0
CHANNEL              04
BASIC MIDI EVENT     NOTE ON               note: 47 velocity: 48
EVENT TIME           78
CHANNEL              04
BASIC MIDI EVENT     NOTE OFF              note: 47 velocity: 40
EVENT TIME           0
CHANNEL              04
BASIC MIDI EVENT     NOTE ON               note: 49 velocity: 48
EVENT TIME           78
CHANNEL              04
BASIC MIDI EVENT     NOTE OFF              note: 49 velocity: 40
EVENT TIME           0
CHANNEL              04
BASIC MIDI EVENT     NOTE ON               note: 4a velocity: 48
EVENT TIME           78
CHANNEL              04
BASIC MIDI EVENT     NOTE OFF              note: 4a velocity: 40
EVENT TIME           0
CHANNEL              04
BASIC MIDI EVENT     NOTE ON               note: 4c velocity: 48
EVENT TIME           780
CHANNEL              04
BASIC MIDI EVENT     NOTE OFF              note: 4c velocity: 40
EVENT TIME           0
CHANNEL              04
BASIC MIDI EVENT     NOTE ON               note: 4e velocity: 48
EVENT TIME           3c0
CHANNEL              04
BASIC MIDI EVENT     NOTE OFF              note: 4e velocity: 40
EVENT TIME           0
CHANNEL              04
BASIC MIDI EVENT     NOTE ON               note: 47 velocity: 48
EVENT TIME           f0
CHANNEL              04
BASIC MIDI EVENT     NOTE OFF              note: 47 velocity: 40
EVENT TIME           0
CHANNEL              04
BASIC MIDI EVENT     NOTE ON               note: 51 velocity: 48
EVENT TIME           1e0
CHANNEL              04
BASIC MIDI EVENT     NOTE OFF              note: 51 velocity: 40
EVENT TIME           0
CHANNEL              04
BASIC MIDI EVENT     NOTE ON               note: 4a velocity: 48
EVENT TIME           f0
CHANNEL              04
BASIC MIDI EVENT     NOTE OFF              note: 4a velocity: 40
EVENT TIME           0
CHANNEL              04
BASIC MIDI EVENT     NOTE ON               note: 47 velocity: 48
EVENT TIME           2d0
CHANNEL              04
BASIC MIDI EVENT     NOTE OFF              note: 47 velocity: 40
EVENT TIME           0
CHANNEL              04
BASIC MIDI EVENT     NOTE ON               note: 43 velocity: 48
EVENT TIME           f0
CHANNEL              04
BASIC MIDI EVENT     NOTE OFF              note: 43 velocity: 40
EVENT TIME           f0
CHANNEL              04
BASIC MIDI EVENT     NOTE ON               note: 4a velocity: 48
EVENT TIME           f0
CHANNEL              04
BASIC MIDI EVENT     NOTE OFF              note: 4a velocity: 40
EVENT TIME           f0
CHANNEL              04
BASIC MIDI EVENT     NOTE ON               note: 49 velocity: 48
EVENT TIME           f0
CHANNEL              04
BASIC MIDI EVENT     NOTE OFF              note: 49 velocity: 40
EVENT TIME           1e0
CHANNEL              04
BASIC MIDI EVENT     NOTE ON               note: 4c velocity: 48
EVENT TIME           0
CHANNEL              04
BASIC MIDI EVENT     NOTE ON               note: 45 velocity: 48
EVENT TIME           1e0
CHANNEL              04
BASIC MIDI EVENT     NOTE OFF              note: 4c velocity: 40
EVENT TIME           0
CHANNEL              04
BASIC MIDI EVENT     NOTE OFF              note: 45 velocity: 40
EVENT TIME           0
CHANNEL              04
BASIC MIDI EVENT     NOTE ON               note: 4a velocity: 48
EVENT TIME           0
CHANNEL              04
BASIC MIDI EVENT     NOTE ON               note: 47 velocity: 48
EVENT TIME           1e0
CHANNEL              04
BASIC MIDI EVENT     NOTE OFF              note: 4a velocity: 40
EVENT TIME           0
CHANNEL              04
BASIC MIDI EVENT     NOTE OFF              note: 47 velocity: 40
EVENT TIME           0
CHANNEL              04
BASIC MIDI EVENT     NOTE ON               note: 49 velocity: 48
EVENT TIME           0
CHANNEL              04
BASIC MIDI EVENT     NOTE ON               note: 45 velocity: 48
EVENT TIME           1e0
CHANNEL              04
BASIC MIDI EVENT     NOTE OFF              note: 49 velocity: 40
EVENT TIME           0
CHANNEL              04
BASIC MIDI EVENT     NOTE OFF              note: 45 velocity: 40
EVENT TIME           0
CHANNEL              04
BASIC MIDI EVENT     NOTE ON               note: 4a velocity: 48
EVENT TIME           780
CHANNEL              04
BASIC MIDI EVENT     NOTE OFF              note: 4a velocity: 40
EVENT TIME           5640
CHANNEL              04
BASIC MIDI EVENT     NOTE ON               note: 50 velocity: 48
EVENT TIME           0
CHANNEL              04
BASIC MIDI EVENT     NOTE ON               note: 5c velocity: 48
EVENT TIME           1e0
CHANNEL              04
BASIC MIDI EVENT     NOTE OFF              note: 50 velocity: 40
EVENT TIME           0
CHANNEL              04
BASIC MIDI EVENT     NOTE OFF              note: 5c velocity: 40
EVENT TIME           0
CHANNEL              04
BASIC MIDI EVENT     NOTE ON               note: 51 velocity: 48
EVENT TIME           0
CHANNEL              04
BASIC MIDI EVENT     NOTE ON               note: 5d velocity: 48
EVENT TIME           f0
CHANNEL              04
BASIC MIDI EVENT     NOTE OFF              note: 51 velocity: 40
EVENT TIME           0
CHANNEL              04
BASIC MIDI EVENT     NOTE OFF              note: 5d velocity: 40
EVENT TIME           0
CHANNEL              04
BASIC MIDI EVENT     NOTE ON               note: 4c velocity: 48
EVENT TIME           0
CHANNEL              04
BASIC MIDI EVENT     NOTE ON               note: 58 velocity: 48
EVENT TIME           f0
CHANNEL              04
BASIC MIDI EVENT     NOTE OFF              note: 4c velocity: 40
EVENT TIME           0
CHANNEL              04
BASIC MIDI EVENT     NOTE OFF              note: 58 velocity: 40
EVENT TIME           f0
CHANNEL              04
BASIC MIDI EVENT     NOTE ON               note: 47 velocity: 48
EVENT TIME           0
CHANNEL              04
BASIC MIDI EVENT     NOTE ON               note: 53 velocity: 48
EVENT TIME           f0
CHANNEL              04
BASIC MIDI EVENT     NOTE OFF              note: 47 velocity: 40
EVENT TIME           0
CHANNEL              04
BASIC MIDI EVENT     NOTE OFF              note: 53 velocity: 40
EVENT TIME           f0
CHANNEL              04
BASIC MIDI EVENT     NOTE ON               note: 45 velocity: 48
EVENT TIME           0
CHANNEL              04
BASIC MIDI EVENT     NOTE ON               note: 51 velocity: 48
EVENT TIME           f0
CHANNEL              04
BASIC MIDI EVENT     NOTE OFF              note: 45 velocity: 40
EVENT TIME           0
CHANNEL              04
BASIC MIDI EVENT     NOTE OFF              note: 51 velocity: 40
EVENT TIME           f0
CHANNEL              04
BASIC MIDI EVENT     NOTE ON               note: 44 velocity: 48
EVENT TIME           0
CHANNEL              04
BASIC MIDI EVENT     NOTE ON               note: 50 velocity: 48
EVENT TIME           f0
CHANNEL              04
BASIC MIDI EVENT     NOTE OFF              note: 44 velocity: 40
EVENT TIME           0
CHANNEL              04
BASIC MIDI EVENT     NOTE OFF              note: 50 velocity: 40
EVENT TIME           0
CHANNEL              04
BASIC MIDI EVENT     NOTE ON               note: 40 velocity: 48
EVENT TIME           0
CHANNEL              04
BASIC MIDI EVENT     NOTE ON               note: 4c velocity: 48
EVENT TIME           f0
CHANNEL              04
BASIC MIDI EVENT     NOTE OFF              note: 40 velocity: 40
EVENT TIME           0
CHANNEL              04
BASIC MIDI EVENT     NOTE OFF              note: 4c velocity: 40
EVENT TIME           f0
CHANNEL              04
BASIC MIDI EVENT     NOTE ON               note: 3c velocity: 48
EVENT TIME           2d0
CHANNEL              04
BASIC MIDI EVENT     NOTE OFF              note: 3c velocity: 40
EVENT TIME           0
CHANNEL              04
BASIC MIDI EVENT     NOTE ON               note: 3e velocity: 48
EVENT TIME           f0
CHANNEL              04
BASIC MIDI EVENT     NOTE OFF              note: 3e velocity: 40
EVENT TIME           1e0
CHANNEL              04
BASIC MIDI EVENT     NOTE ON               note: 40 velocity: 48
EVENT TIME           f0
CHANNEL              04
BASIC MIDI EVENT     NOTE OFF              note: 40 velocity: 40
EVENT TIME           f0
CHANNEL              04
BASIC MIDI EVENT     NOTE ON               note: 3e velocity: 48
EVENT TIME           3c0
CHANNEL              04
BASIC MIDI EVENT     NOTE OFF              note: 3e velocity: 40
EVENT TIME           0
CHANNEL              04
BASIC MIDI EVENT     NOTE ON               note: 3e velocity: 48
EVENT TIME           3c0
CHANNEL              04
BASIC MIDI EVENT     NOTE OFF              note: 3e velocity: 40
EVENT TIME           0
CHANNEL              04
BASIC MIDI EVENT     NOTE ON               note: 3c velocity: 48
EVENT TIME           2d0
CHANNEL              04
BASIC MIDI EVENT     NOTE OFF              note: 3c velocity: 40
EVENT TIME           0
CHANNEL              04
BASIC MIDI EVENT     NOTE ON               note: 3e velocity: 48
EVENT TIME           f0
CHANNEL              04
BASIC MIDI EVENT     NOTE OFF              note: 3e velocity: 40
EVENT TIME           1e0
CHANNEL              04
BASIC MIDI EVENT     NOTE ON               note: 40 velocity: 48
EVENT TIME           f0
CHANNEL              04
BASIC MIDI EVENT     NOTE OFF              note: 40 velocity: 40
EVENT TIME           f0
CHANNEL              04
BASIC MIDI EVENT     NOTE ON               note: 3e velocity: 48
EVENT TIME           3c0
CHANNEL              04
BASIC MIDI EVENT     NOTE OFF              note: 3e velocity: 40
EVENT TIME           3c0
CHANNEL              04
BASIC MIDI EVENT     NOTE ON               note: 4c velocity: 48
EVENT TIME           3c0
CHANNEL              04
BASIC MIDI EVENT     NOTE OFF              note: 4c velocity: 40
EVENT TIME           f0
CHANNEL              04
BASIC MIDI EVENT     NOTE ON               note: 40 velocity: 48
EVENT TIME           f0
CHANNEL              04
BASIC MIDI EVENT     NOTE OFF              note: 40 velocity: 40
EVENT TIME           0
CHANNEL              04
BASIC MIDI EVENT     NOTE ON               note: 47 velocity: 48
EVENT TIME           f0
CHANNEL              04
BASIC MIDI EVENT     NOTE OFF              note: 47 velocity: 40
EVENT TIME           0
CHANNEL              04
BASIC MIDI EVENT     NOTE ON               note: 4c velocity: 48
EVENT TIME           f0
CHANNEL              04
BASIC MIDI EVENT     NOTE OFF              note: 4c velocity: 40
EVENT TIME           0
CHANNEL              04
BASIC MIDI EVENT     NOTE ON               note: 4b velocity: 48
EVENT TIME           3c0
CHANNEL              04
BASIC MIDI EVENT     NOTE OFF              note: 4b velocity: 40
EVENT TIME           f0
CHANNEL              04
BASIC MIDI EVENT     NOTE ON               note: 3f velocity: 48
EVENT TIME           f0
CHANNEL              04
BASIC MIDI EVENT     NOTE OFF              note: 3f velocity: 40
EVENT TIME           0
CHANNEL              04
BASIC MIDI EVENT     NOTE ON               note: 47 velocity: 48
EVENT TIME           f0
CHANNEL              04
BASIC MIDI EVENT     NOTE OFF              note: 47 velocity: 40
EVENT TIME           0
CHANNEL              04
BASIC MIDI EVENT     NOTE ON               note: 4b velocity: 48
EVENT TIME           f0
CHANNEL              04
BASIC MIDI EVENT     NOTE OFF              note: 4b velocity: 40
EVENT TIME           0
CHANNEL              04
BASIC MIDI EVENT     NOTE ON               note: 4a velocity: 48
EVENT TIME           1e0
CHANNEL              04
BASIC MIDI EVENT     NOTE OFF              note: 4a velocity: 40
EVENT TIME           1e0
CHANNEL              04
BASIC MIDI EVENT     NOTE ON               note: 5c velocity: 48
EVENT TIME           0
CHANNEL              04
BASIC MIDI EVENT     NOTE ON               note: 50 velocity: 48
EVENT TIME           1e0
CHANNEL              04
BASIC MIDI EVENT     NOTE OFF              note: 5c velocity: 40
EVENT TIME           0
CHANNEL              04
BASIC MIDI EVENT     NOTE OFF              note: 50 velocity: 40
EVENT TIME           0
CHANNEL              04
BASIC MIDI EVENT     NOTE ON               note: 5d velocity: 48
EVENT TIME           0
CHANNEL              04
BASIC MIDI EVENT     NOTE ON               note: 51 velocity: 48
EVENT TIME           f0
CHANNEL              04
BASIC MIDI EVENT     NOTE OFF              note: 5d velocity: 40
EVENT TIME           0
CHANNEL              04
BASIC MIDI EVENT     NOTE OFF              note: 51 velocity: 40
EVENT TIME           0
CHANNEL              04
BASIC MIDI EVENT     NOTE ON               note: 58 velocity: 48
EVENT TIME           0
CHANNEL              04
BASIC MIDI EVENT     NOTE ON               note: 4c velocity: 48
EVENT TIME           f0
CHANNEL              04
BASIC MIDI EVENT     NOTE OFF              note: 58 velocity: 40
EVENT TIME           0
CHANNEL              04
BASIC MIDI EVENT     NOTE OFF              note: 4c velocity: 40
EVENT TIME           f0
CHANNEL              04
BASIC MIDI EVENT     NOTE ON               note: 53 velocity: 48
EVENT TIME           0
CHANNEL              04
BASIC MIDI EVENT     NOTE ON               note: 47 velocity: 48
EVENT TIME           f0
CHANNEL              04
BASIC MIDI EVENT     NOTE OFF              note: 53 velocity: 40
EVENT TIME           0
CHANNEL              04
BASIC MIDI EVENT     NOTE OFF              note: 47 velocity: 40
EVENT TIME           f0
CHANNEL              04
BASIC MIDI EVENT     NOTE ON               note: 51 velocity: 48
EVENT TIME           0
CHANNEL              04
BASIC MIDI EVENT     NOTE ON               note: 45 velocity: 48
EVENT TIME           f0
CHANNEL              04
BASIC MIDI EVENT     NOTE OFF              note: 51 velocity: 40
EVENT TIME           0
CHANNEL              04
BASIC MIDI EVENT     NOTE OFF              note: 45 velocity: 40
EVENT TIME           f0
CHANNEL              04
BASIC MIDI EVENT     NOTE ON               note: 50 velocity: 48
EVENT TIME           0
CHANNEL              04
BASIC MIDI EVENT     NOTE ON               note: 44 velocity: 48
EVENT TIME           f0
CHANNEL              04
BASIC MIDI EVENT     NOTE OFF              note: 50 velocity: 40
EVENT TIME           0
CHANNEL              04
BASIC MIDI EVENT     NOTE OFF              note: 44 velocity: 40
EVENT TIME           0
CHANNEL              04
BASIC MIDI EVENT     NOTE ON               note: 4c velocity: 48
EVENT TIME           0
CHANNEL              04
BASIC MIDI EVENT     NOTE ON               note: 40 velocity: 48
EVENT TIME           f0
CHANNEL              04
BASIC MIDI EVENT     NOTE OFF              note: 4c velocity: 40
EVENT TIME           0
CHANNEL              04
BASIC MIDI EVENT     NOTE OFF              note: 40 velocity: 40
EVENT TIME           f0
CHANNEL              04
BASIC MIDI EVENT     NOTE ON               note: 3c velocity: 48
EVENT TIME           2d0
CHANNEL              04
BASIC MIDI EVENT     NOTE OFF              note: 3c velocity: 40
EVENT TIME           0
CHANNEL              04
BASIC MIDI EVENT     NOTE ON               note: 3e velocity: 48
EVENT TIME           f0
CHANNEL              04
BASIC MIDI EVENT     NOTE OFF              note: 3e velocity: 40
EVENT TIME           1e0
CHANNEL              04
BASIC MIDI EVENT     NOTE ON               note: 40 velocity: 48
EVENT TIME           f0
CHANNEL              04
BASIC MIDI EVENT     NOTE OFF              note: 40 velocity: 40
EVENT TIME           f0
CHANNEL              04
BASIC MIDI EVENT     NOTE ON               note: 3e velocity: 48
EVENT TIME           3c0
CHANNEL              04
BASIC MIDI EVENT     NOTE OFF              note: 3e velocity: 40
EVENT TIME           0
CHANNEL              04
BASIC MIDI EVENT     NOTE ON               note: 3e velocity: 48
EVENT TIME           3c0
CHANNEL              04
BASIC MIDI EVENT     NOTE OFF              note: 3e velocity: 40
EVENT TIME           0
CHANNEL              04
BASIC MIDI EVENT     NOTE ON               note: 3c velocity: 48
EVENT TIME           2d0
CHANNEL              04
BASIC MIDI EVENT     NOTE OFF              note: 3c velocity: 40
EVENT TIME           0
CHANNEL              04
BASIC MIDI EVENT     NOTE ON               note: 3e velocity: 48
EVENT TIME           f0
CHANNEL              04
BASIC MIDI EVENT     NOTE OFF              note: 3e velocity: 40
EVENT TIME           1e0
CHANNEL              04
BASIC MIDI EVENT     NOTE ON               note: 40 velocity: 48
EVENT TIME           f0
CHANNEL              04
BASIC MIDI EVENT     NOTE OFF              note: 40 velocity: 40
EVENT TIME           f0
CHANNEL              04
BASIC MIDI EVENT     NOTE ON               note: 3e velocity: 48
EVENT TIME           3c0
CHANNEL              04
BASIC MIDI EVENT     NOTE OFF              note: 3e velocity: 40
EVENT TIME           0
CHANNEL              04
BASIC MIDI EVENT     NOTE ON               note: 3e velocity: 48
EVENT TIME           3c0
CHANNEL              04
BASIC MIDI EVENT     NOTE OFF              note: 3e velocity: 40
EVENT TIME           0
CHANNEL              04
BASIC MIDI EVENT     NOTE ON               note: 40 velocity: 48
EVENT TIME           f0
CHANNEL              04
BASIC MIDI EVENT     NOTE OFF              note: 40 velocity: 40
EVENT TIME           0
CHANNEL              04
BASIC MIDI EVENT     NOTE ON               note: 40 velocity: 48
EVENT TIME           f0
CHANNEL              04
BASIC MIDI EVENT     NOTE OFF              note: 40 velocity: 40
EVENT TIME           0
CHANNEL              04
BASIC MIDI EVENT     NOTE ON               note: 40 velocity: 48
EVENT TIME           f0
CHANNEL              04
BASIC MIDI EVENT     NOTE OFF              note: 40 velocity: 40
EVENT TIME           0
CHANNEL              04
BASIC MIDI EVENT     NOTE ON               note: 3b velocity: 48
EVENT TIME           f0
CHANNEL              04
BASIC MIDI EVENT     NOTE OFF              note: 3b velocity: 40
EVENT TIME           0
CHANNEL              04
BASIC MIDI EVENT     NOTE ON               note: 3b velocity: 48
EVENT TIME           f0
CHANNEL              04
BASIC MIDI EVENT     NOTE OFF              note: 3b velocity: 40
EVENT TIME           0
CHANNEL              04
BASIC MIDI EVENT     NOTE ON               note: 3b velocity: 48
EVENT TIME           f0
CHANNEL              04
BASIC MIDI EVENT     NOTE OFF              note: 3b velocity: 40
EVENT TIME           0
CHANNEL              04
BASIC MIDI EVENT     NOTE ON               note: 3e velocity: 48
EVENT TIME           f0
CHANNEL              04
BASIC MIDI EVENT     NOTE OFF              note: 3e velocity: 40
EVENT TIME           0
CHANNEL              04
BASIC MIDI EVENT     NOTE ON               note: 3e velocity: 48
EVENT TIME           f0
CHANNEL              04
BASIC MIDI EVENT     NOTE OFF              note: 3e velocity: 40
EVENT TIME           0
CHANNEL              04
BASIC MIDI EVENT     NOTE ON               note: 3e velocity: 48
EVENT TIME           f0
CHANNEL              04
BASIC MIDI EVENT     NOTE OFF              note: 3e velocity: 40
EVENT TIME           0
CHANNEL              04
BASIC MIDI EVENT     NOTE ON               note: 39 velocity: 48
EVENT TIME           f0
CHANNEL              04
BASIC MIDI EVENT     NOTE OFF              note: 39 velocity: 40
EVENT TIME           0
CHANNEL              04
BASIC MIDI EVENT     NOTE ON               note: 39 velocity: 48
EVENT TIME           f0
CHANNEL              04
BASIC MIDI EVENT     NOTE OFF              note: 39 velocity: 40
EVENT TIME           0
CHANNEL              04
BASIC MIDI EVENT     NOTE ON               note: 39 velocity: 48
EVENT TIME           f0
CHANNEL              04
BASIC MIDI EVENT     NOTE OFF              note: 39 velocity: 40
EVENT TIME           0
CHANNEL              04
BASIC MIDI EVENT     NOTE ON               note: 3c velocity: 48
EVENT TIME           f0
CHANNEL              04
BASIC MIDI EVENT     NOTE OFF              note: 3c velocity: 40
EVENT TIME           0
CHANNEL              04
BASIC MIDI EVENT     NOTE ON               note: 3c velocity: 48
EVENT TIME           f0
CHANNEL              04
BASIC MIDI EVENT     NOTE OFF              note: 3c velocity: 40
EVENT TIME           0
CHANNEL              04
BASIC MIDI EVENT     NOTE ON               note: 3b velocity: 48
EVENT TIME           f0
CHANNEL              04
BASIC MIDI EVENT     NOTE OFF              note: 3b velocity: 40
EVENT TIME           0
CHANNEL              04
BASIC MIDI EVENT     NOTE ON               note: 3b velocity: 48
EVENT TIME           f0
CHANNEL              04
BASIC MIDI EVENT     NOTE OFF              note: 3b velocity: 40
EVENT TIME           0
META EVENT           END OF TRACK        
MTrk


EVENT TIME           0
META EVENT           TRACK NAME           text: Piano 1 - Left      
EVENT TIME           0
CHANNEL              06
BASIC MIDI EVENT     PROG_CHANGE           program: 00
EVENT TIME           0
CHANNEL              06
BASIC MIDI EVENT     NOTE ON               note: 29 velocity: 48
EVENT TIME           f0
CHANNEL              06
BASIC MIDI EVENT     NOTE OFF              note: 29 velocity: 40
EVENT TIME           0
CHANNEL              06
BASIC MIDI EVENT     NOTE ON               note: 29 velocity: 48
EVENT TIME           f0
CHANNEL              06
BASIC MIDI EVENT     NOTE OFF              note: 29 velocity: 40
EVENT TIME           0
CHANNEL              06
BASIC MIDI EVENT     NOTE ON               note: 29 velocity: 48
EVENT TIME           f0
CHANNEL              06
BASIC MIDI EVENT     NOTE OFF              note: 29 velocity: 40
EVENT TIME           0
CHANNEL              06
BASIC MIDI EVENT     NOTE ON               note: 29 velocity: 48
EVENT TIME           f0
CHANNEL              06
BASIC MIDI EVENT     NOTE OFF              note: 29 velocity: 40
EVENT TIME           0
CHANNEL              06
BASIC MIDI EVENT     NOTE ON               note: 29 velocity: 48
EVENT TIME           f0
CHANNEL              06
BASIC MIDI EVENT     NOTE OFF              note: 29 velocity: 40
EVENT TIME           0
CHANNEL              06
BASIC MIDI EVENT     NOTE ON               note: 29 velocity: 48
EVENT TIME           f0
CHANNEL              06
BASIC MIDI EVENT     NOTE OFF              note: 29 velocity: 40
EVENT TIME           0
CHANNEL              06
BASIC MIDI EVENT     NOTE ON               note: 2d velocity: 48
EVENT TIME           f0
CHANNEL              06
BASIC MIDI EVENT     NOTE OFF              note: 2d velocity: 40
EVENT TIME           0
CHANNEL              06
BASIC MIDI EVENT     NOTE ON               note: 2f velocity: 48
EVENT TIME           f0
CHANNEL              06
BASIC MIDI EVENT     NOTE OFF              note: 2f velocity: 40
EVENT TIME           0
CHANNEL              06
BASIC MIDI EVENT     NOTE ON               note: 30 velocity: 48
EVENT TIME           f0
CHANNEL              06
BASIC MIDI EVENT     NOTE OFF              note: 30 velocity: 40
EVENT TIME           0
CHANNEL              06
BASIC MIDI EVENT     NOTE ON               note: 30 velocity: 48
EVENT TIME           f0
CHANNEL              06
BASIC MIDI EVENT     NOTE OFF              note: 30 velocity: 40
EVENT TIME           0
CHANNEL              06
BASIC MIDI EVENT     NOTE ON               note: 30 velocity: 48
EVENT TIME           f0
CHANNEL              06
BASIC MIDI EVENT     NOTE OFF              note: 30 velocity: 40
EVENT TIME           0
CHANNEL              06
BASIC MIDI EVENT     NOTE ON               note: 30 velocity: 48
EVENT TIME           f0
CHANNEL              06
BASIC MIDI EVENT     NOTE OFF              note: 30 velocity: 40
EVENT TIME           0
CHANNEL              06
BASIC MIDI EVENT     NOTE ON               note: 30 velocity: 48
EVENT TIME           f0
CHANNEL              06
BASIC MIDI EVENT     NOTE OFF              note: 30 velocity: 40
EVENT TIME           0
CHANNEL              06
BASIC MIDI EVENT     NOTE ON               note: 2d velocity: 48
EVENT TIME           f0
CHANNEL              06
BASIC MIDI EVENT     NOTE OFF              note: 2d velocity: 40
EVENT TIME           0
CHANNEL              06
BASIC MIDI EVENT     NOTE ON               note: 30 velocity: 48
EVENT TIME           f0
CHANNEL              06
BASIC MIDI EVENT     NOTE OFF              note: 30 velocity: 40
EVENT TIME           0
CHANNEL              06
BASIC MIDI EVENT     NOTE ON               note: 2d velocity: 48
EVENT TIME           f0
CHANNEL              06
BASIC MIDI EVENT     NOTE OFF              note: 2d velocity: 40
EVENT TIME           0
CHANNEL              06
BASIC MIDI EVENT     NOTE ON               note: 32 velocity: 48
EVENT TIME           f0
CHANNEL              06
BASIC MIDI EVENT     NOTE OFF              note: 32 velocity: 40
EVENT TIME           0
CHANNEL              06
BASIC MIDI EVENT     NOTE ON               note: 32 velocity: 48
EVENT TIME           f0
CHANNEL              06
BASIC MIDI EVENT     NOTE OFF              note: 32 velocity: 40
EVENT TIME           0
CHANNEL              06
BASIC MIDI EVENT     NOTE ON               note: 32 velocity: 48
EVENT TIME           f0
CHANNEL              06
BASIC MIDI EVENT     NOTE OFF              note: 32 velocity: 40
EVENT TIME           0
CHANNEL              06
BASIC MIDI EVENT     NOTE ON               note: 30 velocity: 48
EVENT TIME           f0
CHANNEL              06
BASIC MIDI EVENT     NOTE OFF              note: 30 velocity: 40
EVENT TIME           0
CHANNEL              06
BASIC MIDI EVENT     NOTE ON               note: 32 velocity: 48
EVENT TIME           f0
CHANNEL              06
BASIC MIDI EVENT     NOTE OFF              note: 32 velocity: 40
EVENT TIME           0
CHANNEL              06
BASIC MIDI EVENT     NOTE ON               note: 30 velocity: 48
EVENT TIME           f0
CHANNEL              06
BASIC MIDI EVENT     NOTE OFF              note: 30 velocity: 40
EVENT TIME           0
CHANNEL              06
BASIC MIDI EVENT     NOTE ON               note: 32 velocity: 48
EVENT TIME           f0
CHANNEL              06
BASIC MIDI EVENT     NOTE OFF              note: 32 velocity: 40
EVENT TIME           0
CHANNEL              06
BASIC MIDI EVENT     NOTE ON               note: 30 velocity: 48
EVENT TIME           f0
CHANNEL              06
BASIC MIDI EVENT     NOTE OFF              note: 30 velocity: 40
EVENT TIME           0
CHANNEL              06
BASIC MIDI EVENT     NOTE ON               note: 2f velocity: 48
EVENT TIME           f0
CHANNEL              06
BASIC MIDI EVENT     NOTE OFF              note: 2f velocity: 40
EVENT TIME           0
CHANNEL              06
BASIC MIDI EVENT     NOTE ON               note: 2f velocity: 48
EVENT TIME           f0
CHANNEL              06
BASIC MIDI EVENT     NOTE OFF              note: 2f velocity: 40
EVENT TIME           0
CHANNEL              06
BASIC MIDI EVENT     NOTE ON               note: 2f velocity: 48
EVENT TIME           f0
CHANNEL              06
BASIC MIDI EVENT     NOTE OFF              note: 2f velocity: 40
EVENT TIME           0
CHANNEL              06
BASIC MIDI EVENT     NOTE ON               note: 23 velocity: 48
EVENT TIME           f0
CHANNEL              06
BASIC MIDI EVENT     NOTE OFF              note: 23 velocity: 40
EVENT TIME           0
CHANNEL              06
BASIC MIDI EVENT     NOTE ON               note: 29 velocity: 48
EVENT TIME           f0
CHANNEL              06
BASIC MIDI EVENT     NOTE OFF              note: 29 velocity: 40
EVENT TIME           0
CHANNEL              06
BASIC MIDI EVENT     NOTE ON               note: 2f velocity: 48
EVENT TIME           f0
CHANNEL              06
BASIC MIDI EVENT     NOTE OFF              note: 2f velocity: 40
EVENT TIME           0
CHANNEL              06
BASIC MIDI EVENT     NOTE ON               note: 22 velocity: 48
EVENT TIME           f0
CHANNEL              06
BASIC MIDI EVENT     NOTE OFF              note: 22 velocity: 40
EVENT TIME           0
CHANNEL              06
BASIC MIDI EVENT     NOTE ON               note: 29 velocity: 48
EVENT TIME           f0
CHANNEL              06
BASIC MIDI EVENT     NOTE OFF              note: 29 velocity: 40
EVENT TIME           0
CHANNEL              06
BASIC MIDI EVENT     NOTE ON               note: 2e velocity: 48
EVENT TIME           f0
CHANNEL              06
BASIC MIDI EVENT     NOTE OFF              note: 2e velocity: 40
EVENT TIME           0
CHANNEL              06
BASIC MIDI EVENT     NOTE ON               note: 2e velocity: 48
EVENT TIME           f0
CHANNEL              06
BASIC MIDI EVENT     NOTE OFF              note: 2e velocity: 40
EVENT TIME           0
CHANNEL              06
BASIC MIDI EVENT     NOTE ON               note: 2e velocity: 48
EVENT TIME           f0
CHANNEL              06
BASIC MIDI EVENT     NOTE OFF              note: 2e velocity: 40
EVENT TIME           0
CHANNEL              06
BASIC MIDI EVENT     NOTE ON               note: 35 velocity: 48
EVENT TIME           f0
CHANNEL              06
BASIC MIDI EVENT     NOTE OFF              note: 35 velocity: 40
EVENT TIME           0
CHANNEL              06
BASIC MIDI EVENT     NOTE ON               note: 3a velocity: 48
EVENT TIME           f0
CHANNEL              06
BASIC MIDI EVENT     NOTE OFF              note: 3a velocity: 40
EVENT TIME           0
CHANNEL              06
BASIC MIDI EVENT     NOTE ON               note: 35 velocity: 48
EVENT TIME           f0
CHANNEL              06
BASIC MIDI EVENT     NOTE OFF              note: 35 velocity: 40
EVENT TIME           0
CHANNEL              06
BASIC MIDI EVENT     NOTE ON               note: 3c velocity: 48
EVENT TIME           f0
CHANNEL              06
BASIC MIDI EVENT     NOTE OFF              note: 3c velocity: 40
EVENT TIME           0
CHANNEL              06
BASIC MIDI EVENT     NOTE ON               note: 3a velocity: 48
EVENT TIME           f0
CHANNEL              06
BASIC MIDI EVENT     NOTE OFF              note: 3a velocity: 40
EVENT TIME           f0
CHANNEL              06
BASIC MIDI EVENT     NOTE ON               note: 35 velocity: 48
EVENT TIME           f0
CHANNEL              06
BASIC MIDI EVENT     NOTE OFF              note: 35 velocity: 40
EVENT TIME           f0
CHANNEL              06
BASIC MIDI EVENT     NOTE ON               note: 2e velocity: 48
EVENT TIME           f0
CHANNEL              06
BASIC MIDI EVENT     NOTE OFF              note: 2e velocity: 40
EVENT TIME           f0
CHANNEL              06
BASIC MIDI EVENT     NOTE ON               note: 35 velocity: 48
EVENT TIME           f0
CHANNEL              06
BASIC MIDI EVENT     NOTE OFF              note: 35 velocity: 40
EVENT TIME           0
CHANNEL              06
BASIC MIDI EVENT     NOTE ON               note: 2e velocity: 48
EVENT TIME           f0
CHANNEL              06
BASIC MIDI EVENT     NOTE OFF              note: 2e velocity: 40
EVENT TIME           0
CHANNEL              06
BASIC MIDI EVENT     NOTE ON               note: 2d velocity: 48
EVENT TIME           f0
CHANNEL              06
BASIC MIDI EVENT     NOTE OFF              note: 2d velocity: 40
EVENT TIME           0
CHANNEL              06
BASIC MIDI EVENT     NOTE ON               note: 2b velocity: 48
EVENT TIME           f0
CHANNEL              06
BASIC MIDI EVENT     NOTE OFF              note: 2b velocity: 40
EVENT TIME           0
CHANNEL              06
BASIC MIDI EVENT     NOTE ON               note: 2b velocity: 48
EVENT TIME           f0
CHANNEL              06
BASIC MIDI EVENT     NOTE OFF              note: 2b velocity: 40
EVENT TIME           0
CHANNEL              06
BASIC MIDI EVENT     NOTE ON               note: 2b velocity: 48
EVENT TIME           f0
CHANNEL              06
BASIC MIDI EVENT     NOTE OFF              note: 2b velocity: 40
EVENT TIME           0
CHANNEL              06
BASIC MIDI EVENT     NOTE ON               note: 2b velocity: 48
EVENT TIME           f0
CHANNEL              06
BASIC MIDI EVENT     NOTE OFF              note: 2b velocity: 40
EVENT TIME           0
CHANNEL              06
BASIC MIDI EVENT     NOTE ON               note: 2b velocity: 48
EVENT TIME           f0
CHANNEL              06
BASIC MIDI EVENT     NOTE OFF              note: 2b velocity: 40
EVENT TIME           0
CHANNEL              06
BASIC MIDI EVENT     NOTE ON               note: 2b velocity: 48
EVENT TIME           f0
CHANNEL              06
BASIC MIDI EVENT     NOTE OFF              note: 2b velocity: 40
EVENT TIME           0
CHANNEL              06
BASIC MIDI EVENT     NOTE ON               note: 2b velocity: 48
EVENT TIME           f0
CHANNEL              06
BASIC MIDI EVENT     NOTE OFF              note: 2b velocity: 40
EVENT TIME           0
CHANNEL              06
BASIC MIDI EVENT     NOTE ON               note: 2b velocity: 48
EVENT TIME           f0
CHANNEL              06
BASIC MIDI EVENT     NOTE OFF              note: 2b velocity: 40
EVENT TIME           f0
CHANNEL              06
BASIC MIDI EVENT     NOTE ON               note: 2e velocity: 48
EVENT TIME           f0
CHANNEL              06
BASIC MIDI EVENT     NOTE OFF              note: 2e velocity: 40
EVENT TIME           0
CHANNEL              06
BASIC MIDI EVENT     NOTE ON               note: 2e velocity: 48
EVENT TIME           f0
CHANNEL              06
BASIC MIDI EVENT     NOTE OFF              note: 2e velocity: 40
EVENT TIME           0
CHANNEL              06
BASIC MIDI EVENT     NOTE ON               note: 2f velocity: 48
EVENT TIME           f0
CHANNEL              06
BASIC MIDI EVENT     NOTE OFF              note: 2f velocity: 40
EVENT TIME           0
CHANNEL              06
BASIC MIDI EVENT     NOTE ON               note: 30 velocity: 48
EVENT TIME           f0
CHANNEL              06
BASIC MIDI EVENT     NOTE OFF              note: 30 velocity: 40
EVENT TIME           f0
CHANNEL              06
BASIC MIDI EVENT     NOTE ON               note: 30 velocity: 48
EVENT TIME           f0
CHANNEL              06
BASIC MIDI EVENT     NOTE OFF              note: 30 velocity: 40
EVENT TIME           f0
CHANNEL              06
BASIC MIDI EVENT     NOTE ON               note: 26 velocity: 48
EVENT TIME           f0
CHANNEL              06
BASIC MIDI EVENT     NOTE OFF              note: 26 velocity: 40
EVENT TIME           1e0
CHANNEL              06
BASIC MIDI EVENT     NOTE ON               note: 2f velocity: 48
EVENT TIME           1e0
CHANNEL              06
BASIC MIDI EVENT     NOTE OFF              note: 2f velocity: 40
EVENT TIME           0
CHANNEL              06
BASIC MIDI EVENT     NOTE ON               note: 2d velocity: 48
EVENT TIME           f0
CHANNEL              06
BASIC MIDI EVENT     NOTE OFF              note: 2d velocity: 40
EVENT TIME           0
CHANNEL              06
BASIC MIDI EVENT     NOTE ON               note: 2a velocity: 48
EVENT TIME           f0
CHANNEL              06
BASIC MIDI EVENT     NOTE OFF              note: 2a velocity: 40
EVENT TIME           0
CHANNEL              06
BASIC MIDI EVENT     NOTE ON               note: 26 velocity: 48
EVENT TIME           f0
CHANNEL              06
BASIC MIDI EVENT     NOTE OFF              note: 26 velocity: 40
EVENT TIME           0
CHANNEL              06
BASIC MIDI EVENT     NOTE ON               note: 25 velocity: 48
EVENT TIME           f0
CHANNEL              06
BASIC MIDI EVENT     NOTE OFF              note: 25 velocity: 40
EVENT TIME           1e0
CHANNEL              06
BASIC MIDI EVENT     NOTE ON               note: 2d velocity: 48
EVENT TIME           1e0
CHANNEL              06
BASIC MIDI EVENT     NOTE OFF              note: 2d velocity: 40
EVENT TIME           0
CHANNEL              06
BASIC MIDI EVENT     NOTE ON               note: 25 velocity: 48
EVENT TIME           f0
CHANNEL              06
BASIC MIDI EVENT     NOTE OFF              note: 25 velocity: 40
EVENT TIME           0
CHANNEL              06
BASIC MIDI EVENT     NOTE ON               note: 21 velocity: 48
EVENT TIME           f0
CHANNEL              06
BASIC MIDI EVENT     NOTE OFF              note: 21 velocity: 40
EVENT TIME           0
CHANNEL              06
BASIC MIDI EVENT     NOTE ON               note: 25 velocity: 48
EVENT TIME           f0
CHANNEL              06
BASIC MIDI EVENT     NOTE OFF              note: 25 velocity: 40
EVENT TIME           0
CHANNEL              06
BASIC MIDI EVENT     NOTE ON               note: 24 velocity: 48
EVENT TIME           f0
CHANNEL              06
BASIC MIDI EVENT     NOTE OFF              note: 24 velocity: 40
EVENT TIME           1e0
CHANNEL              06
BASIC MIDI EVENT     NOTE ON               note: 24 velocity: 48
EVENT TIME           1e0
CHANNEL              06
BASIC MIDI EVENT     NOTE OFF              note: 24 velocity: 40
EVENT TIME           0
CHANNEL              06
BASIC MIDI EVENT     NOTE ON               note: 1e velocity: 48
EVENT TIME           f0
CHANNEL              06
BASIC MIDI EVENT     NOTE OFF              note: 1e velocity: 40
EVENT TIME           0
CHANNEL              06
BASIC MIDI EVENT     NOTE ON               note: 21 velocity: 48
EVENT TIME           f0
CHANNEL              06
BASIC MIDI EVENT     NOTE OFF              note: 21 velocity: 40
EVENT TIME           0
CHANNEL              06
BASIC MIDI EVENT     NOTE ON               note: 24 velocity: 48
EVENT TIME           f0
CHANNEL              06
BASIC MIDI EVENT     NOTE OFF              note: 24 velocity: 40
EVENT TIME           0
CHANNEL              06
BASIC MIDI EVENT     NOTE ON               note: 23 velocity: 48
EVENT TIME           f0
CHANNEL              06
BASIC MIDI EVENT     NOTE OFF              note: 23 velocity: 40
EVENT TIME           1e0
CHANNEL              06
BASIC MIDI EVENT     NOTE ON               note: 23 velocity: 48
EVENT TIME           1e0
CHANNEL              06
BASIC MIDI EVENT     NOTE OFF              note: 23 velocity: 40
EVENT TIME           0
CHANNEL              06
BASIC MIDI EVENT     NOTE ON               note: 23 velocity: 48
EVENT TIME           f0
CHANNEL              06
BASIC MIDI EVENT     NOTE OFF              note: 23 velocity: 40
EVENT TIME           0
CHANNEL              06
BASIC MIDI EVENT     NOTE ON               note: 23 velocity: 48
EVENT TIME           f0
CHANNEL              06
BASIC MIDI EVENT     NOTE OFF              note: 23 velocity: 40
EVENT TIME           0
CHANNEL              06
BASIC MIDI EVENT     NOTE ON               note: 1f velocity: 48
EVENT TIME           f0
CHANNEL              06
BASIC MIDI EVENT     NOTE OFF              note: 1f velocity: 40
EVENT TIME           0
CHANNEL              06
BASIC MIDI EVENT     NOTE ON               note: 28 velocity: 48
EVENT TIME           f0
CHANNEL              06
BASIC MIDI EVENT     NOTE OFF              note: 28 velocity: 40
EVENT TIME           1e0
CHANNEL              06
BASIC MIDI EVENT     NOTE ON               note: 28 velocity: 48
EVENT TIME           1e0
CHANNEL              06
BASIC MIDI EVENT     NOTE OFF              note: 28 velocity: 40
EVENT TIME           0
CHANNEL              06
BASIC MIDI EVENT     NOTE ON               note: 23 velocity: 48
EVENT TIME           f0
CHANNEL              06
BASIC MIDI EVENT     NOTE OFF              note: 23 velocity: 40
EVENT TIME           0
CHANNEL              06
BASIC MIDI EVENT     NOTE ON               note: 28 velocity: 48
EVENT TIME           f0
CHANNEL              06
BASIC MIDI EVENT     NOTE OFF              note: 28 velocity: 40
EVENT TIME           0
CHANNEL              06
BASIC MIDI EVENT     NOTE ON               note: 23 velocity: 48
EVENT TIME           f0
CHANNEL              06
BASIC MIDI EVENT     NOTE OFF              note: 23 velocity: 40
EVENT TIME           0
CHANNEL              06
BASIC MIDI EVENT     NOTE ON               note: 1c velocity: 48
EVENT TIME           f0
CHANNEL              06
BASIC MIDI EVENT     NOTE OFF              note: 1c velocity: 40
EVENT TIME           1e0
CHANNEL              06
BASIC MIDI EVENT     NOTE ON               note: 1c velocity: 48
EVENT TIME           1e0
CHANNEL              06
BASIC MIDI EVENT     NOTE OFF              note: 1c velocity: 40
EVENT TIME           0
CHANNEL              06
BASIC MIDI EVENT     NOTE ON               note: 1c velocity: 48
EVENT TIME           f0
CHANNEL              06
BASIC MIDI EVENT     NOTE OFF              note: 1c velocity: 40
EVENT TIME           0
CHANNEL              06
BASIC MIDI EVENT     NOTE ON               note: 1e velocity: 48
EVENT TIME           f0
CHANNEL              06
BASIC MIDI EVENT     NOTE OFF              note: 1e velocity: 40
EVENT TIME           0
CHANNEL              06
BASIC MIDI EVENT     NOTE ON               note: 1c velocity: 48
EVENT TIME           f0
CHANNEL              06
BASIC MIDI EVENT     NOTE OFF              note: 1c velocity: 40
EVENT TIME           0
CHANNEL              06
BASIC MIDI EVENT     NOTE ON               note: 1f velocity: 48
EVENT TIME           f0
CHANNEL              06
BASIC MIDI EVENT     NOTE OFF              note: 1f velocity: 40
EVENT TIME           0
CHANNEL              06
BASIC MIDI EVENT     NOTE ON               note: 1f velocity: 48
EVENT TIME           f0
CHANNEL              06
BASIC MIDI EVENT     NOTE OFF              note: 1f velocity: 40
EVENT TIME           f0
CHANNEL              06
BASIC MIDI EVENT     NOTE ON               note: 1f velocity: 48
EVENT TIME           f0
CHANNEL              06
BASIC MIDI EVENT     NOTE OFF              note: 1f velocity: 40
EVENT TIME           f0
CHANNEL              06
BASIC MIDI EVENT     NOTE ON               note: 1f velocity: 48
EVENT TIME           f0
CHANNEL              06
BASIC MIDI EVENT     NOTE OFF              note: 1f velocity: 40
EVENT TIME           f0
CHANNEL              06
BASIC MIDI EVENT     NOTE ON               note: 21 velocity: 48
EVENT TIME           f0
CHANNEL              06
BASIC MIDI EVENT     NOTE OFF              note: 21 velocity: 40
EVENT TIME           1e0
CHANNEL              06
BASIC MIDI EVENT     NOTE ON               note: 21 velocity: 48
EVENT TIME           f0
CHANNEL              06
BASIC MIDI EVENT     NOTE OFF              note: 21 velocity: 40
EVENT TIME           f0
CHANNEL              06
BASIC MIDI EVENT     NOTE ON               note: 23 velocity: 48
EVENT TIME           1e0
CHANNEL              06
BASIC MIDI EVENT     NOTE OFF              note: 23 velocity: 40
EVENT TIME           0
CHANNEL              06
BASIC MIDI EVENT     NOTE ON               note: 21 velocity: 48
EVENT TIME           1e0
CHANNEL              06
BASIC MIDI EVENT     NOTE OFF              note: 21 velocity: 40
EVENT TIME           0
CHANNEL              06
BASIC MIDI EVENT     NOTE ON               note: 26 velocity: 48
EVENT TIME           f0
CHANNEL              06
BASIC MIDI EVENT     NOTE OFF              note: 26 velocity: 40
EVENT TIME           1e0
CHANNEL              06
BASIC MIDI EVENT     NOTE ON               note: 2f velocity: 48
EVENT TIME           1e0
CHANNEL              06
BASIC MIDI EVENT     NOTE OFF              note: 2f velocity: 40
EVENT TIME           0
CHANNEL              06
BASIC MIDI EVENT     NOTE ON               note: 2d velocity: 48
EVENT TIME           f0
CHANNEL              06
BASIC MIDI EVENT     NOTE OFF              note: 2d velocity: 40
EVENT TIME           0
CHANNEL              06
BASIC MIDI EVENT     NOTE ON               note: 2a velocity: 48
EVENT TIME           f0
CHANNEL              06
BASIC MIDI EVENT     NOTE OFF              note: 2a velocity: 40
EVENT TIME           0
CHANNEL              06
BASIC MIDI EVENT     NOTE ON               note: 26 velocity: 48
EVENT TIME           f0
CHANNEL              06
BASIC MIDI EVENT     NOTE OFF              note: 26 velocity: 40
EVENT TIME           0
CHANNEL              06
BASIC MIDI EVENT     NOTE ON               note: 25 velocity: 48
EVENT TIME           f0
CHANNEL              06
BASIC MIDI EVENT     NOTE OFF              note: 25 velocity: 40
EVENT TIME           1e0
CHANNEL              06
BASIC MIDI EVENT     NOTE ON               note: 2d velocity: 48
EVENT TIME           1e0
CHANNEL              06
BASIC MIDI EVENT     NOTE OFF              note: 2d velocity: 40
EVENT TIME           0
CHANNEL              06
BASIC MIDI EVENT     NOTE ON               note: 25 velocity: 48
EVENT TIME           f0
CHANNEL              06
BASIC MIDI EVENT     NOTE OFF              note: 25 velocity: 40
EVENT TIME           0
CHANNEL              06
BASIC MIDI EVENT     NOTE ON               note: 21 velocity: 48
EVENT TIME           f0
CHANNEL              06
BASIC MIDI EVENT     NOTE OFF              note: 21 velocity: 40
EVENT TIME           0
CHANNEL              06
BASIC MIDI EVENT     NOTE ON               note: 25 velocity: 48
EVENT TIME           f0
CHANNEL              06
BASIC MIDI EVENT     NOTE OFF              note: 25 velocity: 40
EVENT TIME           0
CHANNEL              06
BASIC MIDI EVENT     NOTE ON               note: 24 velocity: 48
EVENT TIME           f0
CHANNEL              06
BASIC MIDI EVENT     NOTE OFF              note: 24 velocity: 40
EVENT TIME           1e0
CHANNEL              06
BASIC MIDI EVENT     NOTE ON               note: 24 velocity: 48
EVENT TIME           1e0
CHANNEL              06
BASIC MIDI EVENT     NOTE OFF              note: 24 velocity: 40
EVENT TIME           0
CHANNEL              06
BASIC MIDI EVENT     NOTE ON               note: 1e velocity: 48
EVENT TIME           f0
CHANNEL              06
BASIC MIDI EVENT     NOTE OFF              note: 1e velocity: 40
EVENT TIME           0
CHANNEL              06
BASIC MIDI EVENT     NOTE ON               note: 21 velocity: 48
EVENT TIME           f0
CHANNEL              06
BASIC MIDI EVENT     NOTE OFF              note: 21 velocity: 40
EVENT TIME           0
CHANNEL              06
BASIC MIDI EVENT     NOTE ON               note: 24 velocity: 48
EVENT TIME           f0
CHANNEL              06
BASIC MIDI EVENT     NOTE OFF              note: 24 velocity: 40
EVENT TIME           0
CHANNEL              06
BASIC MIDI EVENT     NOTE ON               note: 23 velocity: 48
EVENT TIME           f0
CHANNEL              06
BASIC MIDI EVENT     NOTE OFF              note: 23 velocity: 40
EVENT TIME           1e0
CHANNEL              06
BASIC MIDI EVENT     NOTE ON               note: 23 velocity: 48
EVENT TIME           1e0
CHANNEL              06
BASIC MIDI EVENT     NOTE OFF              note: 23 velocity: 40
EVENT TIME           0
CHANNEL              06
BASIC MIDI EVENT     NOTE ON               note: 1f velocity: 48
EVENT TIME           f0
CHANNEL              06
BASIC MIDI EVENT     NOTE OFF              note: 1f velocity: 40
EVENT TIME           0
CHANNEL              06
BASIC MIDI EVENT     NOTE ON               note: 23 velocity: 48
EVENT TIME           f0
CHANNEL              06
BASIC MIDI EVENT     NOTE OFF              note: 23 velocity: 40
EVENT TIME           0
CHANNEL              06
BASIC MIDI EVENT     NOTE ON               note: 1f velocity: 48
EVENT TIME           f0
CHANNEL              06
BASIC MIDI EVENT     NOTE OFF              note: 1f velocity: 40
EVENT TIME           0
CHANNEL              06
BASIC MIDI EVENT     NOTE ON               note: 28 velocity: 48
EVENT TIME           f0
CHANNEL              06
BASIC MIDI EVENT     NOTE OFF              note: 28 velocity: 40
EVENT TIME           1e0
CHANNEL              06
BASIC MIDI EVENT     NOTE ON               note: 28 velocity: 48
EVENT TIME           1e0
CHANNEL              06
BASIC MIDI EVENT     NOTE OFF              note: 28 velocity: 40
EVENT TIME           0
CHANNEL              06
BASIC MIDI EVENT     NOTE ON               note: 23 velocity: 48
EVENT TIME           f0
CHANNEL              06
BASIC MIDI EVENT     NOTE OFF              note: 23 velocity: 40
EVENT TIME           0
CHANNEL              06
BASIC MIDI EVENT     NOTE ON               note: 28 velocity: 48
EVENT TIME           f0
CHANNEL              06
BASIC MIDI EVENT     NOTE OFF              note: 28 velocity: 40
EVENT TIME           0
CHANNEL              06
BASIC MIDI EVENT     NOTE ON               note: 23 velocity: 48
EVENT TIME           f0
CHANNEL              06
BASIC MIDI EVENT     NOTE OFF              note: 23 velocity: 40
EVENT TIME           0
CHANNEL              06
BASIC MIDI EVENT     NOTE ON               note: 1c velocity: 48
EVENT TIME           f0
CHANNEL              06
BASIC MIDI EVENT     NOTE OFF              note: 1c velocity: 40
EVENT TIME           1e0
CHANNEL              06
BASIC MIDI EVENT     NOTE ON               note: 1c velocity: 48
EVENT TIME           1e0
CHANNEL              06
BASIC MIDI EVENT     NOTE OFF              note: 1c velocity: 40
EVENT TIME           0
CHANNEL              06
BASIC MIDI EVENT     NOTE ON               note: 1c velocity: 48
EVENT TIME           f0
CHANNEL              06
BASIC MIDI EVENT     NOTE OFF              note: 1c velocity: 40
EVENT TIME           0
CHANNEL              06
BASIC MIDI EVENT     NOTE ON               note: 1e velocity: 48
EVENT TIME           f0
CHANNEL              06
BASIC MIDI EVENT     NOTE OFF              note: 1e velocity: 40
EVENT TIME           0
CHANNEL              06
BASIC MIDI EVENT     NOTE ON               note: 1c velocity: 48
EVENT TIME           f0
CHANNEL              06
BASIC MIDI EVENT     NOTE OFF              note: 1c velocity: 40
EVENT TIME           0
CHANNEL              06
BASIC MIDI EVENT     NOTE ON               note: 1f velocity: 48
EVENT TIME           f0
CHANNEL              06
BASIC MIDI EVENT     NOTE OFF              note: 1f velocity: 40
EVENT TIME           0
CHANNEL              06
BASIC MIDI EVENT     NOTE ON               note: 1f velocity: 48
EVENT TIME           f0
CHANNEL              06
BASIC MIDI EVENT     NOTE OFF              note: 1f velocity: 40
EVENT TIME           f0
CHANNEL              06
BASIC MIDI EVENT     NOTE ON               note: 1f velocity: 48
EVENT TIME           f0
CHANNEL              06
BASIC MIDI EVENT     NOTE OFF              note: 1f velocity: 40
EVENT TIME           f0
CHANNEL              06
BASIC MIDI EVENT     NOTE ON               note: 1f velocity: 48
EVENT TIME           f0
CHANNEL              06
BASIC MIDI EVENT     NOTE OFF              note: 1f velocity: 40
EVENT TIME           f0
CHANNEL              06
BASIC MIDI EVENT     NOTE ON               note: 21 velocity: 48
EVENT TIME           f0
CHANNEL              06
BASIC MIDI EVENT     NOTE OFF              note: 21 velocity: 40
EVENT TIME           f0
CHANNEL              06
BASIC MIDI EVENT     NOTE ON               note: 21 velocity: 48
EVENT TIME           1e0
CHANNEL              06
BASIC MIDI EVENT     NOTE OFF              note: 21 velocity: 40
EVENT TIME           0
CHANNEL              06
BASIC MIDI EVENT     NOTE ON               note: 1c velocity: 48
EVENT TIME           f0
CHANNEL              06
BASIC MIDI EVENT     NOTE OFF              note: 1c velocity: 40
EVENT TIME           0
CHANNEL              06
BASIC MIDI EVENT     NOTE ON               note: 21 velocity: 48
EVENT TIME           f0
CHANNEL              06
BASIC MIDI EVENT     NOTE OFF              note: 21 velocity: 40
EVENT TIME           0
CHANNEL              06
BASIC MIDI EVENT     NOTE ON               note: 21 velocity: 48
EVENT TIME           f0
CHANNEL              06
BASIC MIDI EVENT     NOTE OFF              note: 21 velocity: 40
EVENT TIME           0
CHANNEL              06
BASIC MIDI EVENT     NOTE ON               note: 21 velocity: 48
EVENT TIME           f0
CHANNEL              06
BASIC MIDI EVENT     NOTE OFF              note: 21 velocity: 40
EVENT TIME           0
CHANNEL              06
BASIC MIDI EVENT     NOTE ON               note: 1c velocity: 48
EVENT TIME           f0
CHANNEL              06
BASIC MIDI EVENT     NOTE OFF              note: 1c velocity: 40
EVENT TIME           0
CHANNEL              06
BASIC MIDI EVENT     NOTE ON               note: 22 velocity: 48
EVENT TIME           1e0
CHANNEL              06
BASIC MIDI EVENT     NOTE OFF              note: 22 velocity: 40
EVENT TIME           0
CHANNEL              06
BASIC MIDI EVENT     NOTE ON               note: 2e velocity: 48
EVENT TIME           f0
CHANNEL              06
BASIC MIDI EVENT     NOTE OFF              note: 2e velocity: 40
EVENT TIME           0
CHANNEL              06
BASIC MIDI EVENT     NOTE ON               note: 29 velocity: 48
EVENT TIME           1e0
CHANNEL              06
BASIC MIDI EVENT     NOTE OFF              note: 29 velocity: 40
EVENT TIME           0
CHANNEL              06
BASIC MIDI EVENT     NOTE ON               note: 22 velocity: 48
EVENT TIME           f0
CHANNEL              06
BASIC MIDI EVENT     NOTE OFF              note: 22 velocity: 40
EVENT TIME           0
CHANNEL              06
BASIC MIDI EVENT     NOTE ON               note: 29 velocity: 48
EVENT TIME           f0
CHANNEL              06
BASIC MIDI EVENT     NOTE OFF              note: 29 velocity: 40
EVENT TIME           0
CHANNEL              06
BASIC MIDI EVENT     NOTE ON               note: 22 velocity: 48
EVENT TIME           f0
CHANNEL              06
BASIC MIDI EVENT     NOTE OFF              note: 22 velocity: 40
EVENT TIME           0
CHANNEL              06
BASIC MIDI EVENT     NOTE ON               note: 24 velocity: 48
EVENT TIME           1e0
CHANNEL              06
BASIC MIDI EVENT     NOTE OFF              note: 24 velocity: 40
EVENT TIME           0
CHANNEL              06
BASIC MIDI EVENT     NOTE ON               note: 30 velocity: 48
EVENT TIME           f0
CHANNEL              06
BASIC MIDI EVENT     NOTE OFF              note: 30 velocity: 40
EVENT TIME           0
CHANNEL              06
BASIC MIDI EVENT     NOTE ON               note: 2b velocity: 48
EVENT TIME           1e0
CHANNEL              06
BASIC MIDI EVENT     NOTE OFF              note: 2b velocity: 40
EVENT TIME           0
CHANNEL              06
BASIC MIDI EVENT     NOTE ON               note: 24 velocity: 48
EVENT TIME           f0
CHANNEL              06
BASIC MIDI EVENT     NOTE OFF              note: 24 velocity: 40
EVENT TIME           0
CHANNEL              06
BASIC MIDI EVENT     NOTE ON               note: 2b velocity: 48
EVENT TIME           f0
CHANNEL              06
BASIC MIDI EVENT     NOTE OFF              note: 2b velocity: 40
EVENT TIME           0
CHANNEL              06
BASIC MIDI EVENT     NOTE ON               note: 24 velocity: 48
EVENT TIME           f0
CHANNEL              06
BASIC MIDI EVENT     NOTE OFF              note: 24 velocity: 40
EVENT TIME           0
CHANNEL              06
BASIC MIDI EVENT     NOTE ON               note: 21 velocity: 48
EVENT TIME           2d0
CHANNEL              06
BASIC MIDI EVENT     NOTE OFF              note: 21 velocity: 40
EVENT TIME           0
CHANNEL              06
BASIC MIDI EVENT     NOTE ON               note: 28 velocity: 48
EVENT TIME           1e0
CHANNEL              06
BASIC MIDI EVENT     NOTE OFF              note: 28 velocity: 40
EVENT TIME           0
CHANNEL              06
BASIC MIDI EVENT     NOTE ON               note: 21 velocity: 48
EVENT TIME           f0
CHANNEL              06
BASIC MIDI EVENT     NOTE OFF              note: 21 velocity: 40
EVENT TIME           0
CHANNEL              06
BASIC MIDI EVENT     NOTE ON               note: 28 velocity: 48
EVENT TIME           f0
CHANNEL              06
BASIC MIDI EVENT     NOTE OFF              note: 28 velocity: 40
EVENT TIME           0
CHANNEL              06
BASIC MIDI EVENT     NOTE ON               note: 21 velocity: 48
EVENT TIME           f0
CHANNEL              06
BASIC MIDI EVENT     NOTE OFF              note: 21 velocity: 40
EVENT TIME           0
CHANNEL              06
BASIC MIDI EVENT     NOTE ON               note: 26 velocity: 48
EVENT TIME           2d0
CHANNEL              06
BASIC MIDI EVENT     NOTE OFF              note: 26 velocity: 40
EVENT TIME           0
CHANNEL              06
BASIC MIDI EVENT     NOTE ON               note: 2d velocity: 48
EVENT TIME           78
CHANNEL              06
BASIC MIDI EVENT     NOTE OFF              note: 2d velocity: 40
EVENT TIME           0
CHANNEL              06
BASIC MIDI EVENT     NOTE ON               note: 31 velocity: 48
EVENT TIME           78
CHANNEL              06
BASIC MIDI EVENT     NOTE OFF              note: 31 velocity: 40
EVENT TIME           0
CHANNEL              06
BASIC MIDI EVENT     NOTE ON               note: 32 velocity: 48
EVENT TIME           78
CHANNEL              06
BASIC MIDI EVENT     NOTE OFF              note: 32 velocity: 40
EVENT TIME           78
CHANNEL              06
BASIC MIDI EVENT     NOTE ON               note: 2d velocity: 48
EVENT TIME           f0
CHANNEL              06
BASIC MIDI EVENT     NOTE OFF              note: 2d velocity: 40
EVENT TIME           0
CHANNEL              06
BASIC MIDI EVENT     NOTE ON               note: 26 velocity: 48
EVENT TIME           1e0
CHANNEL              06
BASIC MIDI EVENT     NOTE OFF              note: 26 velocity: 40
EVENT TIME           0
CHANNEL              06
BASIC MIDI EVENT     NOTE ON               note: 27 velocity: 48
EVENT TIME           1e0
CHANNEL              06
BASIC MIDI EVENT     NOTE OFF              note: 27 velocity: 40
EVENT TIME           0
CHANNEL              06
BASIC MIDI EVENT     NOTE ON               note: 22 velocity: 48
EVENT TIME           f0
CHANNEL              06
BASIC MIDI EVENT     NOTE OFF              note: 22 velocity: 40
EVENT TIME           0
CHANNEL              06
BASIC MIDI EVENT     NOTE ON               note: 27 velocity: 48
EVENT TIME           1e0
CHANNEL              06
BASIC MIDI EVENT     NOTE OFF              note: 27 velocity: 40
EVENT TIME           0
CHANNEL              06
BASIC MIDI EVENT     NOTE ON               note: 2b velocity: 48
EVENT TIME           f0
CHANNEL              06
BASIC MIDI EVENT     NOTE OFF              note: 2b velocity: 40
EVENT TIME           0
CHANNEL              06
BASIC MIDI EVENT     NOTE ON               note: 27 velocity: 48
EVENT TIME           f0
CHANNEL              06
BASIC MIDI EVENT     NOTE OFF              note: 27 velocity: 40
EVENT TIME           0
CHANNEL              06
BASIC MIDI EVENT     NOTE ON               note: 22 velocity: 48
EVENT TIME           f0
CHANNEL              06
BASIC MIDI EVENT     NOTE OFF              note: 22 velocity: 40
EVENT TIME           0
CHANNEL              06
BASIC MIDI EVENT     NOTE ON               note: 22 velocity: 48
EVENT TIME           1e0
CHANNEL              06
BASIC MIDI EVENT     NOTE OFF              note: 22 velocity: 40
EVENT TIME           0
CHANNEL              06
BASIC MIDI EVENT     NOTE ON               note: 22 velocity: 48
EVENT TIME           f0
CHANNEL              06
BASIC MIDI EVENT     NOTE OFF              note: 22 velocity: 40
EVENT TIME           0
CHANNEL              06
BASIC MIDI EVENT     NOTE ON               note: 29 velocity: 48
EVENT TIME           f0
CHANNEL              06
BASIC MIDI EVENT     NOTE OFF              note: 29 velocity: 40
EVENT TIME           0
CHANNEL              06
BASIC MIDI EVENT     NOTE ON               note: 2e velocity: 48
EVENT TIME           f0
CHANNEL              06
BASIC MIDI EVENT     NOTE OFF              note: 2e velocity: 40
EVENT TIME           0
CHANNEL              06
BASIC MIDI EVENT     NOTE ON               note: 29 velocity: 48
EVENT TIME           f0
CHANNEL              06
BASIC MIDI EVENT     NOTE OFF              note: 29 velocity: 40
EVENT TIME           0
CHANNEL              06
BASIC MIDI EVENT     NOTE ON               note: 2e velocity: 48
EVENT TIME           f0
CHANNEL              06
BASIC MIDI EVENT     NOTE OFF              note: 2e velocity: 40
EVENT TIME           0
CHANNEL              06
BASIC MIDI EVENT     NOTE ON               note: 2d velocity: 48
EVENT TIME           f0
CHANNEL              06
BASIC MIDI EVENT     NOTE OFF              note: 2d velocity: 40
EVENT TIME           0
CHANNEL              06
BASIC MIDI EVENT     NOTE ON               note: 2b velocity: 48
EVENT TIME           1e0
CHANNEL              06
BASIC MIDI EVENT     NOTE OFF              note: 2b velocity: 40
EVENT TIME           0
CHANNEL              06
BASIC MIDI EVENT     NOTE ON               note: 32 velocity: 48
EVENT TIME           f0
CHANNEL              06
BASIC MIDI EVENT     NOTE OFF              note: 32 velocity: 40
EVENT TIME           0
CHANNEL              06
BASIC MIDI EVENT     NOTE ON               note: 37 velocity: 48
EVENT TIME           1e0
CHANNEL              06
BASIC MIDI EVENT     NOTE OFF              note: 37 velocity: 40
EVENT TIME           0
CHANNEL              06
BASIC MIDI EVENT     NOTE ON               note: 26 velocity: 48
EVENT TIME           f0
CHANNEL              06
BASIC MIDI EVENT     NOTE OFF              note: 26 velocity: 40
EVENT TIME           0
CHANNEL              06
BASIC MIDI EVENT     NOTE ON               note: 2b velocity: 48
EVENT TIME           1e0
CHANNEL              06
BASIC MIDI EVENT     NOTE OFF              note: 2b velocity: 40
EVENT TIME           0
CHANNEL              06
BASIC MIDI EVENT     NOTE ON               note: 2b velocity: 48
EVENT TIME           f0
CHANNEL              06
BASIC MIDI EVENT     NOTE OFF              note: 2b velocity: 40
EVENT TIME           0
CHANNEL              06
BASIC MIDI EVENT     NOTE ON               note: 26 velocity: 48
EVENT TIME           f0
CHANNEL              06
BASIC MIDI EVENT     NOTE OFF              note: 26 velocity: 40
EVENT TIME           f0
CHANNEL              06
BASIC MIDI EVENT     NOTE ON               note: 1f velocity: 48
EVENT TIME           1e0
CHANNEL              06
BASIC MIDI EVENT     NOTE OFF              note: 1f velocity: 40
EVENT TIME           0
CHANNEL              06
BASIC MIDI EVENT     NOTE ON               note: 26 velocity: 48
EVENT TIME           f0
CHANNEL              06
BASIC MIDI EVENT     NOTE OFF              note: 26 velocity: 40
EVENT TIME           0
CHANNEL              06
BASIC MIDI EVENT     NOTE ON               note: 2b velocity: 48
EVENT TIME           f0
CHANNEL              06
BASIC MIDI EVENT     NOTE OFF              note: 2b velocity: 40
EVENT TIME           0
CHANNEL              06
BASIC MIDI EVENT     NOTE ON               note: 1f velocity: 48
EVENT TIME           f0
CHANNEL              06
BASIC MIDI EVENT     NOTE OFF              note: 1f velocity: 40
EVENT TIME           0
CHANNEL              06
BASIC MIDI EVENT     NOTE ON               note: 22 velocity: 48
EVENT TIME           1e0
CHANNEL              06
BASIC MIDI EVENT     NOTE OFF              note: 22 velocity: 40
EVENT TIME           0
CHANNEL              06
BASIC MIDI EVENT     NOTE ON               note: 22 velocity: 48
EVENT TIME           f0
CHANNEL              06
BASIC MIDI EVENT     NOTE OFF              note: 22 velocity: 40
EVENT TIME           0
CHANNEL              06
BASIC MIDI EVENT     NOTE ON               note: 1d velocity: 48
EVENT TIME           f0
CHANNEL              06
BASIC MIDI EVENT     NOTE OFF              note: 1d velocity: 40
EVENT TIME           0
CHANNEL              06
BASIC MIDI EVENT     NOTE ON               note: 24 velocity: 48
EVENT TIME           1e0
CHANNEL              06
BASIC MIDI EVENT     NOTE OFF              note: 24 velocity: 40
EVENT TIME           0
CHANNEL              06
BASIC MIDI EVENT     NOTE ON               note: 24 velocity: 48
EVENT TIME           f0
CHANNEL              06
BASIC MIDI EVENT     NOTE OFF              note: 24 velocity: 40
EVENT TIME           0
CHANNEL              06
BASIC MIDI EVENT     NOTE ON               note: 1f velocity: 48
EVENT TIME           f0
CHANNEL              06
BASIC MIDI EVENT     NOTE OFF              note: 1f velocity: 40
EVENT TIME           0
CHANNEL              06
BASIC MIDI EVENT     NOTE ON               note: 24 velocity: 48
EVENT TIME           f0
CHANNEL              06
BASIC MIDI EVENT     NOTE OFF              note: 24 velocity: 40
EVENT TIME           0
CHANNEL              06
BASIC MIDI EVENT     NOTE ON               note: 24 velocity: 48
EVENT TIME           f0
CHANNEL              06
BASIC MIDI EVENT     NOTE OFF              note: 24 velocity: 40
EVENT TIME           f0
CHANNEL              06
BASIC MIDI EVENT     NOTE ON               note: 26 velocity: 48
EVENT TIME           f0
CHANNEL              06
BASIC MIDI EVENT     NOTE OFF              note: 26 velocity: 40
EVENT TIME           0
CHANNEL              06
BASIC MIDI EVENT     NOTE ON               note: 26 velocity: 48
EVENT TIME           f0
CHANNEL              06
BASIC MIDI EVENT     NOTE OFF              note: 26 velocity: 40
EVENT TIME           f0
CHANNEL              06
BASIC MIDI EVENT     NOTE ON               note: 27 velocity: 48
EVENT TIME           f0
CHANNEL              06
BASIC MIDI EVENT     NOTE OFF              note: 27 velocity: 40
EVENT TIME           0
CHANNEL              06
BASIC MIDI EVENT     NOTE ON               note: 27 velocity: 48
EVENT TIME           f0
CHANNEL              06
BASIC MIDI EVENT     NOTE OFF              note: 27 velocity: 40
EVENT TIME           0
CHANNEL              06
BASIC MIDI EVENT     NOTE ON               note: 28 velocity: 48
EVENT TIME           2d0
CHANNEL              06
BASIC MIDI EVENT     NOTE OFF              note: 28 velocity: 40
EVENT TIME           0
CHANNEL              06
BASIC MIDI EVENT     NOTE ON               note: 1c velocity: 48
EVENT TIME           1e0
CHANNEL              06
BASIC MIDI EVENT     NOTE OFF              note: 1c velocity: 40
EVENT TIME           0
CHANNEL              06
BASIC MIDI EVENT     NOTE ON               note: 1c velocity: 48
EVENT TIME           f0
CHANNEL              06
BASIC MIDI EVENT     NOTE OFF              note: 1c velocity: 40
EVENT TIME           0
CHANNEL              06
BASIC MIDI EVENT     NOTE ON               note: 28 velocity: 48
EVENT TIME           f0
CHANNEL              06
BASIC MIDI EVENT     NOTE OFF              note: 28 velocity: 40
EVENT TIME           0
CHANNEL              06
BASIC MIDI EVENT     NOTE ON               note: 23 velocity: 48
EVENT TIME           f0
CHANNEL              06
BASIC MIDI EVENT     NOTE OFF              note: 23 velocity: 40
EVENT TIME           0
CHANNEL              06
BASIC MIDI EVENT     NOTE ON               note: 27 velocity: 48
EVENT TIME           f0
CHANNEL              06
BASIC MIDI EVENT     NOTE OFF              note: 27 velocity: 40
EVENT TIME           0
CHANNEL              06
BASIC MIDI EVENT     NOTE ON               note: 23 velocity: 48
EVENT TIME           f0
CHANNEL              06
BASIC MIDI EVENT     NOTE OFF              note: 23 velocity: 40
EVENT TIME           0
CHANNEL              06
BASIC MIDI EVENT     NOTE ON               note: 1b velocity: 48
EVENT TIME           f0
CHANNEL              06
BASIC MIDI EVENT     NOTE OFF              note: 1b velocity: 40
EVENT TIME           0
CHANNEL              06
BASIC MIDI EVENT     NOTE ON               note: 27 velocity: 48
EVENT TIME           1e0
CHANNEL              06
BASIC MIDI EVENT     NOTE OFF              note: 27 velocity: 40
EVENT TIME           0
CHANNEL              06
BASIC MIDI EVENT     NOTE ON               note: 23 velocity: 48
EVENT TIME           f0
CHANNEL              06
BASIC MIDI EVENT     NOTE OFF              note: 23 velocity: 40
EVENT TIME           0
CHANNEL              06
BASIC MIDI EVENT     NOTE ON               note: 27 velocity: 48
EVENT TIME           f0
CHANNEL              06
BASIC MIDI EVENT     NOTE OFF              note: 27 velocity: 40
EVENT TIME           0
CHANNEL              06
BASIC MIDI EVENT     NOTE ON               note: 23 velocity: 48
EVENT TIME           f0
CHANNEL              06
BASIC MIDI EVENT     NOTE OFF              note: 23 velocity: 40
EVENT TIME           0
CHANNEL              06
BASIC MIDI EVENT     NOTE ON               note: 26 velocity: 48
EVENT TIME           2d0
CHANNEL              06
BASIC MIDI EVENT     NOTE OFF              note: 26 velocity: 40
EVENT TIME           0
CHANNEL              06
BASIC MIDI EVENT     NOTE ON               note: 1a velocity: 48
EVENT TIME           1e0
CHANNEL              06
BASIC MIDI EVENT     NOTE OFF              note: 1a velocity: 40
EVENT TIME           0
CHANNEL              06
BASIC MIDI EVENT     NOTE ON               note: 21 velocity: 48
EVENT TIME           f0
CHANNEL              06
BASIC MIDI EVENT     NOTE OFF              note: 21 velocity: 40
EVENT TIME           0
CHANNEL              06
BASIC MIDI EVENT     NOTE ON               note: 26 velocity: 48
EVENT TIME           f0
CHANNEL              06
BASIC MIDI EVENT     NOTE OFF              note: 26 velocity: 40
EVENT TIME           0
CHANNEL              06
BASIC MIDI EVENT     NOTE ON               note: 26 velocity: 48
EVENT TIME           f0
CHANNEL              06
BASIC MIDI EVENT     NOTE OFF              note: 26 velocity: 40
EVENT TIME           0
CHANNEL              06
BASIC MIDI EVENT     NOTE ON               note: 25 velocity: 48
EVENT TIME           2d0
CHANNEL              06
BASIC MIDI EVENT     NOTE OFF              note: 25 velocity: 40
EVENT TIME           0
CHANNEL              06
BASIC MIDI EVENT     NOTE ON               note: 19 velocity: 48
EVENT TIME           f0
CHANNEL              06
BASIC MIDI EVENT     NOTE OFF              note: 19 velocity: 40
EVENT TIME           0
CHANNEL              06
BASIC MIDI EVENT     NOTE ON               note: 1e velocity: 48
EVENT TIME           f0
CHANNEL              06
BASIC MIDI EVENT     NOTE OFF              note: 1e velocity: 40
EVENT TIME           0
CHANNEL              06
BASIC MIDI EVENT     NOTE ON               note: 25 velocity: 48
EVENT TIME           f0
CHANNEL              06
BASIC MIDI EVENT     NOTE OFF              note: 25 velocity: 40
EVENT TIME           0
CHANNEL              06
BASIC MIDI EVENT     NOTE ON               note: 21 velocity: 48
EVENT TIME           f0
CHANNEL              06
BASIC MIDI EVENT     NOTE OFF              note: 21 velocity: 40
EVENT TIME           0
CHANNEL              06
BASIC MIDI EVENT     NOTE ON               note: 25 velocity: 48
EVENT TIME           f0
CHANNEL              06
BASIC MIDI EVENT     NOTE OFF              note: 25 velocity: 40
EVENT TIME           0
CHANNEL              06
BASIC MIDI EVENT     NOTE ON               note: 24 velocity: 48
EVENT TIME           2d0
CHANNEL              06
BASIC MIDI EVENT     NOTE OFF              note: 24 velocity: 40
EVENT TIME           0
CHANNEL              06
BASIC MIDI EVENT     NOTE ON               note: 18 velocity: 48
EVENT TIME           f0
CHANNEL              06
BASIC MIDI EVENT     NOTE OFF              note: 18 velocity: 40
EVENT TIME           0
CHANNEL              06
BASIC MIDI EVENT     NOTE ON               note: 18 velocity: 48
EVENT TIME           f0
CHANNEL              06
BASIC MIDI EVENT     NOTE OFF              note: 18 velocity: 40
EVENT TIME           0
CHANNEL              06
BASIC MIDI EVENT     NOTE ON               note: 1f velocity: 48
EVENT TIME           f0
CHANNEL              06
BASIC MIDI EVENT     NOTE OFF              note: 1f velocity: 40
EVENT TIME           0
CHANNEL              06
BASIC MIDI EVENT     NOTE ON               note: 24 velocity: 48
EVENT TIME           f0
CHANNEL              06
BASIC MIDI EVENT     NOTE OFF              note: 24 velocity: 40
EVENT TIME           0
CHANNEL              06
BASIC MIDI EVENT     NOTE ON               note: 1f velocity: 48
EVENT TIME           f0
CHANNEL              06
BASIC MIDI EVENT     NOTE OFF              note: 1f velocity: 40
EVENT TIME           0
CHANNEL              06
BASIC MIDI EVENT     NOTE ON               note: 26 velocity: 48
EVENT TIME           2d0
CHANNEL              06
BASIC MIDI EVENT     NOTE OFF              note: 26 velocity: 40
EVENT TIME           0
CHANNEL              06
BASIC MIDI EVENT     NOTE ON               note: 21 velocity: 48
EVENT TIME           f0
CHANNEL              06
BASIC MIDI EVENT     NOTE OFF              note: 21 velocity: 40
EVENT TIME           0
CHANNEL              06
BASIC MIDI EVENT     NOTE ON               note: 26 velocity: 48
EVENT TIME           f0
CHANNEL              06
BASIC MIDI EVENT     NOTE OFF              note: 26 velocity: 40
EVENT TIME           0
CHANNEL              06
BASIC MIDI EVENT     NOTE ON               note: 21 velocity: 48
EVENT TIME           f0
CHANNEL              06
BASIC MIDI EVENT     NOTE OFF              note: 21 velocity: 40
EVENT TIME           0
CHANNEL              06
BASIC MIDI EVENT     NOTE ON               note: 26 velocity: 48
EVENT TIME           f0
CHANNEL              06
BASIC MIDI EVENT     NOTE OFF              note: 26 velocity: 40
EVENT TIME           0
CHANNEL              06
BASIC MIDI EVENT     NOTE ON               note: 21 velocity: 48
EVENT TIME           f0
CHANNEL              06
BASIC MIDI EVENT     NOTE OFF              note: 21 velocity: 40
EVENT TIME           0
CHANNEL              06
BASIC MIDI EVENT     NOTE ON               note: 24 velocity: 48
EVENT TIME           3c0
CHANNEL              06
BASIC MIDI EVENT     NOTE OFF              note: 24 velocity: 40
EVENT TIME           f0
CHANNEL              06
BASIC MIDI EVENT     NOTE ON               note: 1f velocity: 48
EVENT TIME           f0
CHANNEL              06
BASIC MIDI EVENT     NOTE OFF              note: 1f velocity: 40
EVENT TIME           0
CHANNEL              06
BASIC MIDI EVENT     NOTE ON               note: 24 velocity: 48
EVENT TIME           f0
CHANNEL              06
BASIC MIDI EVENT     NOTE OFF              note: 24 velocity: 40
EVENT TIME           0
CHANNEL              06
BASIC MIDI EVENT     NOTE ON               note: 1f velocity: 48
EVENT TIME           f0
CHANNEL              06
BASIC MIDI EVENT     NOTE OFF              note: 1f velocity: 40
EVENT TIME           0
CHANNEL              06
BASIC MIDI EVENT     NOTE ON               note: 26 velocity: 48
EVENT TIME           1e0
CHANNEL              06
BASIC MIDI EVENT     NOTE OFF              note: 26 velocity: 40
EVENT TIME           0
CHANNEL              06
BASIC MIDI EVENT     NOTE ON               note: 1a velocity: 48
EVENT TIME           f0
CHANNEL              06
BASIC MIDI EVENT     NOTE OFF              note: 1a velocity: 40
EVENT TIME           0
CHANNEL              06
BASIC MIDI EVENT     NOTE ON               note: 21 velocity: 48
EVENT TIME           f0
CHANNEL              06
BASIC MIDI EVENT     NOTE OFF              note: 21 velocity: 40
EVENT TIME           0
CHANNEL              06
BASIC MIDI EVENT     NOTE ON               note: 26 velocity: 48
EVENT TIME           f0
CHANNEL              06
BASIC MIDI EVENT     NOTE OFF              note: 26 velocity: 40
EVENT TIME           0
CHANNEL              06
BASIC MIDI EVENT     NOTE ON               note: 21 velocity: 48
EVENT TIME           f0
CHANNEL              06
BASIC MIDI EVENT     NOTE OFF              note: 21 velocity: 40
EVENT TIME           0
CHANNEL              06
BASIC MIDI EVENT     NOTE ON               note: 1a velocity: 48
EVENT TIME           1e0
CHANNEL              06
BASIC MIDI EVENT     NOTE OFF              note: 1a velocity: 40
EVENT TIME           0
CHANNEL              06
BASIC MIDI EVENT     NOTE ON               note: 28 velocity: 48
EVENT TIME           2d0
CHANNEL              06
BASIC MIDI EVENT     NOTE OFF              note: 28 velocity: 40
EVENT TIME           0
CHANNEL              06
BASIC MIDI EVENT     NOTE ON               note: 1c velocity: 48
EVENT TIME           f0
CHANNEL              06
BASIC MIDI EVENT     NOTE OFF              note: 1c velocity: 40
EVENT TIME           0
CHANNEL              06
BASIC MIDI EVENT     NOTE ON               note: 1c velocity: 48
EVENT TIME           f0
CHANNEL              06
BASIC MIDI EVENT     NOTE OFF              note: 1c velocity: 40
EVENT TIME           0
CHANNEL              06
BASIC MIDI EVENT     NOTE ON               note: 20 velocity: 48
EVENT TIME           f0
CHANNEL              06
BASIC MIDI EVENT     NOTE OFF              note: 20 velocity: 40
EVENT TIME           0
CHANNEL              06
BASIC MIDI EVENT     NOTE ON               note: 23 velocity: 48
EVENT TIME           f0
CHANNEL              06
BASIC MIDI EVENT     NOTE OFF              note: 23 velocity: 40
EVENT TIME           0
CHANNEL              06
BASIC MIDI EVENT     NOTE ON               note: 28 velocity: 48
EVENT TIME           f0
CHANNEL              06
BASIC MIDI EVENT     NOTE OFF              note: 28 velocity: 40
EVENT TIME           0
CHANNEL              06
BASIC MIDI EVENT     NOTE ON               note: 27 velocity: 48
EVENT TIME           1e0
CHANNEL              06
BASIC MIDI EVENT     NOTE OFF              note: 27 velocity: 40
EVENT TIME           0
CHANNEL              06
BASIC MIDI EVENT     NOTE ON               note: 1b velocity: 48
EVENT TIME           f0
CHANNEL              06
BASIC MIDI EVENT     NOTE OFF              note: 1b velocity: 40
EVENT TIME           0
CHANNEL              06
BASIC MIDI EVENT     NOTE ON               note: 23 velocity: 48
EVENT TIME           f0
CHANNEL              06
BASIC MIDI EVENT     NOTE OFF              note: 23 velocity: 40
EVENT TIME           0
CHANNEL              06
BASIC MIDI EVENT     NOTE ON               note: 27 velocity: 48
EVENT TIME           f0
CHANNEL              06
BASIC MIDI EVENT     NOTE OFF              note: 27 velocity: 40
EVENT TIME           0
CHANNEL              06
BASIC MIDI EVENT     NOTE ON               note: 23 velocity: 48
EVENT TIME           f0
CHANNEL              06
BASIC MIDI EVENT     NOTE OFF              note: 23 velocity: 40
EVENT TIME           0
CHANNEL              06
BASIC MIDI EVENT     NOTE ON               note: 27 velocity: 48
EVENT TIME           f0
CHANNEL              06
BASIC MIDI EVENT     NOTE OFF              note: 27 velocity: 40
EVENT TIME           0
CHANNEL              06
BASIC MIDI EVENT     NOTE ON               note: 23 velocity: 48
EVENT TIME           f0
CHANNEL              06
BASIC MIDI EVENT     NOTE OFF              note: 23 velocity: 40
EVENT TIME           0
CHANNEL              06
BASIC MIDI EVENT     NOTE ON               note: 26 velocity: 48
EVENT TIME           1e0
CHANNEL              06
BASIC MIDI EVENT     NOTE OFF              note: 26 velocity: 40
EVENT TIME           0
CHANNEL              06
BASIC MIDI EVENT     NOTE ON               note: 1a velocity: 48
EVENT TIME           f0
CHANNEL              06
BASIC MIDI EVENT     NOTE OFF              note: 1a velocity: 40
EVENT TIME           0
CHANNEL              06
BASIC MIDI EVENT     NOTE ON               note: 1a velocity: 48
EVENT TIME           1e0
CHANNEL              06
BASIC MIDI EVENT     NOTE OFF              note: 1a velocity: 40
EVENT TIME           0
CHANNEL              06
BASIC MIDI EVENT     NOTE ON               note: 21 velocity: 48
EVENT TIME           f0
CHANNEL              06
BASIC MIDI EVENT     NOTE OFF              note: 21 velocity: 40
EVENT TIME           0
CHANNEL              06
BASIC MIDI EVENT     NOTE ON               note: 26 velocity: 48
EVENT TIME           f0
CHANNEL              06
BASIC MIDI EVENT     NOTE OFF              note: 26 velocity: 40
EVENT TIME           0
CHANNEL              06
BASIC MIDI EVENT     NOTE ON               note: 21 velocity: 48
EVENT TIME           f0
CHANNEL              06
BASIC MIDI EVENT     NOTE OFF              note: 21 velocity: 40
EVENT TIME           0
CHANNEL              06
BASIC MIDI EVENT     NOTE ON               note: 25 velocity: 48
EVENT TIME           f0
CHANNEL              06
BASIC MIDI EVENT     NOTE OFF              note: 25 velocity: 40
EVENT TIME           0
CHANNEL              06
BASIC MIDI EVENT     NOTE ON               note: 20 velocity: 48
EVENT TIME           f0
CHANNEL              06
BASIC MIDI EVENT     NOTE OFF              note: 20 velocity: 40
EVENT TIME           0
CHANNEL              06
BASIC MIDI EVENT     NOTE ON               note: 25 velocity: 48
EVENT TIME           f0
CHANNEL              06
BASIC MIDI EVENT     NOTE OFF              note: 25 velocity: 40
EVENT TIME           0
CHANNEL              06
BASIC MIDI EVENT     NOTE ON               note: 25 velocity: 48
EVENT TIME           1e0
CHANNEL              06
BASIC MIDI EVENT     NOTE OFF              note: 25 velocity: 40
EVENT TIME           0
CHANNEL              06
BASIC MIDI EVENT     NOTE ON               note: 20 velocity: 48
EVENT TIME           f0
CHANNEL              06
BASIC MIDI EVENT     NOTE OFF              note: 20 velocity: 40
EVENT TIME           0
CHANNEL              06
BASIC MIDI EVENT     NOTE ON               note: 25 velocity: 48
EVENT TIME           f0
CHANNEL              06
BASIC MIDI EVENT     NOTE OFF              note: 25 velocity: 40
EVENT TIME           0
CHANNEL              06
BASIC MIDI EVENT     NOTE ON               note: 20 velocity: 48
EVENT TIME           f0
CHANNEL              06
BASIC MIDI EVENT     NOTE OFF              note: 20 velocity: 40
EVENT TIME           0
CHANNEL              06
BASIC MIDI EVENT     NOTE ON               note: 24 velocity: 48
EVENT TIME           1e0
CHANNEL              06
BASIC MIDI EVENT     NOTE OFF              note: 24 velocity: 40
EVENT TIME           0
CHANNEL              06
BASIC MIDI EVENT     NOTE ON               note: 24 velocity: 48
EVENT TIME           f0
CHANNEL              06
BASIC MIDI EVENT     NOTE OFF              note: 24 velocity: 40
EVENT TIME           0
CHANNEL              06
BASIC MIDI EVENT     NOTE ON               note: 1f velocity: 48
EVENT TIME           f0
CHANNEL              06
BASIC MIDI EVENT     NOTE OFF              note: 1f velocity: 40
EVENT TIME           0
CHANNEL              06
BASIC MIDI EVENT     NOTE ON               note: 24 velocity: 48
EVENT TIME           f0
CHANNEL              06
BASIC MIDI EVENT     NOTE OFF              note: 24 velocity: 40
EVENT TIME           0
CHANNEL              06
BASIC MIDI EVENT     NOTE ON               note: 24 velocity: 48
EVENT TIME           f0
CHANNEL              06
BASIC MIDI EVENT     NOTE OFF              note: 24 velocity: 40
EVENT TIME           0
CHANNEL              06
BASIC MIDI EVENT     NOTE ON               note: 24 velocity: 48
EVENT TIME           f0
CHANNEL              06
BASIC MIDI EVENT     NOTE OFF              note: 24 velocity: 40
EVENT TIME           0
CHANNEL              06
BASIC MIDI EVENT     NOTE ON               note: 1f velocity: 48
EVENT TIME           f0
CHANNEL              06
BASIC MIDI EVENT     NOTE OFF              note: 1f velocity: 40
EVENT TIME           0
CHANNEL              06
BASIC MIDI EVENT     NOTE ON               note: 26 velocity: 48
EVENT TIME           1e0
CHANNEL              06
BASIC MIDI EVENT     NOTE OFF              note: 26 velocity: 40
EVENT TIME           0
CHANNEL              06
BASIC MIDI EVENT     NOTE ON               note: 1a velocity: 48
EVENT TIME           f0
CHANNEL              06
BASIC MIDI EVENT     NOTE OFF              note: 1a velocity: 40
EVENT TIME           0
CHANNEL              06
BASIC MIDI EVENT     NOTE ON               note: 21 velocity: 48
EVENT TIME           f0
CHANNEL              06
BASIC MIDI EVENT     NOTE OFF              note: 21 velocity: 40
EVENT TIME           0
CHANNEL              06
BASIC MIDI EVENT     NOTE ON               note: 26 velocity: 48
EVENT TIME           f0
CHANNEL              06
BASIC MIDI EVENT     NOTE OFF              note: 26 velocity: 40
EVENT TIME           0
CHANNEL              06
BASIC MIDI EVENT     NOTE ON               note: 21 velocity: 48
EVENT TIME           f0
CHANNEL              06
BASIC MIDI EVENT     NOTE OFF              note: 21 velocity: 40
EVENT TIME           0
CHANNEL              06
BASIC MIDI EVENT     NOTE ON               note: 1a velocity: 48
EVENT TIME           1e0
CHANNEL              06
BASIC MIDI EVENT     NOTE OFF              note: 1a velocity: 40
EVENT TIME           0
CHANNEL              06
BASIC MIDI EVENT     NOTE ON               note: 24 velocity: 48
EVENT TIME           1e0
CHANNEL              06
BASIC MIDI EVENT     NOTE OFF              note: 24 velocity: 40
EVENT TIME           0
CHANNEL              06
BASIC MIDI EVENT     NOTE ON               note: 24 velocity: 48
EVENT TIME           f0
CHANNEL              06
BASIC MIDI EVENT     NOTE OFF              note: 24 velocity: 40
EVENT TIME           0
CHANNEL              06
BASIC MIDI EVENT     NOTE ON               note: 1f velocity: 48
EVENT TIME           f0
CHANNEL              06
BASIC MIDI EVENT     NOTE OFF              note: 1f velocity: 40
EVENT TIME           0
CHANNEL              06
BASIC MIDI EVENT     NOTE ON               note: 24 velocity: 48
EVENT TIME           f0
CHANNEL              06
BASIC MIDI EVENT     NOTE OFF              note: 24 velocity: 40
EVENT TIME           0
CHANNEL              06
BASIC MIDI EVENT     NOTE ON               note: 24 velocity: 48
EVENT TIME           f0
CHANNEL              06
BASIC MIDI EVENT     NOTE OFF              note: 24 velocity: 40
EVENT TIME           0
CHANNEL              06
BASIC MIDI EVENT     NOTE ON               note: 24 velocity: 48
EVENT TIME           f0
CHANNEL              06
BASIC MIDI EVENT     NOTE OFF              note: 24 velocity: 40
EVENT TIME           0
CHANNEL              06
BASIC MIDI EVENT     NOTE ON               note: 1f velocity: 48
EVENT TIME           f0
CHANNEL              06
BASIC MIDI EVENT     NOTE OFF              note: 1f velocity: 40
EVENT TIME           0
CHANNEL              06
BASIC MIDI EVENT     NOTE ON               note: 26 velocity: 48
EVENT TIME           1e0
CHANNEL              06
BASIC MIDI EVENT     NOTE OFF              note: 26 velocity: 40
EVENT TIME           0
CHANNEL              06
BASIC MIDI EVENT     NOTE ON               note: 26 velocity: 48
EVENT TIME           f0
CHANNEL              06
BASIC MIDI EVENT     NOTE OFF              note: 26 velocity: 40
EVENT TIME           0
CHANNEL              06
BASIC MIDI EVENT     NOTE ON               note: 21 velocity: 48
EVENT TIME           f0
CHANNEL              06
BASIC MIDI EVENT     NOTE OFF              note: 21 velocity: 40
EVENT TIME           0
CHANNEL              06
BASIC MIDI EVENT     NOTE ON               note: 26 velocity: 48
EVENT TIME           f0
CHANNEL              06
BASIC MIDI EVENT     NOTE OFF              note: 26 velocity: 40
EVENT TIME           0
CHANNEL              06
BASIC MIDI EVENT     NOTE ON               note: 26 velocity: 48
EVENT TIME           f0
CHANNEL              06
BASIC MIDI EVENT     NOTE OFF              note: 26 velocity: 40
EVENT TIME           0
CHANNEL              06
BASIC MIDI EVENT     NOTE ON               note: 26 velocity: 48
EVENT TIME           f0
CHANNEL              06
BASIC MIDI EVENT     NOTE OFF              note: 26 velocity: 40
EVENT TIME           0
CHANNEL              06
BASIC MIDI EVENT     NOTE ON               note: 21 velocity: 48
EVENT TIME           f0
CHANNEL              06
BASIC MIDI EVENT     NOTE OFF              note: 21 velocity: 40
EVENT TIME           0
CHANNEL              06
BASIC MIDI EVENT     NOTE ON               note: 28 velocity: 48
EVENT TIME           78
CHANNEL              06
BASIC MIDI EVENT     NOTE OFF              note: 28 velocity: 40
EVENT TIME           78
CHANNEL              06
BASIC MIDI EVENT     NOTE ON               note: 28 velocity: 48
EVENT TIME           f0
CHANNEL              06
BASIC MIDI EVENT     NOTE OFF              note: 28 velocity: 40
EVENT TIME           f0
CHANNEL              06
BASIC MIDI EVENT     NOTE ON               note: 23 velocity: 48
EVENT TIME           78
CHANNEL              06
BASIC MIDI EVENT     NOTE OFF              note: 23 velocity: 40
EVENT TIME           78
CHANNEL              06
BASIC MIDI EVENT     NOTE ON               note: 23 velocity: 48
EVENT TIME           f0
CHANNEL              06
BASIC MIDI EVENT     NOTE OFF              note: 23 velocity: 40
EVENT TIME           f0
CHANNEL              06
BASIC MIDI EVENT     NOTE ON               note: 26 velocity: 48
EVENT TIME           78
CHANNEL              06
BASIC MIDI EVENT     NOTE OFF              note: 26 velocity: 40
EVENT TIME           78
CHANNEL              06
BASIC MIDI EVENT     NOTE ON               note: 26 velocity: 48
EVENT TIME           f0
CHANNEL              06
BASIC MIDI EVENT     NOTE OFF              note: 26 velocity: 40
EVENT TIME           f0
CHANNEL              06
BASIC MIDI EVENT     NOTE ON               note: 21 velocity: 48
EVENT TIME           78
CHANNEL              06
BASIC MIDI EVENT     NOTE OFF              note: 21 velocity: 40
EVENT TIME           78
CHANNEL              06
BASIC MIDI EVENT     NOTE ON               note: 21 velocity: 48
EVENT TIME           f0
CHANNEL              06
BASIC MIDI EVENT     NOTE OFF              note: 21 velocity: 40
EVENT TIME           f0
CHANNEL              06
BASIC MIDI EVENT     NOTE ON               note: 24 velocity: 48
EVENT TIME           78
CHANNEL              06
BASIC MIDI EVENT     NOTE OFF              note: 24 velocity: 40
EVENT TIME           78
CHANNEL              06
BASIC MIDI EVENT     NOTE ON               note: 24 velocity: 48
EVENT TIME           f0
CHANNEL              06
BASIC MIDI EVENT     NOTE OFF              note: 24 velocity: 40
EVENT TIME           0
CHANNEL              06
BASIC MIDI EVENT     NOTE ON               note: 23 velocity: 48
EVENT TIME           78
CHANNEL              06
BASIC MIDI EVENT     NOTE OFF              note: 23 velocity: 40
EVENT TIME           78
CHANNEL              06
BASIC MIDI EVENT     NOTE ON               note: 23 velocity: 48
EVENT TIME           f0
CHANNEL              06
BASIC MIDI EVENT     NOTE OFF              note: 23 velocity: 40
EVENT TIME           0
CHANNEL              06
BASIC MIDI EVENT     NOTE ON               note: 26 velocity: 48
EVENT TIME           f0
CHANNEL              06
BASIC MIDI EVENT     NOTE OFF              note: 26 velocity: 40
EVENT TIME           1e0
CHANNEL              06
BASIC MIDI EVENT     NOTE ON               note: 2f velocity: 48
EVENT TIME           1e0
CHANNEL              06
BASIC MIDI EVENT     NOTE OFF              note: 2f velocity: 40
EVENT TIME           0
CHANNEL              06
BASIC MIDI EVENT     NOTE ON               note: 2d velocity: 48
EVENT TIME           f0
CHANNEL              06
BASIC MIDI EVENT     NOTE OFF              note: 2d velocity: 40
EVENT TIME           0
CHANNEL              06
BASIC MIDI EVENT     NOTE ON               note: 2a velocity: 48
EVENT TIME           f0
CHANNEL              06
BASIC MIDI EVENT     NOTE OFF              note: 2a velocity: 40
EVENT TIME           0
CHANNEL              06
BASIC MIDI EVENT     NOTE ON               note: 26 velocity: 48
EVENT TIME           f0
CHANNEL              06
BASIC MIDI EVENT     NOTE OFF              note: 26 velocity: 40
EVENT TIME           0
CHANNEL              06
BASIC MIDI EVENT     NOTE ON               note: 25 velocity: 48
EVENT TIME           f0
CHANNEL              06
BASIC MIDI EVENT     NOTE OFF              note: 25 velocity: 40
EVENT TIME           1e0
CHANNEL              06
BASIC MIDI EVENT     NOTE ON               note: 2d velocity: 48
EVENT TIME           1e0
CHANNEL              06
BASIC MIDI EVENT     NOTE OFF              note: 2d velocity: 40
EVENT TIME           0
CHANNEL              06
BASIC MIDI EVENT     NOTE ON               note: 25 velocity: 48
EVENT TIME           f0
CHANNEL              06
BASIC MIDI EVENT     NOTE OFF              note: 25 velocity: 40
EVENT TIME           0
CHANNEL              06
BASIC MIDI EVENT     NOTE ON               note: 21 velocity: 48
EVENT TIME           f0
CHANNEL              06
BASIC MIDI EVENT     NOTE OFF              note: 21 velocity: 40
EVENT TIME           0
CHANNEL              06
BASIC MIDI EVENT     NOTE ON               note: 25 velocity: 48
EVENT TIME           f0
CHANNEL              06
BASIC MIDI EVENT     NOTE OFF              note: 25 velocity: 40
EVENT TIME           0
CHANNEL              06
BASIC MIDI EVENT     NOTE ON               note: 24 velocity: 48
EVENT TIME           f0
CHANNEL              06
BASIC MIDI EVENT     NOTE OFF              note: 24 velocity: 40
EVENT TIME           1e0
CHANNEL              06
BASIC MIDI EVENT     NOTE ON               note: 24 velocity: 48
EVENT TIME           1e0
CHANNEL              06
BASIC MIDI EVENT     NOTE OFF              note: 24 velocity: 40
EVENT TIME           0
CHANNEL              06
BASIC MIDI EVENT     NOTE ON               note: 1e velocity: 48
EVENT TIME           f0
CHANNEL              06
BASIC MIDI EVENT     NOTE OFF              note: 1e velocity: 40
EVENT TIME           0
CHANNEL              06
BASIC MIDI EVENT     NOTE ON               note: 21 velocity: 48
EVENT TIME           f0
CHANNEL              06
BASIC MIDI EVENT     NOTE OFF              note: 21 velocity: 40
EVENT TIME           0
CHANNEL              06
BASIC MIDI EVENT     NOTE ON               note: 24 velocity: 48
EVENT TIME           f0
CHANNEL              06
BASIC MIDI EVENT     NOTE OFF              note: 24 velocity: 40
EVENT TIME           0
CHANNEL              06
BASIC MIDI EVENT     NOTE ON               note: 23 velocity: 48
EVENT TIME           f0
CHANNEL              06
BASIC MIDI EVENT     NOTE OFF              note: 23 velocity: 40
EVENT TIME           1e0
CHANNEL              06
BASIC MIDI EVENT     NOTE ON               note: 23 velocity: 48
EVENT TIME           1e0
CHANNEL              06
BASIC MIDI EVENT     NOTE OFF              note: 23 velocity: 40
EVENT TIME           0
CHANNEL              06
BASIC MIDI EVENT     NOTE ON               note: 23 velocity: 48
EVENT TIME           f0
CHANNEL              06
BASIC MIDI EVENT     NOTE OFF              note: 23 velocity: 40
EVENT TIME           0
CHANNEL              06
BASIC MIDI EVENT     NOTE ON               note: 23 velocity: 48
EVENT TIME           f0
CHANNEL              06
BASIC MIDI EVENT     NOTE OFF              note: 23 velocity: 40
EVENT TIME           0
CHANNEL              06
BASIC MIDI EVENT     NOTE ON               note: 1f velocity: 48
EVENT TIME           f0
CHANNEL              06
BASIC MIDI EVENT     NOTE OFF              note: 1f velocity: 40
EVENT TIME           0
CHANNEL              06
BASIC MIDI EVENT     NOTE ON               note: 28 velocity: 48
EVENT TIME           f0
CHANNEL              06
BASIC MIDI EVENT     NOTE OFF              note: 28 velocity: 40
EVENT TIME           1e0
CHANNEL              06
BASIC MIDI EVENT     NOTE ON               note: 28 velocity: 48
EVENT TIME           1e0
CHANNEL              06
BASIC MIDI EVENT     NOTE OFF              note: 28 velocity: 40
EVENT TIME           0
CHANNEL              06
BASIC MIDI EVENT     NOTE ON               note: 23 velocity: 48
EVENT TIME           f0
CHANNEL              06
BASIC MIDI EVENT     NOTE OFF              note: 23 velocity: 40
EVENT TIME           0
CHANNEL              06
BASIC MIDI EVENT     NOTE ON               note: 28 velocity: 48
EVENT TIME           f0
CHANNEL              06
BASIC MIDI EVENT     NOTE OFF              note: 28 velocity: 40
EVENT TIME           0
CHANNEL              06
BASIC MIDI EVENT     NOTE ON               note: 23 velocity: 48
EVENT TIME           f0
CHANNEL              06
BASIC MIDI EVENT     NOTE OFF              note: 23 velocity: 40
EVENT TIME           0
CHANNEL              06
BASIC MIDI EVENT     NOTE ON               note: 1c velocity: 48
EVENT TIME           f0
CHANNEL              06
BASIC MIDI EVENT     NOTE OFF              note: 1c velocity: 40
EVENT TIME           1e0
CHANNEL              06
BASIC MIDI EVENT     NOTE ON               note: 1c velocity: 48
EVENT TIME           1e0
CHANNEL              06
BASIC MIDI EVENT     NOTE OFF              note: 1c velocity: 40
EVENT TIME           0
CHANNEL              06
BASIC MIDI EVENT     NOTE ON               note: 1c velocity: 48
EVENT TIME           f0
CHANNEL              06
BASIC MIDI EVENT     NOTE OFF              note: 1c velocity: 40
EVENT TIME           0
CHANNEL              06
BASIC MIDI EVENT     NOTE ON               note: 1e velocity: 48
EVENT TIME           f0
CHANNEL              06
BASIC MIDI EVENT     NOTE OFF              note: 1e velocity: 40
EVENT TIME           0
CHANNEL              06
BASIC MIDI EVENT     NOTE ON               note: 1c velocity: 48
EVENT TIME           f0
CHANNEL              06
BASIC MIDI EVENT     NOTE OFF              note: 1c velocity: 40
EVENT TIME           0
CHANNEL              06
BASIC MIDI EVENT     NOTE ON               note: 1f velocity: 48
EVENT TIME           f0
CHANNEL              06
BASIC MIDI EVENT     NOTE OFF              note: 1f velocity: 40
EVENT TIME           0
CHANNEL              06
BASIC MIDI EVENT     NOTE ON               note: 1f velocity: 48
EVENT TIME           f0
CHANNEL              06
BASIC MIDI EVENT     NOTE OFF              note: 1f velocity: 40
EVENT TIME           f0
CHANNEL              06
BASIC MIDI EVENT     NOTE ON               note: 1f velocity: 48
EVENT TIME           f0
CHANNEL              06
BASIC MIDI EVENT     NOTE OFF              note: 1f velocity: 40
EVENT TIME           f0
CHANNEL              06
BASIC MIDI EVENT     NOTE ON               note: 1f velocity: 48
EVENT TIME           f0
CHANNEL              06
BASIC MIDI EVENT     NOTE OFF              note: 1f velocity: 40
EVENT TIME           f0
CHANNEL              06
BASIC MIDI EVENT     NOTE ON               note: 21 velocity: 48
EVENT TIME           f0
CHANNEL              06
BASIC MIDI EVENT     NOTE OFF              note: 21 velocity: 40
EVENT TIME           1e0
CHANNEL              06
BASIC MIDI EVENT     NOTE ON               note: 21 velocity: 48
EVENT TIME           f0
CHANNEL              06
BASIC MIDI EVENT     NOTE OFF              note: 21 velocity: 40
EVENT TIME           f0
CHANNEL              06
BASIC MIDI EVENT     NOTE ON               note: 23 velocity: 48
EVENT TIME           1e0
CHANNEL              06
BASIC MIDI EVENT     NOTE OFF              note: 23 velocity: 40
EVENT TIME           0
CHANNEL              06
BASIC MIDI EVENT     NOTE ON               note: 21 velocity: 48
EVENT TIME           1e0
CHANNEL              06
BASIC MIDI EVENT     NOTE OFF              note: 21 velocity: 40
EVENT TIME           0
CHANNEL              06
BASIC MIDI EVENT     NOTE ON               note: 26 velocity: 48
EVENT TIME           f0
CHANNEL              06
BASIC MIDI EVENT     NOTE OFF              note: 26 velocity: 40
EVENT TIME           1e0
CHANNEL              06
BASIC MIDI EVENT     NOTE ON               note: 2f velocity: 48
EVENT TIME           1e0
CHANNEL              06
BASIC MIDI EVENT     NOTE OFF              note: 2f velocity: 40
EVENT TIME           0
CHANNEL              06
BASIC MIDI EVENT     NOTE ON               note: 2d velocity: 48
EVENT TIME           f0
CHANNEL              06
BASIC MIDI EVENT     NOTE OFF              note: 2d velocity: 40
EVENT TIME           0
CHANNEL              06
BASIC MIDI EVENT     NOTE ON               note: 2a velocity: 48
EVENT TIME           f0
CHANNEL              06
BASIC MIDI EVENT     NOTE OFF              note: 2a velocity: 40
EVENT TIME           0
CHANNEL              06
BASIC MIDI EVENT     NOTE ON               note: 26 velocity: 48
EVENT TIME           f0
CHANNEL              06
BASIC MIDI EVENT     NOTE OFF              note: 26 velocity: 40
EVENT TIME           0
CHANNEL              06
BASIC MIDI EVENT     NOTE ON               note: 25 velocity: 48
EVENT TIME           f0
CHANNEL              06
BASIC MIDI EVENT     NOTE OFF              note: 25 velocity: 40
EVENT TIME           1e0
CHANNEL              06
BASIC MIDI EVENT     NOTE ON               note: 2d velocity: 48
EVENT TIME           1e0
CHANNEL              06
BASIC MIDI EVENT     NOTE OFF              note: 2d velocity: 40
EVENT TIME           0
CHANNEL              06
BASIC MIDI EVENT     NOTE ON               note: 25 velocity: 48
EVENT TIME           f0
CHANNEL              06
BASIC MIDI EVENT     NOTE OFF              note: 25 velocity: 40
EVENT TIME           0
CHANNEL              06
BASIC MIDI EVENT     NOTE ON               note: 21 velocity: 48
EVENT TIME           f0
CHANNEL              06
BASIC MIDI EVENT     NOTE OFF              note: 21 velocity: 40
EVENT TIME           0
CHANNEL              06
BASIC MIDI EVENT     NOTE ON               note: 25 velocity: 48
EVENT TIME           f0
CHANNEL              06
BASIC MIDI EVENT     NOTE OFF              note: 25 velocity: 40
EVENT TIME           0
CHANNEL              06
BASIC MIDI EVENT     NOTE ON               note: 24 velocity: 48
EVENT TIME           f0
CHANNEL              06
BASIC MIDI EVENT     NOTE OFF              note: 24 velocity: 40
EVENT TIME           1e0
CHANNEL              06
BASIC MIDI EVENT     NOTE ON               note: 24 velocity: 48
EVENT TIME           1e0
CHANNEL              06
BASIC MIDI EVENT     NOTE OFF              note: 24 velocity: 40
EVENT TIME           0
CHANNEL              06
BASIC MIDI EVENT     NOTE ON               note: 1e velocity: 48
EVENT TIME           f0
CHANNEL              06
BASIC MIDI EVENT     NOTE OFF              note: 1e velocity: 40
EVENT TIME           0
CHANNEL              06
BASIC MIDI EVENT     NOTE ON               note: 21 velocity: 48
EVENT TIME           f0
CHANNEL              06
BASIC MIDI EVENT     NOTE OFF              note: 21 velocity: 40
EVENT TIME           0
CHANNEL              06
BASIC MIDI EVENT     NOTE ON               note: 24 velocity: 48
EVENT TIME           f0
CHANNEL              06
BASIC MIDI EVENT     NOTE OFF              note: 24 velocity: 40
EVENT TIME           0
CHANNEL              06
BASIC MIDI EVENT     NOTE ON               note: 23 velocity: 48
EVENT TIME           f0
CHANNEL              06
BASIC MIDI EVENT     NOTE OFF              note: 23 velocity: 40
EVENT TIME           1e0
CHANNEL              06
BASIC MIDI EVENT     NOTE ON               note: 23 velocity: 48
EVENT TIME           1e0
CHANNEL              06
BASIC MIDI EVENT     NOTE OFF              note: 23 velocity: 40
EVENT TIME           0
CHANNEL              06
BASIC MIDI EVENT     NOTE ON               note: 1f velocity: 48
EVENT TIME           f0
CHANNEL              06
BASIC MIDI EVENT     NOTE OFF              note: 1f velocity: 40
EVENT TIME           0
CHANNEL              06
BASIC MIDI EVENT     NOTE ON               note: 23 velocity: 48
EVENT TIME           f0
CHANNEL              06
BASIC MIDI EVENT     NOTE OFF              note: 23 velocity: 40
EVENT TIME           0
CHANNEL              06
BASIC MIDI EVENT     NOTE ON               note: 1f velocity: 48
EVENT TIME           f0
CHANNEL              06
BASIC MIDI EVENT     NOTE OFF              note: 1f velocity: 40
EVENT TIME           0
CHANNEL              06
BASIC MIDI EVENT     NOTE ON               note: 28 velocity: 48
EVENT TIME           f0
CHANNEL              06
BASIC MIDI EVENT     NOTE OFF              note: 28 velocity: 40
EVENT TIME           1e0
CHANNEL              06
BASIC MIDI EVENT     NOTE ON               note: 28 velocity: 48
EVENT TIME           1e0
CHANNEL              06
BASIC MIDI EVENT     NOTE OFF              note: 28 velocity: 40
EVENT TIME           0
CHANNEL              06
BASIC MIDI EVENT     NOTE ON               note: 23 velocity: 48
EVENT TIME           f0
CHANNEL              06
BASIC MIDI EVENT     NOTE OFF              note: 23 velocity: 40
EVENT TIME           0
CHANNEL              06
BASIC MIDI EVENT     NOTE ON               note: 28 velocity: 48
EVENT TIME           f0
CHANNEL              06
BASIC MIDI EVENT     NOTE OFF              note: 28 velocity: 40
EVENT TIME           0
CHANNEL              06
BASIC MIDI EVENT     NOTE ON               note: 23 velocity: 48
EVENT TIME           f0
CHANNEL              06
BASIC MIDI EVENT     NOTE OFF              note: 23 velocity: 40
EVENT TIME           0
CHANNEL              06
BASIC MIDI EVENT     NOTE ON               note: 1c velocity: 48
EVENT TIME           f0
CHANNEL              06
BASIC MIDI EVENT     NOTE OFF              note: 1c velocity: 40
EVENT TIME           1e0
CHANNEL              06
BASIC MIDI EVENT     NOTE ON               note: 1c velocity: 48
EVENT TIME           1e0
CHANNEL              06
BASIC MIDI EVENT     NOTE OFF              note: 1c velocity: 40
EVENT TIME           0
CHANNEL              06
BASIC MIDI EVENT     NOTE ON               note: 1c velocity: 48
EVENT TIME           f0
CHANNEL              06
BASIC MIDI EVENT     NOTE OFF              note: 1c velocity: 40
EVENT TIME           0
CHANNEL              06
BASIC MIDI EVENT     NOTE ON               note: 1e velocity: 48
EVENT TIME           f0
CHANNEL              06
BASIC MIDI EVENT     NOTE OFF              note: 1e velocity: 40
EVENT TIME           0
CHANNEL              06
BASIC MIDI EVENT     NOTE ON               note: 1c velocity: 48
EVENT TIME           f0
CHANNEL              06
BASIC MIDI EVENT     NOTE OFF              note: 1c velocity: 40
EVENT TIME           0
CHANNEL              06
BASIC MIDI EVENT     NOTE ON               note: 1f velocity: 48
EVENT TIME           f0
CHANNEL              06
BASIC MIDI EVENT     NOTE OFF              note: 1f velocity: 40
EVENT TIME           0
CHANNEL              06
BASIC MIDI EVENT     NOTE ON               note: 1f velocity: 48
EVENT TIME           f0
CHANNEL              06
BASIC MIDI EVENT     NOTE OFF              note: 1f velocity: 40
EVENT TIME           f0
CHANNEL              06
BASIC MIDI EVENT     NOTE ON               note: 1f velocity: 48
EVENT TIME           f0
CHANNEL              06
BASIC MIDI EVENT     NOTE OFF              note: 1f velocity: 40
EVENT TIME           f0
CHANNEL              06
BASIC MIDI EVENT     NOTE ON               note: 1f velocity: 48
EVENT TIME           f0
CHANNEL              06
BASIC MIDI EVENT     NOTE OFF              note: 1f velocity: 40
EVENT TIME           f0
CHANNEL              06
BASIC MIDI EVENT     NOTE ON               note: 21 velocity: 48
EVENT TIME           f0
CHANNEL              06
BASIC MIDI EVENT     NOTE OFF              note: 21 velocity: 40
EVENT TIME           f0
CHANNEL              06
BASIC MIDI EVENT     NOTE ON               note: 21 velocity: 48
EVENT TIME           1e0
CHANNEL              06
BASIC MIDI EVENT     NOTE OFF              note: 21 velocity: 40
EVENT TIME           0
CHANNEL              06
BASIC MIDI EVENT     NOTE ON               note: 1c velocity: 48
EVENT TIME           f0
CHANNEL              06
BASIC MIDI EVENT     NOTE OFF              note: 1c velocity: 40
EVENT TIME           0
CHANNEL              06
BASIC MIDI EVENT     NOTE ON               note: 21 velocity: 48
EVENT TIME           f0
CHANNEL              06
BASIC MIDI EVENT     NOTE OFF              note: 21 velocity: 40
EVENT TIME           0
CHANNEL              06
BASIC MIDI EVENT     NOTE ON               note: 21 velocity: 48
EVENT TIME           f0
CHANNEL              06
BASIC MIDI EVENT     NOTE OFF              note: 21 velocity: 40
EVENT TIME           0
CHANNEL              06
BASIC MIDI EVENT     NOTE ON               note: 21 velocity: 48
EVENT TIME           f0
CHANNEL              06
BASIC MIDI EVENT     NOTE OFF              note: 21 velocity: 40
EVENT TIME           0
CHANNEL              06
BASIC MIDI EVENT     NOTE ON               note: 1c velocity: 48
EVENT TIME           f0
CHANNEL              06
BASIC MIDI EVENT     NOTE OFF              note: 1c velocity: 40
EVENT TIME           0
CHANNEL              06
BASIC MIDI EVENT     NOTE ON               note: 22 velocity: 48
EVENT TIME           1e0
CHANNEL              06
BASIC MIDI EVENT     NOTE OFF              note: 22 velocity: 40
EVENT TIME           0
CHANNEL              06
BASIC MIDI EVENT     NOTE ON               note: 2e velocity: 48
EVENT TIME           f0
CHANNEL              06
BASIC MIDI EVENT     NOTE OFF              note: 2e velocity: 40
EVENT TIME           0
CHANNEL              06
BASIC MIDI EVENT     NOTE ON               note: 29 velocity: 48
EVENT TIME           1e0
CHANNEL              06
BASIC MIDI EVENT     NOTE OFF              note: 29 velocity: 40
EVENT TIME           0
CHANNEL              06
BASIC MIDI EVENT     NOTE ON               note: 22 velocity: 48
EVENT TIME           f0
CHANNEL              06
BASIC MIDI EVENT     NOTE OFF              note: 22 velocity: 40
EVENT TIME           0
CHANNEL              06
BASIC MIDI EVENT     NOTE ON               note: 29 velocity: 48
EVENT TIME           f0
CHANNEL              06
BASIC MIDI EVENT     NOTE OFF              note: 29 velocity: 40
EVENT TIME           0
CHANNEL              06
BASIC MIDI EVENT     NOTE ON               note: 22 velocity: 48
EVENT TIME           f0
CHANNEL              06
BASIC MIDI EVENT     NOTE OFF              note: 22 velocity: 40
EVENT TIME           0
CHANNEL              06
BASIC MIDI EVENT     NOTE ON               note: 24 velocity: 48
EVENT TIME           1e0
CHANNEL              06
BASIC MIDI EVENT     NOTE OFF              note: 24 velocity: 40
EVENT TIME           0
CHANNEL              06
BASIC MIDI EVENT     NOTE ON               note: 30 velocity: 48
EVENT TIME           f0
CHANNEL              06
BASIC MIDI EVENT     NOTE OFF              note: 30 velocity: 40
EVENT TIME           0
CHANNEL              06
BASIC MIDI EVENT     NOTE ON               note: 2b velocity: 48
EVENT TIME           1e0
CHANNEL              06
BASIC MIDI EVENT     NOTE OFF              note: 2b velocity: 40
EVENT TIME           0
CHANNEL              06
BASIC MIDI EVENT     NOTE ON               note: 24 velocity: 48
EVENT TIME           f0
CHANNEL              06
BASIC MIDI EVENT     NOTE OFF              note: 24 velocity: 40
EVENT TIME           0
CHANNEL              06
BASIC MIDI EVENT     NOTE ON               note: 2b velocity: 48
EVENT TIME           f0
CHANNEL              06
BASIC MIDI EVENT     NOTE OFF              note: 2b velocity: 40
EVENT TIME           0
CHANNEL              06
BASIC MIDI EVENT     NOTE ON               note: 24 velocity: 48
EVENT TIME           f0
CHANNEL              06
BASIC MIDI EVENT     NOTE OFF              note: 24 velocity: 40
EVENT TIME           0
CHANNEL              06
BASIC MIDI EVENT     NOTE ON               note: 21 velocity: 48
EVENT TIME           2d0
CHANNEL              06
BASIC MIDI EVENT     NOTE OFF              note: 21 velocity: 40
EVENT TIME           0
CHANNEL              06
BASIC MIDI EVENT     NOTE ON               note: 28 velocity: 48
EVENT TIME           1e0
CHANNEL              06
BASIC MIDI EVENT     NOTE OFF              note: 28 velocity: 40
EVENT TIME           0
CHANNEL              06
BASIC MIDI EVENT     NOTE ON               note: 21 velocity: 48
EVENT TIME           f0
CHANNEL              06
BASIC MIDI EVENT     NOTE OFF              note: 21 velocity: 40
EVENT TIME           0
CHANNEL              06
BASIC MIDI EVENT     NOTE ON               note: 28 velocity: 48
EVENT TIME           f0
CHANNEL              06
BASIC MIDI EVENT     NOTE OFF              note: 28 velocity: 40
EVENT TIME           0
CHANNEL              06
BASIC MIDI EVENT     NOTE ON               note: 21 velocity: 48
EVENT TIME           f0
CHANNEL              06
BASIC MIDI EVENT     NOTE OFF              note: 21 velocity: 40
EVENT TIME           0
CHANNEL              06
BASIC MIDI EVENT     NOTE ON               note: 26 velocity: 48
EVENT TIME           2d0
CHANNEL              06
BASIC MIDI EVENT     NOTE OFF              note: 26 velocity: 40
EVENT TIME           0
CHANNEL              06
BASIC MIDI EVENT     NOTE ON               note: 2d velocity: 48
EVENT TIME           78
CHANNEL              06
BASIC MIDI EVENT     NOTE OFF              note: 2d velocity: 40
EVENT TIME           0
CHANNEL              06
BASIC MIDI EVENT     NOTE ON               note: 31 velocity: 48
EVENT TIME           78
CHANNEL              06
BASIC MIDI EVENT     NOTE OFF              note: 31 velocity: 40
EVENT TIME           0
CHANNEL              06
BASIC MIDI EVENT     NOTE ON               note: 32 velocity: 48
EVENT TIME           78
CHANNEL              06
BASIC MIDI EVENT     NOTE OFF              note: 32 velocity: 40
EVENT TIME           78
CHANNEL              06
BASIC MIDI EVENT     NOTE ON               note: 2d velocity: 48
EVENT TIME           f0
CHANNEL              06
BASIC MIDI EVENT     NOTE OFF              note: 2d velocity: 40
EVENT TIME           0
CHANNEL              06
BASIC MIDI EVENT     NOTE ON               note: 26 velocity: 48
EVENT TIME           1e0
CHANNEL              06
BASIC MIDI EVENT     NOTE OFF              note: 26 velocity: 40
EVENT TIME           0
CHANNEL              06
BASIC MIDI EVENT     NOTE ON               note: 27 velocity: 48
EVENT TIME           1e0
CHANNEL              06
BASIC MIDI EVENT     NOTE OFF              note: 27 velocity: 40
EVENT TIME           0
CHANNEL              06
BASIC MIDI EVENT     NOTE ON               note: 22 velocity: 48
EVENT TIME           f0
CHANNEL              06
BASIC MIDI EVENT     NOTE OFF              note: 22 velocity: 40
EVENT TIME           0
CHANNEL              06
BASIC MIDI EVENT     NOTE ON               note: 27 velocity: 48
EVENT TIME           1e0
CHANNEL              06
BASIC MIDI EVENT     NOTE OFF              note: 27 velocity: 40
EVENT TIME           0
CHANNEL              06
BASIC MIDI EVENT     NOTE ON               note: 2b velocity: 48
EVENT TIME           f0
CHANNEL              06
BASIC MIDI EVENT     NOTE OFF              note: 2b velocity: 40
EVENT TIME           0
CHANNEL              06
BASIC MIDI EVENT     NOTE ON               note: 27 velocity: 48
EVENT TIME           f0
CHANNEL              06
BASIC MIDI EVENT     NOTE OFF              note: 27 velocity: 40
EVENT TIME           0
CHANNEL              06
BASIC MIDI EVENT     NOTE ON               note: 22 velocity: 48
EVENT TIME           f0
CHANNEL              06
BASIC MIDI EVENT     NOTE OFF              note: 22 velocity: 40
EVENT TIME           0
CHANNEL              06
BASIC MIDI EVENT     NOTE ON               note: 22 velocity: 48
EVENT TIME           1e0
CHANNEL              06
BASIC MIDI EVENT     NOTE OFF              note: 22 velocity: 40
EVENT TIME           0
CHANNEL              06
BASIC MIDI EVENT     NOTE ON               note: 22 velocity: 48
EVENT TIME           f0
CHANNEL              06
BASIC MIDI EVENT     NOTE OFF              note: 22 velocity: 40
EVENT TIME           0
CHANNEL              06
BASIC MIDI EVENT     NOTE ON               note: 29 velocity: 48
EVENT TIME           f0
CHANNEL              06
BASIC MIDI EVENT     NOTE OFF              note: 29 velocity: 40
EVENT TIME           0
CHANNEL              06
BASIC MIDI EVENT     NOTE ON               note: 2e velocity: 48
EVENT TIME           f0
CHANNEL              06
BASIC MIDI EVENT     NOTE OFF              note: 2e velocity: 40
EVENT TIME           0
CHANNEL              06
BASIC MIDI EVENT     NOTE ON               note: 29 velocity: 48
EVENT TIME           f0
CHANNEL              06
BASIC MIDI EVENT     NOTE OFF              note: 29 velocity: 40
EVENT TIME           0
CHANNEL              06
BASIC MIDI EVENT     NOTE ON               note: 2e velocity: 48
EVENT TIME           f0
CHANNEL              06
BASIC MIDI EVENT     NOTE OFF              note: 2e velocity: 40
EVENT TIME           0
CHANNEL              06
BASIC MIDI EVENT     NOTE ON               note: 2d velocity: 48
EVENT TIME           f0
CHANNEL              06
BASIC MIDI EVENT     NOTE OFF              note: 2d velocity: 40
EVENT TIME           0
CHANNEL              06
BASIC MIDI EVENT     NOTE ON               note: 2b velocity: 48
EVENT TIME           1e0
CHANNEL              06
BASIC MIDI EVENT     NOTE OFF              note: 2b velocity: 40
EVENT TIME           0
CHANNEL              06
BASIC MIDI EVENT     NOTE ON               note: 32 velocity: 48
EVENT TIME           f0
CHANNEL              06
BASIC MIDI EVENT     NOTE OFF              note: 32 velocity: 40
EVENT TIME           0
CHANNEL              06
BASIC MIDI EVENT     NOTE ON               note: 37 velocity: 48
EVENT TIME           1e0
CHANNEL              06
BASIC MIDI EVENT     NOTE OFF              note: 37 velocity: 40
EVENT TIME           0
CHANNEL              06
BASIC MIDI EVENT     NOTE ON               note: 26 velocity: 48
EVENT TIME           f0
CHANNEL              06
BASIC MIDI EVENT     NOTE OFF              note: 26 velocity: 40
EVENT TIME           0
CHANNEL              06
BASIC MIDI EVENT     NOTE ON               note: 2b velocity: 48
EVENT TIME           1e0
CHANNEL              06
BASIC MIDI EVENT     NOTE OFF              note: 2b velocity: 40
EVENT TIME           0
CHANNEL              06
BASIC MIDI EVENT     NOTE ON               note: 2b velocity: 48
EVENT TIME           f0
CHANNEL              06
BASIC MIDI EVENT     NOTE OFF              note: 2b velocity: 40
EVENT TIME           0
CHANNEL              06
BASIC MIDI EVENT     NOTE ON               note: 26 velocity: 48
EVENT TIME           f0
CHANNEL              06
BASIC MIDI EVENT     NOTE OFF              note: 26 velocity: 40
EVENT TIME           f0
CHANNEL              06
BASIC MIDI EVENT     NOTE ON               note: 1f velocity: 48
EVENT TIME           1e0
CHANNEL              06
BASIC MIDI EVENT     NOTE OFF              note: 1f velocity: 40
EVENT TIME           0
CHANNEL              06
BASIC MIDI EVENT     NOTE ON               note: 26 velocity: 48
EVENT TIME           f0
CHANNEL              06
BASIC MIDI EVENT     NOTE OFF              note: 26 velocity: 40
EVENT TIME           0
CHANNEL              06
BASIC MIDI EVENT     NOTE ON               note: 2b velocity: 48
EVENT TIME           f0
CHANNEL              06
BASIC MIDI EVENT     NOTE OFF              note: 2b velocity: 40
EVENT TIME           0
CHANNEL              06
BASIC MIDI EVENT     NOTE ON               note: 1f velocity: 48
EVENT TIME           f0
CHANNEL              06
BASIC MIDI EVENT     NOTE OFF              note: 1f velocity: 40
EVENT TIME           0
CHANNEL              06
BASIC MIDI EVENT     NOTE ON               note: 22 velocity: 48
EVENT TIME           1e0
CHANNEL              06
BASIC MIDI EVENT     NOTE OFF              note: 22 velocity: 40
EVENT TIME           0
CHANNEL              06
BASIC MIDI EVENT     NOTE ON               note: 22 velocity: 48
EVENT TIME           f0
CHANNEL              06
BASIC MIDI EVENT     NOTE OFF              note: 22 velocity: 40
EVENT TIME           0
CHANNEL              06
BASIC MIDI EVENT     NOTE ON               note: 1d velocity: 48
EVENT TIME           f0
CHANNEL              06
BASIC MIDI EVENT     NOTE OFF              note: 1d velocity: 40
EVENT TIME           0
CHANNEL              06
BASIC MIDI EVENT     NOTE ON               note: 24 velocity: 48
EVENT TIME           1e0
CHANNEL              06
BASIC MIDI EVENT     NOTE OFF              note: 24 velocity: 40
EVENT TIME           0
CHANNEL              06
BASIC MIDI EVENT     NOTE ON               note: 24 velocity: 48
EVENT TIME           f0
CHANNEL              06
BASIC MIDI EVENT     NOTE OFF              note: 24 velocity: 40
EVENT TIME           0
CHANNEL              06
BASIC MIDI EVENT     NOTE ON               note: 1f velocity: 48
EVENT TIME           f0
CHANNEL              06
BASIC MIDI EVENT     NOTE OFF              note: 1f velocity: 40
EVENT TIME           0
CHANNEL              06
BASIC MIDI EVENT     NOTE ON               note: 24 velocity: 48
EVENT TIME           f0
CHANNEL              06
BASIC MIDI EVENT     NOTE OFF              note: 24 velocity: 40
EVENT TIME           0
CHANNEL              06
BASIC MIDI EVENT     NOTE ON               note: 24 velocity: 48
EVENT TIME           f0
CHANNEL              06
BASIC MIDI EVENT     NOTE OFF              note: 24 velocity: 40
EVENT TIME           f0
CHANNEL              06
BASIC MIDI EVENT     NOTE ON               note: 26 velocity: 48
EVENT TIME           f0
CHANNEL              06
BASIC MIDI EVENT     NOTE OFF              note: 26 velocity: 40
EVENT TIME           0
CHANNEL              06
BASIC MIDI EVENT     NOTE ON               note: 26 velocity: 48
EVENT TIME           f0
CHANNEL              06
BASIC MIDI EVENT     NOTE OFF              note: 26 velocity: 40
EVENT TIME           f0
CHANNEL              06
BASIC MIDI EVENT     NOTE ON               note: 27 velocity: 48
EVENT TIME           f0
CHANNEL              06
BASIC MIDI EVENT     NOTE OFF              note: 27 velocity: 40
EVENT TIME           0
CHANNEL              06
BASIC MIDI EVENT     NOTE ON               note: 27 velocity: 48
EVENT TIME           f0
CHANNEL              06
BASIC MIDI EVENT     NOTE OFF              note: 27 velocity: 40
EVENT TIME           0
CHANNEL              06
BASIC MIDI EVENT     NOTE ON               note: 28 velocity: 48
EVENT TIME           2d0
CHANNEL              06
BASIC MIDI EVENT     NOTE OFF              note: 28 velocity: 40
EVENT TIME           0
CHANNEL              06
BASIC MIDI EVENT     NOTE ON               note: 1c velocity: 48
EVENT TIME           1e0
CHANNEL              06
BASIC MIDI EVENT     NOTE OFF              note: 1c velocity: 40
EVENT TIME           0
CHANNEL              06
BASIC MIDI EVENT     NOTE ON               note: 1c velocity: 48
EVENT TIME           f0
CHANNEL              06
BASIC MIDI EVENT     NOTE OFF              note: 1c velocity: 40
EVENT TIME           0
CHANNEL              06
BASIC MIDI EVENT     NOTE ON               note: 28 velocity: 48
EVENT TIME           f0
CHANNEL              06
BASIC MIDI EVENT     NOTE OFF              note: 28 velocity: 40
EVENT TIME           0
CHANNEL              06
BASIC MIDI EVENT     NOTE ON               note: 23 velocity: 48
EVENT TIME           f0
CHANNEL              06
BASIC MIDI EVENT     NOTE OFF              note: 23 velocity: 40
EVENT TIME           0
CHANNEL              06
BASIC MIDI EVENT     NOTE ON               note: 27 velocity: 48
EVENT TIME           f0
CHANNEL              06
BASIC MIDI EVENT     NOTE OFF              note: 27 velocity: 40
EVENT TIME           0
CHANNEL              06
BASIC MIDI EVENT     NOTE ON               note: 23 velocity: 48
EVENT TIME           f0
CHANNEL              06
BASIC MIDI EVENT     NOTE OFF              note: 23 velocity: 40
EVENT TIME           0
CHANNEL              06
BASIC MIDI EVENT     NOTE ON               note: 1b velocity: 48
EVENT TIME           f0
CHANNEL              06
BASIC MIDI EVENT     NOTE OFF              note: 1b velocity: 40
EVENT TIME           0
CHANNEL              06
BASIC MIDI EVENT     NOTE ON               note: 27 velocity: 48
EVENT TIME           1e0
CHANNEL              06
BASIC MIDI EVENT     NOTE OFF              note: 27 velocity: 40
EVENT TIME           0
CHANNEL              06
BASIC MIDI EVENT     NOTE ON               note: 23 velocity: 48
EVENT TIME           f0
CHANNEL              06
BASIC MIDI EVENT     NOTE OFF              note: 23 velocity: 40
EVENT TIME           0
CHANNEL              06
BASIC MIDI EVENT     NOTE ON               note: 27 velocity: 48
EVENT TIME           f0
CHANNEL              06
BASIC MIDI EVENT     NOTE OFF              note: 27 velocity: 40
EVENT TIME           0
CHANNEL              06
BASIC MIDI EVENT     NOTE ON               note: 23 velocity: 48
EVENT TIME           f0
CHANNEL              06
BASIC MIDI EVENT     NOTE OFF              note: 23 velocity: 40
EVENT TIME           0
CHANNEL              06
BASIC MIDI EVENT     NOTE ON               note: 26 velocity: 48
EVENT TIME           2d0
CHANNEL              06
BASIC MIDI EVENT     NOTE OFF              note: 26 velocity: 40
EVENT TIME           0
CHANNEL              06
BASIC MIDI EVENT     NOTE ON               note: 1a velocity: 48
EVENT TIME           1e0
CHANNEL              06
BASIC MIDI EVENT     NOTE OFF              note: 1a velocity: 40
EVENT TIME           0
CHANNEL              06
BASIC MIDI EVENT     NOTE ON               note: 21 velocity: 48
EVENT TIME           f0
CHANNEL              06
BASIC MIDI EVENT     NOTE OFF              note: 21 velocity: 40
EVENT TIME           0
CHANNEL              06
BASIC MIDI EVENT     NOTE ON               note: 26 velocity: 48
EVENT TIME           f0
CHANNEL              06
BASIC MIDI EVENT     NOTE OFF              note: 26 velocity: 40
EVENT TIME           0
CHANNEL              06
BASIC MIDI EVENT     NOTE ON               note: 26 velocity: 48
EVENT TIME           f0
CHANNEL              06
BASIC MIDI EVENT     NOTE OFF              note: 26 velocity: 40
EVENT TIME           0
CHANNEL              06
BASIC MIDI EVENT     NOTE ON               note: 25 velocity: 48
EVENT TIME           2d0
CHANNEL              06
BASIC MIDI EVENT     NOTE OFF              note: 25 velocity: 40
EVENT TIME           0
CHANNEL              06
BASIC MIDI EVENT     NOTE ON               note: 19 velocity: 48
EVENT TIME           f0
CHANNEL              06
BASIC MIDI EVENT     NOTE OFF              note: 19 velocity: 40
EVENT TIME           0
CHANNEL              06
BASIC MIDI EVENT     NOTE ON               note: 1e velocity: 48
EVENT TIME           f0
CHANNEL              06
BASIC MIDI EVENT     NOTE OFF              note: 1e velocity: 40
EVENT TIME           0
CHANNEL              06
BASIC MIDI EVENT     NOTE ON               note: 25 velocity: 48
EVENT TIME           f0
CHANNEL              06
BASIC MIDI EVENT     NOTE OFF              note: 25 velocity: 40
EVENT TIME           0
CHANNEL              06
BASIC MIDI EVENT     NOTE ON               note: 21 velocity: 48
EVENT TIME           f0
CHANNEL              06
BASIC MIDI EVENT     NOTE OFF              note: 21 velocity: 40
EVENT TIME           0
CHANNEL              06
BASIC MIDI EVENT     NOTE ON               note: 25 velocity: 48
EVENT TIME           f0
CHANNEL              06
BASIC MIDI EVENT     NOTE OFF              note: 25 velocity: 40
EVENT TIME           0
CHANNEL              06
BASIC MIDI EVENT     NOTE ON               note: 24 velocity: 48
EVENT TIME           2d0
CHANNEL              06
BASIC MIDI EVENT     NOTE OFF              note: 24 velocity: 40
EVENT TIME           0
CHANNEL              06
BASIC MIDI EVENT     NOTE ON               note: 18 velocity: 48
EVENT TIME           f0
CHANNEL              06
BASIC MIDI EVENT     NOTE OFF              note: 18 velocity: 40
EVENT TIME           0
CHANNEL              06
BASIC MIDI EVENT     NOTE ON               note: 18 velocity: 48
EVENT TIME           f0
CHANNEL              06
BASIC MIDI EVENT     NOTE OFF              note: 18 velocity: 40
EVENT TIME           0
CHANNEL              06
BASIC MIDI EVENT     NOTE ON               note: 1f velocity: 48
EVENT TIME           f0
CHANNEL              06
BASIC MIDI EVENT     NOTE OFF              note: 1f velocity: 40
EVENT TIME           0
CHANNEL              06
BASIC MIDI EVENT     NOTE ON               note: 24 velocity: 48
EVENT TIME           f0
CHANNEL              06
BASIC MIDI EVENT     NOTE OFF              note: 24 velocity: 40
EVENT TIME           0
CHANNEL              06
BASIC MIDI EVENT     NOTE ON               note: 1f velocity: 48
EVENT TIME           f0
CHANNEL              06
BASIC MIDI EVENT     NOTE OFF              note: 1f velocity: 40
EVENT TIME           0
CHANNEL              06
BASIC MIDI EVENT     NOTE ON               note: 26 velocity: 48
EVENT TIME           2d0
CHANNEL              06
BASIC MIDI EVENT     NOTE OFF              note: 26 velocity: 40
EVENT TIME           0
CHANNEL              06
BASIC MIDI EVENT     NOTE ON               note: 21 velocity: 48
EVENT TIME           f0
CHANNEL              06
BASIC MIDI EVENT     NOTE OFF              note: 21 velocity: 40
EVENT TIME           0
CHANNEL              06
BASIC MIDI EVENT     NOTE ON               note: 26 velocity: 48
EVENT TIME           f0
CHANNEL              06
BASIC MIDI EVENT     NOTE OFF              note: 26 velocity: 40
EVENT TIME           0
CHANNEL              06
BASIC MIDI EVENT     NOTE ON               note: 21 velocity: 48
EVENT TIME           f0
CHANNEL              06
BASIC MIDI EVENT     NOTE OFF              note: 21 velocity: 40
EVENT TIME           0
CHANNEL              06
BASIC MIDI EVENT     NOTE ON               note: 26 velocity: 48
EVENT TIME           f0
CHANNEL              06
BASIC MIDI EVENT     NOTE OFF              note: 26 velocity: 40
EVENT TIME           0
CHANNEL              06
BASIC MIDI EVENT     NOTE ON               note: 21 velocity: 48
EVENT TIME           f0
CHANNEL              06
BASIC MIDI EVENT     NOTE OFF              note: 21 velocity: 40
EVENT TIME           0
CHANNEL              06
BASIC MIDI EVENT     NOTE ON               note: 24 velocity: 48
EVENT TIME           3c0
CHANNEL              06
BASIC MIDI EVENT     NOTE OFF              note: 24 velocity: 40
EVENT TIME           f0
CHANNEL              06
BASIC MIDI EVENT     NOTE ON               note: 1f velocity: 48
EVENT TIME           f0
CHANNEL              06
BASIC MIDI EVENT     NOTE OFF              note: 1f velocity: 40
EVENT TIME           0
CHANNEL              06
BASIC MIDI EVENT     NOTE ON               note: 24 velocity: 48
EVENT TIME           f0
CHANNEL              06
BASIC MIDI EVENT     NOTE OFF              note: 24 velocity: 40
EVENT TIME           0
CHANNEL              06
BASIC MIDI EVENT     NOTE ON               note: 1f velocity: 48
EVENT TIME           f0
CHANNEL              06
BASIC MIDI EVENT     NOTE OFF              note: 1f velocity: 40
EVENT TIME           0
CHANNEL              06
BASIC MIDI EVENT     NOTE ON               note: 26 velocity: 48
EVENT TIME           1e0
CHANNEL              06
BASIC MIDI EVENT     NOTE OFF              note: 26 velocity: 40
EVENT TIME           0
CHANNEL              06
BASIC MIDI EVENT     NOTE ON               note: 1a velocity: 48
EVENT TIME           f0
CHANNEL              06
BASIC MIDI EVENT     NOTE OFF              note: 1a velocity: 40
EVENT TIME           0
CHANNEL              06
BASIC MIDI EVENT     NOTE ON               note: 21 velocity: 48
EVENT TIME           f0
CHANNEL              06
BASIC MIDI EVENT     NOTE OFF              note: 21 velocity: 40
EVENT TIME           0
CHANNEL              06
BASIC MIDI EVENT     NOTE ON               note: 26 velocity: 48
EVENT TIME           f0
CHANNEL              06
BASIC MIDI EVENT     NOTE OFF              note: 26 velocity: 40
EVENT TIME           0
CHANNEL              06
BASIC MIDI EVENT     NOTE ON               note: 21 velocity: 48
EVENT TIME           f0
CHANNEL              06
BASIC MIDI EVENT     NOTE OFF              note: 21 velocity: 40
EVENT TIME           0
CHANNEL              06
BASIC MIDI EVENT     NOTE ON               note: 1a velocity: 48
EVENT TIME           1e0
CHANNEL              06
BASIC MIDI EVENT     NOTE OFF              note: 1a velocity: 40
EVENT TIME           0
CHANNEL              06
BASIC MIDI EVENT     NOTE ON               note: 28 velocity: 48
EVENT TIME           2d0
CHANNEL              06
BASIC MIDI EVENT     NOTE OFF              note: 28 velocity: 40
EVENT TIME           0
CHANNEL              06
BASIC MIDI EVENT     NOTE ON               note: 1c velocity: 48
EVENT TIME           f0
CHANNEL              06
BASIC MIDI EVENT     NOTE OFF              note: 1c velocity: 40
EVENT TIME           0
CHANNEL              06
BASIC MIDI EVENT     NOTE ON               note: 1c velocity: 48
EVENT TIME           f0
CHANNEL              06
BASIC MIDI EVENT     NOTE OFF              note: 1c velocity: 40
EVENT TIME           0
CHANNEL              06
BASIC MIDI EVENT     NOTE ON               note: 20 velocity: 48
EVENT TIME           f0
CHANNEL              06
BASIC MIDI EVENT     NOTE OFF              note: 20 velocity: 40
EVENT TIME           0
CHANNEL              06
BASIC MIDI EVENT     NOTE ON               note: 23 velocity: 48
EVENT TIME           f0
CHANNEL              06
BASIC MIDI EVENT     NOTE OFF              note: 23 velocity: 40
EVENT TIME           0
CHANNEL              06
BASIC MIDI EVENT     NOTE ON               note: 28 velocity: 48
EVENT TIME           f0
CHANNEL              06
BASIC MIDI EVENT     NOTE OFF              note: 28 velocity: 40
EVENT TIME           0
CHANNEL              06
BASIC MIDI EVENT     NOTE ON               note: 27 velocity: 48
EVENT TIME           1e0
CHANNEL              06
BASIC MIDI EVENT     NOTE OFF              note: 27 velocity: 40
EVENT TIME           0
CHANNEL              06
BASIC MIDI EVENT     NOTE ON               note: 1b velocity: 48
EVENT TIME           f0
CHANNEL              06
BASIC MIDI EVENT     NOTE OFF              note: 1b velocity: 40
EVENT TIME           0
CHANNEL              06
BASIC MIDI EVENT     NOTE ON               note: 23 velocity: 48
EVENT TIME           f0
CHANNEL              06
BASIC MIDI EVENT     NOTE OFF              note: 23 velocity: 40
EVENT TIME           0
CHANNEL              06
BASIC MIDI EVENT     NOTE ON               note: 27 velocity: 48
EVENT TIME           f0
CHANNEL              06
BASIC MIDI EVENT     NOTE OFF              note: 27 velocity: 40
EVENT TIME           0
CHANNEL              06
BASIC MIDI EVENT     NOTE ON               note: 23 velocity: 48
EVENT TIME           f0
CHANNEL              06
BASIC MIDI EVENT     NOTE OFF              note: 23 velocity: 40
EVENT TIME           0
CHANNEL              06
BASIC MIDI EVENT     NOTE ON               note: 27 velocity: 48
EVENT TIME           f0
CHANNEL              06
BASIC MIDI EVENT     NOTE OFF              note: 27 velocity: 40
EVENT TIME           0
CHANNEL              06
BASIC MIDI EVENT     NOTE ON               note: 23 velocity: 48
EVENT TIME           f0
CHANNEL              06
BASIC MIDI EVENT     NOTE OFF              note: 23 velocity: 40
EVENT TIME           0
CHANNEL              06
BASIC MIDI EVENT     NOTE ON               note: 26 velocity: 48
EVENT TIME           1e0
CHANNEL              06
BASIC MIDI EVENT     NOTE OFF              note: 26 velocity: 40
EVENT TIME           0
CHANNEL              06
BASIC MIDI EVENT     NOTE ON               note: 1a velocity: 48
EVENT TIME           f0
CHANNEL              06
BASIC MIDI EVENT     NOTE OFF              note: 1a velocity: 40
EVENT TIME           0
CHANNEL              06
BASIC MIDI EVENT     NOTE ON               note: 1a velocity: 48
EVENT TIME           1e0
CHANNEL              06
BASIC MIDI EVENT     NOTE OFF              note: 1a velocity: 40
EVENT TIME           0
CHANNEL              06
BASIC MIDI EVENT     NOTE ON               note: 21 velocity: 48
EVENT TIME           f0
CHANNEL              06
BASIC MIDI EVENT     NOTE OFF              note: 21 velocity: 40
EVENT TIME           0
CHANNEL              06
BASIC MIDI EVENT     NOTE ON               note: 26 velocity: 48
EVENT TIME           f0
CHANNEL              06
BASIC MIDI EVENT     NOTE OFF              note: 26 velocity: 40
EVENT TIME           0
CHANNEL              06
BASIC MIDI EVENT     NOTE ON               note: 21 velocity: 48
EVENT TIME           f0
CHANNEL              06
BASIC MIDI EVENT     NOTE OFF              note: 21 velocity: 40
EVENT TIME           0
CHANNEL              06
BASIC MIDI EVENT     NOTE ON               note: 25 velocity: 48
EVENT TIME           f0
CHANNEL              06
BASIC MIDI EVENT     NOTE OFF              note: 25 velocity: 40
EVENT TIME           0
CHANNEL              06
BASIC MIDI EVENT     NOTE ON               note: 20 velocity: 48
EVENT TIME           f0
CHANNEL              06
BASIC MIDI EVENT     NOTE OFF              note: 20 velocity: 40
EVENT TIME           0
CHANNEL              06
BASIC MIDI EVENT     NOTE ON               note: 25 velocity: 48
EVENT TIME           f0
CHANNEL              06
BASIC MIDI EVENT     NOTE OFF              note: 25 velocity: 40
EVENT TIME           0
CHANNEL              06
BASIC MIDI EVENT     NOTE ON               note: 25 velocity: 48
EVENT TIME           1e0
CHANNEL              06
BASIC MIDI EVENT     NOTE OFF              note: 25 velocity: 40
EVENT TIME           0
CHANNEL              06
BASIC MIDI EVENT     NOTE ON               note: 20 velocity: 48
EVENT TIME           f0
CHANNEL              06
BASIC MIDI EVENT     NOTE OFF              note: 20 velocity: 40
EVENT TIME           0
CHANNEL              06
BASIC MIDI EVENT     NOTE ON               note: 25 velocity: 48
EVENT TIME           f0
CHANNEL              06
BASIC MIDI EVENT     NOTE OFF              note: 25 velocity: 40
EVENT TIME           0
CHANNEL              06
BASIC MIDI EVENT     NOTE ON               note: 20 velocity: 48
EVENT TIME           f0
CHANNEL              06
BASIC MIDI EVENT     NOTE OFF              note: 20 velocity: 40
EVENT TIME           0
CHANNEL              06
BASIC MIDI EVENT     NOTE ON               note: 24 velocity: 48
EVENT TIME           1e0
CHANNEL              06
BASIC MIDI EVENT     NOTE OFF              note: 24 velocity: 40
EVENT TIME           0
CHANNEL              06
BASIC MIDI EVENT     NOTE ON               note: 24 velocity: 48
EVENT TIME           f0
CHANNEL              06
BASIC MIDI EVENT     NOTE OFF              note: 24 velocity: 40
EVENT TIME           0
CHANNEL              06
BASIC MIDI EVENT     NOTE ON               note: 1f velocity: 48
EVENT TIME           f0
CHANNEL              06
BASIC MIDI EVENT     NOTE OFF              note: 1f velocity: 40
EVENT TIME           0
CHANNEL              06
BASIC MIDI EVENT     NOTE ON               note: 24 velocity: 48
EVENT TIME           f0
CHANNEL              06
BASIC MIDI EVENT     NOTE OFF              note: 24 velocity: 40
EVENT TIME           0
CHANNEL              06
BASIC MIDI EVENT     NOTE ON               note: 24 velocity: 48
EVENT TIME           f0
CHANNEL              06
BASIC MIDI EVENT     NOTE OFF              note: 24 velocity: 40
EVENT TIME           0
CHANNEL              06
BASIC MIDI EVENT     NOTE ON               note: 24 velocity: 48
EVENT TIME           f0
CHANNEL              06
BASIC MIDI EVENT     NOTE OFF              note: 24 velocity: 40
EVENT TIME           0
CHANNEL              06
BASIC MIDI EVENT     NOTE ON               note: 1f velocity: 48
EVENT TIME           f0
CHANNEL              06
BASIC MIDI EVENT     NOTE OFF              note: 1f velocity: 40
EVENT TIME           0
CHANNEL              06
BASIC MIDI EVENT     NOTE ON               note: 26 velocity: 48
EVENT TIME           1e0
CHANNEL              06
BASIC MIDI EVENT     NOTE OFF              note: 26 velocity: 40
EVENT TIME           0
CHANNEL              06
BASIC MIDI EVENT     NOTE ON               note: 1a velocity: 48
EVENT TIME           f0
CHANNEL              06
BASIC MIDI EVENT     NOTE OFF              note: 1a velocity: 40
EVENT TIME           0
CHANNEL              06
BASIC MIDI EVENT     NOTE ON               note: 21 velocity: 48
EVENT TIME           f0
CHANNEL              06
BASIC MIDI EVENT     NOTE OFF              note: 21 velocity: 40
EVENT TIME           0
CHANNEL              06
BASIC MIDI EVENT     NOTE ON               note: 26 velocity: 48
EVENT TIME           f0
CHANNEL              06
BASIC MIDI EVENT     NOTE OFF              note: 26 velocity: 40
EVENT TIME           0
CHANNEL              06
BASIC MIDI EVENT     NOTE ON               note: 21 velocity: 48
EVENT TIME           f0
CHANNEL              06
BASIC MIDI EVENT     NOTE OFF              note: 21 velocity: 40
EVENT TIME           0
CHANNEL              06
BASIC MIDI EVENT     NOTE ON               note: 1a velocity: 48
EVENT TIME           1e0
CHANNEL              06
BASIC MIDI EVENT     NOTE OFF              note: 1a velocity: 40
EVENT TIME           0
CHANNEL              06
BASIC MIDI EVENT     NOTE ON               note: 24 velocity: 48
EVENT TIME           1e0
CHANNEL              06
BASIC MIDI EVENT     NOTE OFF              note: 24 velocity: 40
EVENT TIME           0
CHANNEL              06
BASIC MIDI EVENT     NOTE ON               note: 24 velocity: 48
EVENT TIME           f0
CHANNEL              06
BASIC MIDI EVENT     NOTE OFF              note: 24 velocity: 40
EVENT TIME           0
CHANNEL              06
BASIC MIDI EVENT     NOTE ON               note: 1f velocity: 48
EVENT TIME           f0
CHANNEL              06
BASIC MIDI EVENT     NOTE OFF              note: 1f velocity: 40
EVENT TIME           0
CHANNEL              06
BASIC MIDI EVENT     NOTE ON               note: 24 velocity: 48
EVENT TIME           f0
CHANNEL              06
BASIC MIDI EVENT     NOTE OFF              note: 24 velocity: 40
EVENT TIME           0
CHANNEL              06
BASIC MIDI EVENT     NOTE ON               note: 24 velocity: 48
EVENT TIME           f0
CHANNEL              06
BASIC MIDI EVENT     NOTE OFF              note: 24 velocity: 40
EVENT TIME           0
CHANNEL              06
BASIC MIDI EVENT     NOTE ON               note: 24 velocity: 48
EVENT TIME           f0
CHANNEL              06
BASIC MIDI EVENT     NOTE OFF              note: 24 velocity: 40
EVENT TIME           0
CHANNEL              06
BASIC MIDI EVENT     NOTE ON               note: 1f velocity: 48
EVENT TIME           f0
CHANNEL              06
BASIC MIDI EVENT     NOTE OFF              note: 1f velocity: 40
EVENT TIME           0
CHANNEL              06
BASIC MIDI EVENT     NOTE ON               note: 26 velocity: 48
EVENT TIME           1e0
CHANNEL              06
BASIC MIDI EVENT     NOTE OFF              note: 26 velocity: 40
EVENT TIME           0
CHANNEL              06
BASIC MIDI EVENT     NOTE ON               note: 26 velocity: 48
EVENT TIME           f0
CHANNEL              06
BASIC MIDI EVENT     NOTE OFF              note: 26 velocity: 40
EVENT TIME           0
CHANNEL              06
BASIC MIDI EVENT     NOTE ON               note: 21 velocity: 48
EVENT TIME           f0
CHANNEL              06
BASIC MIDI EVENT     NOTE OFF              note: 21 velocity: 40
EVENT TIME           0
CHANNEL              06
BASIC MIDI EVENT     NOTE ON               note: 26 velocity: 48
EVENT TIME           f0
CHANNEL              06
BASIC MIDI EVENT     NOTE OFF              note: 26 velocity: 40
EVENT TIME           0
CHANNEL              06
BASIC MIDI EVENT     NOTE ON               note: 26 velocity: 48
EVENT TIME           f0
CHANNEL              06
BASIC MIDI EVENT     NOTE OFF              note: 26 velocity: 40
EVENT TIME           0
CHANNEL              06
BASIC MIDI EVENT     NOTE ON               note: 26 velocity: 48
EVENT TIME           f0
CHANNEL              06
BASIC MIDI EVENT     NOTE OFF              note: 26 velocity: 40
EVENT TIME           0
CHANNEL              06
BASIC MIDI EVENT     NOTE ON               note: 21 velocity: 48
EVENT TIME           f0
CHANNEL              06
BASIC MIDI EVENT     NOTE OFF              note: 21 velocity: 40
EVENT TIME           0
CHANNEL              06
BASIC MIDI EVENT     NOTE ON               note: 28 velocity: 48
EVENT TIME           78
CHANNEL              06
BASIC MIDI EVENT     NOTE OFF              note: 28 velocity: 40
EVENT TIME           78
CHANNEL              06
BASIC MIDI EVENT     NOTE ON               note: 28 velocity: 48
EVENT TIME           f0
CHANNEL              06
BASIC MIDI EVENT     NOTE OFF              note: 28 velocity: 40
EVENT TIME           f0
CHANNEL              06
BASIC MIDI EVENT     NOTE ON               note: 23 velocity: 48
EVENT TIME           78
CHANNEL              06
BASIC MIDI EVENT     NOTE OFF              note: 23 velocity: 40
EVENT TIME           78
CHANNEL              06
BASIC MIDI EVENT     NOTE ON               note: 23 velocity: 48
EVENT TIME           f0
CHANNEL              06
BASIC MIDI EVENT     NOTE OFF              note: 23 velocity: 40
EVENT TIME           f0
CHANNEL              06
BASIC MIDI EVENT     NOTE ON               note: 26 velocity: 48
EVENT TIME           78
CHANNEL              06
BASIC MIDI EVENT     NOTE OFF              note: 26 velocity: 40
EVENT TIME           78
CHANNEL              06
BASIC MIDI EVENT     NOTE ON               note: 26 velocity: 48
EVENT TIME           f0
CHANNEL              06
BASIC MIDI EVENT     NOTE OFF              note: 26 velocity: 40
EVENT TIME           f0
CHANNEL              06
BASIC MIDI EVENT     NOTE ON               note: 21 velocity: 48
EVENT TIME           78
CHANNEL              06
BASIC MIDI EVENT     NOTE OFF              note: 21 velocity: 40
EVENT TIME           78
CHANNEL              06
BASIC MIDI EVENT     NOTE ON               note: 21 velocity: 48
EVENT TIME           f0
CHANNEL              06
BASIC MIDI EVENT     NOTE OFF              note: 21 velocity: 40
EVENT TIME           f0
CHANNEL              06
BASIC MIDI EVENT     NOTE ON               note: 24 velocity: 48
EVENT TIME           78
CHANNEL              06
BASIC MIDI EVENT     NOTE OFF              note: 24 velocity: 40
EVENT TIME           78
CHANNEL              06
BASIC MIDI EVENT     NOTE ON               note: 24 velocity: 48
EVENT TIME           f0
CHANNEL              06
BASIC MIDI EVENT     NOTE OFF              note: 24 velocity: 40
EVENT TIME           0
CHANNEL              06
BASIC MIDI EVENT     NOTE ON               note: 23 velocity: 48
EVENT TIME           78
CHANNEL              06
BASIC MIDI EVENT     NOTE OFF              note: 23 velocity: 40
EVENT TIME           78
CHANNEL              06
BASIC MIDI EVENT     NOTE ON               note: 23 velocity: 48
EVENT TIME           f0
CHANNEL              06
BASIC MIDI EVENT     NOTE OFF              note: 23 velocity: 40
EVENT TIME           0
META EVENT           END OF TRACK        
MTrk


EVENT TIME           0
META EVENT           TRACK NAME           text: Piano 2 - Right     
EVENT TIME           0
CHANNEL              08
BASIC MIDI EVENT     PROG_CHANGE           program: 00
EVENT TIME           0
CHANNEL              08
BASIC MIDI EVENT     NOTE ON               note: 3c velocity: 48
EVENT TIME           0
CHANNEL              08
BASIC MIDI EVENT     NOTE ON               note: 45 velocity: 48
EVENT TIME           2d0
CHANNEL              08
BASIC MIDI EVENT     NOTE OFF              note: 3c velocity: 40
EVENT TIME           0
CHANNEL              08
BASIC MIDI EVENT     NOTE OFF              note: 45 velocity: 40
EVENT TIME           0
CHANNEL              08
BASIC MIDI EVENT     NOTE ON               note: 3c velocity: 48
EVENT TIME           0
CHANNEL              08
BASIC MIDI EVENT     NOTE ON               note: 41 velocity: 48
EVENT TIME           f0
CHANNEL              08
BASIC MIDI EVENT     NOTE OFF              note: 3c velocity: 40
EVENT TIME           0
CHANNEL              08
BASIC MIDI EVENT     NOTE OFF              note: 41 velocity: 40
EVENT TIME           f0
CHANNEL              08
BASIC MIDI EVENT     NOTE ON               note: 39 velocity: 48
EVENT TIME           0
CHANNEL              08
BASIC MIDI EVENT     NOTE ON               note: 3c velocity: 48
EVENT TIME           f0
CHANNEL              08
BASIC MIDI EVENT     NOTE OFF              note: 39 velocity: 40
EVENT TIME           0
CHANNEL              08
BASIC MIDI EVENT     NOTE OFF              note: 3c velocity: 40
EVENT TIME           f0
CHANNEL              08
BASIC MIDI EVENT     NOTE ON               note: 40 velocity: 48
EVENT TIME           0
CHANNEL              08
BASIC MIDI EVENT     NOTE ON               note: 43 velocity: 48
EVENT TIME           f0
CHANNEL              08
BASIC MIDI EVENT     NOTE OFF              note: 40 velocity: 40
EVENT TIME           0
CHANNEL              08
BASIC MIDI EVENT     NOTE OFF              note: 43 velocity: 40
EVENT TIME           3c0
CHANNEL              08
BASIC MIDI EVENT     NOTE ON               note: 3e velocity: 48
EVENT TIME           0
CHANNEL              08
BASIC MIDI EVENT     NOTE ON               note: 41 velocity: 48
EVENT TIME           f0
CHANNEL              08
BASIC MIDI EVENT     NOTE OFF              note: 3e velocity: 40
EVENT TIME           0
CHANNEL              08
BASIC MIDI EVENT     NOTE OFF              note: 41 velocity: 40
EVENT TIME           f0
CHANNEL              08
BASIC MIDI EVENT     NOTE ON               note: 3c velocity: 48
EVENT TIME           0
CHANNEL              08
BASIC MIDI EVENT     NOTE ON               note: 43 velocity: 48
EVENT TIME           f0
CHANNEL              08
BASIC MIDI EVENT     NOTE OFF              note: 3c velocity: 40
EVENT TIME           0
CHANNEL              08
BASIC MIDI EVENT     NOTE OFF              note: 43 velocity: 40
EVENT TIME           f0
CHANNEL              08
BASIC MIDI EVENT     NOTE ON               note: 3e velocity: 48
EVENT TIME           0
CHANNEL              08
BASIC MIDI EVENT     NOTE ON               note: 45 velocity: 48
EVENT TIME           1e0
CHANNEL              08
BASIC MIDI EVENT     NOTE OFF              note: 3e velocity: 40
EVENT TIME           0
CHANNEL              08
BASIC MIDI EVENT     NOTE OFF              note: 45 velocity: 40
EVENT TIME           f0
CHANNEL              08
BASIC MIDI EVENT     NOTE ON               note: 3c velocity: 48
EVENT TIME           0
CHANNEL              08
BASIC MIDI EVENT     NOTE ON               note: 41 velocity: 48
EVENT TIME           f0
CHANNEL              08
BASIC MIDI EVENT     NOTE OFF              note: 3c velocity: 40
EVENT TIME           0
CHANNEL              08
BASIC MIDI EVENT     NOTE OFF              note: 41 velocity: 40
EVENT TIME           f0
CHANNEL              08
BASIC MIDI EVENT     NOTE ON               note: 3c velocity: 48
EVENT TIME           f0
CHANNEL              08
BASIC MIDI EVENT     NOTE OFF              note: 3c velocity: 40
EVENT TIME           f0
CHANNEL              08
BASIC MIDI EVENT     NOTE ON               note: 3c velocity: 48
EVENT TIME           f0
CHANNEL              08
BASIC MIDI EVENT     NOTE OFF              note: 3c velocity: 40
EVENT TIME           f0
CHANNEL              08
BASIC MIDI EVENT     NOTE ON               note: 3b velocity: 48
EVENT TIME           1e0
CHANNEL              08
BASIC MIDI EVENT     NOTE OFF              note: 3b velocity: 40
EVENT TIME           0
CHANNEL              08
BASIC MIDI EVENT     NOTE ON               note: 3e velocity: 48
EVENT TIME           0
CHANNEL              08
BASIC MIDI EVENT     NOTE ON               note: 43 velocity: 48
EVENT TIME           3c0
CHANNEL              08
BASIC MIDI EVENT     NOTE OFF              note: 3e velocity: 40
EVENT TIME           0
CHANNEL              08
BASIC MIDI EVENT     NOTE OFF              note: 43 velocity: 40
EVENT TIME           f0
CHANNEL              08
BASIC MIDI EVENT     NOTE ON               note: 3a velocity: 48
EVENT TIME           0
CHANNEL              08
BASIC MIDI EVENT     NOTE ON               note: 41 velocity: 48
EVENT TIME           780
CHANNEL              08
BASIC MIDI EVENT     NOTE OFF              note: 3a velocity: 40
EVENT TIME           0
CHANNEL              08
BASIC MIDI EVENT     NOTE OFF              note: 41 velocity: 40
EVENT TIME           1e0
CHANNEL              08
BASIC MIDI EVENT     NOTE ON               note: 3a velocity: 48
EVENT TIME           f0
CHANNEL              08
BASIC MIDI EVENT     NOTE OFF              note: 3a velocity: 40
EVENT TIME           f0
CHANNEL              08
BASIC MIDI EVENT     NOTE ON               note: 3e velocity: 48
EVENT TIME           f0
CHANNEL              08
BASIC MIDI EVENT     NOTE OFF              note: 3e velocity: 40
EVENT TIME           f0
CHANNEL              08
BASIC MIDI EVENT     NOTE ON               note: 41 velocity: 48
EVENT TIME           f0
CHANNEL              08
BASIC MIDI EVENT     NOTE OFF              note: 41 velocity: 40
EVENT TIME           f0
CHANNEL              08
BASIC MIDI EVENT     NOTE ON               note: 3e velocity: 48
EVENT TIME           0
CHANNEL              08
BASIC MIDI EVENT     NOTE ON               note: 45 velocity: 48
EVENT TIME           3c0
CHANNEL              08
BASIC MIDI EVENT     NOTE OFF              note: 3e velocity: 40
EVENT TIME           0
CHANNEL              08
BASIC MIDI EVENT     NOTE OFF              note: 45 velocity: 40
EVENT TIME           f0
CHANNEL              08
BASIC MIDI EVENT     NOTE ON               note: 41 velocity: 48
EVENT TIME           0
CHANNEL              08
BASIC MIDI EVENT     NOTE ON               note: 46 velocity: 48
EVENT TIME           f0
CHANNEL              08
BASIC MIDI EVENT     NOTE OFF              note: 41 velocity: 40
EVENT TIME           0
CHANNEL              08
BASIC MIDI EVENT     NOTE OFF              note: 46 velocity: 40
EVENT TIME           f0
CHANNEL              08
BASIC MIDI EVENT     NOTE ON               note: 40 velocity: 48
EVENT TIME           0
CHANNEL              08
BASIC MIDI EVENT     NOTE ON               note: 43 velocity: 48
EVENT TIME           f0
CHANNEL              08
BASIC MIDI EVENT     NOTE OFF              note: 40 velocity: 40
EVENT TIME           0
CHANNEL              08
BASIC MIDI EVENT     NOTE OFF              note: 43 velocity: 40
EVENT TIME           780
CHANNEL              08
BASIC MIDI EVENT     NOTE ON               note: 3e velocity: 48
EVENT TIME           2d0
CHANNEL              08
BASIC MIDI EVENT     NOTE OFF              note: 3e velocity: 40
EVENT TIME           0
CHANNEL              08
BASIC MIDI EVENT     NOTE ON               note: 39 velocity: 48
EVENT TIME           1e0
CHANNEL              08
BASIC MIDI EVENT     NOTE OFF              note: 39 velocity: 40
EVENT TIME           0
CHANNEL              08
BASIC MIDI EVENT     NOTE ON               note: 38 velocity: 48
EVENT TIME           f0
CHANNEL              08
BASIC MIDI EVENT     NOTE OFF              note: 38 velocity: 40
EVENT TIME           0
CHANNEL              08
BASIC MIDI EVENT     NOTE ON               note: 39 velocity: 48
EVENT TIME           f0
CHANNEL              08
BASIC MIDI EVENT     NOTE OFF              note: 39 velocity: 40
EVENT TIME           0
CHANNEL              08
BASIC MIDI EVENT     NOTE ON               note: 3e velocity: 48
EVENT TIME           f0
CHANNEL              08
BASIC MIDI EVENT     NOTE OFF              note: 3e velocity: 40
EVENT TIME           0
CHANNEL              08
BASIC MIDI EVENT     NOTE ON               note: 40 velocity: 48
EVENT TIME           f0
CHANNEL              08
BASIC MIDI EVENT     NOTE OFF              note: 40 velocity: 40
EVENT TIME           0
CHANNEL              08
BASIC MIDI EVENT     NOTE ON               note: 40 velocity: 48
EVENT TIME           f0
CHANNEL              08
BASIC MIDI EVENT     NOTE OFF              note: 40 velocity: 40
EVENT TIME           0
CHANNEL              08
BASIC MIDI EVENT     NOTE ON               note: 3e velocity: 48
EVENT TIME           1e0
CHANNEL              08
BASIC MIDI EVENT     NOTE OFF              note: 3e velocity: 40
EVENT TIME           0
CHANNEL              08
BASIC MIDI EVENT     NOTE ON               note: 3d velocity: 48
EVENT TIME           1e0
CHANNEL              08
BASIC MIDI EVENT     NOTE OFF              note: 3d velocity: 40
EVENT TIME           0
CHANNEL              08
BASIC MIDI EVENT     NOTE ON               note: 3e velocity: 48
EVENT TIME           f0
CHANNEL              08
BASIC MIDI EVENT     NOTE OFF              note: 3e velocity: 40
EVENT TIME           0
CHANNEL              08
BASIC MIDI EVENT     NOTE ON               note: 40 velocity: 48
EVENT TIME           78
CHANNEL              08
BASIC MIDI EVENT     NOTE OFF              note: 40 velocity: 40
EVENT TIME           0
CHANNEL              08
BASIC MIDI EVENT     NOTE ON               note: 41 velocity: 48
EVENT TIME           78
CHANNEL              08
BASIC MIDI EVENT     NOTE OFF              note: 41 velocity: 40
EVENT TIME           0
CHANNEL              08
BASIC MIDI EVENT     NOTE ON               note: 42 velocity: 48
EVENT TIME           78
CHANNEL              08
BASIC MIDI EVENT     NOTE OFF              note: 42 velocity: 40
EVENT TIME           258
CHANNEL              08
BASIC MIDI EVENT     NOTE ON               note: 3c velocity: 48
EVENT TIME           1e0
CHANNEL              08
BASIC MIDI EVENT     NOTE OFF              note: 3c velocity: 40
EVENT TIME           0
CHANNEL              08
BASIC MIDI EVENT     NOTE ON               note: 3a velocity: 48
EVENT TIME           f0
CHANNEL              08
BASIC MIDI EVENT     NOTE OFF              note: 3a velocity: 40
EVENT TIME           0
CHANNEL              08
BASIC MIDI EVENT     NOTE ON               note: 3b velocity: 48
EVENT TIME           f0
CHANNEL              08
BASIC MIDI EVENT     NOTE OFF              note: 3b velocity: 40
EVENT TIME           0
CHANNEL              08
BASIC MIDI EVENT     NOTE ON               note: 40 velocity: 48
EVENT TIME           78
CHANNEL              08
BASIC MIDI EVENT     NOTE OFF              note: 40 velocity: 40
EVENT TIME           0
CHANNEL              08
BASIC MIDI EVENT     NOTE ON               note: 42 velocity: 48
EVENT TIME           78
CHANNEL              08
BASIC MIDI EVENT     NOTE OFF              note: 42 velocity: 40
EVENT TIME           0
CHANNEL              08
BASIC MIDI EVENT     NOTE ON               note: 43 velocity: 48
EVENT TIME           78
CHANNEL              08
BASIC MIDI EVENT     NOTE OFF              note: 43 velocity: 40
EVENT TIME           78
CHANNEL              08
BASIC MIDI EVENT     NOTE ON               note: 43 velocity: 48
EVENT TIME           f0
CHANNEL              08
BASIC MIDI EVENT     NOTE OFF              note: 43 velocity: 40
EVENT TIME           0
CHANNEL              08
BASIC MIDI EVENT     NOTE ON               note: 42 velocity: 48
EVENT TIME           1e0
CHANNEL              08
BASIC MIDI EVENT     NOTE OFF              note: 42 velocity: 40
EVENT TIME           0
CHANNEL              08
BASIC MIDI EVENT     NOTE ON               note: 41 velocity: 48
EVENT TIME           1e0
CHANNEL              08
BASIC MIDI EVENT     NOTE OFF              note: 41 velocity: 40
EVENT TIME           0
CHANNEL              08
BASIC MIDI EVENT     NOTE ON               note: 42 velocity: 48
EVENT TIME           1e0
CHANNEL              08
BASIC MIDI EVENT     NOTE OFF              note: 42 velocity: 40
EVENT TIME           0
CHANNEL              08
BASIC MIDI EVENT     NOTE ON               note: 43 velocity: 48
EVENT TIME           f0
CHANNEL              08
BASIC MIDI EVENT     NOTE OFF              note: 43 velocity: 40
EVENT TIME           0
CHANNEL              08
BASIC MIDI EVENT     NOTE ON               note: 45 velocity: 48
EVENT TIME           f0
CHANNEL              08
BASIC MIDI EVENT     NOTE OFF              note: 45 velocity: 40
EVENT TIME           f0
CHANNEL              08
BASIC MIDI EVENT     NOTE ON               note: 43 velocity: 48
EVENT TIME           3c0
CHANNEL              08
BASIC MIDI EVENT     NOTE OFF              note: 43 velocity: 40
EVENT TIME           f0
CHANNEL              08
BASIC MIDI EVENT     NOTE ON               note: 45 velocity: 48
EVENT TIME           1e0
CHANNEL              08
BASIC MIDI EVENT     NOTE OFF              note: 45 velocity: 40
EVENT TIME           0
CHANNEL              08
BASIC MIDI EVENT     NOTE ON               note: 3d velocity: 48
EVENT TIME           78
CHANNEL              08
BASIC MIDI EVENT     NOTE OFF              note: 3d velocity: 40
EVENT TIME           0
CHANNEL              08
BASIC MIDI EVENT     NOTE ON               note: 3c velocity: 48
EVENT TIME           78
CHANNEL              08
BASIC MIDI EVENT     NOTE OFF              note: 3c velocity: 40
EVENT TIME           0
CHANNEL              08
BASIC MIDI EVENT     NOTE ON               note: 3b velocity: 48
EVENT TIME           78
CHANNEL              08
BASIC MIDI EVENT     NOTE OFF              note: 3b velocity: 40
EVENT TIME           168
CHANNEL              08
BASIC MIDI EVENT     NOTE ON               note: 3e velocity: 48
EVENT TIME           2d0
CHANNEL              08
BASIC MIDI EVENT     NOTE OFF              note: 3e velocity: 40
EVENT TIME           0
CHANNEL              08
BASIC MIDI EVENT     NOTE ON               note: 41 velocity: 48
EVENT TIME           f0
CHANNEL              08
BASIC MIDI EVENT     NOTE OFF              note: 41 velocity: 40
EVENT TIME           0
CHANNEL              08
BASIC MIDI EVENT     NOTE ON               note: 42 velocity: 48
EVENT TIME           f0
CHANNEL              08
BASIC MIDI EVENT     NOTE OFF              note: 42 velocity: 40
EVENT TIME           2d0
CHANNEL              08
BASIC MIDI EVENT     NOTE ON               note: 42 velocity: 48
EVENT TIME           f0
CHANNEL              08
BASIC MIDI EVENT     NOTE OFF              note: 42 velocity: 40
EVENT TIME           0
CHANNEL              08
BASIC MIDI EVENT     NOTE ON               note: 43 velocity: 48
EVENT TIME           f0
CHANNEL              08
BASIC MIDI EVENT     NOTE OFF              note: 43 velocity: 40
EVENT TIME           0
CHANNEL              08
BASIC MIDI EVENT     NOTE ON               note: 40 velocity: 48
EVENT TIME           f0
CHANNEL              08
BASIC MIDI EVENT     NOTE OFF              note: 40 velocity: 40
EVENT TIME           780
CHANNEL              08
BASIC MIDI EVENT     NOTE ON               note: 3e velocity: 48
EVENT TIME           2d0
CHANNEL              08
BASIC MIDI EVENT     NOTE OFF              note: 3e velocity: 40
EVENT TIME           0
CHANNEL              08
BASIC MIDI EVENT     NOTE ON               note: 39 velocity: 48
EVENT TIME           1e0
CHANNEL              08
BASIC MIDI EVENT     NOTE OFF              note: 39 velocity: 40
EVENT TIME           0
CHANNEL              08
BASIC MIDI EVENT     NOTE ON               note: 38 velocity: 48
EVENT TIME           f0
CHANNEL              08
BASIC MIDI EVENT     NOTE OFF              note: 38 velocity: 40
EVENT TIME           0
CHANNEL              08
BASIC MIDI EVENT     NOTE ON               note: 39 velocity: 48
EVENT TIME           f0
CHANNEL              08
BASIC MIDI EVENT     NOTE OFF              note: 39 velocity: 40
EVENT TIME           0
CHANNEL              08
BASIC MIDI EVENT     NOTE ON               note: 3e velocity: 48
EVENT TIME           f0
CHANNEL              08
BASIC MIDI EVENT     NOTE OFF              note: 3e velocity: 40
EVENT TIME           0
CHANNEL              08
BASIC MIDI EVENT     NOTE ON               note: 40 velocity: 48
EVENT TIME           f0
CHANNEL              08
BASIC MIDI EVENT     NOTE OFF              note: 40 velocity: 40
EVENT TIME           0
CHANNEL              08
BASIC MIDI EVENT     NOTE ON               note: 40 velocity: 48
EVENT TIME           f0
CHANNEL              08
BASIC MIDI EVENT     NOTE OFF              note: 40 velocity: 40
EVENT TIME           0
CHANNEL              08
BASIC MIDI EVENT     NOTE ON               note: 3e velocity: 48
EVENT TIME           1e0
CHANNEL              08
BASIC MIDI EVENT     NOTE OFF              note: 3e velocity: 40
EVENT TIME           0
CHANNEL              08
BASIC MIDI EVENT     NOTE ON               note: 3d velocity: 48
EVENT TIME           1e0
CHANNEL              08
BASIC MIDI EVENT     NOTE OFF              note: 3d velocity: 40
EVENT TIME           0
CHANNEL              08
BASIC MIDI EVENT     NOTE ON               note: 3e velocity: 48
EVENT TIME           f0
CHANNEL              08
BASIC MIDI EVENT     NOTE OFF              note: 3e velocity: 40
EVENT TIME           0
CHANNEL              08
BASIC MIDI EVENT     NOTE ON               note: 40 velocity: 48
EVENT TIME           78
CHANNEL              08
BASIC MIDI EVENT     NOTE OFF              note: 40 velocity: 40
EVENT TIME           0
CHANNEL              08
BASIC MIDI EVENT     NOTE ON               note: 41 velocity: 48
EVENT TIME           78
CHANNEL              08
BASIC MIDI EVENT     NOTE OFF              note: 41 velocity: 40
EVENT TIME           0
CHANNEL              08
BASIC MIDI EVENT     NOTE ON               note: 42 velocity: 48
EVENT TIME           78
CHANNEL              08
BASIC MIDI EVENT     NOTE OFF              note: 42 velocity: 40
EVENT TIME           258
CHANNEL              08
BASIC MIDI EVENT     NOTE ON               note: 3c velocity: 48
EVENT TIME           1e0
CHANNEL              08
BASIC MIDI EVENT     NOTE OFF              note: 3c velocity: 40
EVENT TIME           0
CHANNEL              08
BASIC MIDI EVENT     NOTE ON               note: 3a velocity: 48
EVENT TIME           f0
CHANNEL              08
BASIC MIDI EVENT     NOTE OFF              note: 3a velocity: 40
EVENT TIME           0
CHANNEL              08
BASIC MIDI EVENT     NOTE ON               note: 3b velocity: 48
EVENT TIME           f0
CHANNEL              08
BASIC MIDI EVENT     NOTE OFF              note: 3b velocity: 40
EVENT TIME           0
CHANNEL              08
BASIC MIDI EVENT     NOTE ON               note: 40 velocity: 48
EVENT TIME           78
CHANNEL              08
BASIC MIDI EVENT     NOTE OFF              note: 40 velocity: 40
EVENT TIME           0
CHANNEL              08
BASIC MIDI EVENT     NOTE ON               note: 42 velocity: 48
EVENT TIME           78
CHANNEL              08
BASIC MIDI EVENT     NOTE OFF              note: 42 velocity: 40
EVENT TIME           0
CHANNEL              08
BASIC MIDI EVENT     NOTE ON               note: 43 velocity: 48
EVENT TIME           78
CHANNEL              08
BASIC MIDI EVENT     NOTE OFF              note: 43 velocity: 40
EVENT TIME           78
CHANNEL              08
BASIC MIDI EVENT     NOTE ON               note: 43 velocity: 48
EVENT TIME           f0
CHANNEL              08
BASIC MIDI EVENT     NOTE OFF              note: 43 velocity: 40
EVENT TIME           0
CHANNEL              08
BASIC MIDI EVENT     NOTE ON               note: 42 velocity: 48
EVENT TIME           1e0
CHANNEL              08
BASIC MIDI EVENT     NOTE OFF              note: 42 velocity: 40
EVENT TIME           0
CHANNEL              08
BASIC MIDI EVENT     NOTE ON               note: 41 velocity: 48
EVENT TIME           1e0
CHANNEL              08
BASIC MIDI EVENT     NOTE OFF              note: 41 velocity: 40
EVENT TIME           0
CHANNEL              08
BASIC MIDI EVENT     NOTE ON               note: 42 velocity: 48
EVENT TIME           1e0
CHANNEL              08
BASIC MIDI EVENT     NOTE OFF              note: 42 velocity: 40
EVENT TIME           0
CHANNEL              08
BASIC MIDI EVENT     NOTE ON               note: 43 velocity: 48
EVENT TIME           f0
CHANNEL              08
BASIC MIDI EVENT     NOTE OFF              note: 43 velocity: 40
EVENT TIME           0
CHANNEL              08
BASIC MIDI EVENT     NOTE ON               note: 45 velocity: 48
EVENT TIME           f0
CHANNEL              08
BASIC MIDI EVENT     NOTE OFF              note: 45 velocity: 40
EVENT TIME           f0
CHANNEL              08
BASIC MIDI EVENT     NOTE ON               note: 43 velocity: 48
EVENT TIME           3c0
CHANNEL              08
BASIC MIDI EVENT     NOTE OFF              note: 43 velocity: 40
EVENT TIME           f0
CHANNEL              08
BASIC MIDI EVENT     NOTE ON               note: 45 velocity: 48
EVENT TIME           1e0
CHANNEL              08
BASIC MIDI EVENT     NOTE OFF              note: 45 velocity: 40
EVENT TIME           0
CHANNEL              08
BASIC MIDI EVENT     NOTE ON               note: 3d velocity: 48
EVENT TIME           78
CHANNEL              08
BASIC MIDI EVENT     NOTE OFF              note: 3d velocity: 40
EVENT TIME           0
CHANNEL              08
BASIC MIDI EVENT     NOTE ON               note: 3c velocity: 48
EVENT TIME           78
CHANNEL              08
BASIC MIDI EVENT     NOTE OFF              note: 3c velocity: 40
EVENT TIME           0
CHANNEL              08
BASIC MIDI EVENT     NOTE ON               note: 3b velocity: 48
EVENT TIME           78
CHANNEL              08
BASIC MIDI EVENT     NOTE OFF              note: 3b velocity: 40
EVENT TIME           168
CHANNEL              08
BASIC MIDI EVENT     NOTE ON               note: 3e velocity: 48
EVENT TIME           2d0
CHANNEL              08
BASIC MIDI EVENT     NOTE OFF              note: 3e velocity: 40
EVENT TIME           0
CHANNEL              08
BASIC MIDI EVENT     NOTE ON               note: 41 velocity: 48
EVENT TIME           f0
CHANNEL              08
BASIC MIDI EVENT     NOTE OFF              note: 41 velocity: 40
EVENT TIME           0
CHANNEL              08
BASIC MIDI EVENT     NOTE ON               note: 42 velocity: 48
EVENT TIME           f0
CHANNEL              08
BASIC MIDI EVENT     NOTE OFF              note: 42 velocity: 40
EVENT TIME           2d0
CHANNEL              08
BASIC MIDI EVENT     NOTE ON               note: 3e velocity: 48
EVENT TIME           f0
CHANNEL              08
BASIC MIDI EVENT     NOTE OFF              note: 3e velocity: 40
EVENT TIME           0
CHANNEL              08
BASIC MIDI EVENT     NOTE ON               note: 42 velocity: 48
EVENT TIME           f0
CHANNEL              08
BASIC MIDI EVENT     NOTE OFF              note: 42 velocity: 40
EVENT TIME           0
CHANNEL              08
BASIC MIDI EVENT     NOTE ON               note: 40 velocity: 48
EVENT TIME           f0
CHANNEL              08
BASIC MIDI EVENT     NOTE OFF              note: 40 velocity: 40
EVENT TIME           780
CHANNEL              08
BASIC MIDI EVENT     NOTE ON               note: 48 velocity: 48
EVENT TIME           2d0
CHANNEL              08
BASIC MIDI EVENT     NOTE OFF              note: 48 velocity: 40
EVENT TIME           0
CHANNEL              08
BASIC MIDI EVENT     NOTE ON               note: 46 velocity: 48
EVENT TIME           f0
CHANNEL              08
BASIC MIDI EVENT     NOTE OFF              note: 46 velocity: 40
EVENT TIME           0
CHANNEL              08
BASIC MIDI EVENT     NOTE ON               note: 45 velocity: 48
EVENT TIME           2d0
CHANNEL              08
BASIC MIDI EVENT     NOTE OFF              note: 45 velocity: 40
EVENT TIME           0
CHANNEL              08
BASIC MIDI EVENT     NOTE ON               note: 46 velocity: 48
EVENT TIME           f0
CHANNEL              08
BASIC MIDI EVENT     NOTE OFF              note: 46 velocity: 40
EVENT TIME           f0
CHANNEL              08
BASIC MIDI EVENT     NOTE ON               note: 46 velocity: 48
EVENT TIME           f0
CHANNEL              08
BASIC MIDI EVENT     NOTE OFF              note: 46 velocity: 40
EVENT TIME           0
CHANNEL              08
BASIC MIDI EVENT     NOTE ON               note: 45 velocity: 48
EVENT TIME           f0
CHANNEL              08
BASIC MIDI EVENT     NOTE OFF              note: 45 velocity: 40
EVENT TIME           0
CHANNEL              08
BASIC MIDI EVENT     NOTE ON               note: 46 velocity: 48
EVENT TIME           78
CHANNEL              08
BASIC MIDI EVENT     NOTE OFF              note: 46 velocity: 40
EVENT TIME           0
CHANNEL              08
BASIC MIDI EVENT     NOTE ON               note: 45 velocity: 48
EVENT TIME           78
CHANNEL              08
BASIC MIDI EVENT     NOTE OFF              note: 45 velocity: 40
EVENT TIME           0
CHANNEL              08
BASIC MIDI EVENT     NOTE ON               note: 43 velocity: 48
EVENT TIME           1e0
CHANNEL              08
BASIC MIDI EVENT     NOTE OFF              note: 43 velocity: 40
EVENT TIME           0
CHANNEL              08
BASIC MIDI EVENT     NOTE ON               note: 41 velocity: 48
EVENT TIME           1e0
CHANNEL              08
BASIC MIDI EVENT     NOTE OFF              note: 41 velocity: 40
EVENT TIME           0
CHANNEL              08
BASIC MIDI EVENT     NOTE ON               note: 41 velocity: 48
EVENT TIME           f0
CHANNEL              08
BASIC MIDI EVENT     NOTE OFF              note: 41 velocity: 40
EVENT TIME           0
CHANNEL              08
BASIC MIDI EVENT     NOTE ON               note: 43 velocity: 48
EVENT TIME           f0
CHANNEL              08
BASIC MIDI EVENT     NOTE OFF              note: 43 velocity: 40
EVENT TIME           1e0
CHANNEL              08
BASIC MIDI EVENT     NOTE ON               note: 43 velocity: 48
EVENT TIME           f0
CHANNEL              08
BASIC MIDI EVENT     NOTE OFF              note: 43 velocity: 40
EVENT TIME           0
CHANNEL              08
BASIC MIDI EVENT     NOTE ON               note: 46 velocity: 48
EVENT TIME           f0
CHANNEL              08
BASIC MIDI EVENT     NOTE OFF              note: 46 velocity: 40
EVENT TIME           f0
CHANNEL              08
BASIC MIDI EVENT     NOTE ON               note: 46 velocity: 48
EVENT TIME           f0
CHANNEL              08
BASIC MIDI EVENT     NOTE OFF              note: 46 velocity: 40
EVENT TIME           f0
CHANNEL              08
BASIC MIDI EVENT     NOTE ON               note: 45 velocity: 48
EVENT TIME           f0
CHANNEL              08
BASIC MIDI EVENT     NOTE OFF              note: 45 velocity: 40
EVENT TIME           1e0
CHANNEL              08
BASIC MIDI EVENT     NOTE ON               note: 45 velocity: 48
EVENT TIME           f0
CHANNEL              08
BASIC MIDI EVENT     NOTE OFF              note: 45 velocity: 40
EVENT TIME           f0
CHANNEL              08
BASIC MIDI EVENT     NOTE ON               note: 46 velocity: 48
EVENT TIME           1e0
CHANNEL              08
BASIC MIDI EVENT     NOTE OFF              note: 46 velocity: 40
EVENT TIME           0
CHANNEL              08
BASIC MIDI EVENT     NOTE ON               note: 48 velocity: 48
EVENT TIME           2d0
CHANNEL              08
BASIC MIDI EVENT     NOTE OFF              note: 48 velocity: 40
EVENT TIME           0
CHANNEL              08
BASIC MIDI EVENT     NOTE ON               note: 46 velocity: 48
EVENT TIME           f0
CHANNEL              08
BASIC MIDI EVENT     NOTE OFF              note: 46 velocity: 40
EVENT TIME           0
CHANNEL              08
BASIC MIDI EVENT     NOTE ON               note: 45 velocity: 48
EVENT TIME           2d0
CHANNEL              08
BASIC MIDI EVENT     NOTE OFF              note: 45 velocity: 40
EVENT TIME           0
CHANNEL              08
BASIC MIDI EVENT     NOTE ON               note: 46 velocity: 48
EVENT TIME           f0
CHANNEL              08
BASIC MIDI EVENT     NOTE OFF              note: 46 velocity: 40
EVENT TIME           f0
CHANNEL              08
BASIC MIDI EVENT     NOTE ON               note: 46 velocity: 48
EVENT TIME           f0
CHANNEL              08
BASIC MIDI EVENT     NOTE OFF              note: 46 velocity: 40
EVENT TIME           0
CHANNEL              08
BASIC MIDI EVENT     NOTE ON               note: 45 velocity: 48
EVENT TIME           f0
CHANNEL              08
BASIC MIDI EVENT     NOTE OFF              note: 45 velocity: 40
EVENT TIME           0
CHANNEL              08
BASIC MIDI EVENT     NOTE ON               note: 46 velocity: 48
EVENT TIME           78
CHANNEL              08
BASIC MIDI EVENT     NOTE OFF              note: 46 velocity: 40
EVENT TIME           0
CHANNEL              08
BASIC MIDI EVENT     NOTE ON               note: 45 velocity: 48
EVENT TIME           78
CHANNEL              08
BASIC MIDI EVENT     NOTE OFF              note: 45 velocity: 40
EVENT TIME           0
CHANNEL              08
BASIC MIDI EVENT     NOTE ON               note: 43 velocity: 48
EVENT TIME           1e0
CHANNEL              08
BASIC MIDI EVENT     NOTE OFF              note: 43 velocity: 40
EVENT TIME           0
CHANNEL              08
BASIC MIDI EVENT     NOTE ON               note: 41 velocity: 48
EVENT TIME           1e0
CHANNEL              08
BASIC MIDI EVENT     NOTE OFF              note: 41 velocity: 40
EVENT TIME           0
CHANNEL              08
BASIC MIDI EVENT     NOTE ON               note: 41 velocity: 48
EVENT TIME           f0
CHANNEL              08
BASIC MIDI EVENT     NOTE OFF              note: 41 velocity: 40
EVENT TIME           0
CHANNEL              08
BASIC MIDI EVENT     NOTE ON               note: 43 velocity: 48
EVENT TIME           f0
CHANNEL              08
BASIC MIDI EVENT     NOTE OFF              note: 43 velocity: 40
EVENT TIME           5a0
CHANNEL              08
BASIC MIDI EVENT     NOTE ON               note: 3e velocity: 48
EVENT TIME           0
CHANNEL              08
BASIC MIDI EVENT     NOTE ON               note: 43 velocity: 48
EVENT TIME           2d0
CHANNEL              08
BASIC MIDI EVENT     NOTE OFF              note: 3e velocity: 40
EVENT TIME           0
CHANNEL              08
BASIC MIDI EVENT     NOTE OFF              note: 43 velocity: 40
EVENT TIME           0
CHANNEL              08
BASIC MIDI EVENT     NOTE ON               note: 42 velocity: 48
EVENT TIME           0
CHANNEL              08
BASIC MIDI EVENT     NOTE ON               note: 45 velocity: 48
EVENT TIME           f0
CHANNEL              08
BASIC MIDI EVENT     NOTE OFF              note: 42 velocity: 40
EVENT TIME           0
CHANNEL              08
BASIC MIDI EVENT     NOTE OFF              note: 45 velocity: 40
EVENT TIME           1e0
CHANNEL              08
BASIC MIDI EVENT     NOTE ON               note: 3e velocity: 48
EVENT TIME           0
CHANNEL              08
BASIC MIDI EVENT     NOTE ON               note: 47 velocity: 48
EVENT TIME           f0
CHANNEL              08
BASIC MIDI EVENT     NOTE OFF              note: 3e velocity: 40
EVENT TIME           0
CHANNEL              08
BASIC MIDI EVENT     NOTE OFF              note: 47 velocity: 40
EVENT TIME           f0
CHANNEL              08
BASIC MIDI EVENT     NOTE ON               note: 43 velocity: 48
EVENT TIME           0
CHANNEL              08
BASIC MIDI EVENT     NOTE ON               note: 46 velocity: 48
EVENT TIME           3c0
CHANNEL              08
BASIC MIDI EVENT     NOTE OFF              note: 43 velocity: 40
EVENT TIME           0
CHANNEL              08
BASIC MIDI EVENT     NOTE OFF              note: 46 velocity: 40
EVENT TIME           0
CHANNEL              08
BASIC MIDI EVENT     NOTE ON               note: 40 velocity: 48
EVENT TIME           0
CHANNEL              08
BASIC MIDI EVENT     NOTE ON               note: 48 velocity: 48
EVENT TIME           3c0
CHANNEL              08
BASIC MIDI EVENT     NOTE OFF              note: 40 velocity: 40
EVENT TIME           0
CHANNEL              08
BASIC MIDI EVENT     NOTE OFF              note: 48 velocity: 40
EVENT TIME           0
CHANNEL              08
BASIC MIDI EVENT     NOTE ON               note: 43 velocity: 48
EVENT TIME           0
CHANNEL              08
BASIC MIDI EVENT     NOTE ON               note: 48 velocity: 48
EVENT TIME           0
CHANNEL              08
BASIC MIDI EVENT     NOTE ON               note: 3c velocity: 48
EVENT TIME           f0
CHANNEL              08
BASIC MIDI EVENT     NOTE OFF              note: 43 velocity: 40
EVENT TIME           0
CHANNEL              08
BASIC MIDI EVENT     NOTE OFF              note: 48 velocity: 40
EVENT TIME           0
CHANNEL              08
BASIC MIDI EVENT     NOTE OFF              note: 3c velocity: 40
EVENT TIME           0
CHANNEL              08
BASIC MIDI EVENT     NOTE ON               note: 43 velocity: 48
EVENT TIME           0
CHANNEL              08
BASIC MIDI EVENT     NOTE ON               note: 48 velocity: 48
EVENT TIME           0
CHANNEL              08
BASIC MIDI EVENT     NOTE ON               note: 3c velocity: 48
EVENT TIME           f0
CHANNEL              08
BASIC MIDI EVENT     NOTE OFF              note: 43 velocity: 40
EVENT TIME           0
CHANNEL              08
BASIC MIDI EVENT     NOTE OFF              note: 48 velocity: 40
EVENT TIME           0
CHANNEL              08
BASIC MIDI EVENT     NOTE OFF              note: 3c velocity: 40
EVENT TIME           f0
CHANNEL              08
BASIC MIDI EVENT     NOTE ON               note: 45 velocity: 48
EVENT TIME           0
CHANNEL              08
BASIC MIDI EVENT     NOTE ON               note: 4a velocity: 48
EVENT TIME           0
CHANNEL              08
BASIC MIDI EVENT     NOTE ON               note: 3e velocity: 48
EVENT TIME           f0
CHANNEL              08
BASIC MIDI EVENT     NOTE OFF              note: 45 velocity: 40
EVENT TIME           0
CHANNEL              08
BASIC MIDI EVENT     NOTE OFF              note: 4a velocity: 40
EVENT TIME           0
CHANNEL              08
BASIC MIDI EVENT     NOTE OFF              note: 3e velocity: 40
EVENT TIME           1e0
CHANNEL              08
BASIC MIDI EVENT     NOTE ON               note: 4b velocity: 48
EVENT TIME           0
CHANNEL              08
BASIC MIDI EVENT     NOTE ON               note: 46 velocity: 48
EVENT TIME           0
CHANNEL              08
BASIC MIDI EVENT     NOTE ON               note: 3f velocity: 48
EVENT TIME           1e0
CHANNEL              08
BASIC MIDI EVENT     NOTE OFF              note: 4b velocity: 40
EVENT TIME           0
CHANNEL              08
BASIC MIDI EVENT     NOTE OFF              note: 46 velocity: 40
EVENT TIME           0
CHANNEL              08
BASIC MIDI EVENT     NOTE OFF              note: 3f velocity: 40
EVENT TIME           0
CHANNEL              08
BASIC MIDI EVENT     NOTE ON               note: 40 velocity: 48
EVENT TIME           3c0
CHANNEL              08
BASIC MIDI EVENT     NOTE OFF              note: 40 velocity: 40
EVENT TIME           0
CHANNEL              08
BASIC MIDI EVENT     NOTE ON               note: 47 velocity: 48
EVENT TIME           3c0
CHANNEL              08
BASIC MIDI EVENT     NOTE OFF              note: 47 velocity: 40
EVENT TIME           0
CHANNEL              08
BASIC MIDI EVENT     NOTE ON               note: 47 velocity: 48
EVENT TIME           2d0
CHANNEL              08
BASIC MIDI EVENT     NOTE OFF              note: 47 velocity: 40
EVENT TIME           0
CHANNEL              08
BASIC MIDI EVENT     NOTE ON               note: 45 velocity: 48
EVENT TIME           f0
CHANNEL              08
BASIC MIDI EVENT     NOTE OFF              note: 45 velocity: 40
EVENT TIME           1e0
CHANNEL              08
BASIC MIDI EVENT     NOTE ON               note: 44 velocity: 48
EVENT TIME           f0
CHANNEL              08
BASIC MIDI EVENT     NOTE OFF              note: 44 velocity: 40
EVENT TIME           f0
CHANNEL              08
BASIC MIDI EVENT     NOTE ON               note: 44 velocity: 48
EVENT TIME           1e0
CHANNEL              08
BASIC MIDI EVENT     NOTE OFF              note: 44 velocity: 40
EVENT TIME           0
CHANNEL              08
BASIC MIDI EVENT     NOTE ON               note: 45 velocity: 48
EVENT TIME           f0
CHANNEL              08
BASIC MIDI EVENT     NOTE OFF              note: 45 velocity: 40
EVENT TIME           0
CHANNEL              08
BASIC MIDI EVENT     NOTE ON               note: 40 velocity: 48
EVENT TIME           3c0
CHANNEL              08
BASIC MIDI EVENT     NOTE OFF              note: 40 velocity: 40
EVENT TIME           870
CHANNEL              08
BASIC MIDI EVENT     NOTE ON               note: 40 velocity: 48
EVENT TIME           2d0
CHANNEL              08
BASIC MIDI EVENT     NOTE OFF              note: 40 velocity: 40
EVENT TIME           0
CHANNEL              08
BASIC MIDI EVENT     NOTE ON               note: 42 velocity: 48
EVENT TIME           f0
CHANNEL              08
BASIC MIDI EVENT     NOTE OFF              note: 42 velocity: 40
EVENT TIME           1e0
CHANNEL              08
BASIC MIDI EVENT     NOTE ON               note: 43 velocity: 48
EVENT TIME           f0
CHANNEL              08
BASIC MIDI EVENT     NOTE OFF              note: 43 velocity: 40
EVENT TIME           f0
CHANNEL              08
BASIC MIDI EVENT     NOTE ON               note: 43 velocity: 48
EVENT TIME           3c0
CHANNEL              08
BASIC MIDI EVENT     NOTE OFF              note: 43 velocity: 40
EVENT TIME           0
CHANNEL              08
BASIC MIDI EVENT     NOTE ON               note: 42 velocity: 48
EVENT TIME           3c0
CHANNEL              08
BASIC MIDI EVENT     NOTE OFF              note: 42 velocity: 40
EVENT TIME           0
CHANNEL              08
BASIC MIDI EVENT     NOTE ON               note: 43 velocity: 48
EVENT TIME           2d0
CHANNEL              08
BASIC MIDI EVENT     NOTE OFF              note: 43 velocity: 40
EVENT TIME           0
CHANNEL              08
BASIC MIDI EVENT     NOTE ON               note: 45 velocity: 48
EVENT TIME           f0
CHANNEL              08
BASIC MIDI EVENT     NOTE OFF              note: 45 velocity: 40
EVENT TIME           1e0
CHANNEL              08
BASIC MIDI EVENT     NOTE ON               note: 47 velocity: 48
EVENT TIME           f0
CHANNEL              08
BASIC MIDI EVENT     NOTE OFF              note: 47 velocity: 40
EVENT TIME           f0
CHANNEL              08
BASIC MIDI EVENT     NOTE ON               note: 47 velocity: 48
EVENT TIME           3c0
CHANNEL              08
BASIC MIDI EVENT     NOTE OFF              note: 47 velocity: 40
EVENT TIME           0
CHANNEL              08
BASIC MIDI EVENT     NOTE ON               note: 45 velocity: 48
EVENT TIME           3c0
CHANNEL              08
BASIC MIDI EVENT     NOTE OFF              note: 45 velocity: 40
EVENT TIME           0
CHANNEL              08
BASIC MIDI EVENT     NOTE ON               note: 40 velocity: 48
EVENT TIME           3c0
CHANNEL              08
BASIC MIDI EVENT     NOTE OFF              note: 40 velocity: 40
EVENT TIME           0
CHANNEL              08
BASIC MIDI EVENT     NOTE ON               note: 47 velocity: 48
EVENT TIME           3c0
CHANNEL              08
BASIC MIDI EVENT     NOTE OFF              note: 47 velocity: 40
EVENT TIME           0
CHANNEL              08
BASIC MIDI EVENT     NOTE ON               note: 47 velocity: 48
EVENT TIME           2d0
CHANNEL              08
BASIC MIDI EVENT     NOTE OFF              note: 47 velocity: 40
EVENT TIME           0
CHANNEL              08
BASIC MIDI EVENT     NOTE ON               note: 45 velocity: 48
EVENT TIME           2d0
CHANNEL              08
BASIC MIDI EVENT     NOTE OFF              note: 45 velocity: 40
EVENT TIME           0
CHANNEL              08
BASIC MIDI EVENT     NOTE ON               note: 44 velocity: 48
EVENT TIME           1e0
CHANNEL              08
BASIC MIDI EVENT     NOTE OFF              note: 44 velocity: 40
EVENT TIME           0
CHANNEL              08
BASIC MIDI EVENT     NOTE ON               note: 44 velocity: 48
EVENT TIME           1e0
CHANNEL              08
BASIC MIDI EVENT     NOTE OFF              note: 44 velocity: 40
EVENT TIME           0
CHANNEL              08
BASIC MIDI EVENT     NOTE ON               note: 45 velocity: 48
EVENT TIME           f0
CHANNEL              08
BASIC MIDI EVENT     NOTE OFF              note: 45 velocity: 40
EVENT TIME           0
CHANNEL              08
BASIC MIDI EVENT     NOTE ON               note: 40 velocity: 48
EVENT TIME           3c0
CHANNEL              08
BASIC MIDI EVENT     NOTE OFF              note: 40 velocity: 40
EVENT TIME           870
CHANNEL              08
BASIC MIDI EVENT     NOTE ON               note: 40 velocity: 48
EVENT TIME           2d0
CHANNEL              08
BASIC MIDI EVENT     NOTE OFF              note: 40 velocity: 40
EVENT TIME           0
CHANNEL              08
BASIC MIDI EVENT     NOTE ON               note: 42 velocity: 48
EVENT TIME           f0
CHANNEL              08
BASIC MIDI EVENT     NOTE OFF              note: 42 velocity: 40
EVENT TIME           1e0
CHANNEL              08
BASIC MIDI EVENT     NOTE ON               note: 43 velocity: 48
EVENT TIME           f0
CHANNEL              08
BASIC MIDI EVENT     NOTE OFF              note: 43 velocity: 40
EVENT TIME           f0
CHANNEL              08
BASIC MIDI EVENT     NOTE ON               note: 43 velocity: 48
EVENT TIME           3c0
CHANNEL              08
BASIC MIDI EVENT     NOTE OFF              note: 43 velocity: 40
EVENT TIME           0
CHANNEL              08
BASIC MIDI EVENT     NOTE ON               note: 42 velocity: 48
EVENT TIME           3c0
CHANNEL              08
BASIC MIDI EVENT     NOTE OFF              note: 42 velocity: 40
EVENT TIME           0
CHANNEL              08
BASIC MIDI EVENT     NOTE ON               note: 43 velocity: 48
EVENT TIME           2d0
CHANNEL              08
BASIC MIDI EVENT     NOTE OFF              note: 43 velocity: 40
EVENT TIME           0
CHANNEL              08
BASIC MIDI EVENT     NOTE ON               note: 45 velocity: 48
EVENT TIME           f0
CHANNEL              08
BASIC MIDI EVENT     NOTE OFF              note: 45 velocity: 40
EVENT TIME           1e0
CHANNEL              08
BASIC MIDI EVENT     NOTE ON               note: 47 velocity: 48
EVENT TIME           f0
CHANNEL              08
BASIC MIDI EVENT     NOTE OFF              note: 47 velocity: 40
EVENT TIME           f0
CHANNEL              08
BASIC MIDI EVENT     NOTE ON               note: 47 velocity: 48
EVENT TIME           3c0
CHANNEL              08
BASIC MIDI EVENT     NOTE OFF              note: 47 velocity: 40
EVENT TIME           0
CHANNEL              08
BASIC MIDI EVENT     NOTE ON               note: 45 velocity: 48
EVENT TIME           3c0
CHANNEL              08
BASIC MIDI EVENT     NOTE OFF              note: 45 velocity: 40
EVENT TIME           0
CHANNEL              08
BASIC MIDI EVENT     NOTE ON               note: 40 velocity: 48
EVENT TIME           1e0
CHANNEL              08
BASIC MIDI EVENT     NOTE OFF              note: 40 velocity: 40
EVENT TIME           f0
CHANNEL              08
BASIC MIDI EVENT     NOTE ON               note: 3b velocity: 48
EVENT TIME           1e0
CHANNEL              08
BASIC MIDI EVENT     NOTE OFF              note: 3b velocity: 40
EVENT TIME           f0
CHANNEL              08
BASIC MIDI EVENT     NOTE ON               note: 3e velocity: 48
EVENT TIME           1e0
CHANNEL              08
BASIC MIDI EVENT     NOTE OFF              note: 3e velocity: 40
EVENT TIME           f0
CHANNEL              08
BASIC MIDI EVENT     NOTE ON               note: 39 velocity: 48
EVENT TIME           1e0
CHANNEL              08
BASIC MIDI EVENT     NOTE OFF              note: 39 velocity: 40
EVENT TIME           f0
CHANNEL              08
BASIC MIDI EVENT     NOTE ON               note: 3c velocity: 48
EVENT TIME           f0
CHANNEL              08
BASIC MIDI EVENT     NOTE OFF              note: 3c velocity: 40
EVENT TIME           0
CHANNEL              08
BASIC MIDI EVENT     NOTE ON               note: 3c velocity: 48
EVENT TIME           f0
CHANNEL              08
BASIC MIDI EVENT     NOTE OFF              note: 3c velocity: 40
EVENT TIME           0
CHANNEL              08
BASIC MIDI EVENT     NOTE ON               note: 3b velocity: 48
EVENT TIME           1e0
CHANNEL              08
BASIC MIDI EVENT     NOTE OFF              note: 3b velocity: 40
EVENT TIME           0
CHANNEL              08
BASIC MIDI EVENT     NOTE ON               note: 3e velocity: 48
EVENT TIME           2d0
CHANNEL              08
BASIC MIDI EVENT     NOTE OFF              note: 3e velocity: 40
EVENT TIME           0
CHANNEL              08
BASIC MIDI EVENT     NOTE ON               note: 39 velocity: 48
EVENT TIME           1e0
CHANNEL              08
BASIC MIDI EVENT     NOTE OFF              note: 39 velocity: 40
EVENT TIME           0
CHANNEL              08
BASIC MIDI EVENT     NOTE ON               note: 38 velocity: 48
EVENT TIME           f0
CHANNEL              08
BASIC MIDI EVENT     NOTE OFF              note: 38 velocity: 40
EVENT TIME           0
CHANNEL              08
BASIC MIDI EVENT     NOTE ON               note: 39 velocity: 48
EVENT TIME           f0
CHANNEL              08
BASIC MIDI EVENT     NOTE OFF              note: 39 velocity: 40
EVENT TIME           0
CHANNEL              08
BASIC MIDI EVENT     NOTE ON               note: 3e velocity: 48
EVENT TIME           f0
CHANNEL              08
BASIC MIDI EVENT     NOTE OFF              note: 3e velocity: 40
EVENT TIME           0
CHANNEL              08
BASIC MIDI EVENT     NOTE ON               note: 40 velocity: 48
EVENT TIME           f0
CHANNEL              08
BASIC MIDI EVENT     NOTE OFF              note: 40 velocity: 40
EVENT TIME           0
CHANNEL              08
BASIC MIDI EVENT     NOTE ON               note: 40 velocity: 48
EVENT TIME           f0
CHANNEL              08
BASIC MIDI EVENT     NOTE OFF              note: 40 velocity: 40
EVENT TIME           0
CHANNEL              08
BASIC MIDI EVENT     NOTE ON               note: 3e velocity: 48
EVENT TIME           1e0
CHANNEL              08
BASIC MIDI EVENT     NOTE OFF              note: 3e velocity: 40
EVENT TIME           0
CHANNEL              08
BASIC MIDI EVENT     NOTE ON               note: 3d velocity: 48
EVENT TIME           1e0
CHANNEL              08
BASIC MIDI EVENT     NOTE OFF              note: 3d velocity: 40
EVENT TIME           0
CHANNEL              08
BASIC MIDI EVENT     NOTE ON               note: 3e velocity: 48
EVENT TIME           f0
CHANNEL              08
BASIC MIDI EVENT     NOTE OFF              note: 3e velocity: 40
EVENT TIME           0
CHANNEL              08
BASIC MIDI EVENT     NOTE ON               note: 40 velocity: 48
EVENT TIME           78
CHANNEL              08
BASIC MIDI EVENT     NOTE OFF              note: 40 velocity: 40
EVENT TIME           0
CHANNEL              08
BASIC MIDI EVENT     NOTE ON               note: 41 velocity: 48
EVENT TIME           78
CHANNEL              08
BASIC MIDI EVENT     NOTE OFF              note: 41 velocity: 40
EVENT TIME           0
CHANNEL              08
BASIC MIDI EVENT     NOTE ON               note: 42 velocity: 48
EVENT TIME           78
CHANNEL              08
BASIC MIDI EVENT     NOTE OFF              note: 42 velocity: 40
EVENT TIME           258
CHANNEL              08
BASIC MIDI EVENT     NOTE ON               note: 3c velocity: 48
EVENT TIME           1e0
CHANNEL              08
BASIC MIDI EVENT     NOTE OFF              note: 3c velocity: 40
EVENT TIME           0
CHANNEL              08
BASIC MIDI EVENT     NOTE ON               note: 3a velocity: 48
EVENT TIME           f0
CHANNEL              08
BASIC MIDI EVENT     NOTE OFF              note: 3a velocity: 40
EVENT TIME           0
CHANNEL              08
BASIC MIDI EVENT     NOTE ON               note: 3b velocity: 48
EVENT TIME           f0
CHANNEL              08
BASIC MIDI EVENT     NOTE OFF              note: 3b velocity: 40
EVENT TIME           0
CHANNEL              08
BASIC MIDI EVENT     NOTE ON               note: 40 velocity: 48
EVENT TIME           78
CHANNEL              08
BASIC MIDI EVENT     NOTE OFF              note: 40 velocity: 40
EVENT TIME           0
CHANNEL              08
BASIC MIDI EVENT     NOTE ON               note: 42 velocity: 48
EVENT TIME           78
CHANNEL              08
BASIC MIDI EVENT     NOTE OFF              note: 42 velocity: 40
EVENT TIME           0
CHANNEL              08
BASIC MIDI EVENT     NOTE ON               note: 43 velocity: 48
EVENT TIME           78
CHANNEL              08
BASIC MIDI EVENT     NOTE OFF              note: 43 velocity: 40
EVENT TIME           78
CHANNEL              08
BASIC MIDI EVENT     NOTE ON               note: 43 velocity: 48
EVENT TIME           f0
CHANNEL              08
BASIC MIDI EVENT     NOTE OFF              note: 43 velocity: 40
EVENT TIME           0
CHANNEL              08
BASIC MIDI EVENT     NOTE ON               note: 42 velocity: 48
EVENT TIME           1e0
CHANNEL              08
BASIC MIDI EVENT     NOTE OFF              note: 42 velocity: 40
EVENT TIME           0
CHANNEL              08
BASIC MIDI EVENT     NOTE ON               note: 41 velocity: 48
EVENT TIME           1e0
CHANNEL              08
BASIC MIDI EVENT     NOTE OFF              note: 41 velocity: 40
EVENT TIME           0
CHANNEL              08
BASIC MIDI EVENT     NOTE ON               note: 42 velocity: 48
EVENT TIME           1e0
CHANNEL              08
BASIC MIDI EVENT     NOTE OFF              note: 42 velocity: 40
EVENT TIME           0
CHANNEL              08
BASIC MIDI EVENT     NOTE ON               note: 43 velocity: 48
EVENT TIME           f0
CHANNEL              08
BASIC MIDI EVENT     NOTE OFF              note: 43 velocity: 40
EVENT TIME           0
CHANNEL              08
BASIC MIDI EVENT     NOTE ON               note: 45 velocity: 48
EVENT TIME           f0
CHANNEL              08
BASIC MIDI EVENT     NOTE OFF              note: 45 velocity: 40
EVENT TIME           f0
CHANNEL              08
BASIC MIDI EVENT     NOTE ON               note: 43 velocity: 48
EVENT TIME           3c0
CHANNEL              08
BASIC MIDI EVENT     NOTE OFF              note: 43 velocity: 40
EVENT TIME           f0
CHANNEL              08
BASIC MIDI EVENT     NOTE ON               note: 45 velocity: 48
EVENT TIME           1e0
CHANNEL              08
BASIC MIDI EVENT     NOTE OFF              note: 45 velocity: 40
EVENT TIME           0
CHANNEL              08
BASIC MIDI EVENT     NOTE ON               note: 3d velocity: 48
EVENT TIME           78
CHANNEL              08
BASIC MIDI EVENT     NOTE OFF              note: 3d velocity: 40
EVENT TIME           0
CHANNEL              08
BASIC MIDI EVENT     NOTE ON               note: 3c velocity: 48
EVENT TIME           78
CHANNEL              08
BASIC MIDI EVENT     NOTE OFF              note: 3c velocity: 40
EVENT TIME           0
CHANNEL              08
BASIC MIDI EVENT     NOTE ON               note: 3b velocity: 48
EVENT TIME           78
CHANNEL              08
BASIC MIDI EVENT     NOTE OFF              note: 3b velocity: 40
EVENT TIME           168
CHANNEL              08
BASIC MIDI EVENT     NOTE ON               note: 3e velocity: 48
EVENT TIME           2d0
CHANNEL              08
BASIC MIDI EVENT     NOTE OFF              note: 3e velocity: 40
EVENT TIME           0
CHANNEL              08
BASIC MIDI EVENT     NOTE ON               note: 41 velocity: 48
EVENT TIME           f0
CHANNEL              08
BASIC MIDI EVENT     NOTE OFF              note: 41 velocity: 40
EVENT TIME           0
CHANNEL              08
BASIC MIDI EVENT     NOTE ON               note: 42 velocity: 48
EVENT TIME           f0
CHANNEL              08
BASIC MIDI EVENT     NOTE OFF              note: 42 velocity: 40
EVENT TIME           2d0
CHANNEL              08
BASIC MIDI EVENT     NOTE ON               note: 42 velocity: 48
EVENT TIME           f0
CHANNEL              08
BASIC MIDI EVENT     NOTE OFF              note: 42 velocity: 40
EVENT TIME           0
CHANNEL              08
BASIC MIDI EVENT     NOTE ON               note: 43 velocity: 48
EVENT TIME           f0
CHANNEL              08
BASIC MIDI EVENT     NOTE OFF              note: 43 velocity: 40
EVENT TIME           0
CHANNEL              08
BASIC MIDI EVENT     NOTE ON               note: 40 velocity: 48
EVENT TIME           f0
CHANNEL              08
BASIC MIDI EVENT     NOTE OFF              note: 40 velocity: 40
EVENT TIME           780
CHANNEL              08
BASIC MIDI EVENT     NOTE ON               note: 3e velocity: 48
EVENT TIME           2d0
CHANNEL              08
BASIC MIDI EVENT     NOTE OFF              note: 3e velocity: 40
EVENT TIME           0
CHANNEL              08
BASIC MIDI EVENT     NOTE ON               note: 39 velocity: 48
EVENT TIME           1e0
CHANNEL              08
BASIC MIDI EVENT     NOTE OFF              note: 39 velocity: 40
EVENT TIME           0
CHANNEL              08
BASIC MIDI EVENT     NOTE ON               note: 38 velocity: 48
EVENT TIME           f0
CHANNEL              08
BASIC MIDI EVENT     NOTE OFF              note: 38 velocity: 40
EVENT TIME           0
CHANNEL              08
BASIC MIDI EVENT     NOTE ON               note: 39 velocity: 48
EVENT TIME           f0
CHANNEL              08
BASIC MIDI EVENT     NOTE OFF              note: 39 velocity: 40
EVENT TIME           0
CHANNEL              08
BASIC MIDI EVENT     NOTE ON               note: 3e velocity: 48
EVENT TIME           f0
CHANNEL              08
BASIC MIDI EVENT     NOTE OFF              note: 3e velocity: 40
EVENT TIME           0
CHANNEL              08
BASIC MIDI EVENT     NOTE ON               note: 40 velocity: 48
EVENT TIME           f0
CHANNEL              08
BASIC MIDI EVENT     NOTE OFF              note: 40 velocity: 40
EVENT TIME           0
CHANNEL              08
BASIC MIDI EVENT     NOTE ON               note: 40 velocity: 48
EVENT TIME           f0
CHANNEL              08
BASIC MIDI EVENT     NOTE OFF              note: 40 velocity: 40
EVENT TIME           0
CHANNEL              08
BASIC MIDI EVENT     NOTE ON               note: 3e velocity: 48
EVENT TIME           1e0
CHANNEL              08
BASIC MIDI EVENT     NOTE OFF              note: 3e velocity: 40
EVENT TIME           0
CHANNEL              08
BASIC MIDI EVENT     NOTE ON               note: 3d velocity: 48
EVENT TIME           1e0
CHANNEL              08
BASIC MIDI EVENT     NOTE OFF              note: 3d velocity: 40
EVENT TIME           0
CHANNEL              08
BASIC MIDI EVENT     NOTE ON               note: 3e velocity: 48
EVENT TIME           f0
CHANNEL              08
BASIC MIDI EVENT     NOTE OFF              note: 3e velocity: 40
EVENT TIME           0
CHANNEL              08
BASIC MIDI EVENT     NOTE ON               note: 40 velocity: 48
EVENT TIME           78
CHANNEL              08
BASIC MIDI EVENT     NOTE OFF              note: 40 velocity: 40
EVENT TIME           0
CHANNEL              08
BASIC MIDI EVENT     NOTE ON               note: 41 velocity: 48
EVENT TIME           78
CHANNEL              08
BASIC MIDI EVENT     NOTE OFF              note: 41 velocity: 40
EVENT TIME           0
CHANNEL              08
BASIC MIDI EVENT     NOTE ON               note: 42 velocity: 48
EVENT TIME           78
CHANNEL              08
BASIC MIDI EVENT     NOTE OFF              note: 42 velocity: 40
EVENT TIME           258
CHANNEL              08
BASIC MIDI EVENT     NOTE ON               note: 3c velocity: 48
EVENT TIME           1e0
CHANNEL              08
BASIC MIDI EVENT     NOTE OFF              note: 3c velocity: 40
EVENT TIME           0
CHANNEL              08
BASIC MIDI EVENT     NOTE ON               note: 3a velocity: 48
EVENT TIME           f0
CHANNEL              08
BASIC MIDI EVENT     NOTE OFF              note: 3a velocity: 40
EVENT TIME           0
CHANNEL              08
BASIC MIDI EVENT     NOTE ON               note: 3b velocity: 48
EVENT TIME           f0
CHANNEL              08
BASIC MIDI EVENT     NOTE OFF              note: 3b velocity: 40
EVENT TIME           0
CHANNEL              08
BASIC MIDI EVENT     NOTE ON               note: 40 velocity: 48
EVENT TIME           78
CHANNEL              08
BASIC MIDI EVENT     NOTE OFF              note: 40 velocity: 40
EVENT TIME           0
CHANNEL              08
BASIC MIDI EVENT     NOTE ON               note: 42 velocity: 48
EVENT TIME           78
CHANNEL              08
BASIC MIDI EVENT     NOTE OFF              note: 42 velocity: 40
EVENT TIME           0
CHANNEL              08
BASIC MIDI EVENT     NOTE ON               note: 43 velocity: 48
EVENT TIME           78
CHANNEL              08
BASIC MIDI EVENT     NOTE OFF              note: 43 velocity: 40
EVENT TIME           78
CHANNEL              08
BASIC MIDI EVENT     NOTE ON               note: 43 velocity: 48
EVENT TIME           f0
CHANNEL              08
BASIC MIDI EVENT     NOTE OFF              note: 43 velocity: 40
EVENT TIME           0
CHANNEL              08
BASIC MIDI EVENT     NOTE ON               note: 42 velocity: 48
EVENT TIME           1e0
CHANNEL              08
BASIC MIDI EVENT     NOTE OFF              note: 42 velocity: 40
EVENT TIME           0
CHANNEL              08
BASIC MIDI EVENT     NOTE ON               note: 41 velocity: 48
EVENT TIME           1e0
CHANNEL              08
BASIC MIDI EVENT     NOTE OFF              note: 41 velocity: 40
EVENT TIME           0
CHANNEL              08
BASIC MIDI EVENT     NOTE ON               note: 42 velocity: 48
EVENT TIME           1e0
CHANNEL              08
BASIC MIDI EVENT     NOTE OFF              note: 42 velocity: 40
EVENT TIME           0
CHANNEL              08
BASIC MIDI EVENT     NOTE ON               note: 43 velocity: 48
EVENT TIME           f0
CHANNEL              08
BASIC MIDI EVENT     NOTE OFF              note: 43 velocity: 40
EVENT TIME           0
CHANNEL              08
BASIC MIDI EVENT     NOTE ON               note: 45 velocity: 48
EVENT TIME           f0
CHANNEL              08
BASIC MIDI EVENT     NOTE OFF              note: 45 velocity: 40
EVENT TIME           f0
CHANNEL              08
BASIC MIDI EVENT     NOTE ON               note: 43 velocity: 48
EVENT TIME           3c0
CHANNEL              08
BASIC MIDI EVENT     NOTE OFF              note: 43 velocity: 40
EVENT TIME           f0
CHANNEL              08
BASIC MIDI EVENT     NOTE ON               note: 45 velocity: 48
EVENT TIME           1e0
CHANNEL              08
BASIC MIDI EVENT     NOTE OFF              note: 45 velocity: 40
EVENT TIME           0
CHANNEL              08
BASIC MIDI EVENT     NOTE ON               note: 3d velocity: 48
EVENT TIME           78
CHANNEL              08
BASIC MIDI EVENT     NOTE OFF              note: 3d velocity: 40
EVENT TIME           0
CHANNEL              08
BASIC MIDI EVENT     NOTE ON               note: 3c velocity: 48
EVENT TIME           78
CHANNEL              08
BASIC MIDI EVENT     NOTE OFF              note: 3c velocity: 40
EVENT TIME           0
CHANNEL              08
BASIC MIDI EVENT     NOTE ON               note: 3b velocity: 48
EVENT TIME           78
CHANNEL              08
BASIC MIDI EVENT     NOTE OFF              note: 3b velocity: 40
EVENT TIME           168
CHANNEL              08
BASIC MIDI EVENT     NOTE ON               note: 3e velocity: 48
EVENT TIME           2d0
CHANNEL              08
BASIC MIDI EVENT     NOTE OFF              note: 3e velocity: 40
EVENT TIME           0
CHANNEL              08
BASIC MIDI EVENT     NOTE ON               note: 41 velocity: 48
EVENT TIME           f0
CHANNEL              08
BASIC MIDI EVENT     NOTE OFF              note: 41 velocity: 40
EVENT TIME           0
CHANNEL              08
BASIC MIDI EVENT     NOTE ON               note: 42 velocity: 48
EVENT TIME           f0
CHANNEL              08
BASIC MIDI EVENT     NOTE OFF              note: 42 velocity: 40
EVENT TIME           2d0
CHANNEL              08
BASIC MIDI EVENT     NOTE ON               note: 3e velocity: 48
EVENT TIME           f0
CHANNEL              08
BASIC MIDI EVENT     NOTE OFF              note: 3e velocity: 40
EVENT TIME           0
CHANNEL              08
BASIC MIDI EVENT     NOTE ON               note: 42 velocity: 48
EVENT TIME           f0
CHANNEL              08
BASIC MIDI EVENT     NOTE OFF              note: 42 velocity: 40
EVENT TIME           0
CHANNEL              08
BASIC MIDI EVENT     NOTE ON               note: 40 velocity: 48
EVENT TIME           f0
CHANNEL              08
BASIC MIDI EVENT     NOTE OFF              note: 40 velocity: 40
EVENT TIME           780
CHANNEL              08
BASIC MIDI EVENT     NOTE ON               note: 48 velocity: 48
EVENT TIME           2d0
CHANNEL              08
BASIC MIDI EVENT     NOTE OFF              note: 48 velocity: 40
EVENT TIME           0
CHANNEL              08
BASIC MIDI EVENT     NOTE ON               note: 46 velocity: 48
EVENT TIME           f0
CHANNEL              08
BASIC MIDI EVENT     NOTE OFF              note: 46 velocity: 40
EVENT TIME           0
CHANNEL              08
BASIC MIDI EVENT     NOTE ON               note: 45 velocity: 48
EVENT TIME           2d0
CHANNEL              08
BASIC MIDI EVENT     NOTE OFF              note: 45 velocity: 40
EVENT TIME           0
CHANNEL              08
BASIC MIDI EVENT     NOTE ON               note: 46 velocity: 48
EVENT TIME           f0
CHANNEL              08
BASIC MIDI EVENT     NOTE OFF              note: 46 velocity: 40
EVENT TIME           f0
CHANNEL              08
BASIC MIDI EVENT     NOTE ON               note: 46 velocity: 48
EVENT TIME           f0
CHANNEL              08
BASIC MIDI EVENT     NOTE OFF              note: 46 velocity: 40
EVENT TIME           0
CHANNEL              08
BASIC MIDI EVENT     NOTE ON               note: 45 velocity: 48
EVENT TIME           f0
CHANNEL              08
BASIC MIDI EVENT     NOTE OFF              note: 45 velocity: 40
EVENT TIME           0
CHANNEL              08
BASIC MIDI EVENT     NOTE ON               note: 46 velocity: 48
EVENT TIME           78
CHANNEL              08
BASIC MIDI EVENT     NOTE OFF              note: 46 velocity: 40
EVENT TIME           0
CHANNEL              08
BASIC MIDI EVENT     NOTE ON               note: 45 velocity: 48
EVENT TIME           78
CHANNEL              08
BASIC MIDI EVENT     NOTE OFF              note: 45 velocity: 40
EVENT TIME           0
CHANNEL              08
BASIC MIDI EVENT     NOTE ON               note: 43 velocity: 48
EVENT TIME           1e0
CHANNEL              08
BASIC MIDI EVENT     NOTE OFF              note: 43 velocity: 40
EVENT TIME           0
CHANNEL              08
BASIC MIDI EVENT     NOTE ON               note: 41 velocity: 48
EVENT TIME           1e0
CHANNEL              08
BASIC MIDI EVENT     NOTE OFF              note: 41 velocity: 40
EVENT TIME           0
CHANNEL              08
BASIC MIDI EVENT     NOTE ON               note: 41 velocity: 48
EVENT TIME           f0
CHANNEL              08
BASIC MIDI EVENT     NOTE OFF              note: 41 velocity: 40
EVENT TIME           0
CHANNEL              08
BASIC MIDI EVENT     NOTE ON               note: 43 velocity: 48
EVENT TIME           f0
CHANNEL              08
BASIC MIDI EVENT     NOTE OFF              note: 43 velocity: 40
EVENT TIME           1e0
CHANNEL              08
BASIC MIDI EVENT     NOTE ON               note: 43 velocity: 48
EVENT TIME           f0
CHANNEL              08
BASIC MIDI EVENT     NOTE OFF              note: 43 velocity: 40
EVENT TIME           0
CHANNEL              08
BASIC MIDI EVENT     NOTE ON               note: 46 velocity: 48
EVENT TIME           f0
CHANNEL              08
BASIC MIDI EVENT     NOTE OFF              note: 46 velocity: 40
EVENT TIME           f0
CHANNEL              08
BASIC MIDI EVENT     NOTE ON               note: 46 velocity: 48
EVENT TIME           f0
CHANNEL              08
BASIC MIDI EVENT     NOTE OFF              note: 46 velocity: 40
EVENT TIME           f0
CHANNEL              08
BASIC MIDI EVENT     NOTE ON               note: 45 velocity: 48
EVENT TIME           f0
CHANNEL              08
BASIC MIDI EVENT     NOTE OFF              note: 45 velocity: 40
EVENT TIME           1e0
CHANNEL              08
BASIC MIDI EVENT     NOTE ON               note: 45 velocity: 48
EVENT TIME           f0
CHANNEL              08
BASIC MIDI EVENT     NOTE OFF              note: 45 velocity: 40
EVENT TIME           f0
CHANNEL              08
BASIC MIDI EVENT     NOTE ON               note: 46 velocity: 48
EVENT TIME           1e0
CHANNEL              08
BASIC MIDI EVENT     NOTE OFF              note: 46 velocity: 40
EVENT TIME           0
CHANNEL              08
BASIC MIDI EVENT     NOTE ON               note: 48 velocity: 48
EVENT TIME           2d0
CHANNEL              08
BASIC MIDI EVENT     NOTE OFF              note: 48 velocity: 40
EVENT TIME           0
CHANNEL              08
BASIC MIDI EVENT     NOTE ON               note: 46 velocity: 48
EVENT TIME           f0
CHANNEL              08
BASIC MIDI EVENT     NOTE OFF              note: 46 velocity: 40
EVENT TIME           0
CHANNEL              08
BASIC MIDI EVENT     NOTE ON               note: 45 velocity: 48
EVENT TIME           2d0
CHANNEL              08
BASIC MIDI EVENT     NOTE OFF              note: 45 velocity: 40
EVENT TIME           0
CHANNEL              08
BASIC MIDI EVENT     NOTE ON               note: 46 velocity: 48
EVENT TIME           f0
CHANNEL              08
BASIC MIDI EVENT     NOTE OFF              note: 46 velocity: 40
EVENT TIME           f0
CHANNEL              08
BASIC MIDI EVENT     NOTE ON               note: 46 velocity: 48
EVENT TIME           f0
CHANNEL              08
BASIC MIDI EVENT     NOTE OFF              note: 46 velocity: 40
EVENT TIME           0
CHANNEL              08
BASIC MIDI EVENT     NOTE ON               note: 45 velocity: 48
EVENT TIME           f0
CHANNEL              08
BASIC MIDI EVENT     NOTE OFF              note: 45 velocity: 40
EVENT TIME           0
CHANNEL              08
BASIC MIDI EVENT     NOTE ON               note: 46 velocity: 48
EVENT TIME           78
CHANNEL              08
BASIC MIDI EVENT     NOTE OFF              note: 46 velocity: 40
EVENT TIME           0
CHANNEL              08
BASIC MIDI EVENT     NOTE ON               note: 45 velocity: 48
EVENT TIME           78
CHANNEL              08
BASIC MIDI EVENT     NOTE OFF              note: 45 velocity: 40
EVENT TIME           0
CHANNEL              08
BASIC MIDI EVENT     NOTE ON               note: 43 velocity: 48
EVENT TIME           1e0
CHANNEL              08
BASIC MIDI EVENT     NOTE OFF              note: 43 velocity: 40
EVENT TIME           0
CHANNEL              08
BASIC MIDI EVENT     NOTE ON               note: 41 velocity: 48
EVENT TIME           1e0
CHANNEL              08
BASIC MIDI EVENT     NOTE OFF              note: 41 velocity: 40
EVENT TIME           0
CHANNEL              08
BASIC MIDI EVENT     NOTE ON               note: 41 velocity: 48
EVENT TIME           f0
CHANNEL              08
BASIC MIDI EVENT     NOTE OFF              note: 41 velocity: 40
EVENT TIME           0
CHANNEL              08
BASIC MIDI EVENT     NOTE ON               note: 43 velocity: 48
EVENT TIME           f0
CHANNEL              08
BASIC MIDI EVENT     NOTE OFF              note: 43 velocity: 40
EVENT TIME           5a0
CHANNEL              08
BASIC MIDI EVENT     NOTE ON               note: 3e velocity: 48
EVENT TIME           0
CHANNEL              08
BASIC MIDI EVENT     NOTE ON               note: 43 velocity: 48
EVENT TIME           2d0
CHANNEL              08
BASIC MIDI EVENT     NOTE OFF              note: 3e velocity: 40
EVENT TIME           0
CHANNEL              08
BASIC MIDI EVENT     NOTE OFF              note: 43 velocity: 40
EVENT TIME           0
CHANNEL              08
BASIC MIDI EVENT     NOTE ON               note: 42 velocity: 48
EVENT TIME           0
CHANNEL              08
BASIC MIDI EVENT     NOTE ON               note: 45 velocity: 48
EVENT TIME           f0
CHANNEL              08
BASIC MIDI EVENT     NOTE OFF              note: 42 velocity: 40
EVENT TIME           0
CHANNEL              08
BASIC MIDI EVENT     NOTE OFF              note: 45 velocity: 40
EVENT TIME           1e0
CHANNEL              08
BASIC MIDI EVENT     NOTE ON               note: 3e velocity: 48
EVENT TIME           0
CHANNEL              08
BASIC MIDI EVENT     NOTE ON               note: 47 velocity: 48
EVENT TIME           f0
CHANNEL              08
BASIC MIDI EVENT     NOTE OFF              note: 3e velocity: 40
EVENT TIME           0
CHANNEL              08
BASIC MIDI EVENT     NOTE OFF              note: 47 velocity: 40
EVENT TIME           f0
CHANNEL              08
BASIC MIDI EVENT     NOTE ON               note: 43 velocity: 48
EVENT TIME           0
CHANNEL              08
BASIC MIDI EVENT     NOTE ON               note: 46 velocity: 48
EVENT TIME           3c0
CHANNEL              08
BASIC MIDI EVENT     NOTE OFF              note: 43 velocity: 40
EVENT TIME           0
CHANNEL              08
BASIC MIDI EVENT     NOTE OFF              note: 46 velocity: 40
EVENT TIME           0
CHANNEL              08
BASIC MIDI EVENT     NOTE ON               note: 40 velocity: 48
EVENT TIME           0
CHANNEL              08
BASIC MIDI EVENT     NOTE ON               note: 48 velocity: 48
EVENT TIME           3c0
CHANNEL              08
BASIC MIDI EVENT     NOTE OFF              note: 40 velocity: 40
EVENT TIME           0
CHANNEL              08
BASIC MIDI EVENT     NOTE OFF              note: 48 velocity: 40
EVENT TIME           0
CHANNEL              08
BASIC MIDI EVENT     NOTE ON               note: 43 velocity: 48
EVENT TIME           0
CHANNEL              08
BASIC MIDI EVENT     NOTE ON               note: 48 velocity: 48
EVENT TIME           0
CHANNEL              08
BASIC MIDI EVENT     NOTE ON               note: 3c velocity: 48
EVENT TIME           f0
CHANNEL              08
BASIC MIDI EVENT     NOTE OFF              note: 43 velocity: 40
EVENT TIME           0
CHANNEL              08
BASIC MIDI EVENT     NOTE OFF              note: 48 velocity: 40
EVENT TIME           0
CHANNEL              08
BASIC MIDI EVENT     NOTE OFF              note: 3c velocity: 40
EVENT TIME           0
CHANNEL              08
BASIC MIDI EVENT     NOTE ON               note: 43 velocity: 48
EVENT TIME           0
CHANNEL              08
BASIC MIDI EVENT     NOTE ON               note: 48 velocity: 48
EVENT TIME           0
CHANNEL              08
BASIC MIDI EVENT     NOTE ON               note: 3c velocity: 48
EVENT TIME           f0
CHANNEL              08
BASIC MIDI EVENT     NOTE OFF              note: 43 velocity: 40
EVENT TIME           0
CHANNEL              08
BASIC MIDI EVENT     NOTE OFF              note: 48 velocity: 40
EVENT TIME           0
CHANNEL              08
BASIC MIDI EVENT     NOTE OFF              note: 3c velocity: 40
EVENT TIME           f0
CHANNEL              08
BASIC MIDI EVENT     NOTE ON               note: 45 velocity: 48
EVENT TIME           0
CHANNEL              08
BASIC MIDI EVENT     NOTE ON               note: 4a velocity: 48
EVENT TIME           0
CHANNEL              08
BASIC MIDI EVENT     NOTE ON               note: 3e velocity: 48
EVENT TIME           f0
CHANNEL              08
BASIC MIDI EVENT     NOTE OFF              note: 45 velocity: 40
EVENT TIME           0
CHANNEL              08
BASIC MIDI EVENT     NOTE OFF              note: 4a velocity: 40
EVENT TIME           0
CHANNEL              08
BASIC MIDI EVENT     NOTE OFF              note: 3e velocity: 40
EVENT TIME           1e0
CHANNEL              08
BASIC MIDI EVENT     NOTE ON               note: 4b velocity: 48
EVENT TIME           0
CHANNEL              08
BASIC MIDI EVENT     NOTE ON               note: 46 velocity: 48
EVENT TIME           0
CHANNEL              08
BASIC MIDI EVENT     NOTE ON               note: 3f velocity: 48
EVENT TIME           1e0
CHANNEL              08
BASIC MIDI EVENT     NOTE OFF              note: 4b velocity: 40
EVENT TIME           0
CHANNEL              08
BASIC MIDI EVENT     NOTE OFF              note: 46 velocity: 40
EVENT TIME           0
CHANNEL              08
BASIC MIDI EVENT     NOTE OFF              note: 3f velocity: 40
EVENT TIME           0
CHANNEL              08
BASIC MIDI EVENT     NOTE ON               note: 40 velocity: 48
EVENT TIME           3c0
CHANNEL              08
BASIC MIDI EVENT     NOTE OFF              note: 40 velocity: 40
EVENT TIME           0
CHANNEL              08
BASIC MIDI EVENT     NOTE ON               note: 47 velocity: 48
EVENT TIME           3c0
CHANNEL              08
BASIC MIDI EVENT     NOTE OFF              note: 47 velocity: 40
EVENT TIME           0
CHANNEL              08
BASIC MIDI EVENT     NOTE ON               note: 47 velocity: 48
EVENT TIME           2d0
CHANNEL              08
BASIC MIDI EVENT     NOTE OFF              note: 47 velocity: 40
EVENT TIME           0
CHANNEL              08
BASIC MIDI EVENT     NOTE ON               note: 45 velocity: 48
EVENT TIME           f0
CHANNEL              08
BASIC MIDI EVENT     NOTE OFF              note: 45 velocity: 40
EVENT TIME           1e0
CHANNEL              08
BASIC MIDI EVENT     NOTE ON               note: 44 velocity: 48
EVENT TIME           f0
CHANNEL              08
BASIC MIDI EVENT     NOTE OFF              note: 44 velocity: 40
EVENT TIME           f0
CHANNEL              08
BASIC MIDI EVENT     NOTE ON               note: 44 velocity: 48
EVENT TIME           1e0
CHANNEL              08
BASIC MIDI EVENT     NOTE OFF              note: 44 velocity: 40
EVENT TIME           0
CHANNEL              08
BASIC MIDI EVENT     NOTE ON               note: 45 velocity: 48
EVENT TIME           f0
CHANNEL              08
BASIC MIDI EVENT     NOTE OFF              note: 45 velocity: 40
EVENT TIME           0
CHANNEL              08
BASIC MIDI EVENT     NOTE ON               note: 40 velocity: 48
EVENT TIME           3c0
CHANNEL              08
BASIC MIDI EVENT     NOTE OFF              note: 40 velocity: 40
EVENT TIME           870
CHANNEL              08
BASIC MIDI EVENT     NOTE ON               note: 40 velocity: 48
EVENT TIME           2d0
CHANNEL              08
BASIC MIDI EVENT     NOTE OFF              note: 40 velocity: 40
EVENT TIME           0
CHANNEL              08
BASIC MIDI EVENT     NOTE ON               note: 42 velocity: 48
EVENT TIME           f0
CHANNEL              08
BASIC MIDI EVENT     NOTE OFF              note: 42 velocity: 40
EVENT TIME           1e0
CHANNEL              08
BASIC MIDI EVENT     NOTE ON               note: 43 velocity: 48
EVENT TIME           f0
CHANNEL              08
BASIC MIDI EVENT     NOTE OFF              note: 43 velocity: 40
EVENT TIME           f0
CHANNEL              08
BASIC MIDI EVENT     NOTE ON               note: 43 velocity: 48
EVENT TIME           3c0
CHANNEL              08
BASIC MIDI EVENT     NOTE OFF              note: 43 velocity: 40
EVENT TIME           0
CHANNEL              08
BASIC MIDI EVENT     NOTE ON               note: 42 velocity: 48
EVENT TIME           3c0
CHANNEL              08
BASIC MIDI EVENT     NOTE OFF              note: 42 velocity: 40
EVENT TIME           0
CHANNEL              08
BASIC MIDI EVENT     NOTE ON               note: 43 velocity: 48
EVENT TIME           2d0
CHANNEL              08
BASIC MIDI EVENT     NOTE OFF              note: 43 velocity: 40
EVENT TIME           0
CHANNEL              08
BASIC MIDI EVENT     NOTE ON               note: 45 velocity: 48
EVENT TIME           f0
CHANNEL              08
BASIC MIDI EVENT     NOTE OFF              note: 45 velocity: 40
EVENT TIME           1e0
CHANNEL              08
BASIC MIDI EVENT     NOTE ON               note: 47 velocity: 48
EVENT TIME           f0
CHANNEL              08
BASIC MIDI EVENT     NOTE OFF              note: 47 velocity: 40
EVENT TIME           f0
CHANNEL              08
BASIC MIDI EVENT     NOTE ON               note: 47 velocity: 48
EVENT TIME           3c0
CHANNEL              08
BASIC MIDI EVENT     NOTE OFF              note: 47 velocity: 40
EVENT TIME           0
CHANNEL              08
BASIC MIDI EVENT     NOTE ON               note: 45 velocity: 48
EVENT TIME           3c0
CHANNEL              08
BASIC MIDI EVENT     NOTE OFF              note: 45 velocity: 40
EVENT TIME           0
CHANNEL              08
BASIC MIDI EVENT     NOTE ON               note: 40 velocity: 48
EVENT TIME           3c0
CHANNEL              08
BASIC MIDI EVENT     NOTE OFF              note: 40 velocity: 40
EVENT TIME           0
CHANNEL              08
BASIC MIDI EVENT     NOTE ON               note: 47 velocity: 48
EVENT TIME           3c0
CHANNEL              08
BASIC MIDI EVENT     NOTE OFF              note: 47 velocity: 40
EVENT TIME           0
CHANNEL              08
BASIC MIDI EVENT     NOTE ON               note: 47 velocity: 48
EVENT TIME           2d0
CHANNEL              08
BASIC MIDI EVENT     NOTE OFF              note: 47 velocity: 40
EVENT TIME           0
CHANNEL              08
BASIC MIDI EVENT     NOTE ON               note: 45 velocity: 48
EVENT TIME           2d0
CHANNEL              08
BASIC MIDI EVENT     NOTE OFF              note: 45 velocity: 40
EVENT TIME           0
CHANNEL              08
BASIC MIDI EVENT     NOTE ON               note: 44 velocity: 48
EVENT TIME           1e0
CHANNEL              08
BASIC MIDI EVENT     NOTE OFF              note: 44 velocity: 40
EVENT TIME           0
CHANNEL              08
BASIC MIDI EVENT     NOTE ON               note: 44 velocity: 48
EVENT TIME           1e0
CHANNEL              08
BASIC MIDI EVENT     NOTE OFF              note: 44 velocity: 40
EVENT TIME           0
CHANNEL              08
BASIC MIDI EVENT     NOTE ON               note: 45 velocity: 48
EVENT TIME           f0
CHANNEL              08
BASIC MIDI EVENT     NOTE OFF              note: 45 velocity: 40
EVENT TIME           0
CHANNEL              08
BASIC MIDI EVENT     NOTE ON               note: 40 velocity: 48
EVENT TIME           3c0
CHANNEL              08
BASIC MIDI EVENT     NOTE OFF              note: 40 velocity: 40
EVENT TIME           870
CHANNEL              08
BASIC MIDI EVENT     NOTE ON               note: 40 velocity: 48
EVENT TIME           2d0
CHANNEL              08
BASIC MIDI EVENT     NOTE OFF              note: 40 velocity: 40
EVENT TIME           0
CHANNEL              08
BASIC MIDI EVENT     NOTE ON               note: 42 velocity: 48
EVENT TIME           f0
CHANNEL              08
BASIC MIDI EVENT     NOTE OFF              note: 42 velocity: 40
EVENT TIME           1e0
CHANNEL              08
BASIC MIDI EVENT     NOTE ON               note: 43 velocity: 48
EVENT TIME           f0
CHANNEL              08
BASIC MIDI EVENT     NOTE OFF              note: 43 velocity: 40
EVENT TIME           f0
CHANNEL              08
BASIC MIDI EVENT     NOTE ON               note: 43 velocity: 48
EVENT TIME           3c0
CHANNEL              08
BASIC MIDI EVENT     NOTE OFF              note: 43 velocity: 40
EVENT TIME           0
CHANNEL              08
BASIC MIDI EVENT     NOTE ON               note: 42 velocity: 48
EVENT TIME           3c0
CHANNEL              08
BASIC MIDI EVENT     NOTE OFF              note: 42 velocity: 40
EVENT TIME           0
CHANNEL              08
BASIC MIDI EVENT     NOTE ON               note: 43 velocity: 48
EVENT TIME           2d0
CHANNEL              08
BASIC MIDI EVENT     NOTE OFF              note: 43 velocity: 40
EVENT TIME           0
CHANNEL              08
BASIC MIDI EVENT     NOTE ON               note: 45 velocity: 48
EVENT TIME           f0
CHANNEL              08
BASIC MIDI EVENT     NOTE OFF              note: 45 velocity: 40
EVENT TIME           1e0
CHANNEL              08
BASIC MIDI EVENT     NOTE ON               note: 47 velocity: 48
EVENT TIME           f0
CHANNEL              08
BASIC MIDI EVENT     NOTE OFF              note: 47 velocity: 40
EVENT TIME           f0
CHANNEL              08
BASIC MIDI EVENT     NOTE ON               note: 47 velocity: 48
EVENT TIME           3c0
CHANNEL              08
BASIC MIDI EVENT     NOTE OFF              note: 47 velocity: 40
EVENT TIME           0
CHANNEL              08
BASIC MIDI EVENT     NOTE ON               note: 45 velocity: 48
EVENT TIME           3c0
CHANNEL              08
BASIC MIDI EVENT     NOTE OFF              note: 45 velocity: 40
EVENT TIME           0
CHANNEL              08
BASIC MIDI EVENT     NOTE ON               note: 40 velocity: 48
EVENT TIME           1e0
CHANNEL              08
BASIC MIDI EVENT     NOTE OFF              note: 40 velocity: 40
EVENT TIME           f0
CHANNEL              08
BASIC MIDI EVENT     NOTE ON               note: 3b velocity: 48
EVENT TIME           1e0
CHANNEL              08
BASIC MIDI EVENT     NOTE OFF              note: 3b velocity: 40
EVENT TIME           f0
CHANNEL              08
BASIC MIDI EVENT     NOTE ON               note: 3e velocity: 48
EVENT TIME           1e0
CHANNEL              08
BASIC MIDI EVENT     NOTE OFF              note: 3e velocity: 40
EVENT TIME           f0
CHANNEL              08
BASIC MIDI EVENT     NOTE ON               note: 39 velocity: 48
EVENT TIME           1e0
CHANNEL              08
BASIC MIDI EVENT     NOTE OFF              note: 39 velocity: 40
EVENT TIME           f0
CHANNEL              08
BASIC MIDI EVENT     NOTE ON               note: 3c velocity: 48
EVENT TIME           f0
CHANNEL              08
BASIC MIDI EVENT     NOTE OFF              note: 3c velocity: 40
EVENT TIME           0
CHANNEL              08
BASIC MIDI EVENT     NOTE ON               note: 3c velocity: 48
EVENT TIME           f0
CHANNEL              08
BASIC MIDI EVENT     NOTE OFF              note: 3c velocity: 40
EVENT TIME           0
CHANNEL              08
BASIC MIDI EVENT     NOTE ON               note: 3b velocity: 48
EVENT TIME           1e0
CHANNEL              08
BASIC MIDI EVENT     NOTE OFF              note: 3b velocity: 40
EVENT TIME           0
META EVENT           END OF TRACK        
MTrk


EVENT TIME           0
META EVENT           TRACK NAME           text: Piano 2 - Left      
EVENT TIME           0
CHANNEL              0b
BASIC MIDI EVENT     PROG_CHANGE           program: 00
EVENT TIME           0
CHANNEL              0b
BASIC MIDI EVENT     NOTE ON               note: 1d velocity: 48
EVENT TIME           168
CHANNEL              0b
BASIC MIDI EVENT     NOTE OFF              note: 1d velocity: 40
EVENT TIME           78
CHANNEL              0b
BASIC MIDI EVENT     NOTE ON               note: 1d velocity: 48
EVENT TIME           168
CHANNEL              0b
BASIC MIDI EVENT     NOTE OFF              note: 1d velocity: 40
EVENT TIME           78
CHANNEL              0b
BASIC MIDI EVENT     NOTE ON               note: 1d velocity: 48
EVENT TIME           168
CHANNEL              0b
BASIC MIDI EVENT     NOTE OFF              note: 1d velocity: 40
EVENT TIME           78
CHANNEL              0b
BASIC MIDI EVENT     NOTE ON               note: 1d velocity: 48
EVENT TIME           168
CHANNEL              0b
BASIC MIDI EVENT     NOTE OFF              note: 1d velocity: 40
EVENT TIME           78
CHANNEL              0b
BASIC MIDI EVENT     NOTE ON               note: 24 velocity: 48
EVENT TIME           168
CHANNEL              0b
BASIC MIDI EVENT     NOTE OFF              note: 24 velocity: 40
EVENT TIME           78
CHANNEL              0b
BASIC MIDI EVENT     NOTE ON               note: 24 velocity: 48
EVENT TIME           168
CHANNEL              0b
BASIC MIDI EVENT     NOTE OFF              note: 24 velocity: 40
EVENT TIME           78
CHANNEL              0b
BASIC MIDI EVENT     NOTE ON               note: 24 velocity: 48
EVENT TIME           168
CHANNEL              0b
BASIC MIDI EVENT     NOTE OFF              note: 24 velocity: 40
EVENT TIME           78
CHANNEL              0b
BASIC MIDI EVENT     NOTE ON               note: 24 velocity: 48
EVENT TIME           168
CHANNEL              0b
BASIC MIDI EVENT     NOTE OFF              note: 24 velocity: 40
EVENT TIME           78
CHANNEL              0b
BASIC MIDI EVENT     NOTE ON               note: 26 velocity: 48
EVENT TIME           168
CHANNEL              0b
BASIC MIDI EVENT     NOTE OFF              note: 26 velocity: 40
EVENT TIME           78
CHANNEL              0b
BASIC MIDI EVENT     NOTE ON               note: 26 velocity: 48
EVENT TIME           168
CHANNEL              0b
BASIC MIDI EVENT     NOTE OFF              note: 26 velocity: 40
EVENT TIME           78
CHANNEL              0b
BASIC MIDI EVENT     NOTE ON               note: 26 velocity: 48
EVENT TIME           168
CHANNEL              0b
BASIC MIDI EVENT     NOTE OFF              note: 26 velocity: 40
EVENT TIME           78
CHANNEL              0b
BASIC MIDI EVENT     NOTE ON               note: 26 velocity: 48
EVENT TIME           168
CHANNEL              0b
BASIC MIDI EVENT     NOTE OFF              note: 26 velocity: 40
EVENT TIME           78
CHANNEL              0b
BASIC MIDI EVENT     NOTE ON               note: 23 velocity: 48
EVENT TIME           168
CHANNEL              0b
BASIC MIDI EVENT     NOTE OFF              note: 23 velocity: 40
EVENT TIME           78
CHANNEL              0b
BASIC MIDI EVENT     NOTE ON               note: 23 velocity: 48
EVENT TIME           168
CHANNEL              0b
BASIC MIDI EVENT     NOTE OFF              note: 23 velocity: 40
EVENT TIME           78
CHANNEL              0b
BASIC MIDI EVENT     NOTE ON               note: 23 velocity: 48
EVENT TIME           168
CHANNEL              0b
BASIC MIDI EVENT     NOTE OFF              note: 23 velocity: 40
EVENT TIME           78
CHANNEL              0b
BASIC MIDI EVENT     NOTE ON               note: 23 velocity: 48
EVENT TIME           168
CHANNEL              0b
BASIC MIDI EVENT     NOTE OFF              note: 23 velocity: 40
EVENT TIME           78
CHANNEL              0b
BASIC MIDI EVENT     NOTE ON               note: 22 velocity: 48
EVENT TIME           f0
CHANNEL              0b
BASIC MIDI EVENT     NOTE OFF              note: 22 velocity: 40
EVENT TIME           0
CHANNEL              0b
BASIC MIDI EVENT     NOTE ON               note: 22 velocity: 48
EVENT TIME           f0
CHANNEL              0b
BASIC MIDI EVENT     NOTE OFF              note: 22 velocity: 40
EVENT TIME           0
CHANNEL              0b
BASIC MIDI EVENT     NOTE ON               note: 22 velocity: 48
EVENT TIME           f0
CHANNEL              0b
BASIC MIDI EVENT     NOTE OFF              note: 22 velocity: 40
EVENT TIME           0
CHANNEL              0b
BASIC MIDI EVENT     NOTE ON               note: 22 velocity: 48
EVENT TIME           f0
CHANNEL              0b
BASIC MIDI EVENT     NOTE OFF              note: 22 velocity: 40
EVENT TIME           0
CHANNEL              0b
BASIC MIDI EVENT     NOTE ON               note: 22 velocity: 48
EVENT TIME           f0
CHANNEL              0b
BASIC MIDI EVENT     NOTE OFF              note: 22 velocity: 40
EVENT TIME           0
CHANNEL              0b
BASIC MIDI EVENT     NOTE ON               note: 22 velocity: 48
EVENT TIME           f0
CHANNEL              0b
BASIC MIDI EVENT     NOTE OFF              note: 22 velocity: 40
EVENT TIME           0
CHANNEL              0b
BASIC MIDI EVENT     NOTE ON               note: 22 velocity: 48
EVENT TIME           f0
CHANNEL              0b
BASIC MIDI EVENT     NOTE OFF              note: 22 velocity: 40
EVENT TIME           0
CHANNEL              0b
BASIC MIDI EVENT     NOTE ON               note: 22 velocity: 48
EVENT TIME           f0
CHANNEL              0b
BASIC MIDI EVENT     NOTE OFF              note: 22 velocity: 40
EVENT TIME           0
CHANNEL              0b
BASIC MIDI EVENT     NOTE ON               note: 22 velocity: 48
EVENT TIME           f0
CHANNEL              0b
BASIC MIDI EVENT     NOTE OFF              note: 22 velocity: 40
EVENT TIME           0
CHANNEL              0b
BASIC MIDI EVENT     NOTE ON               note: 22 velocity: 48
EVENT TIME           f0
CHANNEL              0b
BASIC MIDI EVENT     NOTE OFF              note: 22 velocity: 40
EVENT TIME           0
CHANNEL              0b
BASIC MIDI EVENT     NOTE ON               note: 22 velocity: 48
EVENT TIME           f0
CHANNEL              0b
BASIC MIDI EVENT     NOTE OFF              note: 22 velocity: 40
EVENT TIME           0
CHANNEL              0b
BASIC MIDI EVENT     NOTE ON               note: 22 velocity: 48
EVENT TIME           f0
CHANNEL              0b
BASIC MIDI EVENT     NOTE OFF              note: 22 velocity: 40
EVENT TIME           0
CHANNEL              0b
BASIC MIDI EVENT     NOTE ON               note: 22 velocity: 48
EVENT TIME           f0
CHANNEL              0b
BASIC MIDI EVENT     NOTE OFF              note: 22 velocity: 40
EVENT TIME           0
CHANNEL              0b
BASIC MIDI EVENT     NOTE ON               note: 22 velocity: 48
EVENT TIME           f0
CHANNEL              0b
BASIC MIDI EVENT     NOTE OFF              note: 22 velocity: 40
EVENT TIME           0
CHANNEL              0b
BASIC MIDI EVENT     NOTE ON               note: 22 velocity: 48
EVENT TIME           f0
CHANNEL              0b
BASIC MIDI EVENT     NOTE OFF              note: 22 velocity: 40
EVENT TIME           0
CHANNEL              0b
BASIC MIDI EVENT     NOTE ON               note: 22 velocity: 48
EVENT TIME           f0
CHANNEL              0b
BASIC MIDI EVENT     NOTE OFF              note: 22 velocity: 40
EVENT TIME           0
CHANNEL              0b
BASIC MIDI EVENT     NOTE ON               note: 1f velocity: 48
EVENT TIME           168
CHANNEL              0b
BASIC MIDI EVENT     NOTE OFF              note: 1f velocity: 40
EVENT TIME           78
CHANNEL              0b
BASIC MIDI EVENT     NOTE ON               note: 1f velocity: 48
EVENT TIME           168
CHANNEL              0b
BASIC MIDI EVENT     NOTE OFF              note: 1f velocity: 40
EVENT TIME           78
CHANNEL              0b
BASIC MIDI EVENT     NOTE ON               note: 1f velocity: 48
EVENT TIME           168
CHANNEL              0b
BASIC MIDI EVENT     NOTE OFF              note: 1f velocity: 40
EVENT TIME           78
CHANNEL              0b
BASIC MIDI EVENT     NOTE ON               note: 1f velocity: 48
EVENT TIME           168
CHANNEL              0b
BASIC MIDI EVENT     NOTE OFF              note: 1f velocity: 40
EVENT TIME           168
CHANNEL              0b
BASIC MIDI EVENT     NOTE ON               note: 22 velocity: 48
EVENT TIME           f0
CHANNEL              0b
BASIC MIDI EVENT     NOTE OFF              note: 22 velocity: 40
EVENT TIME           0
CHANNEL              0b
BASIC MIDI EVENT     NOTE ON               note: 22 velocity: 48
EVENT TIME           f0
CHANNEL              0b
BASIC MIDI EVENT     NOTE OFF              note: 22 velocity: 40
EVENT TIME           0
CHANNEL              0b
BASIC MIDI EVENT     NOTE ON               note: 23 velocity: 48
EVENT TIME           f0
CHANNEL              0b
BASIC MIDI EVENT     NOTE OFF              note: 23 velocity: 40
EVENT TIME           0
CHANNEL              0b
BASIC MIDI EVENT     NOTE ON               note: 24 velocity: 48
EVENT TIME           f0
CHANNEL              0b
BASIC MIDI EVENT     NOTE OFF              note: 24 velocity: 40
EVENT TIME           f0
CHANNEL              0b
BASIC MIDI EVENT     NOTE ON               note: 24 velocity: 48
EVENT TIME           f0
CHANNEL              0b
BASIC MIDI EVENT     NOTE OFF              note: 24 velocity: 40
EVENT TIME           f0
CHANNEL              0b
BASIC MIDI EVENT     NOTE ON               note: 26 velocity: 48
EVENT TIME           78
CHANNEL              0b
BASIC MIDI EVENT     NOTE OFF              note: 26 velocity: 40
EVENT TIME           78
CHANNEL              0b
BASIC MIDI EVENT     NOTE ON               note: 26 velocity: 48
EVENT TIME           78
CHANNEL              0b
BASIC MIDI EVENT     NOTE OFF              note: 26 velocity: 40
EVENT TIME           78
CHANNEL              0b
BASIC MIDI EVENT     NOTE ON               note: 26 velocity: 48
EVENT TIME           78
CHANNEL              0b
BASIC MIDI EVENT     NOTE OFF              note: 26 velocity: 40
EVENT TIME           78
CHANNEL              0b
BASIC MIDI EVENT     NOTE ON               note: 26 velocity: 48
EVENT TIME           78
CHANNEL              0b
BASIC MIDI EVENT     NOTE OFF              note: 26 velocity: 40
EVENT TIME           78
CHANNEL              0b
BASIC MIDI EVENT     NOTE ON               note: 26 velocity: 48
EVENT TIME           78
CHANNEL              0b
BASIC MIDI EVENT     NOTE OFF              note: 26 velocity: 40
EVENT TIME           78
CHANNEL              0b
BASIC MIDI EVENT     NOTE ON               note: 26 velocity: 48
EVENT TIME           78
CHANNEL              0b
BASIC MIDI EVENT     NOTE OFF              note: 26 velocity: 40
EVENT TIME           78
CHANNEL              0b
BASIC MIDI EVENT     NOTE ON               note: 26 velocity: 48
EVENT TIME           78
CHANNEL              0b
BASIC MIDI EVENT     NOTE OFF              note: 26 velocity: 40
EVENT TIME           78
CHANNEL              0b
BASIC MIDI EVENT     NOTE ON               note: 26 velocity: 48
EVENT TIME           78
CHANNEL              0b
BASIC MIDI EVENT     NOTE OFF              note: 26 velocity: 40
EVENT TIME           78
CHANNEL              0b
BASIC MIDI EVENT     NOTE ON               note: 25 velocity: 48
EVENT TIME           78
CHANNEL              0b
BASIC MIDI EVENT     NOTE OFF              note: 25 velocity: 40
EVENT TIME           78
CHANNEL              0b
BASIC MIDI EVENT     NOTE ON               note: 25 velocity: 48
EVENT TIME           78
CHANNEL              0b
BASIC MIDI EVENT     NOTE OFF              note: 25 velocity: 40
EVENT TIME           78
CHANNEL              0b
BASIC MIDI EVENT     NOTE ON               note: 25 velocity: 48
EVENT TIME           78
CHANNEL              0b
BASIC MIDI EVENT     NOTE OFF              note: 25 velocity: 40
EVENT TIME           78
CHANNEL              0b
BASIC MIDI EVENT     NOTE ON               note: 25 velocity: 48
EVENT TIME           78
CHANNEL              0b
BASIC MIDI EVENT     NOTE OFF              note: 25 velocity: 40
EVENT TIME           78
CHANNEL              0b
BASIC MIDI EVENT     NOTE ON               note: 25 velocity: 48
EVENT TIME           78
CHANNEL              0b
BASIC MIDI EVENT     NOTE OFF              note: 25 velocity: 40
EVENT TIME           78
CHANNEL              0b
BASIC MIDI EVENT     NOTE ON               note: 25 velocity: 48
EVENT TIME           78
CHANNEL              0b
BASIC MIDI EVENT     NOTE OFF              note: 25 velocity: 40
EVENT TIME           78
CHANNEL              0b
BASIC MIDI EVENT     NOTE ON               note: 25 velocity: 48
EVENT TIME           78
CHANNEL              0b
BASIC MIDI EVENT     NOTE OFF              note: 25 velocity: 40
EVENT TIME           78
CHANNEL              0b
BASIC MIDI EVENT     NOTE ON               note: 25 velocity: 48
EVENT TIME           78
CHANNEL              0b
BASIC MIDI EVENT     NOTE OFF              note: 25 velocity: 40
EVENT TIME           78
CHANNEL              0b
BASIC MIDI EVENT     NOTE ON               note: 24 velocity: 48
EVENT TIME           78
CHANNEL              0b
BASIC MIDI EVENT     NOTE OFF              note: 24 velocity: 40
EVENT TIME           78
CHANNEL              0b
BASIC MIDI EVENT     NOTE ON               note: 24 velocity: 48
EVENT TIME           78
CHANNEL              0b
BASIC MIDI EVENT     NOTE OFF              note: 24 velocity: 40
EVENT TIME           78
CHANNEL              0b
BASIC MIDI EVENT     NOTE ON               note: 24 velocity: 48
EVENT TIME           78
CHANNEL              0b
BASIC MIDI EVENT     NOTE OFF              note: 24 velocity: 40
EVENT TIME           78
CHANNEL              0b
BASIC MIDI EVENT     NOTE ON               note: 24 velocity: 48
EVENT TIME           78
CHANNEL              0b
BASIC MIDI EVENT     NOTE OFF              note: 24 velocity: 40
EVENT TIME           78
CHANNEL              0b
BASIC MIDI EVENT     NOTE ON               note: 24 velocity: 48
EVENT TIME           78
CHANNEL              0b
BASIC MIDI EVENT     NOTE OFF              note: 24 velocity: 40
EVENT TIME           78
CHANNEL              0b
BASIC MIDI EVENT     NOTE ON               note: 24 velocity: 48
EVENT TIME           78
CHANNEL              0b
BASIC MIDI EVENT     NOTE OFF              note: 24 velocity: 40
EVENT TIME           78
CHANNEL              0b
BASIC MIDI EVENT     NOTE ON               note: 24 velocity: 48
EVENT TIME           78
CHANNEL              0b
BASIC MIDI EVENT     NOTE OFF              note: 24 velocity: 40
EVENT TIME           78
CHANNEL              0b
BASIC MIDI EVENT     NOTE ON               note: 24 velocity: 48
EVENT TIME           78
CHANNEL              0b
BASIC MIDI EVENT     NOTE OFF              note: 24 velocity: 40
EVENT TIME           78
CHANNEL              0b
BASIC MIDI EVENT     NOTE ON               note: 23 velocity: 48
EVENT TIME           78
CHANNEL              0b
BASIC MIDI EVENT     NOTE OFF              note: 23 velocity: 40
EVENT TIME           78
CHANNEL              0b
BASIC MIDI EVENT     NOTE ON               note: 23 velocity: 48
EVENT TIME           78
CHANNEL              0b
BASIC MIDI EVENT     NOTE OFF              note: 23 velocity: 40
EVENT TIME           78
CHANNEL              0b
BASIC MIDI EVENT     NOTE ON               note: 23 velocity: 48
EVENT TIME           78
CHANNEL              0b
BASIC MIDI EVENT     NOTE OFF              note: 23 velocity: 40
EVENT TIME           78
CHANNEL              0b
BASIC MIDI EVENT     NOTE ON               note: 23 velocity: 48
EVENT TIME           78
CHANNEL              0b
BASIC MIDI EVENT     NOTE OFF              note: 23 velocity: 40
EVENT TIME           78
CHANNEL              0b
BASIC MIDI EVENT     NOTE ON               note: 23 velocity: 48
EVENT TIME           78
CHANNEL              0b
BASIC MIDI EVENT     NOTE OFF              note: 23 velocity: 40
EVENT TIME           78
CHANNEL              0b
BASIC MIDI EVENT     NOTE ON               note: 23 velocity: 48
EVENT TIME           78
CHANNEL              0b
BASIC MIDI EVENT     NOTE OFF              note: 23 velocity: 40
EVENT TIME           78
CHANNEL              0b
BASIC MIDI EVENT     NOTE ON               note: 23 velocity: 48
EVENT TIME           78
CHANNEL              0b
BASIC MIDI EVENT     NOTE OFF              note: 23 velocity: 40
EVENT TIME           78
CHANNEL              0b
BASIC MIDI EVENT     NOTE ON               note: 23 velocity: 48
EVENT TIME           78
CHANNEL              0b
BASIC MIDI EVENT     NOTE OFF              note: 23 velocity: 40
EVENT TIME           78
CHANNEL              0b
BASIC MIDI EVENT     NOTE ON               note: 28 velocity: 48
EVENT TIME           78
CHANNEL              0b
BASIC MIDI EVENT     NOTE OFF              note: 28 velocity: 40
EVENT TIME           78
CHANNEL              0b
BASIC MIDI EVENT     NOTE ON               note: 28 velocity: 48
EVENT TIME           78
CHANNEL              0b
BASIC MIDI EVENT     NOTE OFF              note: 28 velocity: 40
EVENT TIME           78
CHANNEL              0b
BASIC MIDI EVENT     NOTE ON               note: 28 velocity: 48
EVENT TIME           78
CHANNEL              0b
BASIC MIDI EVENT     NOTE OFF              note: 28 velocity: 40
EVENT TIME           78
CHANNEL              0b
BASIC MIDI EVENT     NOTE ON               note: 28 velocity: 48
EVENT TIME           78
CHANNEL              0b
BASIC MIDI EVENT     NOTE OFF              note: 28 velocity: 40
EVENT TIME           78
CHANNEL              0b
BASIC MIDI EVENT     NOTE ON               note: 28 velocity: 48
EVENT TIME           78
CHANNEL              0b
BASIC MIDI EVENT     NOTE OFF              note: 28 velocity: 40
EVENT TIME           78
CHANNEL              0b
BASIC MIDI EVENT     NOTE ON               note: 28 velocity: 48
EVENT TIME           78
CHANNEL              0b
BASIC MIDI EVENT     NOTE OFF              note: 28 velocity: 40
EVENT TIME           78
CHANNEL              0b
BASIC MIDI EVENT     NOTE ON               note: 28 velocity: 48
EVENT TIME           78
CHANNEL              0b
BASIC MIDI EVENT     NOTE OFF              note: 28 velocity: 40
EVENT TIME           78
CHANNEL              0b
BASIC MIDI EVENT     NOTE ON               note: 28 velocity: 48
EVENT TIME           78
CHANNEL              0b
BASIC MIDI EVENT     NOTE OFF              note: 28 velocity: 40
EVENT TIME           78
CHANNEL              0b
BASIC MIDI EVENT     NOTE ON               note: 1c velocity: 48
EVENT TIME           78
CHANNEL              0b
BASIC MIDI EVENT     NOTE OFF              note: 1c velocity: 40
EVENT TIME           78
CHANNEL              0b
BASIC MIDI EVENT     NOTE ON               note: 1c velocity: 48
EVENT TIME           78
CHANNEL              0b
BASIC MIDI EVENT     NOTE OFF              note: 1c velocity: 40
EVENT TIME           78
CHANNEL              0b
BASIC MIDI EVENT     NOTE ON               note: 1c velocity: 48
EVENT TIME           78
CHANNEL              0b
BASIC MIDI EVENT     NOTE OFF              note: 1c velocity: 40
EVENT TIME           78
CHANNEL              0b
BASIC MIDI EVENT     NOTE ON               note: 1c velocity: 48
EVENT TIME           78
CHANNEL              0b
BASIC MIDI EVENT     NOTE OFF              note: 1c velocity: 40
EVENT TIME           78
CHANNEL              0b
BASIC MIDI EVENT     NOTE ON               note: 1c velocity: 48
EVENT TIME           78
CHANNEL              0b
BASIC MIDI EVENT     NOTE OFF              note: 1c velocity: 40
EVENT TIME           78
CHANNEL              0b
BASIC MIDI EVENT     NOTE ON               note: 1c velocity: 48
EVENT TIME           78
CHANNEL              0b
BASIC MIDI EVENT     NOTE OFF              note: 1c velocity: 40
EVENT TIME           78
CHANNEL              0b
BASIC MIDI EVENT     NOTE ON               note: 1c velocity: 48
EVENT TIME           78
CHANNEL              0b
BASIC MIDI EVENT     NOTE OFF              note: 1c velocity: 40
EVENT TIME           78
CHANNEL              0b
BASIC MIDI EVENT     NOTE ON               note: 1c velocity: 48
EVENT TIME           78
CHANNEL              0b
BASIC MIDI EVENT     NOTE OFF              note: 1c velocity: 40
EVENT TIME           78
CHANNEL              0b
BASIC MIDI EVENT     NOTE ON               note: 1f velocity: 48
EVENT TIME           78
CHANNEL              0b
BASIC MIDI EVENT     NOTE OFF              note: 1f velocity: 40
EVENT TIME           78
CHANNEL              0b
BASIC MIDI EVENT     NOTE ON               note: 1f velocity: 48
EVENT TIME           78
CHANNEL              0b
BASIC MIDI EVENT     NOTE OFF              note: 1f velocity: 40
EVENT TIME           78
CHANNEL              0b
BASIC MIDI EVENT     NOTE ON               note: 1f velocity: 48
EVENT TIME           78
CHANNEL              0b
BASIC MIDI EVENT     NOTE OFF              note: 1f velocity: 40
EVENT TIME           78
CHANNEL              0b
BASIC MIDI EVENT     NOTE ON               note: 1f velocity: 48
EVENT TIME           78
CHANNEL              0b
BASIC MIDI EVENT     NOTE OFF              note: 1f velocity: 40
EVENT TIME           78
CHANNEL              0b
BASIC MIDI EVENT     NOTE ON               note: 1f velocity: 48
EVENT TIME           78
CHANNEL              0b
BASIC MIDI EVENT     NOTE OFF              note: 1f velocity: 40
EVENT TIME           78
CHANNEL              0b
BASIC MIDI EVENT     NOTE ON               note: 1f velocity: 48
EVENT TIME           78
CHANNEL              0b
BASIC MIDI EVENT     NOTE OFF              note: 1f velocity: 40
EVENT TIME           78
CHANNEL              0b
BASIC MIDI EVENT     NOTE ON               note: 1f velocity: 48
EVENT TIME           78
CHANNEL              0b
BASIC MIDI EVENT     NOTE OFF              note: 1f velocity: 40
EVENT TIME           78
CHANNEL              0b
BASIC MIDI EVENT     NOTE ON               note: 21 velocity: 48
EVENT TIME           78
CHANNEL              0b
BASIC MIDI EVENT     NOTE OFF              note: 21 velocity: 40
EVENT TIME           78
CHANNEL              0b
BASIC MIDI EVENT     NOTE ON               note: 21 velocity: 48
EVENT TIME           78
CHANNEL              0b
BASIC MIDI EVENT     NOTE OFF              note: 21 velocity: 40
EVENT TIME           78
CHANNEL              0b
BASIC MIDI EVENT     NOTE ON               note: 21 velocity: 48
EVENT TIME           78
CHANNEL              0b
BASIC MIDI EVENT     NOTE OFF              note: 21 velocity: 40
EVENT TIME           78
CHANNEL              0b
BASIC MIDI EVENT     NOTE ON               note: 21 velocity: 48
EVENT TIME           78
CHANNEL              0b
BASIC MIDI EVENT     NOTE OFF              note: 21 velocity: 40
EVENT TIME           78
CHANNEL              0b
BASIC MIDI EVENT     NOTE ON               note: 21 velocity: 48
EVENT TIME           78
CHANNEL              0b
BASIC MIDI EVENT     NOTE OFF              note: 21 velocity: 40
EVENT TIME           78
CHANNEL              0b
BASIC MIDI EVENT     NOTE ON               note: 23 velocity: 48
EVENT TIME           78
CHANNEL              0b
BASIC MIDI EVENT     NOTE OFF              note: 23 velocity: 40
EVENT TIME           78
CHANNEL              0b
BASIC MIDI EVENT     NOTE ON               note: 23 velocity: 48
EVENT TIME           78
CHANNEL              0b
BASIC MIDI EVENT     NOTE OFF              note: 23 velocity: 40
EVENT TIME           78
CHANNEL              0b
BASIC MIDI EVENT     NOTE ON               note: 21 velocity: 48
EVENT TIME           78
CHANNEL              0b
BASIC MIDI EVENT     NOTE OFF              note: 21 velocity: 40
EVENT TIME           78
CHANNEL              0b
BASIC MIDI EVENT     NOTE ON               note: 21 velocity: 48
EVENT TIME           78
CHANNEL              0b
BASIC MIDI EVENT     NOTE OFF              note: 21 velocity: 40
EVENT TIME           78
CHANNEL              0b
BASIC MIDI EVENT     NOTE ON               note: 26 velocity: 48
EVENT TIME           78
CHANNEL              0b
BASIC MIDI EVENT     NOTE OFF              note: 26 velocity: 40
EVENT TIME           78
CHANNEL              0b
BASIC MIDI EVENT     NOTE ON               note: 26 velocity: 48
EVENT TIME           78
CHANNEL              0b
BASIC MIDI EVENT     NOTE OFF              note: 26 velocity: 40
EVENT TIME           78
CHANNEL              0b
BASIC MIDI EVENT     NOTE ON               note: 26 velocity: 48
EVENT TIME           78
CHANNEL              0b
BASIC MIDI EVENT     NOTE OFF              note: 26 velocity: 40
EVENT TIME           78
CHANNEL              0b
BASIC MIDI EVENT     NOTE ON               note: 26 velocity: 48
EVENT TIME           78
CHANNEL              0b
BASIC MIDI EVENT     NOTE OFF              note: 26 velocity: 40
EVENT TIME           78
CHANNEL              0b
BASIC MIDI EVENT     NOTE ON               note: 26 velocity: 48
EVENT TIME           78
CHANNEL              0b
BASIC MIDI EVENT     NOTE OFF              note: 26 velocity: 40
EVENT TIME           78
CHANNEL              0b
BASIC MIDI EVENT     NOTE ON               note: 26 velocity: 48
EVENT TIME           78
CHANNEL              0b
BASIC MIDI EVENT     NOTE OFF              note: 26 velocity: 40
EVENT TIME           78
CHANNEL              0b
BASIC MIDI EVENT     NOTE ON               note: 26 velocity: 48
EVENT TIME           78
CHANNEL              0b
BASIC MIDI EVENT     NOTE OFF              note: 26 velocity: 40
EVENT TIME           78
CHANNEL              0b
BASIC MIDI EVENT     NOTE ON               note: 26 velocity: 48
EVENT TIME           78
CHANNEL              0b
BASIC MIDI EVENT     NOTE OFF              note: 26 velocity: 40
EVENT TIME           78
CHANNEL              0b
BASIC MIDI EVENT     NOTE ON               note: 25 velocity: 48
EVENT TIME           78
CHANNEL              0b
BASIC MIDI EVENT     NOTE OFF              note: 25 velocity: 40
EVENT TIME           78
CHANNEL              0b
BASIC MIDI EVENT     NOTE ON               note: 25 velocity: 48
EVENT TIME           78
CHANNEL              0b
BASIC MIDI EVENT     NOTE OFF              note: 25 velocity: 40
EVENT TIME           78
CHANNEL              0b
BASIC MIDI EVENT     NOTE ON               note: 25 velocity: 48
EVENT TIME           78
CHANNEL              0b
BASIC MIDI EVENT     NOTE OFF              note: 25 velocity: 40
EVENT TIME           78
CHANNEL              0b
BASIC MIDI EVENT     NOTE ON               note: 25 velocity: 48
EVENT TIME           78
CHANNEL              0b
BASIC MIDI EVENT     NOTE OFF              note: 25 velocity: 40
EVENT TIME           78
CHANNEL              0b
BASIC MIDI EVENT     NOTE ON               note: 25 velocity: 48
EVENT TIME           78
CHANNEL              0b
BASIC MIDI EVENT     NOTE OFF              note: 25 velocity: 40
EVENT TIME           78
CHANNEL              0b
BASIC MIDI EVENT     NOTE ON               note: 25 velocity: 48
EVENT TIME           78
CHANNEL              0b
BASIC MIDI EVENT     NOTE OFF              note: 25 velocity: 40
EVENT TIME           78
CHANNEL              0b
BASIC MIDI EVENT     NOTE ON               note: 25 velocity: 48
EVENT TIME           78
CHANNEL              0b
BASIC MIDI EVENT     NOTE OFF              note: 25 velocity: 40
EVENT TIME           78
CHANNEL              0b
BASIC MIDI EVENT     NOTE ON               note: 25 velocity: 48
EVENT TIME           78
CHANNEL              0b
BASIC MIDI EVENT     NOTE OFF              note: 25 velocity: 40
EVENT TIME           78
CHANNEL              0b
BASIC MIDI EVENT     NOTE ON               note: 24 velocity: 48
EVENT TIME           78
CHANNEL              0b
BASIC MIDI EVENT     NOTE OFF              note: 24 velocity: 40
EVENT TIME           78
CHANNEL              0b
BASIC MIDI EVENT     NOTE ON               note: 24 velocity: 48
EVENT TIME           78
CHANNEL              0b
BASIC MIDI EVENT     NOTE OFF              note: 24 velocity: 40
EVENT TIME           78
CHANNEL              0b
BASIC MIDI EVENT     NOTE ON               note: 24 velocity: 48
EVENT TIME           78
CHANNEL              0b
BASIC MIDI EVENT     NOTE OFF              note: 24 velocity: 40
EVENT TIME           78
CHANNEL              0b
BASIC MIDI EVENT     NOTE ON               note: 24 velocity: 48
EVENT TIME           78
CHANNEL              0b
BASIC MIDI EVENT     NOTE OFF              note: 24 velocity: 40
EVENT TIME           78
CHANNEL              0b
BASIC MIDI EVENT     NOTE ON               note: 24 velocity: 48
EVENT TIME           78
CHANNEL              0b
BASIC MIDI EVENT     NOTE OFF              note: 24 velocity: 40
EVENT TIME           78
CHANNEL              0b
BASIC MIDI EVENT     NOTE ON               note: 24 velocity: 48
EVENT TIME           78
CHANNEL              0b
BASIC MIDI EVENT     NOTE OFF              note: 24 velocity: 40
EVENT TIME           78
CHANNEL              0b
BASIC MIDI EVENT     NOTE ON               note: 24 velocity: 48
EVENT TIME           78
CHANNEL              0b
BASIC MIDI EVENT     NOTE OFF              note: 24 velocity: 40
EVENT TIME           78
CHANNEL              0b
BASIC MIDI EVENT     NOTE ON               note: 24 velocity: 48
EVENT TIME           78
CHANNEL              0b
BASIC MIDI EVENT     NOTE OFF              note: 24 velocity: 40
EVENT TIME           78
CHANNEL              0b
BASIC MIDI EVENT     NOTE ON               note: 23 velocity: 48
EVENT TIME           78
CHANNEL              0b
BASIC MIDI EVENT     NOTE OFF              note: 23 velocity: 40
EVENT TIME           78
CHANNEL              0b
BASIC MIDI EVENT     NOTE ON               note: 23 velocity: 48
EVENT TIME           78
CHANNEL              0b
BASIC MIDI EVENT     NOTE OFF              note: 23 velocity: 40
EVENT TIME           78
CHANNEL              0b
BASIC MIDI EVENT     NOTE ON               note: 23 velocity: 48
EVENT TIME           78
CHANNEL              0b
BASIC MIDI EVENT     NOTE OFF              note: 23 velocity: 40
EVENT TIME           78
CHANNEL              0b
BASIC MIDI EVENT     NOTE ON               note: 23 velocity: 48
EVENT TIME           78
CHANNEL              0b
BASIC MIDI EVENT     NOTE OFF              note: 23 velocity: 40
EVENT TIME           78
CHANNEL              0b
BASIC MIDI EVENT     NOTE ON               note: 23 velocity: 48
EVENT TIME           78
CHANNEL              0b
BASIC MIDI EVENT     NOTE OFF              note: 23 velocity: 40
EVENT TIME           78
CHANNEL              0b
BASIC MIDI EVENT     NOTE ON               note: 23 velocity: 48
EVENT TIME           78
CHANNEL              0b
BASIC MIDI EVENT     NOTE OFF              note: 23 velocity: 40
EVENT TIME           78
CHANNEL              0b
BASIC MIDI EVENT     NOTE ON               note: 23 velocity: 48
EVENT TIME           78
CHANNEL              0b
BASIC MIDI EVENT     NOTE OFF              note: 23 velocity: 40
EVENT TIME           78
CHANNEL              0b
BASIC MIDI EVENT     NOTE ON               note: 23 velocity: 48
EVENT TIME           78
CHANNEL              0b
BASIC MIDI EVENT     NOTE OFF              note: 23 velocity: 40
EVENT TIME           78
CHANNEL              0b
BASIC MIDI EVENT     NOTE ON               note: 28 velocity: 48
EVENT TIME           78
CHANNEL              0b
BASIC MIDI EVENT     NOTE OFF              note: 28 velocity: 40
EVENT TIME           78
CHANNEL              0b
BASIC MIDI EVENT     NOTE ON               note: 28 velocity: 48
EVENT TIME           78
CHANNEL              0b
BASIC MIDI EVENT     NOTE OFF              note: 28 velocity: 40
EVENT TIME           78
CHANNEL              0b
BASIC MIDI EVENT     NOTE ON               note: 28 velocity: 48
EVENT TIME           78
CHANNEL              0b
BASIC MIDI EVENT     NOTE OFF              note: 28 velocity: 40
EVENT TIME           78
CHANNEL              0b
BASIC MIDI EVENT     NOTE ON               note: 28 velocity: 48
EVENT TIME           78
CHANNEL              0b
BASIC MIDI EVENT     NOTE OFF              note: 28 velocity: 40
EVENT TIME           78
CHANNEL              0b
BASIC MIDI EVENT     NOTE ON               note: 28 velocity: 48
EVENT TIME           78
CHANNEL              0b
BASIC MIDI EVENT     NOTE OFF              note: 28 velocity: 40
EVENT TIME           78
CHANNEL              0b
BASIC MIDI EVENT     NOTE ON               note: 28 velocity: 48
EVENT TIME           78
CHANNEL              0b
BASIC MIDI EVENT     NOTE OFF              note: 28 velocity: 40
EVENT TIME           78
CHANNEL              0b
BASIC MIDI EVENT     NOTE ON               note: 28 velocity: 48
EVENT TIME           78
CHANNEL              0b
BASIC MIDI EVENT     NOTE OFF              note: 28 velocity: 40
EVENT TIME           78
CHANNEL              0b
BASIC MIDI EVENT     NOTE ON               note: 28 velocity: 48
EVENT TIME           78
CHANNEL              0b
BASIC MIDI EVENT     NOTE OFF              note: 28 velocity: 40
EVENT TIME           78
CHANNEL              0b
BASIC MIDI EVENT     NOTE ON               note: 1c velocity: 48
EVENT TIME           78
CHANNEL              0b
BASIC MIDI EVENT     NOTE OFF              note: 1c velocity: 40
EVENT TIME           78
CHANNEL              0b
BASIC MIDI EVENT     NOTE ON               note: 1c velocity: 48
EVENT TIME           78
CHANNEL              0b
BASIC MIDI EVENT     NOTE OFF              note: 1c velocity: 40
EVENT TIME           78
CHANNEL              0b
BASIC MIDI EVENT     NOTE ON               note: 1c velocity: 48
EVENT TIME           78
CHANNEL              0b
BASIC MIDI EVENT     NOTE OFF              note: 1c velocity: 40
EVENT TIME           78
CHANNEL              0b
BASIC MIDI EVENT     NOTE ON               note: 1c velocity: 48
EVENT TIME           78
CHANNEL              0b
BASIC MIDI EVENT     NOTE OFF              note: 1c velocity: 40
EVENT TIME           78
CHANNEL              0b
BASIC MIDI EVENT     NOTE ON               note: 1c velocity: 48
EVENT TIME           78
CHANNEL              0b
BASIC MIDI EVENT     NOTE OFF              note: 1c velocity: 40
EVENT TIME           78
CHANNEL              0b
BASIC MIDI EVENT     NOTE ON               note: 1c velocity: 48
EVENT TIME           78
CHANNEL              0b
BASIC MIDI EVENT     NOTE OFF              note: 1c velocity: 40
EVENT TIME           78
CHANNEL              0b
BASIC MIDI EVENT     NOTE ON               note: 1c velocity: 48
EVENT TIME           78
CHANNEL              0b
BASIC MIDI EVENT     NOTE OFF              note: 1c velocity: 40
EVENT TIME           78
CHANNEL              0b
BASIC MIDI EVENT     NOTE ON               note: 1c velocity: 48
EVENT TIME           78
CHANNEL              0b
BASIC MIDI EVENT     NOTE OFF              note: 1c velocity: 40
EVENT TIME           78
CHANNEL              0b
BASIC MIDI EVENT     NOTE ON               note: 1f velocity: 48
EVENT TIME           78
CHANNEL              0b
BASIC MIDI EVENT     NOTE OFF              note: 1f velocity: 40
EVENT TIME           78
CHANNEL              0b
BASIC MIDI EVENT     NOTE ON               note: 1f velocity: 48
EVENT TIME           78
CHANNEL              0b
BASIC MIDI EVENT     NOTE OFF              note: 1f velocity: 40
EVENT TIME           78
CHANNEL              0b
BASIC MIDI EVENT     NOTE ON               note: 1f velocity: 48
EVENT TIME           78
CHANNEL              0b
BASIC MIDI EVENT     NOTE OFF              note: 1f velocity: 40
EVENT TIME           78
CHANNEL              0b
BASIC MIDI EVENT     NOTE ON               note: 1f velocity: 48
EVENT TIME           78
CHANNEL              0b
BASIC MIDI EVENT     NOTE OFF              note: 1f velocity: 40
EVENT TIME           78
CHANNEL              0b
BASIC MIDI EVENT     NOTE ON               note: 1f velocity: 48
EVENT TIME           78
CHANNEL              0b
BASIC MIDI EVENT     NOTE OFF              note: 1f velocity: 40
EVENT TIME           78
CHANNEL              0b
BASIC MIDI EVENT     NOTE ON               note: 1f velocity: 48
EVENT TIME           78
CHANNEL              0b
BASIC MIDI EVENT     NOTE OFF              note: 1f velocity: 40
EVENT TIME           78
CHANNEL              0b
BASIC MIDI EVENT     NOTE ON               note: 1f velocity: 48
EVENT TIME           78
CHANNEL              0b
BASIC MIDI EVENT     NOTE OFF              note: 1f velocity: 40
EVENT TIME           78
CHANNEL              0b
BASIC MIDI EVENT     NOTE ON               note: 21 velocity: 48
EVENT TIME           78
CHANNEL              0b
BASIC MIDI EVENT     NOTE OFF              note: 21 velocity: 40
EVENT TIME           78
CHANNEL              0b
BASIC MIDI EVENT     NOTE ON               note: 21 velocity: 48
EVENT TIME           78
CHANNEL              0b
BASIC MIDI EVENT     NOTE OFF              note: 21 velocity: 40
EVENT TIME           78
CHANNEL              0b
BASIC MIDI EVENT     NOTE ON               note: 21 velocity: 48
EVENT TIME           78
CHANNEL              0b
BASIC MIDI EVENT     NOTE OFF              note: 21 velocity: 40
EVENT TIME           78
CHANNEL              0b
BASIC MIDI EVENT     NOTE ON               note: 21 velocity: 48
EVENT TIME           78
CHANNEL              0b
BASIC MIDI EVENT     NOTE OFF              note: 21 velocity: 40
EVENT TIME           78
CHANNEL              0b
BASIC MIDI EVENT     NOTE ON               note: 21 velocity: 48
EVENT TIME           78
CHANNEL              0b
BASIC MIDI EVENT     NOTE OFF              note: 21 velocity: 40
EVENT TIME           78
CHANNEL              0b
BASIC MIDI EVENT     NOTE ON               note: 23 velocity: 48
EVENT TIME           78
CHANNEL              0b
BASIC MIDI EVENT     NOTE OFF              note: 23 velocity: 40
EVENT TIME           78
CHANNEL              0b
BASIC MIDI EVENT     NOTE ON               note: 23 velocity: 48
EVENT TIME           78
CHANNEL              0b
BASIC MIDI EVENT     NOTE OFF              note: 23 velocity: 40
EVENT TIME           78
CHANNEL              0b
BASIC MIDI EVENT     NOTE ON               note: 21 velocity: 48
EVENT TIME           78
CHANNEL              0b
BASIC MIDI EVENT     NOTE OFF              note: 21 velocity: 40
EVENT TIME           78
CHANNEL              0b
BASIC MIDI EVENT     NOTE ON               note: 21 velocity: 48
EVENT TIME           78
CHANNEL              0b
BASIC MIDI EVENT     NOTE OFF              note: 21 velocity: 40
EVENT TIME           78
CHANNEL              0b
BASIC MIDI EVENT     NOTE ON               note: 22 velocity: 48
EVENT TIME           78
CHANNEL              0b
BASIC MIDI EVENT     NOTE OFF              note: 22 velocity: 40
EVENT TIME           78
CHANNEL              0b
BASIC MIDI EVENT     NOTE ON               note: 22 velocity: 48
EVENT TIME           78
CHANNEL              0b
BASIC MIDI EVENT     NOTE OFF              note: 22 velocity: 40
EVENT TIME           78
CHANNEL              0b
BASIC MIDI EVENT     NOTE ON               note: 22 velocity: 48
EVENT TIME           78
CHANNEL              0b
BASIC MIDI EVENT     NOTE OFF              note: 22 velocity: 40
EVENT TIME           78
CHANNEL              0b
BASIC MIDI EVENT     NOTE ON               note: 22 velocity: 48
EVENT TIME           78
CHANNEL              0b
BASIC MIDI EVENT     NOTE OFF              note: 22 velocity: 40
EVENT TIME           78
CHANNEL              0b
BASIC MIDI EVENT     NOTE ON               note: 22 velocity: 48
EVENT TIME           78
CHANNEL              0b
BASIC MIDI EVENT     NOTE OFF              note: 22 velocity: 40
EVENT TIME           78
CHANNEL              0b
BASIC MIDI EVENT     NOTE ON               note: 22 velocity: 48
EVENT TIME           78
CHANNEL              0b
BASIC MIDI EVENT     NOTE OFF              note: 22 velocity: 40
EVENT TIME           78
CHANNEL              0b
BASIC MIDI EVENT     NOTE ON               note: 22 velocity: 48
EVENT TIME           78
CHANNEL              0b
BASIC MIDI EVENT     NOTE OFF              note: 22 velocity: 40
EVENT TIME           78
CHANNEL              0b
BASIC MIDI EVENT     NOTE ON               note: 22 velocity: 48
EVENT TIME           78
CHANNEL              0b
BASIC MIDI EVENT     NOTE OFF              note: 22 velocity: 40
EVENT TIME           78
CHANNEL              0b
BASIC MIDI EVENT     NOTE ON               note: 24 velocity: 48
EVENT TIME           78
CHANNEL              0b
BASIC MIDI EVENT     NOTE OFF              note: 24 velocity: 40
EVENT TIME           78
CHANNEL              0b
BASIC MIDI EVENT     NOTE ON               note: 24 velocity: 48
EVENT TIME           78
CHANNEL              0b
BASIC MIDI EVENT     NOTE OFF              note: 24 velocity: 40
EVENT TIME           78
CHANNEL              0b
BASIC MIDI EVENT     NOTE ON               note: 24 velocity: 48
EVENT TIME           78
CHANNEL              0b
BASIC MIDI EVENT     NOTE OFF              note: 24 velocity: 40
EVENT TIME           78
CHANNEL              0b
BASIC MIDI EVENT     NOTE ON               note: 24 velocity: 48
EVENT TIME           78
CHANNEL              0b
BASIC MIDI EVENT     NOTE OFF              note: 24 velocity: 40
EVENT TIME           78
CHANNEL              0b
BASIC MIDI EVENT     NOTE ON               note: 24 velocity: 48
EVENT TIME           78
CHANNEL              0b
BASIC MIDI EVENT     NOTE OFF              note: 24 velocity: 40
EVENT TIME           78
CHANNEL              0b
BASIC MIDI EVENT     NOTE ON               note: 24 velocity: 48
EVENT TIME           78
CHANNEL              0b
BASIC MIDI EVENT     NOTE OFF              note: 24 velocity: 40
EVENT TIME           78
CHANNEL              0b
BASIC MIDI EVENT     NOTE ON               note: 24 velocity: 48
EVENT TIME           78
CHANNEL              0b
BASIC MIDI EVENT     NOTE OFF              note: 24 velocity: 40
EVENT TIME           78
CHANNEL              0b
BASIC MIDI EVENT     NOTE ON               note: 24 velocity: 48
EVENT TIME           78
CHANNEL              0b
BASIC MIDI EVENT     NOTE OFF              note: 24 velocity: 40
EVENT TIME           78
CHANNEL              0b
BASIC MIDI EVENT     NOTE ON               note: 21 velocity: 48
EVENT TIME           78
CHANNEL              0b
BASIC MIDI EVENT     NOTE OFF              note: 21 velocity: 40
EVENT TIME           78
CHANNEL              0b
BASIC MIDI EVENT     NOTE ON               note: 21 velocity: 48
EVENT TIME           78
CHANNEL              0b
BASIC MIDI EVENT     NOTE OFF              note: 21 velocity: 40
EVENT TIME           78
CHANNEL              0b
BASIC MIDI EVENT     NOTE ON               note: 21 velocity: 48
EVENT TIME           78
CHANNEL              0b
BASIC MIDI EVENT     NOTE OFF              note: 21 velocity: 40
EVENT TIME           78
CHANNEL              0b
BASIC MIDI EVENT     NOTE ON               note: 21 velocity: 48
EVENT TIME           78
CHANNEL              0b
BASIC MIDI EVENT     NOTE OFF              note: 21 velocity: 40
EVENT TIME           78
CHANNEL              0b
BASIC MIDI EVENT     NOTE ON               note: 21 velocity: 48
EVENT TIME           78
CHANNEL              0b
BASIC MIDI EVENT     NOTE OFF              note: 21 velocity: 40
EVENT TIME           78
CHANNEL              0b
BASIC MIDI EVENT     NOTE ON               note: 21 velocity: 48
EVENT TIME           78
CHANNEL              0b
BASIC MIDI EVENT     NOTE OFF              note: 21 velocity: 40
EVENT TIME           78
CHANNEL              0b
BASIC MIDI EVENT     NOTE ON               note: 21 velocity: 48
EVENT TIME           78
CHANNEL              0b
BASIC MIDI EVENT     NOTE OFF              note: 21 velocity: 40
EVENT TIME           78
CHANNEL              0b
BASIC MIDI EVENT     NOTE ON               note: 21 velocity: 48
EVENT TIME           78
CHANNEL              0b
BASIC MIDI EVENT     NOTE OFF              note: 21 velocity: 40
EVENT TIME           78
CHANNEL              0b
BASIC MIDI EVENT     NOTE ON               note: 26 velocity: 48
EVENT TIME           78
CHANNEL              0b
BASIC MIDI EVENT     NOTE OFF              note: 26 velocity: 40
EVENT TIME           78
CHANNEL              0b
BASIC MIDI EVENT     NOTE ON               note: 26 velocity: 48
EVENT TIME           78
CHANNEL              0b
BASIC MIDI EVENT     NOTE OFF              note: 26 velocity: 40
EVENT TIME           78
CHANNEL              0b
BASIC MIDI EVENT     NOTE ON               note: 26 velocity: 48
EVENT TIME           78
CHANNEL              0b
BASIC MIDI EVENT     NOTE OFF              note: 26 velocity: 40
EVENT TIME           78
CHANNEL              0b
BASIC MIDI EVENT     NOTE ON               note: 26 velocity: 48
EVENT TIME           78
CHANNEL              0b
BASIC MIDI EVENT     NOTE OFF              note: 26 velocity: 40
EVENT TIME           78
CHANNEL              0b
BASIC MIDI EVENT     NOTE ON               note: 26 velocity: 48
EVENT TIME           78
CHANNEL              0b
BASIC MIDI EVENT     NOTE OFF              note: 26 velocity: 40
EVENT TIME           78
CHANNEL              0b
BASIC MIDI EVENT     NOTE ON               note: 26 velocity: 48
EVENT TIME           78
CHANNEL              0b
BASIC MIDI EVENT     NOTE OFF              note: 26 velocity: 40
EVENT TIME           78
CHANNEL              0b
BASIC MIDI EVENT     NOTE ON               note: 26 velocity: 48
EVENT TIME           78
CHANNEL              0b
BASIC MIDI EVENT     NOTE OFF              note: 26 velocity: 40
EVENT TIME           78
CHANNEL              0b
BASIC MIDI EVENT     NOTE ON               note: 26 velocity: 48
EVENT TIME           78
CHANNEL              0b
BASIC MIDI EVENT     NOTE OFF              note: 26 velocity: 40
EVENT TIME           78
CHANNEL              0b
BASIC MIDI EVENT     NOTE ON               note: 27 velocity: 48
EVENT TIME           78
CHANNEL              0b
BASIC MIDI EVENT     NOTE OFF              note: 27 velocity: 40
EVENT TIME           78
CHANNEL              0b
BASIC MIDI EVENT     NOTE ON               note: 27 velocity: 48
EVENT TIME           78
CHANNEL              0b
BASIC MIDI EVENT     NOTE OFF              note: 27 velocity: 40
EVENT TIME           78
CHANNEL              0b
BASIC MIDI EVENT     NOTE ON               note: 27 velocity: 48
EVENT TIME           78
CHANNEL              0b
BASIC MIDI EVENT     NOTE OFF              note: 27 velocity: 40
EVENT TIME           78
CHANNEL              0b
BASIC MIDI EVENT     NOTE ON               note: 27 velocity: 48
EVENT TIME           78
CHANNEL              0b
BASIC MIDI EVENT     NOTE OFF              note: 27 velocity: 40
EVENT TIME           78
CHANNEL              0b
BASIC MIDI EVENT     NOTE ON               note: 27 velocity: 48
EVENT TIME           78
CHANNEL              0b
BASIC MIDI EVENT     NOTE OFF              note: 27 velocity: 40
EVENT TIME           78
CHANNEL              0b
BASIC MIDI EVENT     NOTE ON               note: 27 velocity: 48
EVENT TIME           78
CHANNEL              0b
BASIC MIDI EVENT     NOTE OFF              note: 27 velocity: 40
EVENT TIME           78
CHANNEL              0b
BASIC MIDI EVENT     NOTE ON               note: 27 velocity: 48
EVENT TIME           78
CHANNEL              0b
BASIC MIDI EVENT     NOTE OFF              note: 27 velocity: 40
EVENT TIME           78
CHANNEL              0b
BASIC MIDI EVENT     NOTE ON               note: 27 velocity: 48
EVENT TIME           78
CHANNEL              0b
BASIC MIDI EVENT     NOTE OFF              note: 27 velocity: 40
EVENT TIME           78
CHANNEL              0b
BASIC MIDI EVENT     NOTE ON               note: 22 velocity: 48
EVENT TIME           78
CHANNEL              0b
BASIC MIDI EVENT     NOTE OFF              note: 22 velocity: 40
EVENT TIME           78
CHANNEL              0b
BASIC MIDI EVENT     NOTE ON               note: 22 velocity: 48
EVENT TIME           78
CHANNEL              0b
BASIC MIDI EVENT     NOTE OFF              note: 22 velocity: 40
EVENT TIME           78
CHANNEL              0b
BASIC MIDI EVENT     NOTE ON               note: 22 velocity: 48
EVENT TIME           78
CHANNEL              0b
BASIC MIDI EVENT     NOTE OFF              note: 22 velocity: 40
EVENT TIME           78
CHANNEL              0b
BASIC MIDI EVENT     NOTE ON               note: 22 velocity: 48
EVENT TIME           78
CHANNEL              0b
BASIC MIDI EVENT     NOTE OFF              note: 22 velocity: 40
EVENT TIME           78
CHANNEL              0b
BASIC MIDI EVENT     NOTE ON               note: 22 velocity: 48
EVENT TIME           78
CHANNEL              0b
BASIC MIDI EVENT     NOTE OFF              note: 22 velocity: 40
EVENT TIME           78
CHANNEL              0b
BASIC MIDI EVENT     NOTE ON               note: 22 velocity: 48
EVENT TIME           78
CHANNEL              0b
BASIC MIDI EVENT     NOTE OFF              note: 22 velocity: 40
EVENT TIME           78
CHANNEL              0b
BASIC MIDI EVENT     NOTE ON               note: 22 velocity: 48
EVENT TIME           78
CHANNEL              0b
BASIC MIDI EVENT     NOTE OFF              note: 22 velocity: 40
EVENT TIME           78
CHANNEL              0b
BASIC MIDI EVENT     NOTE ON               note: 22 velocity: 48
EVENT TIME           78
CHANNEL              0b
BASIC MIDI EVENT     NOTE OFF              note: 22 velocity: 40
EVENT TIME           78
CHANNEL              0b
BASIC MIDI EVENT     NOTE ON               note: 1f velocity: 48
EVENT TIME           78
CHANNEL              0b
BASIC MIDI EVENT     NOTE OFF              note: 1f velocity: 40
EVENT TIME           78
CHANNEL              0b
BASIC MIDI EVENT     NOTE ON               note: 1f velocity: 48
EVENT TIME           78
CHANNEL              0b
BASIC MIDI EVENT     NOTE OFF              note: 1f velocity: 40
EVENT TIME           78
CHANNEL              0b
BASIC MIDI EVENT     NOTE ON               note: 1f velocity: 48
EVENT TIME           78
CHANNEL              0b
BASIC MIDI EVENT     NOTE OFF              note: 1f velocity: 40
EVENT TIME           78
CHANNEL              0b
BASIC MIDI EVENT     NOTE ON               note: 1f velocity: 48
EVENT TIME           78
CHANNEL              0b
BASIC MIDI EVENT     NOTE OFF              note: 1f velocity: 40
EVENT TIME           78
CHANNEL              0b
BASIC MIDI EVENT     NOTE ON               note: 1f velocity: 48
EVENT TIME           78
CHANNEL              0b
BASIC MIDI EVENT     NOTE OFF              note: 1f velocity: 40
EVENT TIME           78
CHANNEL              0b
BASIC MIDI EVENT     NOTE ON               note: 1f velocity: 48
EVENT TIME           78
CHANNEL              0b
BASIC MIDI EVENT     NOTE OFF              note: 1f velocity: 40
EVENT TIME           78
CHANNEL              0b
BASIC MIDI EVENT     NOTE ON               note: 1f velocity: 48
EVENT TIME           78
CHANNEL              0b
BASIC MIDI EVENT     NOTE OFF              note: 1f velocity: 40
EVENT TIME           78
CHANNEL              0b
BASIC MIDI EVENT     NOTE ON               note: 1f velocity: 48
EVENT TIME           78
CHANNEL              0b
BASIC MIDI EVENT     NOTE OFF              note: 1f velocity: 40
EVENT TIME           78
CHANNEL              0b
BASIC MIDI EVENT     NOTE ON               note: 1f velocity: 48
EVENT TIME           168
CHANNEL              0b
BASIC MIDI EVENT     NOTE OFF              note: 1f velocity: 40
EVENT TIME           78
CHANNEL              0b
BASIC MIDI EVENT     NOTE ON               note: 1f velocity: 48
EVENT TIME           168
CHANNEL              0b
BASIC MIDI EVENT     NOTE OFF              note: 1f velocity: 40
EVENT TIME           78
CHANNEL              0b
BASIC MIDI EVENT     NOTE ON               note: 1f velocity: 48
EVENT TIME           168
CHANNEL              0b
BASIC MIDI EVENT     NOTE OFF              note: 1f velocity: 40
EVENT TIME           78
CHANNEL              0b
BASIC MIDI EVENT     NOTE ON               note: 1f velocity: 48
EVENT TIME           168
CHANNEL              0b
BASIC MIDI EVENT     NOTE OFF              note: 1f velocity: 40
EVENT TIME           78
CHANNEL              0b
BASIC MIDI EVENT     NOTE ON               note: 22 velocity: 48
EVENT TIME           168
CHANNEL              0b
BASIC MIDI EVENT     NOTE OFF              note: 22 velocity: 40
EVENT TIME           78
CHANNEL              0b
BASIC MIDI EVENT     NOTE ON               note: 22 velocity: 48
EVENT TIME           168
CHANNEL              0b
BASIC MIDI EVENT     NOTE OFF              note: 22 velocity: 40
EVENT TIME           78
CHANNEL              0b
BASIC MIDI EVENT     NOTE ON               note: 24 velocity: 48
EVENT TIME           168
CHANNEL              0b
BASIC MIDI EVENT     NOTE OFF              note: 24 velocity: 40
EVENT TIME           78
CHANNEL              0b
BASIC MIDI EVENT     NOTE ON               note: 24 velocity: 48
EVENT TIME           168
CHANNEL              0b
BASIC MIDI EVENT     NOTE OFF              note: 24 velocity: 40
EVENT TIME           78
CHANNEL              0b
BASIC MIDI EVENT     NOTE ON               note: 24 velocity: 48
EVENT TIME           168
CHANNEL              0b
BASIC MIDI EVENT     NOTE OFF              note: 24 velocity: 40
EVENT TIME           78
CHANNEL              0b
BASIC MIDI EVENT     NOTE ON               note: 24 velocity: 48
EVENT TIME           168
CHANNEL              0b
BASIC MIDI EVENT     NOTE OFF              note: 24 velocity: 40
EVENT TIME           78
CHANNEL              0b
BASIC MIDI EVENT     NOTE ON               note: 26 velocity: 48
EVENT TIME           168
CHANNEL              0b
BASIC MIDI EVENT     NOTE OFF              note: 26 velocity: 40
EVENT TIME           78
CHANNEL              0b
BASIC MIDI EVENT     NOTE ON               note: 27 velocity: 48
EVENT TIME           168
CHANNEL              0b
BASIC MIDI EVENT     NOTE OFF              note: 27 velocity: 40
EVENT TIME           78
CHANNEL              0b
BASIC MIDI EVENT     NOTE ON               note: 28 velocity: 48
EVENT TIME           168
CHANNEL              0b
BASIC MIDI EVENT     NOTE OFF              note: 28 velocity: 40
EVENT TIME           78
CHANNEL              0b
BASIC MIDI EVENT     NOTE ON               note: 28 velocity: 48
EVENT TIME           168
CHANNEL              0b
BASIC MIDI EVENT     NOTE OFF              note: 28 velocity: 40
EVENT TIME           78
CHANNEL              0b
BASIC MIDI EVENT     NOTE ON               note: 28 velocity: 48
EVENT TIME           168
CHANNEL              0b
BASIC MIDI EVENT     NOTE OFF              note: 28 velocity: 40
EVENT TIME           78
CHANNEL              0b
BASIC MIDI EVENT     NOTE ON               note: 28 velocity: 48
EVENT TIME           168
CHANNEL              0b
BASIC MIDI EVENT     NOTE OFF              note: 28 velocity: 40
EVENT TIME           78
CHANNEL              0b
BASIC MIDI EVENT     NOTE ON               note: 27 velocity: 48
EVENT TIME           168
CHANNEL              0b
BASIC MIDI EVENT     NOTE OFF              note: 27 velocity: 40
EVENT TIME           78
CHANNEL              0b
BASIC MIDI EVENT     NOTE ON               note: 27 velocity: 48
EVENT TIME           168
CHANNEL              0b
BASIC MIDI EVENT     NOTE OFF              note: 27 velocity: 40
EVENT TIME           78
CHANNEL              0b
BASIC MIDI EVENT     NOTE ON               note: 27 velocity: 48
EVENT TIME           168
CHANNEL              0b
BASIC MIDI EVENT     NOTE OFF              note: 27 velocity: 40
EVENT TIME           78
CHANNEL              0b
BASIC MIDI EVENT     NOTE ON               note: 27 velocity: 48
EVENT TIME           168
CHANNEL              0b
BASIC MIDI EVENT     NOTE OFF              note: 27 velocity: 40
EVENT TIME           78
CHANNEL              0b
BASIC MIDI EVENT     NOTE ON               note: 26 velocity: 48
EVENT TIME           168
CHANNEL              0b
BASIC MIDI EVENT     NOTE OFF              note: 26 velocity: 40
EVENT TIME           78
CHANNEL              0b
BASIC MIDI EVENT     NOTE ON               note: 26 velocity: 48
EVENT TIME           168
CHANNEL              0b
BASIC MIDI EVENT     NOTE OFF              note: 26 velocity: 40
EVENT TIME           78
CHANNEL              0b
BASIC MIDI EVENT     NOTE ON               note: 26 velocity: 48
EVENT TIME           168
CHANNEL              0b
BASIC MIDI EVENT     NOTE OFF              note: 26 velocity: 40
EVENT TIME           78
CHANNEL              0b
BASIC MIDI EVENT     NOTE ON               note: 26 velocity: 48
EVENT TIME           168
CHANNEL              0b
BASIC MIDI EVENT     NOTE OFF              note: 26 velocity: 40
EVENT TIME           78
CHANNEL              0b
BASIC MIDI EVENT     NOTE ON               note: 25 velocity: 48
EVENT TIME           168
CHANNEL              0b
BASIC MIDI EVENT     NOTE OFF              note: 25 velocity: 40
EVENT TIME           78
CHANNEL              0b
BASIC MIDI EVENT     NOTE ON               note: 25 velocity: 48
EVENT TIME           168
CHANNEL              0b
BASIC MIDI EVENT     NOTE OFF              note: 25 velocity: 40
EVENT TIME           78
CHANNEL              0b
BASIC MIDI EVENT     NOTE ON               note: 25 velocity: 48
EVENT TIME           168
CHANNEL              0b
BASIC MIDI EVENT     NOTE OFF              note: 25 velocity: 40
EVENT TIME           78
CHANNEL              0b
BASIC MIDI EVENT     NOTE ON               note: 25 velocity: 48
EVENT TIME           168
CHANNEL              0b
BASIC MIDI EVENT     NOTE OFF              note: 25 velocity: 40
EVENT TIME           78
CHANNEL              0b
BASIC MIDI EVENT     NOTE ON               note: 24 velocity: 48
EVENT TIME           168
CHANNEL              0b
BASIC MIDI EVENT     NOTE OFF              note: 24 velocity: 40
EVENT TIME           78
CHANNEL              0b
BASIC MIDI EVENT     NOTE ON               note: 24 velocity: 48
EVENT TIME           168
CHANNEL              0b
BASIC MIDI EVENT     NOTE OFF              note: 24 velocity: 40
EVENT TIME           78
CHANNEL              0b
BASIC MIDI EVENT     NOTE ON               note: 24 velocity: 48
EVENT TIME           168
CHANNEL              0b
BASIC MIDI EVENT     NOTE OFF              note: 24 velocity: 40
EVENT TIME           78
CHANNEL              0b
BASIC MIDI EVENT     NOTE ON               note: 24 velocity: 48
EVENT TIME           168
CHANNEL              0b
BASIC MIDI EVENT     NOTE OFF              note: 24 velocity: 40
EVENT TIME           78
CHANNEL              0b
BASIC MIDI EVENT     NOTE ON               note: 26 velocity: 48
EVENT TIME           168
CHANNEL              0b
BASIC MIDI EVENT     NOTE OFF              note: 26 velocity: 40
EVENT TIME           78
CHANNEL              0b
BASIC MIDI EVENT     NOTE ON               note: 26 velocity: 48
EVENT TIME           168
CHANNEL              0b
BASIC MIDI EVENT     NOTE OFF              note: 26 velocity: 40
EVENT TIME           78
CHANNEL              0b
BASIC MIDI EVENT     NOTE ON               note: 26 velocity: 48
EVENT TIME           168
CHANNEL              0b
BASIC MIDI EVENT     NOTE OFF              note: 26 velocity: 40
EVENT TIME           78
CHANNEL              0b
BASIC MIDI EVENT     NOTE ON               note: 26 velocity: 48
EVENT TIME           168
CHANNEL              0b
BASIC MIDI EVENT     NOTE OFF              note: 26 velocity: 40
EVENT TIME           78
CHANNEL              0b
BASIC MIDI EVENT     NOTE ON               note: 24 velocity: 48
EVENT TIME           168
CHANNEL              0b
BASIC MIDI EVENT     NOTE OFF              note: 24 velocity: 40
EVENT TIME           78
CHANNEL              0b
BASIC MIDI EVENT     NOTE ON               note: 24 velocity: 48
EVENT TIME           168
CHANNEL              0b
BASIC MIDI EVENT     NOTE OFF              note: 24 velocity: 40
EVENT TIME           78
CHANNEL              0b
BASIC MIDI EVENT     NOTE ON               note: 24 velocity: 48
EVENT TIME           168
CHANNEL              0b
BASIC MIDI EVENT     NOTE OFF              note: 24 velocity: 40
EVENT TIME           78
CHANNEL              0b
BASIC MIDI EVENT     NOTE ON               note: 24 velocity: 48
EVENT TIME           168
CHANNEL              0b
BASIC MIDI EVENT     NOTE OFF              note: 24 velocity: 40
EVENT TIME           78
CHANNEL              0b
BASIC MIDI EVENT     NOTE ON               note: 26 velocity: 48
EVENT TIME           168
CHANNEL              0b
BASIC MIDI EVENT     NOTE OFF              note: 26 velocity: 40
EVENT TIME           78
CHANNEL              0b
BASIC MIDI EVENT     NOTE ON               note: 26 velocity: 48
EVENT TIME           168
CHANNEL              0b
BASIC MIDI EVENT     NOTE OFF              note: 26 velocity: 40
EVENT TIME           78
CHANNEL              0b
BASIC MIDI EVENT     NOTE ON               note: 26 velocity: 48
EVENT TIME           168
CHANNEL              0b
BASIC MIDI EVENT     NOTE OFF              note: 26 velocity: 40
EVENT TIME           78
CHANNEL              0b
BASIC MIDI EVENT     NOTE ON               note: 26 velocity: 48
EVENT TIME           168
CHANNEL              0b
BASIC MIDI EVENT     NOTE OFF              note: 26 velocity: 40
EVENT TIME           78
CHANNEL              0b
BASIC MIDI EVENT     NOTE ON               note: 28 velocity: 48
EVENT TIME           168
CHANNEL              0b
BASIC MIDI EVENT     NOTE OFF              note: 28 velocity: 40
EVENT TIME           78
CHANNEL              0b
BASIC MIDI EVENT     NOTE ON               note: 28 velocity: 48
EVENT TIME           168
CHANNEL              0b
BASIC MIDI EVENT     NOTE OFF              note: 28 velocity: 40
EVENT TIME           78
CHANNEL              0b
BASIC MIDI EVENT     NOTE ON               note: 28 velocity: 48
EVENT TIME           168
CHANNEL              0b
BASIC MIDI EVENT     NOTE OFF              note: 28 velocity: 40
EVENT TIME           78
CHANNEL              0b
BASIC MIDI EVENT     NOTE ON               note: 28 velocity: 48
EVENT TIME           168
CHANNEL              0b
BASIC MIDI EVENT     NOTE OFF              note: 28 velocity: 40
EVENT TIME           78
CHANNEL              0b
BASIC MIDI EVENT     NOTE ON               note: 27 velocity: 48
EVENT TIME           168
CHANNEL              0b
BASIC MIDI EVENT     NOTE OFF              note: 27 velocity: 40
EVENT TIME           78
CHANNEL              0b
BASIC MIDI EVENT     NOTE ON               note: 27 velocity: 48
EVENT TIME           168
CHANNEL              0b
BASIC MIDI EVENT     NOTE OFF              note: 27 velocity: 40
EVENT TIME           78
CHANNEL              0b
BASIC MIDI EVENT     NOTE ON               note: 27 velocity: 48
EVENT TIME           168
CHANNEL              0b
BASIC MIDI EVENT     NOTE OFF              note: 27 velocity: 40
EVENT TIME           78
CHANNEL              0b
BASIC MIDI EVENT     NOTE ON               note: 27 velocity: 48
EVENT TIME           168
CHANNEL              0b
BASIC MIDI EVENT     NOTE OFF              note: 27 velocity: 40
EVENT TIME           78
CHANNEL              0b
BASIC MIDI EVENT     NOTE ON               note: 26 velocity: 48
EVENT TIME           168
CHANNEL              0b
BASIC MIDI EVENT     NOTE OFF              note: 26 velocity: 40
EVENT TIME           78
CHANNEL              0b
BASIC MIDI EVENT     NOTE ON               note: 26 velocity: 48
EVENT TIME           168
CHANNEL              0b
BASIC MIDI EVENT     NOTE OFF              note: 26 velocity: 40
EVENT TIME           78
CHANNEL              0b
BASIC MIDI EVENT     NOTE ON               note: 26 velocity: 48
EVENT TIME           168
CHANNEL              0b
BASIC MIDI EVENT     NOTE OFF              note: 26 velocity: 40
EVENT TIME           78
CHANNEL              0b
BASIC MIDI EVENT     NOTE ON               note: 26 velocity: 48
EVENT TIME           168
CHANNEL              0b
BASIC MIDI EVENT     NOTE OFF              note: 26 velocity: 40
EVENT TIME           78
CHANNEL              0b
BASIC MIDI EVENT     NOTE ON               note: 25 velocity: 48
EVENT TIME           168
CHANNEL              0b
BASIC MIDI EVENT     NOTE OFF              note: 25 velocity: 40
EVENT TIME           78
CHANNEL              0b
BASIC MIDI EVENT     NOTE ON               note: 25 velocity: 48
EVENT TIME           168
CHANNEL              0b
BASIC MIDI EVENT     NOTE OFF              note: 25 velocity: 40
EVENT TIME           78
CHANNEL              0b
BASIC MIDI EVENT     NOTE ON               note: 25 velocity: 48
EVENT TIME           168
CHANNEL              0b
BASIC MIDI EVENT     NOTE OFF              note: 25 velocity: 40
EVENT TIME           78
CHANNEL              0b
BASIC MIDI EVENT     NOTE ON               note: 25 velocity: 48
EVENT TIME           168
CHANNEL              0b
BASIC MIDI EVENT     NOTE OFF              note: 25 velocity: 40
EVENT TIME           78
CHANNEL              0b
BASIC MIDI EVENT     NOTE ON               note: 24 velocity: 48
EVENT TIME           168
CHANNEL              0b
BASIC MIDI EVENT     NOTE OFF              note: 24 velocity: 40
EVENT TIME           78
CHANNEL              0b
BASIC MIDI EVENT     NOTE ON               note: 24 velocity: 48
EVENT TIME           168
CHANNEL              0b
BASIC MIDI EVENT     NOTE OFF              note: 24 velocity: 40
EVENT TIME           78
CHANNEL              0b
BASIC MIDI EVENT     NOTE ON               note: 24 velocity: 48
EVENT TIME           168
CHANNEL              0b
BASIC MIDI EVENT     NOTE OFF              note: 24 velocity: 40
EVENT TIME           78
CHANNEL              0b
BASIC MIDI EVENT     NOTE ON               note: 24 velocity: 48
EVENT TIME           168
CHANNEL              0b
BASIC MIDI EVENT     NOTE OFF              note: 24 velocity: 40
EVENT TIME           78
CHANNEL              0b
BASIC MIDI EVENT     NOTE ON               note: 26 velocity: 48
EVENT TIME           168
CHANNEL              0b
BASIC MIDI EVENT     NOTE OFF              note: 26 velocity: 40
EVENT TIME           78
CHANNEL              0b
BASIC MIDI EVENT     NOTE ON               note: 26 velocity: 48
EVENT TIME           168
CHANNEL              0b
BASIC MIDI EVENT     NOTE OFF              note: 26 velocity: 40
EVENT TIME           78
CHANNEL              0b
BASIC MIDI EVENT     NOTE ON               note: 26 velocity: 48
EVENT TIME           168
CHANNEL              0b
BASIC MIDI EVENT     NOTE OFF              note: 26 velocity: 40
EVENT TIME           78
CHANNEL              0b
BASIC MIDI EVENT     NOTE ON               note: 26 velocity: 48
EVENT TIME           168
CHANNEL              0b
BASIC MIDI EVENT     NOTE OFF              note: 26 velocity: 40
EVENT TIME           78
CHANNEL              0b
BASIC MIDI EVENT     NOTE ON               note: 24 velocity: 48
EVENT TIME           168
CHANNEL              0b
BASIC MIDI EVENT     NOTE OFF              note: 24 velocity: 40
EVENT TIME           78
CHANNEL              0b
BASIC MIDI EVENT     NOTE ON               note: 24 velocity: 48
EVENT TIME           168
CHANNEL              0b
BASIC MIDI EVENT     NOTE OFF              note: 24 velocity: 40
EVENT TIME           78
CHANNEL              0b
BASIC MIDI EVENT     NOTE ON               note: 24 velocity: 48
EVENT TIME           168
CHANNEL              0b
BASIC MIDI EVENT     NOTE OFF              note: 24 velocity: 40
EVENT TIME           78
CHANNEL              0b
BASIC MIDI EVENT     NOTE ON               note: 24 velocity: 48
EVENT TIME           168
CHANNEL              0b
BASIC MIDI EVENT     NOTE OFF              note: 24 velocity: 40
EVENT TIME           78
CHANNEL              0b
BASIC MIDI EVENT     NOTE ON               note: 26 velocity: 48
EVENT TIME           168
CHANNEL              0b
BASIC MIDI EVENT     NOTE OFF              note: 26 velocity: 40
EVENT TIME           78
CHANNEL              0b
BASIC MIDI EVENT     NOTE ON               note: 26 velocity: 48
EVENT TIME           168
CHANNEL              0b
BASIC MIDI EVENT     NOTE OFF              note: 26 velocity: 40
EVENT TIME           78
CHANNEL              0b
BASIC MIDI EVENT     NOTE ON               note: 26 velocity: 48
EVENT TIME           168
CHANNEL              0b
BASIC MIDI EVENT     NOTE OFF              note: 26 velocity: 40
EVENT TIME           78
CHANNEL              0b
BASIC MIDI EVENT     NOTE ON               note: 26 velocity: 48
EVENT TIME           168
CHANNEL              0b
BASIC MIDI EVENT     NOTE OFF              note: 26 velocity: 40
EVENT TIME           78
CHANNEL              0b
BASIC MIDI EVENT     NOTE ON               note: 28 velocity: 48
EVENT TIME           168
CHANNEL              0b
BASIC MIDI EVENT     NOTE OFF              note: 28 velocity: 40
EVENT TIME           168
CHANNEL              0b
BASIC MIDI EVENT     NOTE ON               note: 23 velocity: 48
EVENT TIME           168
CHANNEL              0b
BASIC MIDI EVENT     NOTE OFF              note: 23 velocity: 40
EVENT TIME           168
CHANNEL              0b
BASIC MIDI EVENT     NOTE ON               note: 26 velocity: 48
EVENT TIME           168
CHANNEL              0b
BASIC MIDI EVENT     NOTE OFF              note: 26 velocity: 40
EVENT TIME           168
CHANNEL              0b
BASIC MIDI EVENT     NOTE ON               note: 21 velocity: 48
EVENT TIME           168
CHANNEL              0b
BASIC MIDI EVENT     NOTE OFF              note: 21 velocity: 40
EVENT TIME           168
CHANNEL              0b
BASIC MIDI EVENT     NOTE ON               note: 24 velocity: 48
EVENT TIME           168
CHANNEL              0b
BASIC MIDI EVENT     NOTE OFF              note: 24 velocity: 40
EVENT TIME           78
CHANNEL              0b
BASIC MIDI EVENT     NOTE ON               note: 23 velocity: 48
EVENT TIME           168
CHANNEL              0b
BASIC MIDI EVENT     NOTE OFF              note: 23 velocity: 40
EVENT TIME           78
CHANNEL              0b
BASIC MIDI EVENT     NOTE ON               note: 26 velocity: 48
EVENT TIME           78
CHANNEL              0b
BASIC MIDI EVENT     NOTE OFF              note: 26 velocity: 40
EVENT TIME           78
CHANNEL              0b
BASIC MIDI EVENT     NOTE ON               note: 26 velocity: 48
EVENT TIME           78
CHANNEL              0b
BASIC MIDI EVENT     NOTE OFF              note: 26 velocity: 40
EVENT TIME           78
CHANNEL              0b
BASIC MIDI EVENT     NOTE ON               note: 26 velocity: 48
EVENT TIME           78
CHANNEL              0b
BASIC MIDI EVENT     NOTE OFF              note: 26 velocity: 40
EVENT TIME           78
CHANNEL              0b
BASIC MIDI EVENT     NOTE ON               note: 26 velocity: 48
EVENT TIME           78
CHANNEL              0b
BASIC MIDI EVENT     NOTE OFF              note: 26 velocity: 40
EVENT TIME           78
CHANNEL              0b
BASIC MIDI EVENT     NOTE ON               note: 26 velocity: 48
EVENT TIME           78
CHANNEL              0b
BASIC MIDI EVENT     NOTE OFF              note: 26 velocity: 40
EVENT TIME           78
CHANNEL              0b
BASIC MIDI EVENT     NOTE ON               note: 26 velocity: 48
EVENT TIME           78
CHANNEL              0b
BASIC MIDI EVENT     NOTE OFF              note: 26 velocity: 40
EVENT TIME           78
CHANNEL              0b
BASIC MIDI EVENT     NOTE ON               note: 26 velocity: 48
EVENT TIME           78
CHANNEL              0b
BASIC MIDI EVENT     NOTE OFF              note: 26 velocity: 40
EVENT TIME           78
CHANNEL              0b
BASIC MIDI EVENT     NOTE ON               note: 26 velocity: 48
EVENT TIME           78
CHANNEL              0b
BASIC MIDI EVENT     NOTE OFF              note: 26 velocity: 40
EVENT TIME           78
CHANNEL              0b
BASIC MIDI EVENT     NOTE ON               note: 25 velocity: 48
EVENT TIME           78
CHANNEL              0b
BASIC MIDI EVENT     NOTE OFF              note: 25 velocity: 40
EVENT TIME           78
CHANNEL              0b
BASIC MIDI EVENT     NOTE ON               note: 25 velocity: 48
EVENT TIME           78
CHANNEL              0b
BASIC MIDI EVENT     NOTE OFF              note: 25 velocity: 40
EVENT TIME           78
CHANNEL              0b
BASIC MIDI EVENT     NOTE ON               note: 25 velocity: 48
EVENT TIME           78
CHANNEL              0b
BASIC MIDI EVENT     NOTE OFF              note: 25 velocity: 40
EVENT TIME           78
CHANNEL              0b
BASIC MIDI EVENT     NOTE ON               note: 25 velocity: 48
EVENT TIME           78
CHANNEL              0b
BASIC MIDI EVENT     NOTE OFF              note: 25 velocity: 40
EVENT TIME           78
CHANNEL              0b
BASIC MIDI EVENT     NOTE ON               note: 25 velocity: 48
EVENT TIME           78
CHANNEL              0b
BASIC MIDI EVENT     NOTE OFF              note: 25 velocity: 40
EVENT TIME           78
CHANNEL              0b
BASIC MIDI EVENT     NOTE ON               note: 25 velocity: 48
EVENT TIME           78
CHANNEL              0b
BASIC MIDI EVENT     NOTE OFF              note: 25 velocity: 40
EVENT TIME           78
CHANNEL              0b
BASIC MIDI EVENT     NOTE ON               note: 25 velocity: 48
EVENT TIME           78
CHANNEL              0b
BASIC MIDI EVENT     NOTE OFF              note: 25 velocity: 40
EVENT TIME           78
CHANNEL              0b
BASIC MIDI EVENT     NOTE ON               note: 25 velocity: 48
EVENT TIME           78
CHANNEL              0b
BASIC MIDI EVENT     NOTE OFF              note: 25 velocity: 40
EVENT TIME           78
CHANNEL              0b
BASIC MIDI EVENT     NOTE ON               note: 24 velocity: 48
EVENT TIME           78
CHANNEL              0b
BASIC MIDI EVENT     NOTE OFF              note: 24 velocity: 40
EVENT TIME           78
CHANNEL              0b
BASIC MIDI EVENT     NOTE ON               note: 24 velocity: 48
EVENT TIME           78
CHANNEL              0b
BASIC MIDI EVENT     NOTE OFF              note: 24 velocity: 40
EVENT TIME           78
CHANNEL              0b
BASIC MIDI EVENT     NOTE ON               note: 24 velocity: 48
EVENT TIME           78
CHANNEL              0b
BASIC MIDI EVENT     NOTE OFF              note: 24 velocity: 40
EVENT TIME           78
CHANNEL              0b
BASIC MIDI EVENT     NOTE ON               note: 24 velocity: 48
EVENT TIME           78
CHANNEL              0b
BASIC MIDI EVENT     NOTE OFF              note: 24 velocity: 40
EVENT TIME           78
CHANNEL              0b
BASIC MIDI EVENT     NOTE ON               note: 24 velocity: 48
EVENT TIME           78
CHANNEL              0b
BASIC MIDI EVENT     NOTE OFF              note: 24 velocity: 40
EVENT TIME           78
CHANNEL              0b
BASIC MIDI EVENT     NOTE ON               note: 24 velocity: 48
EVENT TIME           78
CHANNEL              0b
BASIC MIDI EVENT     NOTE OFF              note: 24 velocity: 40
EVENT TIME           78
CHANNEL              0b
BASIC MIDI EVENT     NOTE ON               note: 24 velocity: 48
EVENT TIME           78
CHANNEL              0b
BASIC MIDI EVENT     NOTE OFF              note: 24 velocity: 40
EVENT TIME           78
CHANNEL              0b
BASIC MIDI EVENT     NOTE ON               note: 24 velocity: 48
EVENT TIME           78
CHANNEL              0b
BASIC MIDI EVENT     NOTE OFF              note: 24 velocity: 40
EVENT TIME           78
CHANNEL              0b
BASIC MIDI EVENT     NOTE ON               note: 23 velocity: 48
EVENT TIME           78
CHANNEL              0b
BASIC MIDI EVENT     NOTE OFF              note: 23 velocity: 40
EVENT TIME           78
CHANNEL              0b
BASIC MIDI EVENT     NOTE ON               note: 23 velocity: 48
EVENT TIME           78
CHANNEL              0b
BASIC MIDI EVENT     NOTE OFF              note: 23 velocity: 40
EVENT TIME           78
CHANNEL              0b
BASIC MIDI EVENT     NOTE ON               note: 23 velocity: 48
EVENT TIME           78
CHANNEL              0b
BASIC MIDI EVENT     NOTE OFF              note: 23 velocity: 40
EVENT TIME           78
CHANNEL              0b
BASIC MIDI EVENT     NOTE ON               note: 23 velocity: 48
EVENT TIME           78
CHANNEL              0b
BASIC MIDI EVENT     NOTE OFF              note: 23 velocity: 40
EVENT TIME           78
CHANNEL              0b
BASIC MIDI EVENT     NOTE ON               note: 23 velocity: 48
EVENT TIME           78
CHANNEL              0b
BASIC MIDI EVENT     NOTE OFF              note: 23 velocity: 40
EVENT TIME           78
CHANNEL              0b
BASIC MIDI EVENT     NOTE ON               note: 23 velocity: 48
EVENT TIME           78
CHANNEL              0b
BASIC MIDI EVENT     NOTE OFF              note: 23 velocity: 40
EVENT TIME           78
CHANNEL              0b
BASIC MIDI EVENT     NOTE ON               note: 23 velocity: 48
EVENT TIME           78
CHANNEL              0b
BASIC MIDI EVENT     NOTE OFF              note: 23 velocity: 40
EVENT TIME           78
CHANNEL              0b
BASIC MIDI EVENT     NOTE ON               note: 23 velocity: 48
EVENT TIME           78
CHANNEL              0b
BASIC MIDI EVENT     NOTE OFF              note: 23 velocity: 40
EVENT TIME           78
CHANNEL              0b
BASIC MIDI EVENT     NOTE ON               note: 28 velocity: 48
EVENT TIME           78
CHANNEL              0b
BASIC MIDI EVENT     NOTE OFF              note: 28 velocity: 40
EVENT TIME           78
CHANNEL              0b
BASIC MIDI EVENT     NOTE ON               note: 28 velocity: 48
EVENT TIME           78
CHANNEL              0b
BASIC MIDI EVENT     NOTE OFF              note: 28 velocity: 40
EVENT TIME           78
CHANNEL              0b
BASIC MIDI EVENT     NOTE ON               note: 28 velocity: 48
EVENT TIME           78
CHANNEL              0b
BASIC MIDI EVENT     NOTE OFF              note: 28 velocity: 40
EVENT TIME           78
CHANNEL              0b
BASIC MIDI EVENT     NOTE ON               note: 28 velocity: 48
EVENT TIME           78
CHANNEL              0b
BASIC MIDI EVENT     NOTE OFF              note: 28 velocity: 40
EVENT TIME           78
CHANNEL              0b
BASIC MIDI EVENT     NOTE ON               note: 28 velocity: 48
EVENT TIME           78
CHANNEL              0b
BASIC MIDI EVENT     NOTE OFF              note: 28 velocity: 40
EVENT TIME           78
CHANNEL              0b
BASIC MIDI EVENT     NOTE ON               note: 28 velocity: 48
EVENT TIME           78
CHANNEL              0b
BASIC MIDI EVENT     NOTE OFF              note: 28 velocity: 40
EVENT TIME           78
CHANNEL              0b
BASIC MIDI EVENT     NOTE ON               note: 28 velocity: 48
EVENT TIME           78
CHANNEL              0b
BASIC MIDI EVENT     NOTE OFF              note: 28 velocity: 40
EVENT TIME           78
CHANNEL              0b
BASIC MIDI EVENT     NOTE ON               note: 28 velocity: 48
EVENT TIME           78
CHANNEL              0b
BASIC MIDI EVENT     NOTE OFF              note: 28 velocity: 40
EVENT TIME           78
CHANNEL              0b
BASIC MIDI EVENT     NOTE ON               note: 1c velocity: 48
EVENT TIME           78
CHANNEL              0b
BASIC MIDI EVENT     NOTE OFF              note: 1c velocity: 40
EVENT TIME           78
CHANNEL              0b
BASIC MIDI EVENT     NOTE ON               note: 1c velocity: 48
EVENT TIME           78
CHANNEL              0b
BASIC MIDI EVENT     NOTE OFF              note: 1c velocity: 40
EVENT TIME           78
CHANNEL              0b
BASIC MIDI EVENT     NOTE ON               note: 1c velocity: 48
EVENT TIME           78
CHANNEL              0b
BASIC MIDI EVENT     NOTE OFF              note: 1c velocity: 40
EVENT TIME           78
CHANNEL              0b
BASIC MIDI EVENT     NOTE ON               note: 1c velocity: 48
EVENT TIME           78
CHANNEL              0b
BASIC MIDI EVENT     NOTE OFF              note: 1c velocity: 40
EVENT TIME           78
CHANNEL              0b
BASIC MIDI EVENT     NOTE ON               note: 1c velocity: 48
EVENT TIME           78
CHANNEL              0b
BASIC MIDI EVENT     NOTE OFF              note: 1c velocity: 40
EVENT TIME           78
CHANNEL              0b
BASIC MIDI EVENT     NOTE ON               note: 1c velocity: 48
EVENT TIME           78
CHANNEL              0b
BASIC MIDI EVENT     NOTE OFF              note: 1c velocity: 40
EVENT TIME           78
CHANNEL              0b
BASIC MIDI EVENT     NOTE ON               note: 1c velocity: 48
EVENT TIME           78
CHANNEL              0b
BASIC MIDI EVENT     NOTE OFF              note: 1c velocity: 40
EVENT TIME           78
CHANNEL              0b
BASIC MIDI EVENT     NOTE ON               note: 1c velocity: 48
EVENT TIME           78
CHANNEL              0b
BASIC MIDI EVENT     NOTE OFF              note: 1c velocity: 40
EVENT TIME           78
CHANNEL              0b
BASIC MIDI EVENT     NOTE ON               note: 1f velocity: 48
EVENT TIME           78
CHANNEL              0b
BASIC MIDI EVENT     NOTE OFF              note: 1f velocity: 40
EVENT TIME           78
CHANNEL              0b
BASIC MIDI EVENT     NOTE ON               note: 1f velocity: 48
EVENT TIME           78
CHANNEL              0b
BASIC MIDI EVENT     NOTE OFF              note: 1f velocity: 40
EVENT TIME           78
CHANNEL              0b
BASIC MIDI EVENT     NOTE ON               note: 1f velocity: 48
EVENT TIME           78
CHANNEL              0b
BASIC MIDI EVENT     NOTE OFF              note: 1f velocity: 40
EVENT TIME           78
CHANNEL              0b
BASIC MIDI EVENT     NOTE ON               note: 1f velocity: 48
EVENT TIME           78
CHANNEL              0b
BASIC MIDI EVENT     NOTE OFF              note: 1f velocity: 40
EVENT TIME           78
CHANNEL              0b
BASIC MIDI EVENT     NOTE ON               note: 1f velocity: 48
EVENT TIME           78
CHANNEL              0b
BASIC MIDI EVENT     NOTE OFF              note: 1f velocity: 40
EVENT TIME           78
CHANNEL              0b
BASIC MIDI EVENT     NOTE ON               note: 1f velocity: 48
EVENT TIME           78
CHANNEL              0b
BASIC MIDI EVENT     NOTE OFF              note: 1f velocity: 40
EVENT TIME           78
CHANNEL              0b
BASIC MIDI EVENT     NOTE ON               note: 1f velocity: 48
EVENT TIME           78
CHANNEL              0b
BASIC MIDI EVENT     NOTE OFF              note: 1f velocity: 40
EVENT TIME           78
CHANNEL              0b
BASIC MIDI EVENT     NOTE ON               note: 21 velocity: 48
EVENT TIME           78
CHANNEL              0b
BASIC MIDI EVENT     NOTE OFF              note: 21 velocity: 40
EVENT TIME           78
CHANNEL              0b
BASIC MIDI EVENT     NOTE ON               note: 21 velocity: 48
EVENT TIME           78
CHANNEL              0b
BASIC MIDI EVENT     NOTE OFF              note: 21 velocity: 40
EVENT TIME           78
CHANNEL              0b
BASIC MIDI EVENT     NOTE ON               note: 21 velocity: 48
EVENT TIME           78
CHANNEL              0b
BASIC MIDI EVENT     NOTE OFF              note: 21 velocity: 40
EVENT TIME           78
CHANNEL              0b
BASIC MIDI EVENT     NOTE ON               note: 21 velocity: 48
EVENT TIME           78
CHANNEL              0b
BASIC MIDI EVENT     NOTE OFF              note: 21 velocity: 40
EVENT TIME           78
CHANNEL              0b
BASIC MIDI EVENT     NOTE ON               note: 21 velocity: 48
EVENT TIME           78
CHANNEL              0b
BASIC MIDI EVENT     NOTE OFF              note: 21 velocity: 40
EVENT TIME           78
CHANNEL              0b
BASIC MIDI EVENT     NOTE ON               note: 23 velocity: 48
EVENT TIME           78
CHANNEL              0b
BASIC MIDI EVENT     NOTE OFF              note: 23 velocity: 40
EVENT TIME           78
CHANNEL              0b
BASIC MIDI EVENT     NOTE ON               note: 23 velocity: 48
EVENT TIME           78
CHANNEL              0b
BASIC MIDI EVENT     NOTE OFF              note: 23 velocity: 40
EVENT TIME           78
CHANNEL              0b
BASIC MIDI EVENT     NOTE ON               note: 21 velocity: 48
EVENT TIME           78
CHANNEL              0b
BASIC MIDI EVENT     NOTE OFF              note: 21 velocity: 40
EVENT TIME           78
CHANNEL              0b
BASIC MIDI EVENT     NOTE ON               note: 21 velocity: 48
EVENT TIME           78
CHANNEL              0b
BASIC MIDI EVENT     NOTE OFF              note: 21 velocity: 40
EVENT TIME           78
CHANNEL              0b
BASIC MIDI EVENT     NOTE ON               note: 26 velocity: 48
EVENT TIME           78
CHANNEL              0b
BASIC MIDI EVENT     NOTE OFF              note: 26 velocity: 40
EVENT TIME           78
CHANNEL              0b
BASIC MIDI EVENT     NOTE ON               note: 26 velocity: 48
EVENT TIME           78
CHANNEL              0b
BASIC MIDI EVENT     NOTE OFF              note: 26 velocity: 40
EVENT TIME           78
CHANNEL              0b
BASIC MIDI EVENT     NOTE ON               note: 26 velocity: 48
EVENT TIME           78
CHANNEL              0b
BASIC MIDI EVENT     NOTE OFF              note: 26 velocity: 40
EVENT TIME           78
CHANNEL              0b
BASIC MIDI EVENT     NOTE ON               note: 26 velocity: 48
EVENT TIME           78
CHANNEL              0b
BASIC MIDI EVENT     NOTE OFF              note: 26 velocity: 40
EVENT TIME           78
CHANNEL              0b
BASIC MIDI EVENT     NOTE ON               note: 26 velocity: 48
EVENT TIME           78
CHANNEL              0b
BASIC MIDI EVENT     NOTE OFF              note: 26 velocity: 40
EVENT TIME           78
CHANNEL              0b
BASIC MIDI EVENT     NOTE ON               note: 26 velocity: 48
EVENT TIME           78
CHANNEL              0b
BASIC MIDI EVENT     NOTE OFF              note: 26 velocity: 40
EVENT TIME           78
CHANNEL              0b
BASIC MIDI EVENT     NOTE ON               note: 26 velocity: 48
EVENT TIME           78
CHANNEL              0b
BASIC MIDI EVENT     NOTE OFF              note: 26 velocity: 40
EVENT TIME           78
CHANNEL              0b
BASIC MIDI EVENT     NOTE ON               note: 26 velocity: 48
EVENT TIME           78
CHANNEL              0b
BASIC MIDI EVENT     NOTE OFF              note: 26 velocity: 40
EVENT TIME           78
CHANNEL              0b
BASIC MIDI EVENT     NOTE ON               note: 25 velocity: 48
EVENT TIME           78
CHANNEL              0b
BASIC MIDI EVENT     NOTE OFF              note: 25 velocity: 40
EVENT TIME           78
CHANNEL              0b
BASIC MIDI EVENT     NOTE ON               note: 25 velocity: 48
EVENT TIME           78
CHANNEL              0b
BASIC MIDI EVENT     NOTE OFF              note: 25 velocity: 40
EVENT TIME           78
CHANNEL              0b
BASIC MIDI EVENT     NOTE ON               note: 25 velocity: 48
EVENT TIME           78
CHANNEL              0b
BASIC MIDI EVENT     NOTE OFF              note: 25 velocity: 40
EVENT TIME           78
CHANNEL              0b
BASIC MIDI EVENT     NOTE ON               note: 25 velocity: 48
EVENT TIME           78
CHANNEL              0b
BASIC MIDI EVENT     NOTE OFF              note: 25 velocity: 40
EVENT TIME           78
CHANNEL              0b
BASIC MIDI EVENT     NOTE ON               note: 25 velocity: 48
EVENT TIME           78
CHANNEL              0b
BASIC MIDI EVENT     NOTE OFF              note: 25 velocity: 40
EVENT TIME           78
CHANNEL              0b
BASIC MIDI EVENT     NOTE ON               note: 25 velocity: 48
EVENT TIME           78
CHANNEL              0b
BASIC MIDI EVENT     NOTE OFF              note: 25 velocity: 40
EVENT TIME           78
CHANNEL              0b
BASIC MIDI EVENT     NOTE ON               note: 25 velocity: 48
EVENT TIME           78
CHANNEL              0b
BASIC MIDI EVENT     NOTE OFF              note: 25 velocity: 40
EVENT TIME           78
CHANNEL              0b
BASIC MIDI EVENT     NOTE ON               note: 25 velocity: 48
EVENT TIME           78
CHANNEL              0b
BASIC MIDI EVENT     NOTE OFF              note: 25 velocity: 40
EVENT TIME           78
CHANNEL              0b
BASIC MIDI EVENT     NOTE ON               note: 24 velocity: 48
EVENT TIME           78
CHANNEL              0b
BASIC MIDI EVENT     NOTE OFF              note: 24 velocity: 40
EVENT TIME           78
CHANNEL              0b
BASIC MIDI EVENT     NOTE ON               note: 24 velocity: 48
EVENT TIME           78
CHANNEL              0b
BASIC MIDI EVENT     NOTE OFF              note: 24 velocity: 40
EVENT TIME           78
CHANNEL              0b
BASIC MIDI EVENT     NOTE ON               note: 24 velocity: 48
EVENT TIME           78
CHANNEL              0b
BASIC MIDI EVENT     NOTE OFF              note: 24 velocity: 40
EVENT TIME           78
CHANNEL              0b
BASIC MIDI EVENT     NOTE ON               note: 24 velocity: 48
EVENT TIME           78
CHANNEL              0b
BASIC MIDI EVENT     NOTE OFF              note: 24 velocity: 40
EVENT TIME           78
CHANNEL              0b
BASIC MIDI EVENT     NOTE ON               note: 24 velocity: 48
EVENT TIME           78
CHANNEL              0b
BASIC MIDI EVENT     NOTE OFF              note: 24 velocity: 40
EVENT TIME           78
CHANNEL              0b
BASIC MIDI EVENT     NOTE ON               note: 24 velocity: 48
EVENT TIME           78
CHANNEL              0b
BASIC MIDI EVENT     NOTE OFF              note: 24 velocity: 40
EVENT TIME           78
CHANNEL              0b
BASIC MIDI EVENT     NOTE ON               note: 24 velocity: 48
EVENT TIME           78
CHANNEL              0b
BASIC MIDI EVENT     NOTE OFF              note: 24 velocity: 40
EVENT TIME           78
CHANNEL              0b
BASIC MIDI EVENT     NOTE ON               note: 24 velocity: 48
EVENT TIME           78
CHANNEL              0b
BASIC MIDI EVENT     NOTE OFF              note: 24 velocity: 40
EVENT TIME           78
CHANNEL              0b
BASIC MIDI EVENT     NOTE ON               note: 23 velocity: 48
EVENT TIME           78
CHANNEL              0b
BASIC MIDI EVENT     NOTE OFF              note: 23 velocity: 40
EVENT TIME           78
CHANNEL              0b
BASIC MIDI EVENT     NOTE ON               note: 23 velocity: 48
EVENT TIME           78
CHANNEL              0b
BASIC MIDI EVENT     NOTE OFF              note: 23 velocity: 40
EVENT TIME           78
CHANNEL              0b
BASIC MIDI EVENT     NOTE ON               note: 23 velocity: 48
EVENT TIME           78
CHANNEL              0b
BASIC MIDI EVENT     NOTE OFF              note: 23 velocity: 40
EVENT TIME           78
CHANNEL              0b
BASIC MIDI EVENT     NOTE ON               note: 23 velocity: 48
EVENT TIME           78
CHANNEL              0b
BASIC MIDI EVENT     NOTE OFF              note: 23 velocity: 40
EVENT TIME           78
CHANNEL              0b
BASIC MIDI EVENT     NOTE ON               note: 23 velocity: 48
EVENT TIME           78
CHANNEL              0b
BASIC MIDI EVENT     NOTE OFF              note: 23 velocity: 40
EVENT TIME           78
CHANNEL              0b
BASIC MIDI EVENT     NOTE ON               note: 23 velocity: 48
EVENT TIME           78
CHANNEL              0b
BASIC MIDI EVENT     NOTE OFF              note: 23 velocity: 40
EVENT TIME           78
CHANNEL              0b
BASIC MIDI EVENT     NOTE ON               note: 23 velocity: 48
EVENT TIME           78
CHANNEL              0b
BASIC MIDI EVENT     NOTE OFF              note: 23 velocity: 40
EVENT TIME           78
CHANNEL              0b
BASIC MIDI EVENT     NOTE ON               note: 23 velocity: 48
EVENT TIME           78
CHANNEL              0b
BASIC MIDI EVENT     NOTE OFF              note: 23 velocity: 40
EVENT TIME           78
CHANNEL              0b
BASIC MIDI EVENT     NOTE ON               note: 28 velocity: 48
EVENT TIME           78
CHANNEL              0b
BASIC MIDI EVENT     NOTE OFF              note: 28 velocity: 40
EVENT TIME           78
CHANNEL              0b
BASIC MIDI EVENT     NOTE ON               note: 28 velocity: 48
EVENT TIME           78
CHANNEL              0b
BASIC MIDI EVENT     NOTE OFF              note: 28 velocity: 40
EVENT TIME           78
CHANNEL              0b
BASIC MIDI EVENT     NOTE ON               note: 28 velocity: 48
EVENT TIME           78
CHANNEL              0b
BASIC MIDI EVENT     NOTE OFF              note: 28 velocity: 40
EVENT TIME           78
CHANNEL              0b
BASIC MIDI EVENT     NOTE ON               note: 28 velocity: 48
EVENT TIME           78
CHANNEL              0b
BASIC MIDI EVENT     NOTE OFF              note: 28 velocity: 40
EVENT TIME           78
CHANNEL              0b
BASIC MIDI EVENT     NOTE ON               note: 28 velocity: 48
EVENT TIME           78
CHANNEL              0b
BASIC MIDI EVENT     NOTE OFF              note: 28 velocity: 40
EVENT TIME           78
CHANNEL              0b
BASIC MIDI EVENT     NOTE ON               note: 28 velocity: 48
EVENT TIME           78
CHANNEL              0b
BASIC MIDI EVENT     NOTE OFF              note: 28 velocity: 40
EVENT TIME           78
CHANNEL              0b
BASIC MIDI EVENT     NOTE ON               note: 28 velocity: 48
EVENT TIME           78
CHANNEL              0b
BASIC MIDI EVENT     NOTE OFF              note: 28 velocity: 40
EVENT TIME           78
CHANNEL              0b
BASIC MIDI EVENT     NOTE ON               note: 28 velocity: 48
EVENT TIME           78
CHANNEL              0b
BASIC MIDI EVENT     NOTE OFF              note: 28 velocity: 40
EVENT TIME           78
CHANNEL              0b
BASIC MIDI EVENT     NOTE ON               note: 1c velocity: 48
EVENT TIME           78
CHANNEL              0b
BASIC MIDI EVENT     NOTE OFF              note: 1c velocity: 40
EVENT TIME           78
CHANNEL              0b
BASIC MIDI EVENT     NOTE ON               note: 1c velocity: 48
EVENT TIME           78
CHANNEL              0b
BASIC MIDI EVENT     NOTE OFF              note: 1c velocity: 40
EVENT TIME           78
CHANNEL              0b
BASIC MIDI EVENT     NOTE ON               note: 1c velocity: 48
EVENT TIME           78
CHANNEL              0b
BASIC MIDI EVENT     NOTE OFF              note: 1c velocity: 40
EVENT TIME           78
CHANNEL              0b
BASIC MIDI EVENT     NOTE ON               note: 1c velocity: 48
EVENT TIME           78
CHANNEL              0b
BASIC MIDI EVENT     NOTE OFF              note: 1c velocity: 40
EVENT TIME           78
CHANNEL              0b
BASIC MIDI EVENT     NOTE ON               note: 1c velocity: 48
EVENT TIME           78
CHANNEL              0b
BASIC MIDI EVENT     NOTE OFF              note: 1c velocity: 40
EVENT TIME           78
CHANNEL              0b
BASIC MIDI EVENT     NOTE ON               note: 1c velocity: 48
EVENT TIME           78
CHANNEL              0b
BASIC MIDI EVENT     NOTE OFF              note: 1c velocity: 40
EVENT TIME           78
CHANNEL              0b
BASIC MIDI EVENT     NOTE ON               note: 1c velocity: 48
EVENT TIME           78
CHANNEL              0b
BASIC MIDI EVENT     NOTE OFF              note: 1c velocity: 40
EVENT TIME           78
CHANNEL              0b
BASIC MIDI EVENT     NOTE ON               note: 1c velocity: 48
EVENT TIME           78
CHANNEL              0b
BASIC MIDI EVENT     NOTE OFF              note: 1c velocity: 40
EVENT TIME           78
CHANNEL              0b
BASIC MIDI EVENT     NOTE ON               note: 1f velocity: 48
EVENT TIME           78
CHANNEL              0b
BASIC MIDI EVENT     NOTE OFF              note: 1f velocity: 40
EVENT TIME           78
CHANNEL              0b
BASIC MIDI EVENT     NOTE ON               note: 1f velocity: 48
EVENT TIME           78
CHANNEL              0b
BASIC MIDI EVENT     NOTE OFF              note: 1f velocity: 40
EVENT TIME           78
CHANNEL              0b
BASIC MIDI EVENT     NOTE ON               note: 1f velocity: 48
EVENT TIME           78
CHANNEL              0b
BASIC MIDI EVENT     NOTE OFF              note: 1f velocity: 40
EVENT TIME           78
CHANNEL              0b
BASIC MIDI EVENT     NOTE ON               note: 1f velocity: 48
EVENT TIME           78
CHANNEL              0b
BASIC MIDI EVENT     NOTE OFF              note: 1f velocity: 40
EVENT TIME           78
CHANNEL              0b
BASIC MIDI EVENT     NOTE ON               note: 1f velocity: 48
EVENT TIME           78
CHANNEL              0b
BASIC MIDI EVENT     NOTE OFF              note: 1f velocity: 40
EVENT TIME           78
CHANNEL              0b
BASIC MIDI EVENT     NOTE ON               note: 1f velocity: 48
EVENT TIME           78
CHANNEL              0b
BASIC MIDI EVENT     NOTE OFF              note: 1f velocity: 40
EVENT TIME           78
CHANNEL              0b
BASIC MIDI EVENT     NOTE ON               note: 1f velocity: 48
EVENT TIME           78
CHANNEL              0b
BASIC MIDI EVENT     NOTE OFF              note: 1f velocity: 40
EVENT TIME           78
CHANNEL              0b
BASIC MIDI EVENT     NOTE ON               note: 21 velocity: 48
EVENT TIME           78
CHANNEL              0b
BASIC MIDI EVENT     NOTE OFF              note: 21 velocity: 40
EVENT TIME           78
CHANNEL              0b
BASIC MIDI EVENT     NOTE ON               note: 21 velocity: 48
EVENT TIME           78
CHANNEL              0b
BASIC MIDI EVENT     NOTE OFF              note: 21 velocity: 40
EVENT TIME           78
CHANNEL              0b
BASIC MIDI EVENT     NOTE ON               note: 21 velocity: 48
EVENT TIME           78
CHANNEL              0b
BASIC MIDI EVENT     NOTE OFF              note: 21 velocity: 40
EVENT TIME           78
CHANNEL              0b
BASIC MIDI EVENT     NOTE ON               note: 21 velocity: 48
EVENT TIME           78
CHANNEL              0b
BASIC MIDI EVENT     NOTE OFF              note: 21 velocity: 40
EVENT TIME           78
CHANNEL              0b
BASIC MIDI EVENT     NOTE ON               note: 21 velocity: 48
EVENT TIME           78
CHANNEL              0b
BASIC MIDI EVENT     NOTE OFF              note: 21 velocity: 40
EVENT TIME           78
CHANNEL              0b
BASIC MIDI EVENT     NOTE ON               note: 23 velocity: 48
EVENT TIME           78
CHANNEL              0b
BASIC MIDI EVENT     NOTE OFF              note: 23 velocity: 40
EVENT TIME           78
CHANNEL              0b
BASIC MIDI EVENT     NOTE ON               note: 23 velocity: 48
EVENT TIME           78
CHANNEL              0b
BASIC MIDI EVENT     NOTE OFF              note: 23 velocity: 40
EVENT TIME           78
CHANNEL              0b
BASIC MIDI EVENT     NOTE ON               note: 21 velocity: 48
EVENT TIME           78
CHANNEL              0b
BASIC MIDI EVENT     NOTE OFF              note: 21 velocity: 40
EVENT TIME           78
CHANNEL              0b
BASIC MIDI EVENT     NOTE ON               note: 21 velocity: 48
EVENT TIME           78
CHANNEL              0b
BASIC MIDI EVENT     NOTE OFF              note: 21 velocity: 40
EVENT TIME           78
CHANNEL              0b
BASIC MIDI EVENT     NOTE ON               note: 22 velocity: 48
EVENT TIME           78
CHANNEL              0b
BASIC MIDI EVENT     NOTE OFF              note: 22 velocity: 40
EVENT TIME           78
CHANNEL              0b
BASIC MIDI EVENT     NOTE ON               note: 22 velocity: 48
EVENT TIME           78
CHANNEL              0b
BASIC MIDI EVENT     NOTE OFF              note: 22 velocity: 40
EVENT TIME           78
CHANNEL              0b
BASIC MIDI EVENT     NOTE ON               note: 22 velocity: 48
EVENT TIME           78
CHANNEL              0b
BASIC MIDI EVENT     NOTE OFF              note: 22 velocity: 40
EVENT TIME           78
CHANNEL              0b
BASIC MIDI EVENT     NOTE ON               note: 22 velocity: 48
EVENT TIME           78
CHANNEL              0b
BASIC MIDI EVENT     NOTE OFF              note: 22 velocity: 40
EVENT TIME           78
CHANNEL              0b
BASIC MIDI EVENT     NOTE ON               note: 22 velocity: 48
EVENT TIME           78
CHANNEL              0b
BASIC MIDI EVENT     NOTE OFF              note: 22 velocity: 40
EVENT TIME           78
CHANNEL              0b
BASIC MIDI EVENT     NOTE ON               note: 22 velocity: 48
EVENT TIME           78
CHANNEL              0b
BASIC MIDI EVENT     NOTE OFF              note: 22 velocity: 40
EVENT TIME           78
CHANNEL              0b
BASIC MIDI EVENT     NOTE ON               note: 22 velocity: 48
EVENT TIME           78
CHANNEL              0b
BASIC MIDI EVENT     NOTE OFF              note: 22 velocity: 40
EVENT TIME           78
CHANNEL              0b
BASIC MIDI EVENT     NOTE ON               note: 22 velocity: 48
EVENT TIME           78
CHANNEL              0b
BASIC MIDI EVENT     NOTE OFF              note: 22 velocity: 40
EVENT TIME           78
CHANNEL              0b
BASIC MIDI EVENT     NOTE ON               note: 24 velocity: 48
EVENT TIME           78
CHANNEL              0b
BASIC MIDI EVENT     NOTE OFF              note: 24 velocity: 40
EVENT TIME           78
CHANNEL              0b
BASIC MIDI EVENT     NOTE ON               note: 24 velocity: 48
EVENT TIME           78
CHANNEL              0b
BASIC MIDI EVENT     NOTE OFF              note: 24 velocity: 40
EVENT TIME           78
CHANNEL              0b
BASIC MIDI EVENT     NOTE ON               note: 24 velocity: 48
EVENT TIME           78
CHANNEL              0b
BASIC MIDI EVENT     NOTE OFF              note: 24 velocity: 40
EVENT TIME           78
CHANNEL              0b
BASIC MIDI EVENT     NOTE ON               note: 24 velocity: 48
EVENT TIME           78
CHANNEL              0b
BASIC MIDI EVENT     NOTE OFF              note: 24 velocity: 40
EVENT TIME           78
CHANNEL              0b
BASIC MIDI EVENT     NOTE ON               note: 24 velocity: 48
EVENT TIME           78
CHANNEL              0b
BASIC MIDI EVENT     NOTE OFF              note: 24 velocity: 40
EVENT TIME           78
CHANNEL              0b
BASIC MIDI EVENT     NOTE ON               note: 24 velocity: 48
EVENT TIME           78
CHANNEL              0b
BASIC MIDI EVENT     NOTE OFF              note: 24 velocity: 40
EVENT TIME           78
CHANNEL              0b
BASIC MIDI EVENT     NOTE ON               note: 24 velocity: 48
EVENT TIME           78
CHANNEL              0b
BASIC MIDI EVENT     NOTE OFF              note: 24 velocity: 40
EVENT TIME           78
CHANNEL              0b
BASIC MIDI EVENT     NOTE ON               note: 24 velocity: 48
EVENT TIME           78
CHANNEL              0b
BASIC MIDI EVENT     NOTE OFF              note: 24 velocity: 40
EVENT TIME           78
CHANNEL              0b
BASIC MIDI EVENT     NOTE ON               note: 21 velocity: 48
EVENT TIME           78
CHANNEL              0b
BASIC MIDI EVENT     NOTE OFF              note: 21 velocity: 40
EVENT TIME           78
CHANNEL              0b
BASIC MIDI EVENT     NOTE ON               note: 21 velocity: 48
EVENT TIME           78
CHANNEL              0b
BASIC MIDI EVENT     NOTE OFF              note: 21 velocity: 40
EVENT TIME           78
CHANNEL              0b
BASIC MIDI EVENT     NOTE ON               note: 21 velocity: 48
EVENT TIME           78
CHANNEL              0b
BASIC MIDI EVENT     NOTE OFF              note: 21 velocity: 40
EVENT TIME           78
CHANNEL              0b
BASIC MIDI EVENT     NOTE ON               note: 21 velocity: 48
EVENT TIME           78
CHANNEL              0b
BASIC MIDI EVENT     NOTE OFF              note: 21 velocity: 40
EVENT TIME           78
CHANNEL              0b
BASIC MIDI EVENT     NOTE ON               note: 21 velocity: 48
EVENT TIME           78
CHANNEL              0b
BASIC MIDI EVENT     NOTE OFF              note: 21 velocity: 40
EVENT TIME           78
CHANNEL              0b
BASIC MIDI EVENT     NOTE ON               note: 21 velocity: 48
EVENT TIME           78
CHANNEL              0b
BASIC MIDI EVENT     NOTE OFF              note: 21 velocity: 40
EVENT TIME           78
CHANNEL              0b
BASIC MIDI EVENT     NOTE ON               note: 21 velocity: 48
EVENT TIME           78
CHANNEL              0b
BASIC MIDI EVENT     NOTE OFF              note: 21 velocity: 40
EVENT TIME           78
CHANNEL              0b
BASIC MIDI EVENT     NOTE ON               note: 21 velocity: 48
EVENT TIME           78
CHANNEL              0b
BASIC MIDI EVENT     NOTE OFF              note: 21 velocity: 40
EVENT TIME           78
CHANNEL              0b
BASIC MIDI EVENT     NOTE ON               note: 26 velocity: 48
EVENT TIME           78
CHANNEL              0b
BASIC MIDI EVENT     NOTE OFF              note: 26 velocity: 40
EVENT TIME           78
CHANNEL              0b
BASIC MIDI EVENT     NOTE ON               note: 26 velocity: 48
EVENT TIME           78
CHANNEL              0b
BASIC MIDI EVENT     NOTE OFF              note: 26 velocity: 40
EVENT TIME           78
CHANNEL              0b
BASIC MIDI EVENT     NOTE ON               note: 26 velocity: 48
EVENT TIME           78
CHANNEL              0b
BASIC MIDI EVENT     NOTE OFF              note: 26 velocity: 40
EVENT TIME           78
CHANNEL              0b
BASIC MIDI EVENT     NOTE ON               note: 26 velocity: 48
EVENT TIME           78
CHANNEL              0b
BASIC MIDI EVENT     NOTE OFF              note: 26 velocity: 40
EVENT TIME           78
CHANNEL              0b
BASIC MIDI EVENT     NOTE ON               note: 26 velocity: 48
EVENT TIME           78
CHANNEL              0b
BASIC MIDI EVENT     NOTE OFF              note: 26 velocity: 40
EVENT TIME           78
CHANNEL              0b
BASIC MIDI EVENT     NOTE ON               note: 26 velocity: 48
EVENT TIME           78
CHANNEL              0b
BASIC MIDI EVENT     NOTE OFF              note: 26 velocity: 40
EVENT TIME           78
CHANNEL              0b
BASIC MIDI EVENT     NOTE ON               note: 26 velocity: 48
EVENT TIME           78
CHANNEL              0b
BASIC MIDI EVENT     NOTE OFF              note: 26 velocity: 40
EVENT TIME           78
CHANNEL              0b
BASIC MIDI EVENT     NOTE ON               note: 26 velocity: 48
EVENT TIME           78
CHANNEL              0b
BASIC MIDI EVENT     NOTE OFF              note: 26 velocity: 40
EVENT TIME           78
CHANNEL              0b
BASIC MIDI EVENT     NOTE ON               note: 27 velocity: 48
EVENT TIME           78
CHANNEL              0b
BASIC MIDI EVENT     NOTE OFF              note: 27 velocity: 40
EVENT TIME           78
CHANNEL              0b
BASIC MIDI EVENT     NOTE ON               note: 27 velocity: 48
EVENT TIME           78
CHANNEL              0b
BASIC MIDI EVENT     NOTE OFF              note: 27 velocity: 40
EVENT TIME           78
CHANNEL              0b
BASIC MIDI EVENT     NOTE ON               note: 27 velocity: 48
EVENT TIME           78
CHANNEL              0b
BASIC MIDI EVENT     NOTE OFF              note: 27 velocity: 40
EVENT TIME           78
CHANNEL              0b
BASIC MIDI EVENT     NOTE ON               note: 27 velocity: 48
EVENT TIME           78
CHANNEL              0b
BASIC MIDI EVENT     NOTE OFF              note: 27 velocity: 40
EVENT TIME           78
CHANNEL              0b
BASIC MIDI EVENT     NOTE ON               note: 27 velocity: 48
EVENT TIME           78
CHANNEL              0b
BASIC MIDI EVENT     NOTE OFF              note: 27 velocity: 40
EVENT TIME           78
CHANNEL              0b
BASIC MIDI EVENT     NOTE ON               note: 27 velocity: 48
EVENT TIME           78
CHANNEL              0b
BASIC MIDI EVENT     NOTE OFF              note: 27 velocity: 40
EVENT TIME           78
CHANNEL              0b
BASIC MIDI EVENT     NOTE ON               note: 27 velocity: 48
EVENT TIME           78
CHANNEL              0b
BASIC MIDI EVENT     NOTE OFF              note: 27 velocity: 40
EVENT TIME           78
CHANNEL              0b
BASIC MIDI EVENT     NOTE ON               note: 27 velocity: 48
EVENT TIME           78
CHANNEL              0b
BASIC MIDI EVENT     NOTE OFF              note: 27 velocity: 40
EVENT TIME           78
CHANNEL              0b
BASIC MIDI EVENT     NOTE ON               note: 22 velocity: 48
EVENT TIME           78
CHANNEL              0b
BASIC MIDI EVENT     NOTE OFF              note: 22 velocity: 40
EVENT TIME           78
CHANNEL              0b
BASIC MIDI EVENT     NOTE ON               note: 22 velocity: 48
EVENT TIME           78
CHANNEL              0b
BASIC MIDI EVENT     NOTE OFF              note: 22 velocity: 40
EVENT TIME           78
CHANNEL              0b
BASIC MIDI EVENT     NOTE ON               note: 22 velocity: 48
EVENT TIME           78
CHANNEL              0b
BASIC MIDI EVENT     NOTE OFF              note: 22 velocity: 40
EVENT TIME           78
CHANNEL              0b
BASIC MIDI EVENT     NOTE ON               note: 22 velocity: 48
EVENT TIME           78
CHANNEL              0b
BASIC MIDI EVENT     NOTE OFF              note: 22 velocity: 40
EVENT TIME           78
CHANNEL              0b
BASIC MIDI EVENT     NOTE ON               note: 22 velocity: 48
EVENT TIME           78
CHANNEL              0b
BASIC MIDI EVENT     NOTE OFF              note: 22 velocity: 40
EVENT TIME           78
CHANNEL              0b
BASIC MIDI EVENT     NOTE ON               note: 22 velocity: 48
EVENT TIME           78
CHANNEL              0b
BASIC MIDI EVENT     NOTE OFF              note: 22 velocity: 40
EVENT TIME           78
CHANNEL              0b
BASIC MIDI EVENT     NOTE ON               note: 22 velocity: 48
EVENT TIME           78
CHANNEL              0b
BASIC MIDI EVENT     NOTE OFF              note: 22 velocity: 40
EVENT TIME           78
CHANNEL              0b
BASIC MIDI EVENT     NOTE ON               note: 22 velocity: 48
EVENT TIME           78
CHANNEL              0b
BASIC MIDI EVENT     NOTE OFF              note: 22 velocity: 40
EVENT TIME           78
CHANNEL              0b
BASIC MIDI EVENT     NOTE ON               note: 1f velocity: 48
EVENT TIME           78
CHANNEL              0b
BASIC MIDI EVENT     NOTE OFF              note: 1f velocity: 40
EVENT TIME           78
CHANNEL              0b
BASIC MIDI EVENT     NOTE ON               note: 1f velocity: 48
EVENT TIME           78
CHANNEL              0b
BASIC MIDI EVENT     NOTE OFF              note: 1f velocity: 40
EVENT TIME           78
CHANNEL              0b
BASIC MIDI EVENT     NOTE ON               note: 1f velocity: 48
EVENT TIME           78
CHANNEL              0b
BASIC MIDI EVENT     NOTE OFF              note: 1f velocity: 40
EVENT TIME           78
CHANNEL              0b
BASIC MIDI EVENT     NOTE ON               note: 1f velocity: 48
EVENT TIME           78
CHANNEL              0b
BASIC MIDI EVENT     NOTE OFF              note: 1f velocity: 40
EVENT TIME           78
CHANNEL              0b
BASIC MIDI EVENT     NOTE ON               note: 1f velocity: 48
EVENT TIME           78
CHANNEL              0b
BASIC MIDI EVENT     NOTE OFF              note: 1f velocity: 40
EVENT TIME           78
CHANNEL              0b
BASIC MIDI EVENT     NOTE ON               note: 1f velocity: 48
EVENT TIME           78
CHANNEL              0b
BASIC MIDI EVENT     NOTE OFF              note: 1f velocity: 40
EVENT TIME           78
CHANNEL              0b
BASIC MIDI EVENT     NOTE ON               note: 1f velocity: 48
EVENT TIME           78
CHANNEL              0b
BASIC MIDI EVENT     NOTE OFF              note: 1f velocity: 40
EVENT TIME           78
CHANNEL              0b
BASIC MIDI EVENT     NOTE ON               note: 1f velocity: 48
EVENT TIME           78
CHANNEL              0b
BASIC MIDI EVENT     NOTE OFF              note: 1f velocity: 40
EVENT TIME           78
CHANNEL              0b
BASIC MIDI EVENT     NOTE ON               note: 1f velocity: 48
EVENT TIME           168
CHANNEL              0b
BASIC MIDI EVENT     NOTE OFF              note: 1f velocity: 40
EVENT TIME           78
CHANNEL              0b
BASIC MIDI EVENT     NOTE ON               note: 1f velocity: 48
EVENT TIME           168
CHANNEL              0b
BASIC MIDI EVENT     NOTE OFF              note: 1f velocity: 40
EVENT TIME           78
CHANNEL              0b
BASIC MIDI EVENT     NOTE ON               note: 1f velocity: 48
EVENT TIME           168
CHANNEL              0b
BASIC MIDI EVENT     NOTE OFF              note: 1f velocity: 40
EVENT TIME           78
CHANNEL              0b
BASIC MIDI EVENT     NOTE ON               note: 1f velocity: 48
EVENT TIME           168
CHANNEL              0b
BASIC MIDI EVENT     NOTE OFF              note: 1f velocity: 40
EVENT TIME           78
CHANNEL              0b
BASIC MIDI EVENT     NOTE ON               note: 22 velocity: 48
EVENT TIME           168
CHANNEL              0b
BASIC MIDI EVENT     NOTE OFF              note: 22 velocity: 40
EVENT TIME           78
CHANNEL              0b
BASIC MIDI EVENT     NOTE ON               note: 22 velocity: 48
EVENT TIME           168
CHANNEL              0b
BASIC MIDI EVENT     NOTE OFF              note: 22 velocity: 40
EVENT TIME           78
CHANNEL              0b
BASIC MIDI EVENT     NOTE ON               note: 24 velocity: 48
EVENT TIME           168
CHANNEL              0b
BASIC MIDI EVENT     NOTE OFF              note: 24 velocity: 40
EVENT TIME           78
CHANNEL              0b
BASIC MIDI EVENT     NOTE ON               note: 24 velocity: 48
EVENT TIME           168
CHANNEL              0b
BASIC MIDI EVENT     NOTE OFF              note: 24 velocity: 40
EVENT TIME           78
CHANNEL              0b
BASIC MIDI EVENT     NOTE ON               note: 24 velocity: 48
EVENT TIME           168
CHANNEL              0b
BASIC MIDI EVENT     NOTE OFF              note: 24 velocity: 40
EVENT TIME           78
CHANNEL              0b
BASIC MIDI EVENT     NOTE ON               note: 24 velocity: 48
EVENT TIME           168
CHANNEL              0b
BASIC MIDI EVENT     NOTE OFF              note: 24 velocity: 40
EVENT TIME           78
CHANNEL              0b
BASIC MIDI EVENT     NOTE ON               note: 26 velocity: 48
EVENT TIME           168
CHANNEL              0b
BASIC MIDI EVENT     NOTE OFF              note: 26 velocity: 40
EVENT TIME           78
CHANNEL              0b
BASIC MIDI EVENT     NOTE ON               note: 27 velocity: 48
EVENT TIME           168
CHANNEL              0b
BASIC MIDI EVENT     NOTE OFF              note: 27 velocity: 40
EVENT TIME           78
CHANNEL              0b
BASIC MIDI EVENT     NOTE ON               note: 28 velocity: 48
EVENT TIME           168
CHANNEL              0b
BASIC MIDI EVENT     NOTE OFF              note: 28 velocity: 40
EVENT TIME           78
CHANNEL              0b
BASIC MIDI EVENT     NOTE ON               note: 28 velocity: 48
EVENT TIME           168
CHANNEL              0b
BASIC MIDI EVENT     NOTE OFF              note: 28 velocity: 40
EVENT TIME           78
CHANNEL              0b
BASIC MIDI EVENT     NOTE ON               note: 28 velocity: 48
EVENT TIME           168
CHANNEL              0b
BASIC MIDI EVENT     NOTE OFF              note: 28 velocity: 40
EVENT TIME           78
CHANNEL              0b
BASIC MIDI EVENT     NOTE ON               note: 28 velocity: 48
EVENT TIME           168
CHANNEL              0b
BASIC MIDI EVENT     NOTE OFF              note: 28 velocity: 40
EVENT TIME           78
CHANNEL              0b
BASIC MIDI EVENT     NOTE ON               note: 27 velocity: 48
EVENT TIME           168
CHANNEL              0b
BASIC MIDI EVENT     NOTE OFF              note: 27 velocity: 40
EVENT TIME           78
CHANNEL              0b
BASIC MIDI EVENT     NOTE ON               note: 27 velocity: 48
EVENT TIME           168
CHANNEL              0b
BASIC MIDI EVENT     NOTE OFF              note: 27 velocity: 40
EVENT TIME           78
CHANNEL              0b
BASIC MIDI EVENT     NOTE ON               note: 27 velocity: 48
EVENT TIME           168
CHANNEL              0b
BASIC MIDI EVENT     NOTE OFF              note: 27 velocity: 40
EVENT TIME           78
CHANNEL              0b
BASIC MIDI EVENT     NOTE ON               note: 27 velocity: 48
EVENT TIME           168
CHANNEL              0b
BASIC MIDI EVENT     NOTE OFF              note: 27 velocity: 40
EVENT TIME           78
CHANNEL              0b
BASIC MIDI EVENT     NOTE ON               note: 26 velocity: 48
EVENT TIME           168
CHANNEL              0b
BASIC MIDI EVENT     NOTE OFF              note: 26 velocity: 40
EVENT TIME           78
CHANNEL              0b
BASIC MIDI EVENT     NOTE ON               note: 26 velocity: 48
EVENT TIME           168
CHANNEL              0b
BASIC MIDI EVENT     NOTE OFF              note: 26 velocity: 40
EVENT TIME           78
CHANNEL              0b
BASIC MIDI EVENT     NOTE ON               note: 26 velocity: 48
EVENT TIME           168
CHANNEL              0b
BASIC MIDI EVENT     NOTE OFF              note: 26 velocity: 40
EVENT TIME           78
CHANNEL              0b
BASIC MIDI EVENT     NOTE ON               note: 26 velocity: 48
EVENT TIME           168
CHANNEL              0b
BASIC MIDI EVENT     NOTE OFF              note: 26 velocity: 40
EVENT TIME           78
CHANNEL              0b
BASIC MIDI EVENT     NOTE ON               note: 25 velocity: 48
EVENT TIME           168
CHANNEL              0b
BASIC MIDI EVENT     NOTE OFF              note: 25 velocity: 40
EVENT TIME           78
CHANNEL              0b
BASIC MIDI EVENT     NOTE ON               note: 25 velocity: 48
EVENT TIME           168
CHANNEL              0b
BASIC MIDI EVENT     NOTE OFF              note: 25 velocity: 40
EVENT TIME           78
CHANNEL              0b
BASIC MIDI EVENT     NOTE ON               note: 25 velocity: 48
EVENT TIME           168
CHANNEL              0b
BASIC MIDI EVENT     NOTE OFF              note: 25 velocity: 40
EVENT TIME           78
CHANNEL              0b
BASIC MIDI EVENT     NOTE ON               note: 25 velocity: 48
EVENT TIME           168
CHANNEL              0b
BASIC MIDI EVENT     NOTE OFF              note: 25 velocity: 40
EVENT TIME           78
CHANNEL              0b
BASIC MIDI EVENT     NOTE ON               note: 24 velocity: 48
EVENT TIME           168
CHANNEL              0b
BASIC MIDI EVENT     NOTE OFF              note: 24 velocity: 40
EVENT TIME           78
CHANNEL              0b
BASIC MIDI EVENT     NOTE ON               note: 24 velocity: 48
EVENT TIME           168
CHANNEL              0b
BASIC MIDI EVENT     NOTE OFF              note: 24 velocity: 40
EVENT TIME           78
CHANNEL              0b
BASIC MIDI EVENT     NOTE ON               note: 24 velocity: 48
EVENT TIME           168
CHANNEL              0b
BASIC MIDI EVENT     NOTE OFF              note: 24 velocity: 40
EVENT TIME           78
CHANNEL              0b
BASIC MIDI EVENT     NOTE ON               note: 24 velocity: 48
EVENT TIME           168
CHANNEL              0b
BASIC MIDI EVENT     NOTE OFF              note: 24 velocity: 40
EVENT TIME           78
CHANNEL              0b
BASIC MIDI EVENT     NOTE ON               note: 26 velocity: 48
EVENT TIME           168
CHANNEL              0b
BASIC MIDI EVENT     NOTE OFF              note: 26 velocity: 40
EVENT TIME           78
CHANNEL              0b
BASIC MIDI EVENT     NOTE ON               note: 26 velocity: 48
EVENT TIME           168
CHANNEL              0b
BASIC MIDI EVENT     NOTE OFF              note: 26 velocity: 40
EVENT TIME           78
CHANNEL              0b
BASIC MIDI EVENT     NOTE ON               note: 26 velocity: 48
EVENT TIME           168
CHANNEL              0b
BASIC MIDI EVENT     NOTE OFF              note: 26 velocity: 40
EVENT TIME           78
CHANNEL              0b
BASIC MIDI EVENT     NOTE ON               note: 26 velocity: 48
EVENT TIME           168
CHANNEL              0b
BASIC MIDI EVENT     NOTE OFF              note: 26 velocity: 40
EVENT TIME           78
CHANNEL              0b
BASIC MIDI EVENT     NOTE ON               note: 24 velocity: 48
EVENT TIME           168
CHANNEL              0b
BASIC MIDI EVENT     NOTE OFF              note: 24 velocity: 40
EVENT TIME           78
CHANNEL              0b
BASIC MIDI EVENT     NOTE ON               note: 24 velocity: 48
EVENT TIME           168
CHANNEL              0b
BASIC MIDI EVENT     NOTE OFF              note: 24 velocity: 40
EVENT TIME           78
CHANNEL              0b
BASIC MIDI EVENT     NOTE ON               note: 24 velocity: 48
EVENT TIME           168
CHANNEL              0b
BASIC MIDI EVENT     NOTE OFF              note: 24 velocity: 40
EVENT TIME           78
CHANNEL              0b
BASIC MIDI EVENT     NOTE ON               note: 24 velocity: 48
EVENT TIME           168
CHANNEL              0b
BASIC MIDI EVENT     NOTE OFF              note: 24 velocity: 40
EVENT TIME           78
CHANNEL              0b
BASIC MIDI EVENT     NOTE ON               note: 26 velocity: 48
EVENT TIME           168
CHANNEL              0b
BASIC MIDI EVENT     NOTE OFF              note: 26 velocity: 40
EVENT TIME           78
CHANNEL              0b
BASIC MIDI EVENT     NOTE ON               note: 26 velocity: 48
EVENT TIME           168
CHANNEL              0b
BASIC MIDI EVENT     NOTE OFF              note: 26 velocity: 40
EVENT TIME           78
CHANNEL              0b
BASIC MIDI EVENT     NOTE ON               note: 26 velocity: 48
EVENT TIME           168
CHANNEL              0b
BASIC MIDI EVENT     NOTE OFF              note: 26 velocity: 40
EVENT TIME           78
CHANNEL              0b
BASIC MIDI EVENT     NOTE ON               note: 26 velocity: 48
EVENT TIME           168
CHANNEL              0b
BASIC MIDI EVENT     NOTE OFF              note: 26 velocity: 40
EVENT TIME           78
CHANNEL              0b
BASIC MIDI EVENT     NOTE ON               note: 28 velocity: 48
EVENT TIME           168
CHANNEL              0b
BASIC MIDI EVENT     NOTE OFF              note: 28 velocity: 40
EVENT TIME           78
CHANNEL              0b
BASIC MIDI EVENT     NOTE ON               note: 28 velocity: 48
EVENT TIME           168
CHANNEL              0b
BASIC MIDI EVENT     NOTE OFF              note: 28 velocity: 40
EVENT TIME           78
CHANNEL              0b
BASIC MIDI EVENT     NOTE ON               note: 28 velocity: 48
EVENT TIME           168
CHANNEL              0b
BASIC MIDI EVENT     NOTE OFF              note: 28 velocity: 40
EVENT TIME           78
CHANNEL              0b
BASIC MIDI EVENT     NOTE ON               note: 28 velocity: 48
EVENT TIME           168
CHANNEL              0b
BASIC MIDI EVENT     NOTE OFF              note: 28 velocity: 40
EVENT TIME           78
CHANNEL              0b
BASIC MIDI EVENT     NOTE ON               note: 27 velocity: 48
EVENT TIME           168
CHANNEL              0b
BASIC MIDI EVENT     NOTE OFF              note: 27 velocity: 40
EVENT TIME           78
CHANNEL              0b
BASIC MIDI EVENT     NOTE ON               note: 27 velocity: 48
EVENT TIME           168
CHANNEL              0b
BASIC MIDI EVENT     NOTE OFF              note: 27 velocity: 40
EVENT TIME           78
CHANNEL              0b
BASIC MIDI EVENT     NOTE ON               note: 27 velocity: 48
EVENT TIME           168
CHANNEL              0b
BASIC MIDI EVENT     NOTE OFF              note: 27 velocity: 40
EVENT TIME           78
CHANNEL              0b
BASIC MIDI EVENT     NOTE ON               note: 27 velocity: 48
EVENT TIME           168
CHANNEL              0b
BASIC MIDI EVENT     NOTE OFF              note: 27 velocity: 40
EVENT TIME           78
CHANNEL              0b
BASIC MIDI EVENT     NOTE ON               note: 26 velocity: 48
EVENT TIME           168
CHANNEL              0b
BASIC MIDI EVENT     NOTE OFF              note: 26 velocity: 40
EVENT TIME           78
CHANNEL              0b
BASIC MIDI EVENT     NOTE ON               note: 26 velocity: 48
EVENT TIME           168
CHANNEL              0b
BASIC MIDI EVENT     NOTE OFF              note: 26 velocity: 40
EVENT TIME           78
CHANNEL              0b
BASIC MIDI EVENT     NOTE ON               note: 26 velocity: 48
EVENT TIME           168
CHANNEL              0b
BASIC MIDI EVENT     NOTE OFF              note: 26 velocity: 40
EVENT TIME           78
CHANNEL              0b
BASIC MIDI EVENT     NOTE ON               note: 26 velocity: 48
EVENT TIME           168
CHANNEL              0b
BASIC MIDI EVENT     NOTE OFF              note: 26 velocity: 40
EVENT TIME           78
CHANNEL              0b
BASIC MIDI EVENT     NOTE ON               note: 25 velocity: 48
EVENT TIME           168
CHANNEL              0b
BASIC MIDI EVENT     NOTE OFF              note: 25 velocity: 40
EVENT TIME           78
CHANNEL              0b
BASIC MIDI EVENT     NOTE ON               note: 25 velocity: 48
EVENT TIME           168
CHANNEL              0b
BASIC MIDI EVENT     NOTE OFF              note: 25 velocity: 40
EVENT TIME           78
CHANNEL              0b
BASIC MIDI EVENT     NOTE ON               note: 25 velocity: 48
EVENT TIME           168
CHANNEL              0b
BASIC MIDI EVENT     NOTE OFF              note: 25 velocity: 40
EVENT TIME           78
CHANNEL              0b
BASIC MIDI EVENT     NOTE ON               note: 25 velocity: 48
EVENT TIME           168
CHANNEL              0b
BASIC MIDI EVENT     NOTE OFF              note: 25 velocity: 40
EVENT TIME           78
CHANNEL              0b
BASIC MIDI EVENT     NOTE ON               note: 24 velocity: 48
EVENT TIME           168
CHANNEL              0b
BASIC MIDI EVENT     NOTE OFF              note: 24 velocity: 40
EVENT TIME           78
CHANNEL              0b
BASIC MIDI EVENT     NOTE ON               note: 24 velocity: 48
EVENT TIME           168
CHANNEL              0b
BASIC MIDI EVENT     NOTE OFF              note: 24 velocity: 40
EVENT TIME           78
CHANNEL              0b
BASIC MIDI EVENT     NOTE ON               note: 24 velocity: 48
EVENT TIME           168
CHANNEL              0b
BASIC MIDI EVENT     NOTE OFF              note: 24 velocity: 40
EVENT TIME           78
CHANNEL              0b
BASIC MIDI EVENT     NOTE ON               note: 24 velocity: 48
EVENT TIME           168
CHANNEL              0b
BASIC MIDI EVENT     NOTE OFF              note: 24 velocity: 40
EVENT TIME           78
CHANNEL              0b
BASIC MIDI EVENT     NOTE ON               note: 26 velocity: 48
EVENT TIME           168
CHANNEL              0b
BASIC MIDI EVENT     NOTE OFF              note: 26 velocity: 40
EVENT TIME           78
CHANNEL              0b
BASIC MIDI EVENT     NOTE ON               note: 26 velocity: 48
EVENT TIME           168
CHANNEL              0b
BASIC MIDI EVENT     NOTE OFF              note: 26 velocity: 40
EVENT TIME           78
CHANNEL              0b
BASIC MIDI EVENT     NOTE ON               note: 26 velocity: 48
EVENT TIME           168
CHANNEL              0b
BASIC MIDI EVENT     NOTE OFF              note: 26 velocity: 40
EVENT TIME           78
CHANNEL              0b
BASIC MIDI EVENT     NOTE ON               note: 26 velocity: 48
EVENT TIME           168
CHANNEL              0b
BASIC MIDI EVENT     NOTE OFF              note: 26 velocity: 40
EVENT TIME           78
CHANNEL              0b
BASIC MIDI EVENT     NOTE ON               note: 24 velocity: 48
EVENT TIME           168
CHANNEL              0b
BASIC MIDI EVENT     NOTE OFF              note: 24 velocity: 40
EVENT TIME           78
CHANNEL              0b
BASIC MIDI EVENT     NOTE ON               note: 24 velocity: 48
EVENT TIME           168
CHANNEL              0b
BASIC MIDI EVENT     NOTE OFF              note: 24 velocity: 40
EVENT TIME           78
CHANNEL              0b
BASIC MIDI EVENT     NOTE ON               note: 24 velocity: 48
EVENT TIME           168
CHANNEL              0b
BASIC MIDI EVENT     NOTE OFF              note: 24 velocity: 40
EVENT TIME           78
CHANNEL              0b
BASIC MIDI EVENT     NOTE ON               note: 24 velocity: 48
EVENT TIME           168
CHANNEL              0b
BASIC MIDI EVENT     NOTE OFF              note: 24 velocity: 40
EVENT TIME           78
CHANNEL              0b
BASIC MIDI EVENT     NOTE ON               note: 26 velocity: 48
EVENT TIME           168
CHANNEL              0b
BASIC MIDI EVENT     NOTE OFF              note: 26 velocity: 40
EVENT TIME           78
CHANNEL              0b
BASIC MIDI EVENT     NOTE ON               note: 26 velocity: 48
EVENT TIME           168
CHANNEL              0b
BASIC MIDI EVENT     NOTE OFF              note: 26 velocity: 40
EVENT TIME           78
CHANNEL              0b
BASIC MIDI EVENT     NOTE ON               note: 26 velocity: 48
EVENT TIME           168
CHANNEL              0b
BASIC MIDI EVENT     NOTE OFF              note: 26 velocity: 40
EVENT TIME           78
CHANNEL              0b
BASIC MIDI EVENT     NOTE ON               note: 26 velocity: 48
EVENT TIME           168
CHANNEL              0b
BASIC MIDI EVENT     NOTE OFF              note: 26 velocity: 40
EVENT TIME           78
CHANNEL              0b
BASIC MIDI EVENT     NOTE ON               note: 28 velocity: 48
EVENT TIME           168
CHANNEL              0b
BASIC MIDI EVENT     NOTE OFF              note: 28 velocity: 40
EVENT TIME           168
CHANNEL              0b
BASIC MIDI EVENT     NOTE ON               note: 23 velocity: 48
EVENT TIME           168
CHANNEL              0b
BASIC MIDI EVENT     NOTE OFF              note: 23 velocity: 40
EVENT TIME           168
CHANNEL              0b
BASIC MIDI EVENT     NOTE ON               note: 26 velocity: 48
EVENT TIME           168
CHANNEL              0b
BASIC MIDI EVENT     NOTE OFF              note: 26 velocity: 40
EVENT TIME           168
CHANNEL              0b
BASIC MIDI EVENT     NOTE ON               note: 21 velocity: 48
EVENT TIME           168
CHANNEL              0b
BASIC MIDI EVENT     NOTE OFF              note: 21 velocity: 40
EVENT TIME           168
CHANNEL              0b
BASIC MIDI EVENT     NOTE ON               note: 24 velocity: 48
EVENT TIME           168
CHANNEL              0b
BASIC MIDI EVENT     NOTE OFF              note: 24 velocity: 40
EVENT TIME           78
CHANNEL              0b
BASIC MIDI EVENT     NOTE ON               note: 23 velocity: 48
EVENT TIME           168
CHANNEL              0b
BASIC MIDI EVENT     NOTE OFF              note: 23 velocity: 40
EVENT TIME           0
META EVENT           END OF TRACK        
INFO: Initializing raylib 5.5
INFO: Platform backend: DESKTOP (GLFW)
INFO: Supported raylib modules:
INFO:     > rcore:..... loaded (mandatory)
INFO:     > rlgl:...... loaded (mandatory)
INFO:     > rshapes:... loaded (optional)
INFO:     > rtextures:. loaded (optional)
INFO:     > rtext:..... loaded (optional)
INFO:     > rmodels:... loaded (optional)
INFO:     > raudio:.... loaded (optional)
INFO: DISPLAY: Trying to enable MSAA x4
INFO: DISPLAY: Device initialized successfully
INFO:     > Display size: 1366 x 768
INFO:     > Screen size:  1280 x 720
INFO:     > Render size:  1280 x 720
INFO:     > Viewport offsets: 0, 0
INFO: GLAD: OpenGL extensions loaded successfully
INFO: GL: Supported extensions count: 217
INFO: GL: OpenGL device information:
INFO:     > Vendor:   Intel
INFO:     > Renderer: Mesa Intel(R) HD Graphics 4400 (HSW GT2)
INFO:     > Version:  4.6 (Core Profile) Mesa 25.3.5-arch1.1
INFO:     > GLSL:     4.60
INFO: GL: VAO extension detected, VAO functions loaded successfully
INFO: GL: NPOT textures extension detected, full NPOT textures supported
INFO: GL: DXT compressed textures supported
INFO: GL: ETC2/EAC compressed textures supported
INFO: PLATFORM: DESKTOP (GLFW - X11): Initialized successfully
INFO: TEXTURE: [ID 1] Texture loaded successfully (1x1 | R8G8B8A8 | 1 mipmaps)
INFO: TEXTURE: [ID 1] Default texture loaded successfully
INFO: SHADER: [ID 1] Vertex shader compiled successfully
INFO: SHADER: [ID 2] Fragment shader compiled successfully
INFO: SHADER: [ID 3] Program shader loaded successfully
INFO: SHADER: [ID 3] Default shader loaded successfully
INFO: RLGL: Render batch vertex buffers loaded successfully in RAM (CPU)
INFO: RLGL: Render batch vertex buffers loaded successfully in VRAM (GPU)
INFO: RLGL: Default OpenGL state initialized successfully
INFO: TEXTURE: [ID 2] Texture loaded successfully (128x128 | GRAY_ALPHA | 1 mipmaps)
INFO: FONT: Default font loaded successfully (224 glyphs)
INFO: SYSTEM: Working Directory: /home/lacruz/Documents/dev/git/ear-trainer-v2
INFO: AUDIO: Device initialized successfully
INFO:     > Backend:       miniaudio | PulseAudio
INFO:     > Format:        32-bit IEEE Floating Point -> 32-bit Signed Integer
INFO:     > Channels:      2 -> 2
INFO:     > Sample rate:   44100 -> 44100
INFO:     > Periods size:  3304
INFO: STREAM: Initialized successfully (44100 Hz, 32 bit, Stereo)
INFO: TIMER: Target time per frame: 10.000 milliseconds
